<?xml version="1.0" encoding="utf-8"?>
<!-- Generator: Adobe Illustrator 22.1.0, SVG Export Plug-In . SVG Version: 6.00 Build 0)  -->
<svg version="1.1" id="Calque_1" xmlns="http://www.w3.org/2000/svg" xmlns:xlink="http://www.w3.org/1999/xlink" x="0px" y="0px"
	 viewBox="0 0 368.9 158.8" style="enable-background:new 0 0 368.9 158.8;" xml:space="preserve">
<style type="text/css">
	.st0{fill:#E6142D;}
</style>
<g>
	<path class="st0" d="M46.7,75.7c0,0,4.7,4.5,10.7,4.5c3.3,0,6.2-1.7,6.2-5.2c0-7.7-20.3-6.4-20.3-19.6c0-7.1,6.2-12.5,14.4-12.5
		c8.5,0,12.8,4.6,12.8,4.6L67.2,54c0,0-4.1-3.8-9.5-3.8c-3.6,0-6.5,2.1-6.5,5.1c0,7.6,20.2,5.8,20.2,19.5c0,6.8-5.2,12.6-14.2,12.6
		c-9.6,0-14.8-5.9-14.8-5.9L46.7,75.7z"/>
	<path class="st0" d="M89.6,58.2c7.3,0,10.7,4.1,10.7,4.1l-3.1,4.7c0,0-2.9-3-7.3-3c-5.1,0-8.5,3.9-8.5,8.6c0,4.7,3.4,8.7,8.7,8.7
		c4.7,0,8.2-3.5,8.2-3.5l2.7,4.9c0,0-4,4.5-11.5,4.5c-9.2,0-15.1-6.5-15.1-14.6C74.4,64.9,80.3,58.2,89.6,58.2"/>
	<path class="st0" d="M105.1,48h6.9v6.2h-6.9V48z M105.1,58.9h6.9v27.8h-6.9V58.9z"/>
	<path class="st0" d="M130.8,58.2c8,0,12.3,5.8,12.3,13.2c0,0.8-0.2,2.7-0.2,2.7h-19.2c0.4,4.9,4.2,7.4,8.4,7.4c4.5,0,8-3.1,8-3.1
		l2.7,5c0,0-4.3,4-11.2,4c-9.2,0-15-6.7-15-14.6C116.6,64.2,122.5,58.2,130.8,58.2 M136.1,69.4c-0.1-3.8-2.5-5.8-5.5-5.8
		c-3.5,0-6,2.2-6.7,5.8H136.1z"/>
	<path class="st0" d="M147.8,58.9h6.7v3.2c0,1-0.1,1.9-0.1,1.9h0.1c1.2-2.3,4.3-5.8,9.9-5.8c6.2,0,9.7,3.2,9.7,10.6v17.9h-6.9V70.2
		c0-3.4-0.9-5.7-4.4-5.7c-3.7,0-6.4,2.3-7.5,5.7c-0.4,1.1-0.5,2.4-0.5,3.7v12.8h-6.9V58.9z"/>
	<path class="st0" d="M193.2,58.2c7.3,0,10.7,4.1,10.7,4.1l-3.1,4.7c0,0-2.9-3-7.3-3c-5.1,0-8.5,3.9-8.5,8.6c0,4.7,3.4,8.7,8.7,8.7
		c4.7,0,8.2-3.5,8.2-3.5l2.7,4.9c0,0-4,4.5-11.5,4.5c-9.2,0-15.1-6.5-15.1-14.6C178.1,64.9,184,58.2,193.2,58.2"/>
	<path class="st0" d="M221,58.2c8,0,12.3,5.8,12.3,13.2c0,0.8-0.2,2.7-0.2,2.7h-19.2c0.4,4.9,4.2,7.4,8.4,7.4c4.5,0,8-3.1,8-3.1
		l2.7,5c0,0-4.3,4-11.2,4c-9.2,0-15-6.7-15-14.6C206.8,64.2,212.7,58.2,221,58.2 M226.3,69.4c-0.1-3.8-2.5-5.8-5.5-5.8
		c-3.5,0-6,2.2-6.7,5.8H226.3z"/>
	<path class="st0" d="M239.9,78.4c0,0,3.1,3.1,7.6,3.1c2,0,3.7-0.9,3.7-2.5c0-4.1-13.5-3.6-13.5-12.6c0-5.2,4.6-8.2,10.6-8.2
		c6.3,0,9.3,3.2,9.3,3.2l-2.6,5.1c0,0-2.6-2.4-6.8-2.4c-1.8,0-3.5,0.8-3.5,2.5c0,3.9,13.5,3.4,13.5,12.4c0,4.6-4,8.4-10.6,8.4
		c-6.9,0-10.8-4.1-10.8-4.1L239.9,78.4z"/>
	<path class="st0" d="M264.3,43.7h16.6c8.1,0,13.7,5.6,13.7,14c0,8.4-5.6,14.2-13.7,14.2h-8.8v14.8h-7.8V43.7z M279.4,65.1
		c4.5,0,7.2-2.9,7.2-7.4c0-4.4-2.7-7.3-7.1-7.3h-7.4v14.7H279.4z"/>
	<path class="st0" d="M310.6,58.2c8.5,0,15.3,6.1,15.3,14.6c0,8.6-6.8,14.6-15.3,14.6c-8.5,0-15.3-6-15.3-14.6
		C295.3,64.3,302.1,58.2,310.6,58.2 M310.7,81.5c4.5,0,8.2-3.5,8.2-8.7c0-5.1-3.8-8.7-8.2-8.7c-4.5,0-8.3,3.5-8.3,8.7
		C302.4,78,306.1,81.5,310.7,81.5"/>
</g>
<g>
	<path class="st0" d="M43.7,100.9h5.1c4.6,0,7.6,2.7,7.6,7.4c0,4.7-3,7.5-7.6,7.5h-5.1V100.9z M48.6,113.5c3,0,5-1.8,5-5.1
		c0-3.3-2-5.1-5-5.1h-2.2v10.2H48.6z"/>
	<path class="st0" d="M59.2,100.9h2.7v14.9h-2.7V100.9z"/>
	<path class="st0" d="M66.4,100.9h2.9l2.9,7.4c0.3,0.9,0.8,2.2,0.8,2.2h0c0,0,0.4-1.3,0.7-2.2l2.9-7.4h2.9l1.2,14.9h-2.7l-0.6-8.3
		c-0.1-1,0-2.3,0-2.3h0c0,0-0.4,1.4-0.8,2.3l-2.4,5.8h-2.4l-2.4-5.8c-0.4-0.9-0.8-2.3-0.8-2.3h0c0,0,0,1.3,0,2.3l-0.6,8.3h-2.7
		L66.4,100.9z"/>
	<path class="st0" d="M84.1,100.9H93v2.3h-6.2v3.9h5v2.3h-5v4h6.6v2.3h-9.3V100.9z"/>
	<path class="st0" d="M95.4,108.7h6.3v2.3h-6.3V108.7z"/>
	<path class="st0" d="M105,112c0,0,1.6,1.6,3.7,1.6c1.1,0,2.2-0.6,2.2-1.8c0-2.7-7-2.2-7-6.8c0-2.5,2.1-4.3,5-4.3
		c2.9,0,4.5,1.6,4.5,1.6l-1.2,2.2c0,0-1.4-1.3-3.3-1.3c-1.3,0-2.2,0.7-2.2,1.8c0,2.6,7,2,7,6.8c0,2.4-1.8,4.4-4.9,4.4
		c-3.3,0-5.1-2-5.1-2L105,112z"/>
	<path class="st0" d="M116.3,100.9h2.7v6.3h6.8v-6.3h2.7v14.9h-2.7v-6.3H119v6.3h-2.7V100.9z"/>
	<path class="st0" d="M132.7,112c0,0,1.6,1.6,3.7,1.6c1.1,0,2.2-0.6,2.2-1.8c0-2.7-7-2.2-7-6.8c0-2.5,2.1-4.3,5-4.3
		c2.9,0,4.5,1.6,4.5,1.6l-1.2,2.2c0,0-1.4-1.3-3.3-1.3c-1.3,0-2.2,0.7-2.2,1.8c0,2.6,7,2,7,6.8c0,2.4-1.8,4.4-4.9,4.4
		c-3.3,0-5.1-2-5.1-2L132.7,112z"/>
</g>
</svg>
