<?xml version="1.0" encoding="UTF-8"?>
<svg width="149px" height="220px" viewBox="0 0 149 220" version="1.1" xmlns="http://www.w3.org/2000/svg" xmlns:xlink="http://www.w3.org/1999/xlink">
    <!-- Generator: Sketch 55.2 (78181) - https://sketchapp.com -->
    <title>Stroke 1</title>
    <desc>Created with Sketch.</desc>
    <g id="Welcome" stroke="none" stroke-width="1" fill="none" fill-rule="evenodd">
        <g id="Projets-&gt;-Enjeux" transform="translate(-260.000000, -1372.000000)" stroke="#E6142D" stroke-width="0.75">
            <path d="M349.200217,1458.14657 C378.903172,1462.37387 408,1483.50983 408,1520.64817 C408,1557.18268 380.115427,1591 332.227022,1591 C286.460063,1591 261,1562.31572 261,1562.31572 L281.004374,1532.42379 C281.004374,1532.42379 301.311812,1554.16303 329.802512,1554.16303 C352.230854,1554.16303 368.597921,1540.57594 368.597921,1522.15826 C368.597921,1499.51275 347.684356,1488.94423 322.528441,1488.94423 L307.676692,1488.94423 L298.88676,1469.01646 L338.288839,1422.51779 C346.775165,1412.55417 353.746715,1406.21349 353.746715,1406.21349 L353.746715,1405.60967 C353.746715,1405.60967 347.381835,1406.51486 334.651532,1406.51486 L270.39606,1406.51486 L270.39606,1373 L401.937641,1373 L401.937641,1397.45698" id="Stroke-1"></path>
        </g>
    </g>
</svg>