<?xml version="1.0" encoding="utf-8"?>
<!-- Generator: Adobe Illustrator 22.1.0, SVG Export Plug-In . SVG Version: 6.00 Build 0)  -->
<svg version="1.1" id="Calque_1" xmlns="http://www.w3.org/2000/svg" xmlns:xlink="http://www.w3.org/1999/xlink" x="0px" y="0px"
	 viewBox="0 0 790.5 198.3" style="enable-background:new 0 0 790.5 198.3;" xml:space="preserve">
<style type="text/css">
	.st0{fill:#646363;}
</style>
<g id="Calque_2_1_">
</g>
<g id="Calque_1_1_">
</g>
<g id="Calque_3">
	<g>
		<path class="st0" d="M0.5,165.3V8.5c0-4.5,3.4-7.9,7.9-7.9c4.2,0,7.9,3.4,7.9,7.9v45.8h18.4c18.7,0,34.2,15.3,34.2,34.2V139
			c0,18.9-15.5,34.2-34.2,34.2H8.4C3.9,173.2,0.5,169.8,0.5,165.3z M16.3,70.1v87.3h18.4c10,0,18.4-8.2,18.4-18.4V88.5
			c0-10.3-8.4-18.4-18.4-18.4H16.3z"/>
		<path class="st0" d="M99.4,140V87.4c0-18.9,15.3-34.2,34.2-34.2s34.2,15.3,34.2,34.2v26.3c0,4.5-3.4,7.9-7.9,7.9h-44.7V140
			c0,7.4,4.5,14.2,11.3,17.1c6.8,2.9,14.7,1.3,20-3.9c3.2-3.2,8.2-3.2,11.3,0c3.2,2.9,3.2,7.9,0,11c-9.7,9.7-24.5,12.6-37.4,7.4
			C107.6,166.3,99.4,154,99.4,140z M115.2,87.4v18.4c10.5,0,28.9,0,36.8,0c0-7.6,0-18.4,0-18.4c0-10.3-8.2-18.4-18.4-18.4
			S115.2,77.2,115.2,87.4z"/>
		<path class="st0" d="M195.7,45.3c0-22.1,17.9-40,40-40s40,17.9,40,40v89.4c0,11.8-5,22.4-13.2,29.7l12.1,20.8
			c2.4,3.9,0.8,9.2-3.2,11.6c-3.9,2.1-9.2,0.8-11.6-3.2L248,172.8c-3.9,1.1-8.2,1.8-12.4,1.8c-22.1,0-40-17.9-40-40V45.3H195.7z
			 M212.5,45.3v89.4c0,12.9,10.5,23.2,23.2,23.2c12.9,0,23.2-10.3,23.2-23.2V45.3c0-12.6-10.3-23.2-23.2-23.2
			C223.1,22.2,212.5,32.7,212.5,45.3z"/>
		<path class="st0" d="M306.7,139V61.1c0-4.5,3.4-7.9,7.9-7.9s7.9,3.4,7.9,7.9V139c0,10.3,8.2,18.4,18.4,18.4h18.4V61.1
			c0-4.5,3.4-7.9,7.9-7.9s7.9,3.4,7.9,7.9v104.2c0,4.5-3.4,7.9-7.9,7.9h-26.3C322,173.2,306.7,157.9,306.7,139z"/>
		<path class="st0" d="M454,104.8V86.9c0-7.4-4.5-13.7-11-16.6c-6.8-2.6-14.5-1.3-19.5,3.9c-3.2,3.2-8.2,3.2-11.3,0
			c-3.2-3.2-3.2-8.2,0-11c9.7-9.7,24.2-12.6,36.8-7.4c12.6,5.3,20.8,17.4,20.8,31v78.4c0,4.5-3.7,7.9-7.9,7.9h-26.3
			c-18.9,0-34.2-15.3-34.2-34.2s15.3-34.2,34.2-34.2L454,104.8L454,104.8z M435.6,157.4H454v-36.8h-18.4c-10.3,0-18.4,8.2-18.4,18.4
			C417.2,149.2,425.4,157.4,435.6,157.4z"/>
		<path class="st0" d="M503.8,148.2V8.5c0-4.5,3.7-7.9,7.9-7.9c4.5,0,7.9,3.4,7.9,7.9v139.7c0,4.7,2.6,8.9,6.6,11.3
			c3.9,2.1,5.3,7.1,2.9,10.8c-2.1,3.7-6.8,5-10.8,2.9C509.5,167.9,503.8,158.4,503.8,148.2z"/>
		<path class="st0" d="M554.5,21.6c0-5.8,4.7-10.5,10.5-10.5s10.5,4.7,10.5,10.5s-4.7,10.5-10.5,10.5S554.5,27.4,554.5,21.6z
			 M565.1,174.2c-4.2,0-7.9-3.4-7.9-7.9V61.1c0-4.5,3.7-7.9,7.9-7.9c4.5,0,7.9,3.4,7.9,7.9v105.2
			C572.9,170.8,569.5,174.2,565.1,174.2z"/>
	</g>
</g>
</svg>
