<?xml version="1.0" encoding="utf-8"?>
<!-- Generator: Adobe Illustrator 22.0.1, SVG Export Plug-In . SVG Version: 6.00 Build 0)  -->
<svg version="1.1" id="Calque_3" xmlns="http://www.w3.org/2000/svg" xmlns:xlink="http://www.w3.org/1999/xlink" x="0px" y="0px"
	 viewBox="0 0 1121.7 220.5" style="enable-background:new 0 0 1121.7 220.5;" xml:space="preserve">
<style type="text/css">
	.st0{fill:none;stroke:#E6142D;stroke-miterlimit:10;}
	.st1{fill:#666666;}
	.st2{fill:none;stroke:#E6142D;stroke-linecap:round;stroke-linejoin:round;stroke-miterlimit:10;}
	.st3{fill:none;stroke:#E6142D;stroke-linecap:round;stroke-linejoin:round;}
	.st4{fill:none;stroke:#E6142D;stroke-linecap:square;stroke-miterlimit:10;}
	.st5{fill:none;}
	.st6{fill:#E6142D;}
	.st7{fill:#FFFFFF;stroke:#E6142D;stroke-miterlimit:10;}
</style>
<g>
	<path class="st1" d="M64.7,173h-1.1v-6.7c-0.3,0.2-0.6,0.5-1,0.7s-0.8,0.4-1.1,0.5v-1c0.6-0.3,1.1-0.6,1.5-1s0.8-0.8,0.9-1.1h0.7
		V173z"/>
</g>
<g>
	<path class="st1" d="M222.3,172v1h-5.7c0-0.3,0-0.5,0.1-0.7c0.1-0.4,0.4-0.8,0.7-1.1s0.8-0.8,1.4-1.3c0.9-0.8,1.6-1.4,1.9-1.8
		s0.5-0.9,0.5-1.3c0-0.4-0.1-0.8-0.4-1.1s-0.7-0.4-1.2-0.4c-0.5,0-0.9,0.2-1.2,0.5s-0.5,0.7-0.5,1.3l-1.1-0.1
		c0.1-0.8,0.4-1.4,0.8-1.8s1.1-0.6,2-0.6c0.8,0,1.5,0.2,2,0.7s0.7,1,0.7,1.7c0,0.3-0.1,0.7-0.2,1s-0.4,0.7-0.7,1s-0.9,0.9-1.6,1.5
		c-0.6,0.5-1,0.9-1.2,1.1s-0.3,0.4-0.4,0.6H222.3z"/>
</g>
<g>
	<path class="st1" d="M372.7,170.8l1.1-0.1c0.1,0.6,0.3,1,0.6,1.3s0.6,0.4,1.1,0.4c0.5,0,0.9-0.2,1.3-0.5s0.5-0.8,0.5-1.3
		c0-0.5-0.2-0.9-0.5-1.2s-0.7-0.5-1.2-0.5c-0.2,0-0.4,0-0.7,0.1l0.1-0.9c0.1,0,0.1,0,0.2,0c0.4,0,0.9-0.1,1.2-0.4s0.5-0.6,0.5-1.1
		c0-0.4-0.1-0.7-0.4-1s-0.6-0.4-1-0.4c-0.4,0-0.8,0.1-1,0.4s-0.4,0.6-0.5,1.2l-1.1-0.2c0.1-0.7,0.4-1.3,0.9-1.6s1-0.6,1.7-0.6
		c0.5,0,0.9,0.1,1.3,0.3s0.7,0.5,0.9,0.8s0.3,0.7,0.3,1.1c0,0.4-0.1,0.7-0.3,1s-0.5,0.5-0.9,0.7c0.5,0.1,0.9,0.4,1.2,0.7
		s0.4,0.8,0.4,1.4c0,0.8-0.3,1.4-0.8,1.9s-1.2,0.8-2.1,0.8c-0.8,0-1.4-0.2-1.9-0.7S372.8,171.5,372.7,170.8z"/>
</g>
<g>
	<path class="st1" d="M532.1,173V171h-3.7v-1l3.9-5.6h0.9v5.6h1.2v1h-1.2v2.1H532.1z M532.1,170v-3.9l-2.7,3.9H532.1z"/>
</g>
<g>
	<path class="st1" d="M684.7,170.8l1.1-0.1c0.1,0.5,0.3,0.9,0.6,1.2s0.7,0.4,1.1,0.4c0.5,0,0.9-0.2,1.3-0.6s0.5-0.9,0.5-1.5
		c0-0.6-0.2-1.1-0.5-1.4s-0.8-0.5-1.3-0.5c-0.3,0-0.6,0.1-0.9,0.2s-0.5,0.4-0.6,0.6l-1-0.1l0.8-4.4h4.3v1h-3.4l-0.5,2.3
		c0.5-0.4,1.1-0.5,1.6-0.5c0.8,0,1.4,0.3,1.9,0.8s0.8,1.2,0.8,2c0,0.8-0.2,1.4-0.7,2c-0.6,0.7-1.3,1-2.3,1c-0.8,0-1.4-0.2-1.9-0.7
		S684.8,171.5,684.7,170.8z"/>
</g>
<g>
	<path class="st1" d="M846.2,166.5l-1,0.1c-0.1-0.4-0.2-0.7-0.4-0.9c-0.3-0.3-0.6-0.5-1.1-0.5c-0.3,0-0.6,0.1-0.9,0.3
		c-0.3,0.2-0.6,0.6-0.8,1.1s-0.3,1.1-0.3,2c0.3-0.4,0.6-0.7,0.9-0.9s0.8-0.3,1.2-0.3c0.7,0,1.3,0.3,1.8,0.8s0.7,1.2,0.7,2
		c0,0.5-0.1,1-0.3,1.5s-0.6,0.8-1,1.1s-0.9,0.4-1.4,0.4c-0.9,0-1.6-0.3-2.2-1s-0.8-1.7-0.8-3.2c0-1.7,0.3-2.9,0.9-3.6
		c0.5-0.7,1.3-1,2.2-1c0.7,0,1.2,0.2,1.7,0.6S846.1,165.9,846.2,166.5z M841.9,170.2c0,0.4,0.1,0.7,0.2,1s0.4,0.6,0.6,0.8
		s0.6,0.3,0.9,0.3c0.4,0,0.8-0.2,1.1-0.5s0.5-0.8,0.5-1.5c0-0.6-0.2-1.1-0.5-1.4s-0.7-0.5-1.2-0.5c-0.5,0-0.9,0.2-1.2,0.5
		S841.9,169.7,841.9,170.2z"/>
</g>
<g>
	<path class="st1" d="M996.6,165.6v-1h5.6v0.8c-0.5,0.6-1.1,1.4-1.6,2.3s-1,2-1.2,3c-0.2,0.7-0.3,1.5-0.4,2.4h-1.1
		c0-0.7,0.1-1.5,0.4-2.4s0.6-1.9,1.1-2.8s1-1.6,1.5-2.2H996.6z"/>
</g>
<g>
	<path class="st1" d="M179.8,198v-8.6h3.2c0.6,0,1,0,1.3,0.1c0.4,0.1,0.8,0.2,1.1,0.4s0.5,0.5,0.7,0.8s0.3,0.7,0.3,1.2
		c0,0.7-0.2,1.3-0.7,1.9s-1.3,0.8-2.5,0.8h-2.2v3.5H179.8z M180.9,193.5h2.2c0.7,0,1.3-0.1,1.6-0.4s0.5-0.7,0.5-1.2
		c0-0.4-0.1-0.7-0.3-0.9s-0.4-0.4-0.7-0.5c-0.2-0.1-0.5-0.1-1.1-0.1h-2.2V193.5z"/>
	<path class="st1" d="M187.7,198v-6.2h0.9v0.9c0.2-0.4,0.5-0.7,0.7-0.9s0.4-0.2,0.7-0.2c0.4,0,0.7,0.1,1.1,0.3l-0.4,1
		c-0.3-0.2-0.5-0.2-0.8-0.2c-0.2,0-0.4,0.1-0.6,0.2s-0.3,0.3-0.4,0.6c-0.1,0.4-0.2,0.8-0.2,1.2v3.3H187.7z"/>
	<path class="st1" d="M191.3,194.9c0-1.2,0.3-2,1-2.6c0.5-0.5,1.2-0.7,2-0.7c0.9,0,1.6,0.3,2.1,0.8s0.8,1.3,0.8,2.3
		c0,0.8-0.1,1.4-0.4,1.9s-0.6,0.8-1,1.1s-1,0.4-1.5,0.4c-0.9,0-1.6-0.3-2.1-0.8S191.3,196,191.3,194.9z M192.4,194.9
		c0,0.8,0.2,1.4,0.5,1.8s0.8,0.6,1.3,0.6c0.5,0,1-0.2,1.3-0.6s0.5-1,0.5-1.8c0-0.8-0.2-1.4-0.5-1.7s-0.8-0.6-1.3-0.6
		c-0.5,0-1,0.2-1.3,0.6S192.4,194.1,192.4,194.9z"/>
	<path class="st1" d="M198.2,198.5l1,0.2c0,0.3,0.2,0.5,0.4,0.7c0.3,0.2,0.6,0.3,1.1,0.3c0.5,0,0.9-0.1,1.1-0.3s0.4-0.5,0.5-0.8
		c0.1-0.2,0.1-0.7,0.1-1.4c-0.5,0.5-1,0.8-1.7,0.8c-0.9,0-1.5-0.3-2-0.9s-0.7-1.4-0.7-2.2c0-0.6,0.1-1.1,0.3-1.6s0.5-0.9,0.9-1.2
		s0.9-0.4,1.4-0.4c0.7,0,1.3,0.3,1.8,0.9v-0.8h1v5.4c0,1-0.1,1.7-0.3,2.1s-0.5,0.7-0.9,1s-1,0.4-1.6,0.4c-0.7,0-1.3-0.2-1.8-0.5
		S198.1,199.2,198.2,198.5z M199,194.8c0,0.8,0.2,1.4,0.5,1.8s0.7,0.6,1.2,0.6c0.5,0,0.9-0.2,1.2-0.6s0.5-1,0.5-1.8
		c0-0.8-0.2-1.3-0.5-1.7s-0.7-0.6-1.2-0.6c-0.5,0-0.9,0.2-1.2,0.6S199,194.1,199,194.8z"/>
	<path class="st1" d="M205,198v-6.2h0.9v0.9c0.2-0.4,0.5-0.7,0.7-0.9s0.4-0.2,0.7-0.2c0.4,0,0.7,0.1,1.1,0.3l-0.4,1
		c-0.3-0.2-0.5-0.2-0.8-0.2c-0.2,0-0.4,0.1-0.6,0.2s-0.3,0.3-0.4,0.6c-0.1,0.4-0.2,0.8-0.2,1.2v3.3H205z"/>
	<path class="st1" d="M213.1,197.3c-0.4,0.3-0.8,0.6-1.1,0.7s-0.7,0.2-1.2,0.2c-0.7,0-1.2-0.2-1.6-0.5s-0.6-0.8-0.6-1.3
		c0-0.3,0.1-0.6,0.2-0.8s0.3-0.5,0.5-0.6s0.5-0.3,0.8-0.3c0.2-0.1,0.5-0.1,0.9-0.2c0.9-0.1,1.5-0.2,1.9-0.4c0-0.1,0-0.2,0-0.3
		c0-0.4-0.1-0.7-0.3-0.9c-0.3-0.2-0.7-0.4-1.2-0.4c-0.5,0-0.9,0.1-1.1,0.3s-0.4,0.5-0.5,0.9l-1-0.1c0.1-0.4,0.2-0.8,0.5-1.1
		s0.5-0.5,0.9-0.6s0.9-0.2,1.4-0.2c0.5,0,1,0.1,1.3,0.2s0.6,0.3,0.7,0.5s0.3,0.4,0.3,0.7c0,0.2,0.1,0.5,0.1,1v1.4c0,1,0,1.6,0.1,1.9
		s0.1,0.5,0.3,0.7h-1.1C213.2,197.8,213.1,197.6,213.1,197.3z M213,194.9c-0.4,0.2-1,0.3-1.7,0.4c-0.4,0.1-0.7,0.1-0.9,0.2
		s-0.3,0.2-0.4,0.3s-0.1,0.3-0.1,0.5c0,0.3,0.1,0.5,0.3,0.7s0.5,0.3,0.9,0.3c0.4,0,0.8-0.1,1.1-0.3s0.5-0.4,0.7-0.7
		c0.1-0.2,0.2-0.6,0.2-1.1V194.9z"/>
	<path class="st1" d="M215.7,198v-6.2h0.9v0.9c0.2-0.3,0.5-0.5,0.8-0.7s0.7-0.3,1.1-0.3c0.5,0,0.8,0.1,1.1,0.3s0.5,0.5,0.6,0.8
		c0.5-0.7,1.1-1.1,1.9-1.1c0.6,0,1.1,0.2,1.4,0.5s0.5,0.9,0.5,1.6v4.3h-1v-3.9c0-0.4,0-0.7-0.1-0.9s-0.2-0.3-0.4-0.4
		s-0.4-0.2-0.6-0.2c-0.4,0-0.8,0.1-1.1,0.4s-0.4,0.8-0.4,1.4v3.6h-1.1v-4c0-0.5-0.1-0.8-0.3-1.1s-0.5-0.4-0.8-0.4
		c-0.3,0-0.6,0.1-0.8,0.2s-0.4,0.4-0.5,0.7s-0.2,0.7-0.2,1.3v3.2H215.7z"/>
	<path class="st1" d="M225.7,198v-6.2h0.9v0.9c0.2-0.3,0.5-0.5,0.8-0.7s0.7-0.3,1.1-0.3c0.5,0,0.8,0.1,1.1,0.3s0.5,0.5,0.6,0.8
		c0.5-0.7,1.1-1.1,1.9-1.1c0.6,0,1.1,0.2,1.4,0.5s0.5,0.9,0.5,1.6v4.3h-1v-3.9c0-0.4,0-0.7-0.1-0.9s-0.2-0.3-0.4-0.4
		s-0.4-0.2-0.6-0.2c-0.4,0-0.8,0.1-1.1,0.4s-0.4,0.8-0.4,1.4v3.6h-1.1v-4c0-0.5-0.1-0.8-0.3-1.1s-0.5-0.4-0.8-0.4
		c-0.3,0-0.6,0.1-0.8,0.2s-0.4,0.4-0.5,0.7s-0.2,0.7-0.2,1.3v3.2H225.7z"/>
	<path class="st1" d="M239.7,197.3c-0.4,0.3-0.8,0.6-1.1,0.7s-0.7,0.2-1.2,0.2c-0.7,0-1.2-0.2-1.6-0.5s-0.6-0.8-0.6-1.3
		c0-0.3,0.1-0.6,0.2-0.8s0.3-0.5,0.5-0.6s0.5-0.3,0.8-0.3c0.2-0.1,0.5-0.1,0.9-0.2c0.9-0.1,1.5-0.2,1.9-0.4c0-0.1,0-0.2,0-0.3
		c0-0.4-0.1-0.7-0.3-0.9c-0.3-0.2-0.7-0.4-1.2-0.4c-0.5,0-0.9,0.1-1.1,0.3s-0.4,0.5-0.5,0.9l-1-0.1c0.1-0.4,0.2-0.8,0.5-1.1
		s0.5-0.5,0.9-0.6s0.9-0.2,1.4-0.2c0.5,0,1,0.1,1.3,0.2s0.6,0.3,0.7,0.5s0.3,0.4,0.3,0.7c0,0.2,0.1,0.5,0.1,1v1.4c0,1,0,1.6,0.1,1.9
		s0.1,0.5,0.3,0.7H240C239.8,197.8,239.8,197.6,239.7,197.3z M239.7,194.9c-0.4,0.2-1,0.3-1.7,0.4c-0.4,0.1-0.7,0.1-0.9,0.2
		s-0.3,0.2-0.4,0.3s-0.1,0.3-0.1,0.5c0,0.3,0.1,0.5,0.3,0.7s0.5,0.3,0.9,0.3c0.4,0,0.8-0.1,1.1-0.3s0.5-0.4,0.7-0.7
		c0.1-0.2,0.2-0.6,0.2-1.1V194.9z"/>
	<path class="st1" d="M244.7,197.1l0.2,0.9c-0.3,0.1-0.6,0.1-0.8,0.1c-0.4,0-0.7-0.1-0.9-0.2s-0.4-0.3-0.4-0.5s-0.1-0.6-0.1-1.2
		v-3.6h-0.8v-0.8h0.8v-1.5l1-0.6v2.2h1.1v0.8h-1.1v3.6c0,0.3,0,0.5,0.1,0.6s0.1,0.2,0.2,0.2s0.2,0.1,0.4,0.1
		C244.3,197.1,244.5,197.1,244.7,197.1z"/>
	<path class="st1" d="M245.7,190.7v-1.2h1.1v1.2H245.7z M245.7,198v-6.2h1.1v6.2H245.7z"/>
	<path class="st1" d="M248,194.9c0-1.2,0.3-2,1-2.6c0.5-0.5,1.2-0.7,2-0.7c0.9,0,1.6,0.3,2.1,0.8s0.8,1.3,0.8,2.3
		c0,0.8-0.1,1.4-0.4,1.9s-0.6,0.8-1,1.1s-1,0.4-1.5,0.4c-0.9,0-1.6-0.3-2.1-0.8S248,196,248,194.9z M249,194.9
		c0,0.8,0.2,1.4,0.5,1.8s0.8,0.6,1.3,0.6c0.5,0,1-0.2,1.3-0.6s0.5-1,0.5-1.8c0-0.8-0.2-1.4-0.5-1.7s-0.8-0.6-1.3-0.6
		c-0.5,0-1,0.2-1.3,0.6S249,194.1,249,194.9z"/>
	<path class="st1" d="M255,198v-6.2h0.9v0.9c0.5-0.7,1.1-1,2-1c0.4,0,0.7,0.1,1,0.2s0.5,0.3,0.7,0.5s0.3,0.5,0.3,0.8
		c0,0.2,0.1,0.5,0.1,1v3.8H259v-3.8c0-0.4,0-0.8-0.1-1s-0.2-0.4-0.4-0.5s-0.5-0.2-0.7-0.2c-0.4,0-0.8,0.1-1.2,0.4s-0.5,0.8-0.5,1.6
		v3.4H255z"/>
	<path class="st1" d="M180.4,212.4v-0.8c-0.4,0.6-1,0.9-1.7,0.9c-0.5,0-1-0.1-1.4-0.4s-0.7-0.7-1-1.1s-0.3-1.1-0.3-1.7
		c0-0.6,0.1-1.2,0.3-1.7s0.5-0.9,0.9-1.2s0.9-0.4,1.4-0.4c0.4,0,0.7,0.1,1,0.2s0.5,0.4,0.7,0.6v-3.1h1v8.6H180.4z M177,209.3
		c0,0.8,0.2,1.4,0.5,1.8s0.7,0.6,1.2,0.6c0.5,0,0.9-0.2,1.2-0.6s0.5-1,0.5-1.7c0-0.9-0.2-1.5-0.5-1.9s-0.7-0.6-1.2-0.6
		c-0.5,0-0.9,0.2-1.2,0.6S177,208.5,177,209.3z"/>
	<path class="st1" d="M187.1,212.4v-0.9c-0.5,0.7-1.1,1.1-2,1.1c-0.4,0-0.7-0.1-1-0.2s-0.6-0.3-0.7-0.5s-0.3-0.5-0.3-0.8
		c0-0.2-0.1-0.5-0.1-1v-3.9h1.1v3.5c0,0.6,0,0.9,0.1,1.1c0.1,0.3,0.2,0.5,0.4,0.7s0.5,0.2,0.8,0.2s0.6-0.1,0.9-0.2s0.5-0.4,0.6-0.7
		s0.2-0.7,0.2-1.2v-3.3h1.1v6.2H187.1z"/>
	<path class="st1" d="M197,214.8v-3c-0.2,0.2-0.4,0.4-0.7,0.6s-0.6,0.2-0.9,0.2c-0.7,0-1.4-0.3-1.9-0.9s-0.8-1.4-0.8-2.4
		c0-0.6,0.1-1.2,0.3-1.7s0.5-0.9,0.9-1.1s0.9-0.4,1.4-0.4c0.8,0,1.4,0.3,1.8,1v-0.8h0.9v8.6H197z M193.7,209.3
		c0,0.8,0.2,1.4,0.5,1.8s0.7,0.6,1.2,0.6c0.4,0,0.8-0.2,1.2-0.6s0.5-1,0.5-1.7c0-0.8-0.2-1.5-0.5-1.9s-0.7-0.6-1.2-0.6
		c-0.5,0-0.8,0.2-1.2,0.6S193.7,208.5,193.7,209.3z"/>
	<path class="st1" d="M203.8,212.4v-0.9c-0.5,0.7-1.1,1.1-2,1.1c-0.4,0-0.7-0.1-1-0.2s-0.6-0.3-0.7-0.5s-0.3-0.5-0.3-0.8
		c0-0.2-0.1-0.5-0.1-1v-3.9h1.1v3.5c0,0.6,0,0.9,0.1,1.1c0.1,0.3,0.2,0.5,0.4,0.7s0.5,0.2,0.8,0.2s0.6-0.1,0.9-0.2s0.5-0.4,0.6-0.7
		s0.2-0.7,0.2-1.2v-3.3h1.1v6.2H203.8z"/>
	<path class="st1" d="M210.6,210.4l1.1,0.1c-0.2,0.6-0.5,1.1-1,1.5s-1.1,0.5-1.8,0.5c-0.9,0-1.6-0.3-2.2-0.8s-0.8-1.3-0.8-2.4
		c0-1,0.3-1.9,0.8-2.4s1.2-0.9,2.1-0.9c0.8,0,1.5,0.3,2,0.8s0.8,1.4,0.8,2.4c0,0.1,0,0.2,0,0.3h-4.6c0,0.7,0.2,1.2,0.6,1.6
		s0.8,0.5,1.3,0.5c0.4,0,0.7-0.1,1-0.3S210.5,210.9,210.6,210.4z M207.1,208.7h3.5c0-0.5-0.2-0.9-0.4-1.2c-0.3-0.4-0.8-0.6-1.3-0.6
		c-0.5,0-0.9,0.2-1.2,0.5S207.2,208.2,207.1,208.7z"/>
	<path class="st1" d="M212.6,210.6l1-0.2c0.1,0.4,0.2,0.7,0.5,1s0.6,0.3,1.1,0.3c0.5,0,0.8-0.1,1.1-0.3s0.4-0.4,0.4-0.7
		c0-0.2-0.1-0.4-0.3-0.6c-0.1-0.1-0.5-0.2-1.1-0.4c-0.8-0.2-1.3-0.4-1.6-0.5s-0.5-0.3-0.7-0.6s-0.2-0.5-0.2-0.8
		c0-0.3,0.1-0.5,0.2-0.8s0.3-0.4,0.5-0.6c0.2-0.1,0.4-0.2,0.7-0.3s0.6-0.1,0.9-0.1c0.5,0,0.9,0.1,1.3,0.2s0.6,0.3,0.8,0.6
		s0.3,0.6,0.4,1l-1,0.1c0-0.3-0.2-0.6-0.4-0.8s-0.5-0.3-1-0.3c-0.5,0-0.8,0.1-1,0.2s-0.3,0.3-0.3,0.6c0,0.1,0,0.3,0.1,0.4
		c0.1,0.1,0.2,0.2,0.4,0.3c0.1,0,0.4,0.1,0.9,0.3c0.7,0.2,1.3,0.4,1.6,0.5s0.5,0.3,0.7,0.6s0.3,0.5,0.3,0.9c0,0.4-0.1,0.7-0.3,1
		s-0.5,0.6-0.9,0.7s-0.8,0.3-1.3,0.3c-0.8,0-1.4-0.2-1.8-0.5S212.7,211.2,212.6,210.6z"/>
	<path class="st1" d="M221.3,211.5l0.2,0.9c-0.3,0.1-0.6,0.1-0.8,0.1c-0.4,0-0.7-0.1-0.9-0.2s-0.4-0.3-0.4-0.5s-0.1-0.6-0.1-1.2V207
		h-0.8v-0.8h0.8v-1.5l1-0.6v2.2h1.1v0.8h-1.1v3.6c0,0.3,0,0.5,0.1,0.6s0.1,0.2,0.2,0.2s0.2,0.1,0.4,0.1
		C221,211.5,221.1,211.5,221.3,211.5z"/>
	<path class="st1" d="M222.4,205.1v-1.2h1.1v1.2H222.4z M222.4,212.4v-6.2h1.1v6.2H222.4z"/>
	<path class="st1" d="M224.6,209.3c0-1.2,0.3-2,1-2.6c0.5-0.5,1.2-0.7,2-0.7c0.9,0,1.6,0.3,2.1,0.8s0.8,1.3,0.8,2.3
		c0,0.8-0.1,1.4-0.4,1.9s-0.6,0.8-1,1.1s-1,0.4-1.5,0.4c-0.9,0-1.6-0.3-2.1-0.8S224.6,210.4,224.6,209.3z M225.7,209.3
		c0,0.8,0.2,1.4,0.5,1.8s0.8,0.6,1.3,0.6c0.5,0,1-0.2,1.3-0.6s0.5-1,0.5-1.8c0-0.8-0.2-1.4-0.5-1.7s-0.8-0.6-1.3-0.6
		c-0.5,0-1,0.2-1.3,0.6S225.7,208.5,225.7,209.3z"/>
	<path class="st1" d="M231.7,212.4v-6.2h0.9v0.9c0.5-0.7,1.1-1,2-1c0.4,0,0.7,0.1,1,0.2s0.5,0.3,0.7,0.5s0.3,0.5,0.3,0.8
		c0,0.2,0.1,0.5,0.1,1v3.8h-1.1v-3.8c0-0.4,0-0.8-0.1-1s-0.2-0.4-0.4-0.5s-0.5-0.2-0.7-0.2c-0.4,0-0.8,0.1-1.2,0.4s-0.5,0.8-0.5,1.6
		v3.4H231.7z"/>
	<path class="st1" d="M238.4,212.4v-6.2h0.9v0.9c0.5-0.7,1.1-1,2-1c0.4,0,0.7,0.1,1,0.2s0.5,0.3,0.7,0.5s0.3,0.5,0.3,0.8
		c0,0.2,0.1,0.5,0.1,1v3.8h-1.1v-3.8c0-0.4,0-0.8-0.1-1s-0.2-0.4-0.4-0.5s-0.5-0.2-0.7-0.2c-0.4,0-0.8,0.1-1.2,0.4s-0.5,0.8-0.5,1.6
		v3.4H238.4z"/>
	<path class="st1" d="M249.1,211.7c-0.4,0.3-0.8,0.6-1.1,0.7s-0.7,0.2-1.2,0.2c-0.7,0-1.2-0.2-1.6-0.5s-0.6-0.8-0.6-1.3
		c0-0.3,0.1-0.6,0.2-0.8s0.3-0.5,0.5-0.6s0.5-0.3,0.8-0.3c0.2-0.1,0.5-0.1,0.9-0.2c0.9-0.1,1.5-0.2,1.9-0.4c0-0.1,0-0.2,0-0.3
		c0-0.4-0.1-0.7-0.3-0.9c-0.3-0.2-0.7-0.4-1.2-0.4c-0.5,0-0.9,0.1-1.1,0.3s-0.4,0.5-0.5,0.9l-1-0.1c0.1-0.4,0.2-0.8,0.5-1.1
		s0.5-0.5,0.9-0.6s0.9-0.2,1.4-0.2c0.5,0,1,0.1,1.3,0.2s0.6,0.3,0.7,0.5s0.3,0.4,0.3,0.7c0,0.2,0.1,0.5,0.1,1v1.4c0,1,0,1.6,0.1,1.9
		s0.1,0.5,0.3,0.7h-1.1C249.2,212.2,249.1,212,249.1,211.7z M249,209.3c-0.4,0.2-1,0.3-1.7,0.4c-0.4,0.1-0.7,0.1-0.9,0.2
		s-0.3,0.2-0.4,0.3s-0.1,0.3-0.1,0.5c0,0.3,0.1,0.5,0.3,0.7s0.5,0.3,0.9,0.3c0.4,0,0.8-0.1,1.1-0.3s0.5-0.4,0.7-0.7
		c0.1-0.2,0.2-0.6,0.2-1.1V209.3z"/>
	<path class="st1" d="M251.7,205.1v-1.2h1.1v1.2H251.7z M251.7,212.4v-6.2h1.1v6.2H251.7z"/>
	<path class="st1" d="M254.4,212.4v-6.2h0.9v0.9c0.2-0.4,0.5-0.7,0.7-0.9s0.4-0.2,0.7-0.2c0.4,0,0.7,0.1,1.1,0.3l-0.4,1
		c-0.3-0.2-0.5-0.2-0.8-0.2c-0.2,0-0.4,0.1-0.6,0.2s-0.3,0.3-0.4,0.6c-0.1,0.4-0.2,0.8-0.2,1.2v3.3H254.4z"/>
	<path class="st1" d="M262.6,210.4l1.1,0.1c-0.2,0.6-0.5,1.1-1,1.5s-1.1,0.5-1.8,0.5c-0.9,0-1.6-0.3-2.2-0.8s-0.8-1.3-0.8-2.4
		c0-1,0.3-1.9,0.8-2.4s1.2-0.9,2.1-0.9c0.8,0,1.5,0.3,2,0.8s0.8,1.4,0.8,2.4c0,0.1,0,0.2,0,0.3h-4.6c0,0.7,0.2,1.2,0.6,1.6
		s0.8,0.5,1.3,0.5c0.4,0,0.7-0.1,1-0.3S262.5,210.9,262.6,210.4z M259.2,208.7h3.5c0-0.5-0.2-0.9-0.4-1.2c-0.3-0.4-0.8-0.6-1.3-0.6
		c-0.5,0-0.9,0.2-1.2,0.5S259.2,208.2,259.2,208.7z"/>
</g>
<g>
	<path class="st1" d="M31.9,195l1.1,0.3c-0.2,0.9-0.7,1.6-1.3,2.1c-0.6,0.5-1.4,0.7-2.3,0.7c-0.9,0-1.7-0.2-2.3-0.6s-1-0.9-1.3-1.6
		s-0.5-1.5-0.5-2.3c0-0.9,0.2-1.7,0.5-2.3s0.8-1.2,1.5-1.5s1.3-0.5,2.1-0.5c0.9,0,1.6,0.2,2.2,0.7c0.6,0.4,1,1.1,1.2,1.8l-1.1,0.3
		c-0.2-0.6-0.5-1.1-0.9-1.4s-0.9-0.4-1.4-0.4c-0.7,0-1.2,0.2-1.7,0.5s-0.8,0.7-0.9,1.3s-0.3,1.1-0.3,1.6c0,0.7,0.1,1.4,0.3,1.9
		s0.5,1,1,1.2s0.9,0.4,1.5,0.4c0.6,0,1.2-0.2,1.6-0.6S31.8,195.7,31.9,195z"/>
	<path class="st1" d="M33.9,194.9c0-1.2,0.3-2,1-2.6c0.5-0.5,1.2-0.7,2-0.7c0.9,0,1.6,0.3,2.1,0.8s0.8,1.3,0.8,2.3
		c0,0.8-0.1,1.4-0.4,1.9s-0.6,0.8-1,1.1s-1,0.4-1.5,0.4c-0.9,0-1.6-0.3-2.1-0.8S33.9,196,33.9,194.9z M35,194.9
		c0,0.8,0.2,1.4,0.5,1.8s0.8,0.6,1.3,0.6c0.5,0,1-0.2,1.3-0.6s0.5-1,0.5-1.8c0-0.8-0.2-1.4-0.5-1.7s-0.8-0.6-1.3-0.6
		c-0.5,0-1,0.2-1.3,0.6S35,194.1,35,194.9z"/>
	<path class="st1" d="M40.6,195.5v-1.1h3.2v1.1H40.6z"/>
	<path class="st1" d="M49.1,195.8l1,0.1c-0.1,0.7-0.4,1.3-0.9,1.7s-1,0.6-1.7,0.6c-0.9,0-1.5-0.3-2.1-0.8s-0.8-1.4-0.8-2.4
		c0-0.7,0.1-1.3,0.3-1.8s0.6-0.9,1-1.1s1-0.4,1.5-0.4c0.7,0,1.2,0.2,1.7,0.5s0.7,0.8,0.8,1.5l-1,0.2c-0.1-0.4-0.3-0.7-0.5-0.9
		s-0.5-0.3-0.9-0.3c-0.5,0-1,0.2-1.3,0.6s-0.5,1-0.5,1.8c0,0.8,0.2,1.4,0.5,1.8s0.7,0.6,1.3,0.6c0.4,0,0.8-0.1,1-0.4
		S49,196.3,49.1,195.8z"/>
	<path class="st1" d="M50.6,194.9c0-1.2,0.3-2,1-2.6c0.5-0.5,1.2-0.7,2-0.7c0.9,0,1.6,0.3,2.1,0.8s0.8,1.3,0.8,2.3
		c0,0.8-0.1,1.4-0.4,1.9s-0.6,0.8-1,1.1s-1,0.4-1.5,0.4c-0.9,0-1.6-0.3-2.1-0.8S50.6,196,50.6,194.9z M51.7,194.9
		c0,0.8,0.2,1.4,0.5,1.8s0.8,0.6,1.3,0.6c0.5,0,1-0.2,1.3-0.6s0.5-1,0.5-1.8c0-0.8-0.2-1.4-0.5-1.7s-0.8-0.6-1.3-0.6
		c-0.5,0-1,0.2-1.3,0.6S51.7,194.1,51.7,194.9z"/>
	<path class="st1" d="M57.7,198v-6.2h0.9v0.9c0.5-0.7,1.1-1,2-1c0.4,0,0.7,0.1,1,0.2s0.5,0.3,0.7,0.5s0.3,0.5,0.3,0.8
		c0,0.2,0.1,0.5,0.1,1v3.8h-1.1v-3.8c0-0.4,0-0.8-0.1-1s-0.2-0.4-0.4-0.5s-0.5-0.2-0.7-0.2c-0.4,0-0.8,0.1-1.2,0.4s-0.5,0.8-0.5,1.6
		v3.4H57.7z"/>
	<path class="st1" d="M68.4,195.8l1,0.1c-0.1,0.7-0.4,1.3-0.9,1.7s-1,0.6-1.7,0.6c-0.9,0-1.5-0.3-2.1-0.8S64,196,64,194.9
		c0-0.7,0.1-1.3,0.3-1.8s0.6-0.9,1-1.1s1-0.4,1.5-0.4c0.7,0,1.2,0.2,1.7,0.5s0.7,0.8,0.8,1.5l-1,0.2c-0.1-0.4-0.3-0.7-0.5-0.9
		s-0.5-0.3-0.9-0.3c-0.5,0-1,0.2-1.3,0.6s-0.5,1-0.5,1.8c0,0.8,0.2,1.4,0.5,1.8s0.7,0.6,1.3,0.6c0.4,0,0.8-0.1,1-0.4
		S68.3,196.3,68.4,195.8z"/>
	<path class="st1" d="M74.6,196l1.1,0.1c-0.2,0.6-0.5,1.1-1,1.5s-1.1,0.5-1.8,0.5c-0.9,0-1.6-0.3-2.2-0.8S70,196,70,195
		c0-1,0.3-1.9,0.8-2.4s1.2-0.9,2.1-0.9c0.8,0,1.5,0.3,2,0.8s0.8,1.4,0.8,2.4c0,0.1,0,0.2,0,0.3h-4.6c0,0.7,0.2,1.2,0.6,1.6
		s0.8,0.5,1.3,0.5c0.4,0,0.7-0.1,1-0.3S74.4,196.5,74.6,196z M71.1,194.3h3.5c0-0.5-0.2-0.9-0.4-1.2c-0.3-0.4-0.8-0.6-1.3-0.6
		c-0.5,0-0.9,0.2-1.2,0.5S71.2,193.8,71.1,194.3z"/>
	<path class="st1" d="M77,200.4v-8.6h1v0.8c0.2-0.3,0.5-0.6,0.8-0.7s0.6-0.2,1-0.2c0.5,0,1,0.1,1.4,0.4s0.7,0.7,0.9,1.2
		s0.3,1,0.3,1.6c0,0.6-0.1,1.2-0.3,1.7s-0.6,0.9-1,1.2s-0.9,0.4-1.4,0.4c-0.4,0-0.7-0.1-0.9-0.2s-0.5-0.3-0.7-0.6v3H77z M78,195
		c0,0.8,0.2,1.4,0.5,1.8s0.7,0.6,1.2,0.6c0.5,0,0.9-0.2,1.2-0.6s0.5-1,0.5-1.8c0-0.8-0.2-1.4-0.5-1.8s-0.7-0.6-1.2-0.6
		c-0.4,0-0.8,0.2-1.2,0.6S78,194.2,78,195z"/>
	<path class="st1" d="M86,197.1l0.2,0.9c-0.3,0.1-0.6,0.1-0.8,0.1c-0.4,0-0.7-0.1-0.9-0.2s-0.4-0.3-0.4-0.5s-0.1-0.6-0.1-1.2v-3.6
		h-0.8v-0.8h0.8v-1.5l1-0.6v2.2H86v0.8h-1.1v3.6c0,0.3,0,0.5,0.1,0.6s0.1,0.2,0.2,0.2s0.2,0.1,0.4,0.1
		C85.7,197.1,85.8,197.1,86,197.1z"/>
	<path class="st1" d="M87,190.7v-1.2h1.1v1.2H87z M87,198v-6.2h1.1v6.2H87z"/>
	<path class="st1" d="M89.3,194.9c0-1.2,0.3-2,1-2.6c0.5-0.5,1.2-0.7,2-0.7c0.9,0,1.6,0.3,2.1,0.8s0.8,1.3,0.8,2.3
		c0,0.8-0.1,1.4-0.4,1.9s-0.6,0.8-1,1.1s-1,0.4-1.5,0.4c-0.9,0-1.6-0.3-2.1-0.8S89.3,196,89.3,194.9z M90.4,194.9
		c0,0.8,0.2,1.4,0.5,1.8s0.8,0.6,1.3,0.6c0.5,0,1-0.2,1.3-0.6s0.5-1,0.5-1.8c0-0.8-0.2-1.4-0.5-1.7s-0.8-0.6-1.3-0.6
		c-0.5,0-1,0.2-1.3,0.6S90.4,194.1,90.4,194.9z"/>
	<path class="st1" d="M96.4,198v-6.2h0.9v0.9c0.5-0.7,1.1-1,2-1c0.4,0,0.7,0.1,1,0.2s0.5,0.3,0.7,0.5s0.3,0.5,0.3,0.8
		c0,0.2,0.1,0.5,0.1,1v3.8h-1.1v-3.8c0-0.4,0-0.8-0.1-1s-0.2-0.4-0.4-0.5s-0.5-0.2-0.7-0.2c-0.4,0-0.8,0.1-1.2,0.4s-0.5,0.8-0.5,1.6
		v3.4H96.4z"/>
	<path class="st1" d="M24,212.4v-0.8c-0.4,0.6-1,0.9-1.7,0.9c-0.5,0-1-0.1-1.4-0.4s-0.7-0.7-1-1.1s-0.3-1.1-0.3-1.7
		c0-0.6,0.1-1.2,0.3-1.7s0.5-0.9,0.9-1.2s0.9-0.4,1.4-0.4c0.4,0,0.7,0.1,1,0.2s0.5,0.4,0.7,0.6v-3.1h1v8.6H24z M20.7,209.3
		c0,0.8,0.2,1.4,0.5,1.8s0.7,0.6,1.2,0.6c0.5,0,0.9-0.2,1.2-0.6s0.5-1,0.5-1.7c0-0.9-0.2-1.5-0.5-1.9s-0.7-0.6-1.2-0.6
		c-0.5,0-0.9,0.2-1.2,0.6S20.7,208.5,20.7,209.3z"/>
	<path class="st1" d="M30.7,212.4v-0.9c-0.5,0.7-1.1,1.1-2,1.1c-0.4,0-0.7-0.1-1-0.2s-0.6-0.3-0.7-0.5s-0.3-0.5-0.3-0.8
		c0-0.2-0.1-0.5-0.1-1v-3.9h1.1v3.5c0,0.6,0,0.9,0.1,1.1c0.1,0.3,0.2,0.5,0.4,0.7s0.5,0.2,0.8,0.2s0.6-0.1,0.9-0.2s0.5-0.4,0.6-0.7
		s0.2-0.7,0.2-1.2v-3.3h1.1v6.2H30.7z"/>
	<path class="st1" d="M40.6,214.8v-3c-0.2,0.2-0.4,0.4-0.7,0.6s-0.6,0.2-0.9,0.2c-0.7,0-1.4-0.3-1.9-0.9s-0.8-1.4-0.8-2.4
		c0-0.6,0.1-1.2,0.3-1.7s0.5-0.9,0.9-1.1s0.9-0.4,1.4-0.4c0.8,0,1.4,0.3,1.8,1v-0.8h0.9v8.6H40.6z M37.4,209.3
		c0,0.8,0.2,1.4,0.5,1.8s0.7,0.6,1.2,0.6c0.4,0,0.8-0.2,1.2-0.6s0.5-1,0.5-1.7c0-0.8-0.2-1.5-0.5-1.9s-0.7-0.6-1.2-0.6
		c-0.5,0-0.8,0.2-1.2,0.6S37.4,208.5,37.4,209.3z"/>
	<path class="st1" d="M47.4,212.4v-0.9c-0.5,0.7-1.1,1.1-2,1.1c-0.4,0-0.7-0.1-1-0.2s-0.6-0.3-0.7-0.5s-0.3-0.5-0.3-0.8
		c0-0.2-0.1-0.5-0.1-1v-3.9h1.1v3.5c0,0.6,0,0.9,0.1,1.1c0.1,0.3,0.2,0.5,0.4,0.7s0.5,0.2,0.8,0.2s0.6-0.1,0.9-0.2s0.5-0.4,0.6-0.7
		s0.2-0.7,0.2-1.2v-3.3h1.1v6.2H47.4z"/>
	<path class="st1" d="M54.3,210.4l1.1,0.1c-0.2,0.6-0.5,1.1-1,1.5s-1.1,0.5-1.8,0.5c-0.9,0-1.6-0.3-2.2-0.8s-0.8-1.3-0.8-2.4
		c0-1,0.3-1.9,0.8-2.4s1.2-0.9,2.1-0.9c0.8,0,1.5,0.3,2,0.8s0.8,1.4,0.8,2.4c0,0.1,0,0.2,0,0.3h-4.6c0,0.7,0.2,1.2,0.6,1.6
		s0.8,0.5,1.3,0.5c0.4,0,0.7-0.1,1-0.3S54.1,210.9,54.3,210.4z M50.8,208.7h3.5c0-0.5-0.2-0.9-0.4-1.2c-0.3-0.4-0.8-0.6-1.3-0.6
		c-0.5,0-0.9,0.2-1.2,0.5S50.8,208.2,50.8,208.7z"/>
	<path class="st1" d="M56.3,210.6l1-0.2c0.1,0.4,0.2,0.7,0.5,1s0.6,0.3,1.1,0.3c0.5,0,0.8-0.1,1.1-0.3s0.4-0.4,0.4-0.7
		c0-0.2-0.1-0.4-0.3-0.6c-0.1-0.1-0.5-0.2-1.1-0.4c-0.8-0.2-1.3-0.4-1.6-0.5s-0.5-0.3-0.7-0.6s-0.2-0.5-0.2-0.8
		c0-0.3,0.1-0.5,0.2-0.8s0.3-0.4,0.5-0.6c0.2-0.1,0.4-0.2,0.7-0.3s0.6-0.1,0.9-0.1c0.5,0,0.9,0.1,1.3,0.2s0.6,0.3,0.8,0.6
		s0.3,0.6,0.4,1l-1,0.1c0-0.3-0.2-0.6-0.4-0.8s-0.5-0.3-1-0.3c-0.5,0-0.8,0.1-1,0.2s-0.3,0.3-0.3,0.6c0,0.1,0,0.3,0.1,0.4
		c0.1,0.1,0.2,0.2,0.4,0.3c0.1,0,0.4,0.1,0.9,0.3c0.7,0.2,1.3,0.4,1.6,0.5s0.5,0.3,0.7,0.6s0.3,0.5,0.3,0.9c0,0.4-0.1,0.7-0.3,1
		s-0.5,0.6-0.9,0.7s-0.8,0.3-1.3,0.3c-0.8,0-1.4-0.2-1.8-0.5S56.4,211.2,56.3,210.6z"/>
	<path class="st1" d="M65,211.5l0.2,0.9c-0.3,0.1-0.6,0.1-0.8,0.1c-0.4,0-0.7-0.1-0.9-0.2s-0.4-0.3-0.4-0.5s-0.1-0.6-0.1-1.2V207
		h-0.8v-0.8h0.8v-1.5l1-0.6v2.2H65v0.8h-1.1v3.6c0,0.3,0,0.5,0.1,0.6c0,0.1,0.1,0.2,0.2,0.2s0.2,0.1,0.4,0.1
		C64.6,211.5,64.8,211.5,65,211.5z"/>
	<path class="st1" d="M66,205.1v-1.2h1.1v1.2H66z M66,212.4v-6.2h1.1v6.2H66z"/>
	<path class="st1" d="M68.3,209.3c0-1.2,0.3-2,1-2.6c0.5-0.5,1.2-0.7,2-0.7c0.9,0,1.6,0.3,2.1,0.8s0.8,1.3,0.8,2.3
		c0,0.8-0.1,1.4-0.4,1.9s-0.6,0.8-1,1.1s-1,0.4-1.5,0.4c-0.9,0-1.6-0.3-2.1-0.8S68.3,210.4,68.3,209.3z M69.4,209.3
		c0,0.8,0.2,1.4,0.5,1.8s0.8,0.6,1.3,0.6c0.5,0,1-0.2,1.3-0.6s0.5-1,0.5-1.8c0-0.8-0.2-1.4-0.5-1.7s-0.8-0.6-1.3-0.6
		c-0.5,0-1,0.2-1.3,0.6S69.4,208.5,69.4,209.3z"/>
	<path class="st1" d="M75.4,212.4v-6.2h0.9v0.9c0.5-0.7,1.1-1,2-1c0.4,0,0.7,0.1,1,0.2s0.5,0.3,0.7,0.5s0.3,0.5,0.3,0.8
		c0,0.2,0.1,0.5,0.1,1v3.8h-1.1v-3.8c0-0.4,0-0.8-0.1-1s-0.2-0.4-0.4-0.5s-0.5-0.2-0.7-0.2c-0.4,0-0.8,0.1-1.2,0.4s-0.5,0.8-0.5,1.6
		v3.4H75.4z"/>
	<path class="st1" d="M82,212.4v-6.2H83v0.9c0.5-0.7,1.1-1,2-1c0.4,0,0.7,0.1,1,0.2s0.5,0.3,0.7,0.5s0.3,0.5,0.3,0.8
		c0,0.2,0.1,0.5,0.1,1v3.8H86v-3.8c0-0.4,0-0.8-0.1-1s-0.2-0.4-0.4-0.5S85,207,84.7,207c-0.4,0-0.8,0.1-1.2,0.4s-0.5,0.8-0.5,1.6
		v3.4H82z"/>
	<path class="st1" d="M92.8,211.7c-0.4,0.3-0.8,0.6-1.1,0.7s-0.7,0.2-1.2,0.2c-0.7,0-1.2-0.2-1.6-0.5s-0.6-0.8-0.6-1.3
		c0-0.3,0.1-0.6,0.2-0.8s0.3-0.5,0.5-0.6s0.5-0.3,0.8-0.3c0.2-0.1,0.5-0.1,0.9-0.2c0.9-0.1,1.5-0.2,1.9-0.4c0-0.1,0-0.2,0-0.3
		c0-0.4-0.1-0.7-0.3-0.9c-0.3-0.2-0.7-0.4-1.2-0.4c-0.5,0-0.9,0.1-1.1,0.3s-0.4,0.5-0.5,0.9l-1-0.1c0.1-0.4,0.2-0.8,0.5-1.1
		s0.5-0.5,0.9-0.6s0.9-0.2,1.4-0.2c0.5,0,1,0.1,1.3,0.2s0.6,0.3,0.7,0.5s0.3,0.4,0.3,0.7c0,0.2,0.1,0.5,0.1,1v1.4c0,1,0,1.6,0.1,1.9
		s0.1,0.5,0.3,0.7H93C92.9,212.2,92.8,212,92.8,211.7z M92.7,209.3c-0.4,0.2-1,0.3-1.7,0.4c-0.4,0.1-0.7,0.1-0.9,0.2
		s-0.3,0.2-0.4,0.3s-0.1,0.3-0.1,0.5c0,0.3,0.1,0.5,0.3,0.7s0.5,0.3,0.9,0.3c0.4,0,0.8-0.1,1.1-0.3s0.5-0.4,0.7-0.7
		c0.1-0.2,0.2-0.6,0.2-1.1V209.3z"/>
	<path class="st1" d="M95.4,205.1v-1.2h1.1v1.2H95.4z M95.4,212.4v-6.2h1.1v6.2H95.4z"/>
	<path class="st1" d="M98,212.4v-6.2H99v0.9c0.2-0.4,0.5-0.7,0.7-0.9s0.4-0.2,0.7-0.2c0.4,0,0.7,0.1,1.1,0.3l-0.4,1
		c-0.3-0.2-0.5-0.2-0.8-0.2c-0.2,0-0.4,0.1-0.6,0.2s-0.3,0.3-0.4,0.6c-0.1,0.4-0.2,0.8-0.2,1.2v3.3H98z"/>
	<path class="st1" d="M106.3,210.4l1.1,0.1c-0.2,0.6-0.5,1.1-1,1.5s-1.1,0.5-1.8,0.5c-0.9,0-1.6-0.3-2.2-0.8s-0.8-1.3-0.8-2.4
		c0-1,0.3-1.9,0.8-2.4s1.2-0.9,2.1-0.9c0.8,0,1.5,0.3,2,0.8s0.8,1.4,0.8,2.4c0,0.1,0,0.2,0,0.3h-4.6c0,0.7,0.2,1.2,0.6,1.6
		s0.8,0.5,1.3,0.5c0.4,0,0.7-0.1,1-0.3S106.1,210.9,106.3,210.4z M102.8,208.7h3.5c0-0.5-0.2-0.9-0.4-1.2c-0.3-0.4-0.8-0.6-1.3-0.6
		c-0.5,0-0.9,0.2-1.2,0.5S102.9,208.2,102.8,208.7z"/>
</g>
<g>
	<path class="st1" d="M322.1,198v-7.6h-2.8v-1h6.8v1h-2.8v7.6H322.1z"/>
	<path class="st1" d="M330.1,196l1.1,0.1c-0.2,0.6-0.5,1.1-1,1.5s-1.1,0.5-1.8,0.5c-0.9,0-1.6-0.3-2.2-0.8s-0.8-1.3-0.8-2.4
		c0-1,0.3-1.9,0.8-2.4s1.2-0.9,2.1-0.9c0.8,0,1.5,0.3,2,0.8s0.8,1.4,0.8,2.4c0,0.1,0,0.2,0,0.3h-4.6c0,0.7,0.2,1.2,0.6,1.6
		s0.8,0.5,1.3,0.5c0.4,0,0.7-0.1,1-0.3S329.9,196.5,330.1,196z M326.6,194.3h3.5c0-0.5-0.2-0.9-0.4-1.2c-0.3-0.4-0.8-0.6-1.3-0.6
		c-0.5,0-0.9,0.2-1.2,0.5S326.7,193.8,326.6,194.3z"/>
	<path class="st1" d="M332.1,196.2l1-0.2c0.1,0.4,0.2,0.7,0.5,1s0.6,0.3,1.1,0.3c0.5,0,0.8-0.1,1.1-0.3s0.4-0.4,0.4-0.7
		c0-0.2-0.1-0.4-0.3-0.6c-0.1-0.1-0.5-0.2-1.1-0.4c-0.8-0.2-1.3-0.4-1.6-0.5s-0.5-0.3-0.7-0.6s-0.2-0.5-0.2-0.8
		c0-0.3,0.1-0.5,0.2-0.8s0.3-0.4,0.5-0.6c0.2-0.1,0.4-0.2,0.7-0.3s0.6-0.1,0.9-0.1c0.5,0,0.9,0.1,1.3,0.2s0.6,0.3,0.8,0.6
		s0.3,0.6,0.4,1l-1,0.1c0-0.3-0.2-0.6-0.4-0.8s-0.5-0.3-1-0.3c-0.5,0-0.8,0.1-1,0.2s-0.3,0.3-0.3,0.6c0,0.1,0,0.3,0.1,0.4
		c0.1,0.1,0.2,0.2,0.4,0.3c0.1,0,0.4,0.1,0.9,0.3c0.7,0.2,1.3,0.4,1.6,0.5s0.5,0.3,0.7,0.6s0.3,0.5,0.3,0.9c0,0.4-0.1,0.7-0.3,1
		s-0.5,0.6-0.9,0.7s-0.8,0.3-1.3,0.3c-0.8,0-1.4-0.2-1.8-0.5S332.2,196.8,332.1,196.2z"/>
	<path class="st1" d="M340.8,197.1l0.2,0.9c-0.3,0.1-0.6,0.1-0.8,0.1c-0.4,0-0.7-0.1-0.9-0.2s-0.4-0.3-0.4-0.5s-0.1-0.6-0.1-1.2
		v-3.6h-0.8v-0.8h0.8v-1.5l1-0.6v2.2h1.1v0.8h-1.1v3.6c0,0.3,0,0.5,0.1,0.6s0.1,0.2,0.2,0.2s0.2,0.1,0.4,0.1
		C340.4,197.1,340.6,197.1,340.8,197.1z"/>
	<path class="st1" d="M349.2,198v-0.8c-0.4,0.6-1,0.9-1.7,0.9c-0.5,0-1-0.1-1.4-0.4s-0.7-0.7-1-1.1s-0.3-1.1-0.3-1.7
		c0-0.6,0.1-1.2,0.3-1.7s0.5-0.9,0.9-1.2s0.9-0.4,1.4-0.4c0.4,0,0.7,0.1,1,0.2s0.5,0.4,0.7,0.6v-3.1h1v8.6H349.2z M345.9,194.9
		c0,0.8,0.2,1.4,0.5,1.8s0.7,0.6,1.2,0.6c0.5,0,0.9-0.2,1.2-0.6s0.5-1,0.5-1.7c0-0.9-0.2-1.5-0.5-1.9s-0.7-0.6-1.2-0.6
		c-0.5,0-0.9,0.2-1.2,0.6S345.9,194.1,345.9,194.9z"/>
	<path class="st1" d="M355.9,198v-0.9c-0.5,0.7-1.1,1.1-2,1.1c-0.4,0-0.7-0.1-1-0.2s-0.6-0.3-0.7-0.5s-0.3-0.5-0.3-0.8
		c0-0.2-0.1-0.5-0.1-1v-3.9h1.1v3.5c0,0.6,0,0.9,0.1,1.1c0.1,0.3,0.2,0.5,0.4,0.7s0.5,0.2,0.8,0.2s0.6-0.1,0.9-0.2s0.5-0.4,0.6-0.7
		s0.2-0.7,0.2-1.2v-3.3h1.1v6.2H355.9z"/>
	<path class="st1" d="M365.8,200.4v-3c-0.2,0.2-0.4,0.4-0.7,0.6s-0.6,0.2-0.9,0.2c-0.7,0-1.4-0.3-1.9-0.9s-0.8-1.4-0.8-2.4
		c0-0.6,0.1-1.2,0.3-1.7s0.5-0.9,0.9-1.1s0.9-0.4,1.4-0.4c0.8,0,1.4,0.3,1.8,1v-0.8h0.9v8.6H365.8z M362.6,194.9
		c0,0.8,0.2,1.4,0.5,1.8s0.7,0.6,1.2,0.6c0.4,0,0.8-0.2,1.2-0.6s0.5-1,0.5-1.7c0-0.8-0.2-1.5-0.5-1.9s-0.7-0.6-1.2-0.6
		c-0.5,0-0.8,0.2-1.2,0.6S362.6,194.1,362.6,194.9z"/>
	<path class="st1" d="M372.6,198v-0.9c-0.5,0.7-1.1,1.1-2,1.1c-0.4,0-0.7-0.1-1-0.2s-0.6-0.3-0.7-0.5s-0.3-0.5-0.3-0.8
		c0-0.2-0.1-0.5-0.1-1v-3.9h1.1v3.5c0,0.6,0,0.9,0.1,1.1c0.1,0.3,0.2,0.5,0.4,0.7s0.5,0.2,0.8,0.2s0.6-0.1,0.9-0.2s0.5-0.4,0.6-0.7
		s0.2-0.7,0.2-1.2v-3.3h1.1v6.2H372.6z"/>
	<path class="st1" d="M379.4,196l1.1,0.1c-0.2,0.6-0.5,1.1-1,1.5s-1.1,0.5-1.8,0.5c-0.9,0-1.6-0.3-2.2-0.8s-0.8-1.3-0.8-2.4
		c0-1,0.3-1.9,0.8-2.4s1.2-0.9,2.1-0.9c0.8,0,1.5,0.3,2,0.8s0.8,1.4,0.8,2.4c0,0.1,0,0.2,0,0.3h-4.6c0,0.7,0.2,1.2,0.6,1.6
		s0.8,0.5,1.3,0.5c0.4,0,0.7-0.1,1-0.3S379.3,196.5,379.4,196z M376,194.3h3.5c0-0.5-0.2-0.9-0.4-1.2c-0.3-0.4-0.8-0.6-1.3-0.6
		c-0.5,0-0.9,0.2-1.2,0.5S376,193.8,376,194.3z"/>
	<path class="st1" d="M381.4,196.2l1-0.2c0.1,0.4,0.2,0.7,0.5,1s0.6,0.3,1.1,0.3c0.5,0,0.8-0.1,1.1-0.3s0.4-0.4,0.4-0.7
		c0-0.2-0.1-0.4-0.3-0.6c-0.1-0.1-0.5-0.2-1.1-0.4c-0.8-0.2-1.3-0.4-1.6-0.5s-0.5-0.3-0.7-0.6s-0.2-0.5-0.2-0.8
		c0-0.3,0.1-0.5,0.2-0.8s0.3-0.4,0.5-0.6c0.2-0.1,0.4-0.2,0.7-0.3s0.6-0.1,0.9-0.1c0.5,0,0.9,0.1,1.3,0.2s0.6,0.3,0.8,0.6
		s0.3,0.6,0.4,1l-1,0.1c0-0.3-0.2-0.6-0.4-0.8s-0.5-0.3-1-0.3c-0.5,0-0.8,0.1-1,0.2s-0.3,0.3-0.3,0.6c0,0.1,0,0.3,0.1,0.4
		c0.1,0.1,0.2,0.2,0.4,0.3c0.1,0,0.4,0.1,0.9,0.3c0.7,0.2,1.3,0.4,1.6,0.5s0.5,0.3,0.7,0.6s0.3,0.5,0.3,0.9c0,0.4-0.1,0.7-0.3,1
		s-0.5,0.6-0.9,0.7s-0.8,0.3-1.3,0.3c-0.8,0-1.4-0.2-1.8-0.5S381.6,196.8,381.4,196.2z"/>
	<path class="st1" d="M390.2,197.1l0.2,0.9c-0.3,0.1-0.6,0.1-0.8,0.1c-0.4,0-0.7-0.1-0.9-0.2s-0.4-0.3-0.4-0.5s-0.1-0.6-0.1-1.2
		v-3.6h-0.8v-0.8h0.8v-1.5l1-0.6v2.2h1.1v0.8h-1.1v3.6c0,0.3,0,0.5,0.1,0.6s0.1,0.2,0.2,0.2s0.2,0.1,0.4,0.1
		C389.8,197.1,390,197.1,390.2,197.1z"/>
	<path class="st1" d="M391.2,190.7v-1.2h1.1v1.2H391.2z M391.2,198v-6.2h1.1v6.2H391.2z"/>
	<path class="st1" d="M393.5,194.9c0-1.2,0.3-2,1-2.6c0.5-0.5,1.2-0.7,2-0.7c0.9,0,1.6,0.3,2.1,0.8s0.8,1.3,0.8,2.3
		c0,0.8-0.1,1.4-0.4,1.9s-0.6,0.8-1,1.1s-1,0.4-1.5,0.4c-0.9,0-1.6-0.3-2.1-0.8S393.5,196,393.5,194.9z M394.6,194.9
		c0,0.8,0.2,1.4,0.5,1.8s0.8,0.6,1.3,0.6c0.5,0,1-0.2,1.3-0.6s0.5-1,0.5-1.8c0-0.8-0.2-1.4-0.5-1.8s-0.8-0.6-1.3-0.6
		c-0.5,0-1,0.2-1.3,0.6S394.6,194.1,394.6,194.9z"/>
	<path class="st1" d="M400.5,198v-6.2h0.9v0.9c0.5-0.7,1.1-1,2-1c0.4,0,0.7,0.1,1,0.2s0.5,0.3,0.7,0.5s0.3,0.5,0.3,0.8
		c0,0.2,0.1,0.5,0.1,1v3.8h-1.1v-3.8c0-0.4,0-0.8-0.1-1s-0.2-0.4-0.4-0.5s-0.5-0.2-0.7-0.2c-0.4,0-0.8,0.1-1.2,0.4s-0.5,0.8-0.5,1.6
		v3.4H400.5z"/>
	<path class="st1" d="M407.2,198v-6.2h0.9v0.9c0.5-0.7,1.1-1,2-1c0.4,0,0.7,0.1,1,0.2s0.5,0.3,0.7,0.5s0.3,0.5,0.3,0.8
		c0,0.2,0.1,0.5,0.1,1v3.8h-1.1v-3.8c0-0.4,0-0.8-0.1-1s-0.2-0.4-0.4-0.5s-0.5-0.2-0.7-0.2c-0.4,0-0.8,0.1-1.2,0.4s-0.5,0.8-0.5,1.6
		v3.4H407.2z"/>
	<path class="st1" d="M417.9,197.3c-0.4,0.3-0.8,0.6-1.1,0.7s-0.7,0.2-1.2,0.2c-0.7,0-1.2-0.2-1.6-0.5s-0.6-0.8-0.6-1.3
		c0-0.3,0.1-0.6,0.2-0.8s0.3-0.5,0.5-0.6s0.5-0.3,0.8-0.3c0.2-0.1,0.5-0.1,0.9-0.2c0.9-0.1,1.5-0.2,1.9-0.4c0-0.1,0-0.2,0-0.3
		c0-0.4-0.1-0.7-0.3-0.9c-0.3-0.2-0.7-0.4-1.2-0.4c-0.5,0-0.9,0.1-1.1,0.3s-0.4,0.5-0.5,0.9l-1-0.1c0.1-0.4,0.2-0.8,0.5-1.1
		s0.5-0.5,0.9-0.6s0.9-0.2,1.4-0.2c0.5,0,1,0.1,1.3,0.2s0.6,0.3,0.7,0.5s0.3,0.4,0.3,0.7c0,0.2,0.1,0.5,0.1,1v1.4c0,1,0,1.6,0.1,1.9
		s0.1,0.5,0.3,0.7h-1.1C418,197.8,418,197.6,417.9,197.3z M417.9,194.9c-0.4,0.2-1,0.3-1.7,0.4c-0.4,0.1-0.7,0.1-0.9,0.2
		s-0.3,0.2-0.4,0.3s-0.1,0.3-0.1,0.5c0,0.3,0.1,0.5,0.3,0.7s0.5,0.3,0.9,0.3c0.4,0,0.8-0.1,1.1-0.3s0.5-0.4,0.7-0.7
		c0.1-0.2,0.2-0.6,0.2-1.1V194.9z"/>
	<path class="st1" d="M420.6,190.7v-1.2h1.1v1.2H420.6z M420.6,198v-6.2h1.1v6.2H420.6z"/>
	<path class="st1" d="M423.2,198v-6.2h0.9v0.9c0.2-0.4,0.5-0.7,0.7-0.9s0.4-0.2,0.7-0.2c0.4,0,0.7,0.1,1.1,0.3l-0.4,1
		c-0.3-0.2-0.5-0.2-0.8-0.2c-0.2,0-0.4,0.1-0.6,0.2s-0.3,0.3-0.4,0.6c-0.1,0.4-0.2,0.8-0.2,1.2v3.3H423.2z"/>
	<path class="st1" d="M431.5,196l1.1,0.1c-0.2,0.6-0.5,1.1-1,1.5s-1.1,0.5-1.8,0.5c-0.9,0-1.6-0.3-2.2-0.8s-0.8-1.3-0.8-2.4
		c0-1,0.3-1.9,0.8-2.4s1.2-0.9,2.1-0.9c0.8,0,1.5,0.3,2,0.8s0.8,1.4,0.8,2.4c0,0.1,0,0.2,0,0.3H428c0,0.7,0.2,1.2,0.6,1.6
		s0.8,0.5,1.3,0.5c0.4,0,0.7-0.1,1-0.3S431.3,196.5,431.5,196z M428,194.3h3.5c0-0.5-0.2-0.9-0.4-1.2c-0.3-0.4-0.8-0.6-1.3-0.6
		c-0.5,0-0.9,0.2-1.2,0.5S428.1,193.8,428,194.3z"/>
</g>
<g>
	<path class="st1" d="M481.1,195l1.1,0.3c-0.2,0.9-0.7,1.6-1.3,2.1s-1.4,0.7-2.3,0.7c-0.9,0-1.7-0.2-2.3-0.6s-1-0.9-1.3-1.6
		s-0.5-1.5-0.5-2.3c0-0.9,0.2-1.7,0.5-2.3s0.8-1.2,1.5-1.5s1.3-0.5,2.1-0.5c0.9,0,1.6,0.2,2.2,0.7s1,1.1,1.2,1.8l-1.1,0.3
		c-0.2-0.6-0.5-1.1-0.9-1.4s-0.9-0.4-1.4-0.4c-0.7,0-1.2,0.2-1.7,0.5s-0.8,0.7-0.9,1.3s-0.3,1.1-0.3,1.6c0,0.7,0.1,1.4,0.3,1.9
		s0.5,1,1,1.2s0.9,0.4,1.5,0.4c0.6,0,1.2-0.2,1.6-0.6S481,195.7,481.1,195z"/>
	<path class="st1" d="M483.1,194.9c0-1.2,0.3-2,1-2.6c0.5-0.5,1.2-0.7,2-0.7c0.9,0,1.6,0.3,2.1,0.8s0.8,1.3,0.8,2.3
		c0,0.8-0.1,1.4-0.4,1.9s-0.6,0.8-1,1.1s-1,0.4-1.5,0.4c-0.9,0-1.6-0.3-2.1-0.8S483.1,196,483.1,194.9z M484.2,194.9
		c0,0.8,0.2,1.4,0.5,1.8s0.8,0.6,1.3,0.6c0.5,0,1-0.2,1.3-0.6s0.5-1,0.5-1.8c0-0.8-0.2-1.4-0.5-1.7s-0.8-0.6-1.3-0.6
		c-0.5,0-1,0.2-1.3,0.6S484.2,194.1,484.2,194.9z"/>
	<path class="st1" d="M490.2,198v-8.6h1.1v8.6H490.2z"/>
	<path class="st1" d="M492.9,198v-8.6h1.1v8.6H492.9z"/>
	<path class="st1" d="M499.8,196l1.1,0.1c-0.2,0.6-0.5,1.1-1,1.5s-1.1,0.5-1.8,0.5c-0.9,0-1.6-0.3-2.2-0.8s-0.8-1.3-0.8-2.4
		c0-1,0.3-1.9,0.8-2.4s1.2-0.9,2.1-0.9c0.8,0,1.5,0.3,2,0.8s0.8,1.4,0.8,2.4c0,0.1,0,0.2,0,0.3h-4.6c0,0.7,0.2,1.2,0.6,1.6
		s0.8,0.5,1.3,0.5c0.4,0,0.7-0.1,1-0.3S499.6,196.5,499.8,196z M496.3,194.3h3.5c0-0.5-0.2-0.9-0.4-1.2c-0.3-0.4-0.8-0.6-1.3-0.6
		c-0.5,0-0.9,0.2-1.2,0.5S496.4,193.8,496.3,194.3z"/>
	<path class="st1" d="M506.3,195.8l1,0.1c-0.1,0.7-0.4,1.3-0.9,1.7s-1,0.6-1.7,0.6c-0.9,0-1.5-0.3-2.1-0.8s-0.8-1.4-0.8-2.4
		c0-0.7,0.1-1.3,0.3-1.8s0.6-0.9,1-1.1s1-0.4,1.5-0.4c0.7,0,1.2,0.2,1.7,0.5s0.7,0.8,0.8,1.5l-1,0.2c-0.1-0.4-0.3-0.7-0.5-0.9
		s-0.5-0.3-0.9-0.3c-0.5,0-1,0.2-1.3,0.6s-0.5,1-0.5,1.8c0,0.8,0.2,1.4,0.5,1.8s0.7,0.6,1.3,0.6c0.4,0,0.8-0.1,1-0.4
		S506.2,196.3,506.3,195.8z"/>
	<path class="st1" d="M510.5,197.1l0.2,0.9c-0.3,0.1-0.6,0.1-0.8,0.1c-0.4,0-0.7-0.1-0.9-0.2s-0.4-0.3-0.4-0.5s-0.1-0.6-0.1-1.2
		v-3.6h-0.8v-0.8h0.8v-1.5l1-0.6v2.2h1.1v0.8h-1.1v3.6c0,0.3,0,0.5,0.1,0.6s0.1,0.2,0.2,0.2s0.2,0.1,0.4,0.1
		C510.2,197.1,510.3,197.1,510.5,197.1z"/>
	<path class="st1" d="M515.8,196l1.1,0.1c-0.2,0.6-0.5,1.1-1,1.5s-1.1,0.5-1.8,0.5c-0.9,0-1.6-0.3-2.2-0.8c-0.5-0.6-0.8-1.3-0.8-2.4
		c0-1,0.3-1.9,0.8-2.4c0.5-0.6,1.2-0.9,2.1-0.9c0.8,0,1.5,0.3,2,0.8s0.8,1.4,0.8,2.4c0,0.1,0,0.2,0,0.3h-4.6c0,0.7,0.2,1.2,0.6,1.6
		s0.8,0.5,1.3,0.5c0.4,0,0.7-0.1,1-0.3S515.6,196.5,515.8,196z M512.3,194.3h3.5c0-0.5-0.2-0.9-0.4-1.2c-0.3-0.4-0.8-0.6-1.3-0.6
		c-0.5,0-0.9,0.2-1.2,0.5S512.4,193.8,512.3,194.3z"/>
	<path class="st1" d="M525.6,198v-0.8c-0.4,0.6-1,0.9-1.7,0.9c-0.5,0-1-0.1-1.4-0.4s-0.7-0.7-1-1.1s-0.3-1.1-0.3-1.7
		c0-0.6,0.1-1.2,0.3-1.7s0.5-0.9,0.9-1.2s0.9-0.4,1.4-0.4c0.4,0,0.7,0.1,1,0.2s0.5,0.4,0.7,0.6v-3.1h1v8.6H525.6z M522.3,194.9
		c0,0.8,0.2,1.4,0.5,1.8s0.7,0.6,1.2,0.6c0.5,0,0.9-0.2,1.2-0.6s0.5-1,0.5-1.7c0-0.9-0.2-1.5-0.5-1.9s-0.7-0.6-1.2-0.6
		c-0.5,0-0.9,0.2-1.2,0.6S522.3,194.1,522.3,194.9z"/>
	<path class="st1" d="M532.5,196l1.1,0.1c-0.2,0.6-0.5,1.1-1,1.5s-1.1,0.5-1.8,0.5c-0.9,0-1.6-0.3-2.2-0.8s-0.8-1.3-0.8-2.4
		c0-1,0.3-1.9,0.8-2.4s1.2-0.9,2.1-0.9c0.8,0,1.5,0.3,2,0.8s0.8,1.4,0.8,2.4c0,0.1,0,0.2,0,0.3H529c0,0.7,0.2,1.2,0.6,1.6
		s0.8,0.5,1.3,0.5c0.4,0,0.7-0.1,1-0.3S532.3,196.5,532.5,196z M529,194.3h3.5c0-0.5-0.2-0.9-0.4-1.2c-0.3-0.4-0.8-0.6-1.3-0.6
		c-0.5,0-0.9,0.2-1.2,0.5S529.1,193.8,529,194.3z"/>
	<path class="st1" d="M534.5,196.2l1-0.2c0.1,0.4,0.2,0.7,0.5,1s0.6,0.3,1.1,0.3c0.5,0,0.8-0.1,1.1-0.3s0.4-0.4,0.4-0.7
		c0-0.2-0.1-0.4-0.3-0.6c-0.1-0.1-0.5-0.2-1.1-0.4c-0.8-0.2-1.3-0.4-1.6-0.5s-0.5-0.3-0.7-0.6s-0.2-0.5-0.2-0.8
		c0-0.3,0.1-0.5,0.2-0.8s0.3-0.4,0.5-0.6c0.2-0.1,0.4-0.2,0.7-0.3s0.6-0.1,0.9-0.1c0.5,0,0.9,0.1,1.3,0.2s0.6,0.3,0.8,0.6
		s0.3,0.6,0.4,1l-1,0.1c0-0.3-0.2-0.6-0.4-0.8s-0.5-0.3-1-0.3c-0.5,0-0.8,0.1-1,0.2s-0.3,0.3-0.3,0.6c0,0.1,0,0.3,0.1,0.4
		c0.1,0.1,0.2,0.2,0.4,0.3c0.1,0,0.4,0.1,0.9,0.3c0.7,0.2,1.3,0.4,1.6,0.5s0.5,0.3,0.7,0.6s0.3,0.5,0.3,0.9c0,0.4-0.1,0.7-0.3,1
		s-0.5,0.6-0.9,0.7s-0.8,0.3-1.3,0.3c-0.8,0-1.4-0.2-1.8-0.5S534.6,196.8,534.5,196.2z"/>
	<path class="st1" d="M548.3,198v-0.8c-0.4,0.6-1,0.9-1.7,0.9c-0.5,0-1-0.1-1.4-0.4s-0.7-0.7-1-1.1s-0.3-1.1-0.3-1.7
		c0-0.6,0.1-1.2,0.3-1.7s0.5-0.9,0.9-1.2s0.9-0.4,1.4-0.4c0.4,0,0.7,0.1,1,0.2s0.5,0.4,0.7,0.6v-3.1h1v8.6H548.3z M544.9,194.9
		c0,0.8,0.2,1.4,0.5,1.8s0.7,0.6,1.2,0.6c0.5,0,0.9-0.2,1.2-0.6s0.5-1,0.5-1.7c0-0.9-0.2-1.5-0.5-1.9s-0.7-0.6-1.2-0.6
		c-0.5,0-0.9,0.2-1.2,0.6S544.9,194.1,544.9,194.9z"/>
	<path class="st1" d="M550.5,194.9c0-1.2,0.3-2,1-2.6c0.5-0.5,1.2-0.7,2-0.7c0.9,0,1.6,0.3,2.1,0.8s0.8,1.3,0.8,2.3
		c0,0.8-0.1,1.4-0.4,1.9s-0.6,0.8-1,1.1s-1,0.4-1.5,0.4c-0.9,0-1.6-0.3-2.1-0.8S550.5,196,550.5,194.9z M551.6,194.9
		c0,0.8,0.2,1.4,0.5,1.8s0.8,0.6,1.3,0.6c0.5,0,1-0.2,1.3-0.6s0.5-1,0.5-1.8c0-0.8-0.2-1.4-0.5-1.7s-0.8-0.6-1.3-0.6
		c-0.5,0-1,0.2-1.3,0.6S551.6,194.1,551.6,194.9z"/>
	<path class="st1" d="M557.6,198v-6.2h0.9v0.9c0.5-0.7,1.1-1,2-1c0.4,0,0.7,0.1,1,0.2s0.5,0.3,0.7,0.5s0.3,0.5,0.3,0.8
		c0,0.2,0.1,0.5,0.1,1v3.8h-1.1v-3.8c0-0.4,0-0.8-0.1-1s-0.2-0.4-0.4-0.5s-0.5-0.2-0.7-0.2c-0.4,0-0.8,0.1-1.2,0.4s-0.5,0.8-0.5,1.6
		v3.4H557.6z"/>
	<path class="st1" d="M564.3,198v-6.2h0.9v0.9c0.5-0.7,1.1-1,2-1c0.4,0,0.7,0.1,1,0.2s0.5,0.3,0.7,0.5s0.3,0.5,0.3,0.8
		c0,0.2,0.1,0.5,0.1,1v3.8h-1.1v-3.8c0-0.4,0-0.8-0.1-1s-0.2-0.4-0.4-0.5s-0.5-0.2-0.7-0.2c-0.4,0-0.8,0.1-1.2,0.4s-0.5,0.8-0.5,1.6
		v3.4H564.3z"/>
	<path class="st1" d="M575.2,196l1.1,0.1c-0.2,0.6-0.5,1.1-1,1.5s-1.1,0.5-1.8,0.5c-0.9,0-1.6-0.3-2.2-0.8s-0.8-1.3-0.8-2.4
		c0-1,0.3-1.9,0.8-2.4s1.2-0.9,2.1-0.9c0.8,0,1.5,0.3,2,0.8s0.8,1.4,0.8,2.4c0,0.1,0,0.2,0,0.3h-4.6c0,0.7,0.2,1.2,0.6,1.6
		s0.8,0.5,1.3,0.5c0.4,0,0.7-0.1,1-0.3S575,196.5,575.2,196z M571.7,194.3h3.5c0-0.5-0.2-0.9-0.4-1.2c-0.3-0.4-0.8-0.6-1.3-0.6
		c-0.5,0-0.9,0.2-1.2,0.5S571.8,193.8,571.7,194.3z M572.9,191l0.8-1.6h1.4l-1.3,1.6H572.9z"/>
	<path class="st1" d="M581.9,196l1.1,0.1c-0.2,0.6-0.5,1.1-1,1.5s-1.1,0.5-1.8,0.5c-0.9,0-1.6-0.3-2.2-0.8s-0.8-1.3-0.8-2.4
		c0-1,0.3-1.9,0.8-2.4s1.2-0.9,2.1-0.9c0.8,0,1.5,0.3,2,0.8s0.8,1.4,0.8,2.4c0,0.1,0,0.2,0,0.3h-4.6c0,0.7,0.2,1.2,0.6,1.6
		s0.8,0.5,1.3,0.5c0.4,0,0.7-0.1,1-0.3S581.7,196.5,581.9,196z M578.4,194.3h3.5c0-0.5-0.2-0.9-0.4-1.2c-0.3-0.4-0.8-0.6-1.3-0.6
		c-0.5,0-0.9,0.2-1.2,0.5S578.4,193.8,578.4,194.3z"/>
	<path class="st1" d="M583.9,196.2l1-0.2c0.1,0.4,0.2,0.7,0.5,1s0.6,0.3,1.1,0.3c0.5,0,0.8-0.1,1.1-0.3s0.4-0.4,0.4-0.7
		c0-0.2-0.1-0.4-0.3-0.6c-0.1-0.1-0.5-0.2-1.1-0.4c-0.8-0.2-1.3-0.4-1.6-0.5s-0.5-0.3-0.7-0.6s-0.2-0.5-0.2-0.8
		c0-0.3,0.1-0.5,0.2-0.8s0.3-0.4,0.5-0.6c0.2-0.1,0.4-0.2,0.7-0.3s0.6-0.1,0.9-0.1c0.5,0,0.9,0.1,1.3,0.2s0.6,0.3,0.8,0.6
		s0.3,0.6,0.4,1l-1,0.1c0-0.3-0.2-0.6-0.4-0.8s-0.5-0.3-1-0.3c-0.5,0-0.8,0.1-1,0.2s-0.3,0.3-0.3,0.6c0,0.1,0,0.3,0.1,0.4
		c0.1,0.1,0.2,0.2,0.4,0.3c0.1,0,0.4,0.1,0.9,0.3c0.7,0.2,1.3,0.4,1.6,0.5s0.5,0.3,0.7,0.6s0.3,0.5,0.3,0.9c0,0.4-0.1,0.7-0.3,1
		s-0.5,0.6-0.9,0.7s-0.8,0.3-1.3,0.3c-0.8,0-1.4-0.2-1.8-0.5S584,196.8,583.9,196.2z"/>
</g>
<g>
	<path class="st1" d="M648.6,195.3l1.1-0.1c0.1,0.4,0.2,0.8,0.4,1.1s0.5,0.5,0.9,0.7s0.8,0.3,1.3,0.3c0.4,0,0.8-0.1,1.1-0.2
		s0.6-0.3,0.7-0.5s0.2-0.5,0.2-0.7c0-0.3-0.1-0.5-0.2-0.7s-0.4-0.4-0.8-0.5c-0.2-0.1-0.7-0.2-1.5-0.4s-1.3-0.4-1.7-0.5
		c-0.4-0.2-0.7-0.5-0.9-0.8s-0.3-0.7-0.3-1.1c0-0.4,0.1-0.8,0.4-1.2s0.6-0.7,1.1-0.9s1-0.3,1.6-0.3c0.6,0,1.2,0.1,1.7,0.3
		s0.9,0.5,1.1,0.9s0.4,0.8,0.4,1.4l-1.1,0.1c-0.1-0.5-0.3-1-0.6-1.2s-0.8-0.4-1.5-0.4c-0.7,0-1.2,0.1-1.5,0.4s-0.5,0.6-0.5,0.9
		c0,0.3,0.1,0.6,0.3,0.8c0.2,0.2,0.8,0.4,1.7,0.6s1.6,0.4,1.9,0.5c0.5,0.2,0.9,0.5,1.1,0.9s0.4,0.8,0.4,1.2c0,0.5-0.1,0.9-0.4,1.3
		s-0.6,0.7-1.1,0.9s-1,0.3-1.7,0.3c-0.8,0-1.4-0.1-2-0.3s-0.9-0.6-1.2-1S648.6,195.8,648.6,195.3z"/>
	<path class="st1" d="M660.9,198v-0.9c-0.5,0.7-1.1,1.1-2,1.1c-0.4,0-0.7-0.1-1-0.2s-0.6-0.3-0.7-0.5s-0.3-0.5-0.3-0.8
		c0-0.2-0.1-0.5-0.1-1v-3.9h1.1v3.5c0,0.6,0,0.9,0.1,1.1c0.1,0.3,0.2,0.5,0.4,0.7s0.5,0.2,0.8,0.2s0.6-0.1,0.9-0.2s0.5-0.4,0.6-0.7
		s0.2-0.7,0.2-1.2v-3.3h1.1v6.2H660.9z"/>
	<path class="st1" d="M663.5,190.7v-1.2h1.1v1.2H663.5z M663.5,198v-6.2h1.1v6.2H663.5z"/>
	<path class="st1" d="M667.9,198l-2.4-6.2h1.1l1.3,3.7c0.1,0.4,0.3,0.8,0.4,1.3c0.1-0.3,0.2-0.7,0.4-1.2l1.4-3.8h1.1l-2.4,6.2H667.9
		z"/>
	<path class="st1" d="M672.2,190.7v-1.2h1.1v1.2H672.2z M672.2,198v-6.2h1.1v6.2H672.2z"/>
	<path class="st1" d="M682.2,198v-0.8c-0.4,0.6-1,0.9-1.7,0.9c-0.5,0-1-0.1-1.4-0.4s-0.7-0.7-1-1.1s-0.3-1.1-0.3-1.7
		c0-0.6,0.1-1.2,0.3-1.7s0.5-0.9,0.9-1.2s0.9-0.4,1.4-0.4c0.4,0,0.7,0.1,1,0.2s0.5,0.4,0.7,0.6v-3.1h1v8.6H682.2z M678.9,194.9
		c0,0.8,0.2,1.4,0.5,1.8s0.7,0.6,1.2,0.6c0.5,0,0.9-0.2,1.2-0.6s0.5-1,0.5-1.7c0-0.9-0.2-1.5-0.5-1.9s-0.7-0.6-1.2-0.6
		c-0.5,0-0.9,0.2-1.2,0.6S678.9,194.1,678.9,194.9z"/>
	<path class="st1" d="M689,198v-0.9c-0.5,0.7-1.1,1.1-2,1.1c-0.4,0-0.7-0.1-1-0.2s-0.6-0.3-0.7-0.5s-0.3-0.5-0.3-0.8
		c0-0.2-0.1-0.5-0.1-1v-3.9h1.1v3.5c0,0.6,0,0.9,0.1,1.1c0.1,0.3,0.2,0.5,0.4,0.7s0.5,0.2,0.8,0.2s0.6-0.1,0.9-0.2s0.5-0.4,0.6-0.7
		s0.2-0.7,0.2-1.2v-3.3h1.1v6.2H689z"/>
	<path class="st1" d="M697.2,197.1l0.2,0.9c-0.3,0.1-0.6,0.1-0.8,0.1c-0.4,0-0.7-0.1-0.9-0.2s-0.4-0.3-0.4-0.5s-0.1-0.6-0.1-1.2
		v-3.6h-0.8v-0.8h0.8v-1.5l1-0.6v2.2h1.1v0.8h-1.1v3.6c0,0.3,0,0.5,0.1,0.6s0.1,0.2,0.2,0.2s0.2,0.1,0.4,0.1
		C696.8,197.1,697,197.1,697.2,197.1z"/>
	<path class="st1" d="M702.5,196l1.1,0.1c-0.2,0.6-0.5,1.1-1,1.5s-1.1,0.5-1.8,0.5c-0.9,0-1.6-0.3-2.2-0.8s-0.8-1.3-0.8-2.4
		c0-1,0.3-1.9,0.8-2.4s1.2-0.9,2.1-0.9c0.8,0,1.5,0.3,2,0.8s0.8,1.4,0.8,2.4c0,0.1,0,0.2,0,0.3H699c0,0.7,0.2,1.2,0.6,1.6
		s0.8,0.5,1.3,0.5c0.4,0,0.7-0.1,1-0.3S702.3,196.5,702.5,196z M699,194.3h3.5c0-0.5-0.2-0.9-0.4-1.2c-0.3-0.4-0.8-0.6-1.3-0.6
		c-0.5,0-0.9,0.2-1.2,0.5S699,193.8,699,194.3z"/>
	<path class="st1" d="M704.9,198v-6.2h0.9v0.9c0.2-0.4,0.5-0.7,0.7-0.9s0.4-0.2,0.7-0.2c0.4,0,0.7,0.1,1.1,0.3l-0.4,1
		c-0.3-0.2-0.5-0.2-0.8-0.2c-0.2,0-0.4,0.1-0.6,0.2s-0.3,0.3-0.4,0.6c-0.1,0.4-0.2,0.8-0.2,1.2v3.3H704.9z"/>
	<path class="st1" d="M708.9,198v-6.2h0.9v0.9c0.2-0.4,0.5-0.7,0.7-0.9s0.4-0.2,0.7-0.2c0.4,0,0.7,0.1,1.1,0.3l-0.4,1
		c-0.3-0.2-0.5-0.2-0.8-0.2c-0.2,0-0.4,0.1-0.6,0.2s-0.3,0.3-0.4,0.6c-0.1,0.4-0.2,0.8-0.2,1.2v3.3H708.9z"/>
	<path class="st1" d="M716.9,197.3c-0.4,0.3-0.8,0.6-1.1,0.7s-0.7,0.2-1.2,0.2c-0.7,0-1.2-0.2-1.6-0.5s-0.6-0.8-0.6-1.3
		c0-0.3,0.1-0.6,0.2-0.8s0.3-0.5,0.5-0.6s0.5-0.3,0.8-0.3c0.2-0.1,0.5-0.1,0.9-0.2c0.9-0.1,1.5-0.2,1.9-0.4c0-0.1,0-0.2,0-0.3
		c0-0.4-0.1-0.7-0.3-0.9c-0.3-0.2-0.7-0.4-1.2-0.4c-0.5,0-0.9,0.1-1.1,0.3s-0.4,0.5-0.5,0.9l-1-0.1c0.1-0.4,0.2-0.8,0.5-1.1
		s0.5-0.5,0.9-0.6s0.9-0.2,1.4-0.2c0.5,0,1,0.1,1.3,0.2s0.6,0.3,0.7,0.5s0.3,0.4,0.3,0.7c0,0.2,0.1,0.5,0.1,1v1.4c0,1,0,1.6,0.1,1.9
		s0.1,0.5,0.3,0.7h-1.1C717,197.8,717,197.6,716.9,197.3z M716.9,194.9c-0.4,0.2-1,0.3-1.7,0.4c-0.4,0.1-0.7,0.1-0.9,0.2
		s-0.3,0.2-0.4,0.3s-0.1,0.3-0.1,0.5c0,0.3,0.1,0.5,0.3,0.7s0.5,0.3,0.9,0.3c0.4,0,0.8-0.1,1.1-0.3s0.5-0.4,0.7-0.7
		c0.1-0.2,0.2-0.6,0.2-1.1V194.9z"/>
	<path class="st1" d="M719.6,190.7v-1.2h1.1v1.2H719.6z M719.6,198v-6.2h1.1v6.2H719.6z"/>
	<path class="st1" d="M722.2,198v-6.2h0.9v0.9c0.5-0.7,1.1-1,2-1c0.4,0,0.7,0.1,1,0.2s0.6,0.3,0.7,0.5s0.3,0.5,0.3,0.8
		c0,0.2,0.1,0.5,0.1,1v3.8h-1.1v-3.8c0-0.4,0-0.8-0.1-1s-0.2-0.4-0.4-0.5s-0.5-0.2-0.7-0.2c-0.4,0-0.8,0.1-1.2,0.4s-0.5,0.8-0.5,1.6
		v3.4H722.2z"/>
</g>
<g>
	<g>
		<line class="st2" x1="1119.9" y1="65.2" x2="1120" y2="65.2"/>
		<line class="st2" x1="1119.9" y1="65.2" x2="1062" y2="65.2"/>
		<line class="st2" x1="936.8" y1="65.2" x2="906" y2="65.2"/>
		<line class="st2" x1="780.8" y1="65.2" x2="750" y2="65.2"/>
		<line class="st2" x1="312.8" y1="65.2" x2="282" y2="65.2"/>
		<line class="st2" x1="468.8" y1="65.2" x2="438" y2="65.2"/>
		<line class="st2" x1="156.8" y1="65.2" x2="126" y2="65.2"/>
		<line class="st2" x1="624.8" y1="65.2" x2="594" y2="65.2"/>
		<line class="st2" x1="1093.2" y1="38.5" x2="1119.9" y2="65.2"/>
		<polyline class="st2" points="1119.9,65.2 1120,65.2 1093.2,92 		"/>
		<path class="st3" d="M126,65.2c0.1-25.7-15.6-49.9-41.1-59.2C52.4-5.9,16.4,10.8,4.6,43.3c-11.9,32.5,4.8,68.5,37.3,80.3
			c32.5,11.9,68.5-4.8,80.3-37.3C124.8,79.3,126,72.2,126,65.2"/>
		<path class="st2" d="M156.8,65.2c0.2,25.4,15.9,49.2,41.1,58.5c32.5,11.9,68.5-4.8,80.3-37.3c2.5-7,3.8-14.1,3.8-21.1"/>
		<path class="st2" d="M282,65.2c0.1-25.7-15.6-49.9-41.1-59.2c-32.5-11.9-68.5,4.8-80.3,37.3c-2.6,7.2-3.9,14.6-3.8,21.9"/>
		<path class="st2" d="M438,65.2c0.1-25.7-15.6-49.9-41.1-59.2c-32.5-11.9-68.5,4.8-80.3,37.3c-2.6,7.2-3.9,14.6-3.8,21.9"/>
		<path class="st2" d="M312.8,65.2c0.2,25.4,15.9,49.2,41.1,58.5c32.5,11.9,68.5-4.8,80.3-37.3c2.5-7,3.8-14.1,3.8-21.1"/>
		<path class="st2" d="M594,65.2c0.1-25.7-15.6-49.9-41.1-59.2c-32.5-11.9-68.5,4.8-80.3,37.3c-2.6,7.2-3.9,14.6-3.8,21.9"/>
		<path class="st2" d="M468.8,65.2c0.2,25.4,15.9,49.2,41.1,58.5c32.5,11.9,68.5-4.8,80.3-37.3c2.5-7,3.8-14.1,3.8-21.1"/>
		<path class="st2" d="M750,65.2c0.1-25.7-15.6-49.9-41.1-59.2c-32.5-11.9-68.5,4.8-80.3,37.3c-2.6,7.2-3.9,14.6-3.8,21.9"/>
		<path class="st2" d="M624.8,65.2c0.2,25.4,15.9,49.2,41.1,58.5c32.5,11.9,68.5-4.8,80.3-37.3c2.5-7,3.8-14.1,3.8-21.1"/>
		<path class="st3" d="M906,65.2c0.1-25.7-15.6-49.9-41.1-59.2c-32.5-11.9-68.5,4.8-80.3,37.3c-2.6,7.2-3.9,14.6-3.8,21.9"/>
		<path class="st3" d="M780.8,65.2c0.2,25.4,15.9,49.2,41.1,58.5c32.5,11.9,68.5-4.8,80.3-37.3c2.5-7,3.8-14.1,3.8-21.1"/>
		<path class="st3" d="M1062,65.2c0.1-25.7-15.6-49.9-41.1-59.2c-32.5-11.9-68.5,4.8-80.3,37.3c-2.6,7.2-3.9,14.6-3.8,21.9"/>
		<path class="st3" d="M936.8,65.2c0.2,25.4,15.9,49.2,41.1,58.5c32.5,11.9,68.5-4.8,80.3-37.3c2.5-7,3.8-14.1,3.8-21.1"/>
	</g>
	<path class="st2" d="M686.7,35.9c10.3,0,19.1,5.8,22.4,14c-0.3,0.2-0.5,0.5-0.5,0.9v27.8c0,0.6,0.5,1,1,1c0.3,0,0.7,0,1,0
		c-2.3,7.2-8.6,12.9-16.6,15.2c-1-1.5-2.7-2.6-4.6-2.6h-5.7c-3,0-5.4,2.4-5.4,5.4v1.1c0,3,2.4,5.4,5.4,5.4h5.7c2.7,0,5-2,5.4-4.7
		c10.7-2.8,19-11,21-21.2c5.1-2.4,8.7-7.6,8.7-13.6l0,0c0-5.6-3.1-10.5-7.6-13c-2.8-13-15.3-22.8-30.3-22.8c-15.9,0-29,11-30.7,25.1
		c-2.8,2.7-4.6,6.5-4.6,10.7c0,8.2,6.7,14.9,14.9,14.9c0.6,0,1-0.5,1-1V50.7c0-0.6-0.5-1-1-1c-0.7,0-1.4,0.1-2.1,0.1 M724.7,64.6"/>
	<path class="st2" d="M74.9,24.8v-0.4c0-0.6-0.5-1.1-1.1-1.1l-12.8,0c-0.6,0-1.1,0.5-1.1,1.1v0.4c0,0.5-0.4,0.8-0.8,0.8H57
		c-0.6,0-1.2,0.5-1.2,1.2v3.5c0,0.6,0.5,1.2,1.2,1.2h20.6c0.6,0,1.2-0.5,1.2-1.2v-3.5c0-0.6-0.5-1.2-1.2-1.2h-1.9
		C75.3,25.6,74.9,25.3,74.9,24.8z"/>
	<path class="st2" d="M52.9,91.8c1.1-0.2,2.1-0.1,3,0.3c0.7,0.4,1.6-0.1,1.6-1V79.9l-9.4,0c-0.7,0-1.1-0.8-0.8-1.3
		c0.6-0.9,0.8-2.1,0.5-3.3c-0.4-1.6-1.7-3-3.3-3.3c-2.8-0.6-5.3,1.6-5.3,4.3c0,0.8,0.2,1.6,0.6,2.2c0.4,0.6-0.1,1.4-0.8,1.4l-9.4,0
		v24.3c0,2,1.6,3.6,3.6,3.6h24.3V101c0-0.8-0.8-1.3-1.5-1c-0.6,0.3-1.3,0.5-2,0.5c-2.7,0-4.9-2.5-4.3-5.4
		C49.9,93.5,51.2,92.2,52.9,91.8z"/>
	<path class="st2" d="M85,71.3c0.6,0.9,0.9,2.1,0.6,3.4c-0.4,1.6-1.7,2.9-3.3,3.3c-2.8,0.6-5.3-1.6-5.3-4.3c0-0.9,0.2-1.7,0.7-2.3
		c0.3-0.6-0.1-1.3-0.7-1.3h-9.5l0,11.3c0,0.8-0.9,1.3-1.6,1c-0.9-0.4-1.9-0.6-3-0.3c-1.6,0.4-2.9,1.7-3.3,3.3
		c-0.6,2.8,1.6,5.4,4.3,5.4c0.7,0,1.4-0.2,2-0.5c0.7-0.4,1.5,0.2,1.5,1l0,6.8H92c1.8,0,3.3-1.5,3.3-3.3V70.1h-9.5
		C85.1,70.1,84.7,70.8,85,71.3z"/>
	<path class="st2" d="M95.3,42.2H67.4v9.3c0,0.7,0.8,1.2,1.4,0.8c0.9-0.5,2-0.7,3.2-0.4c1.6,0.4,2.9,1.7,3.3,3.3
		c0.6,2.8-1.6,5.4-4.3,5.4c-0.8,0-1.5-0.2-2.1-0.5c-0.7-0.4-1.5,0.1-1.5,0.8v9.3l9.5,0c0.6,0,1.1,0.7,0.7,1.3
		c-0.6,0.9-0.9,2.1-0.6,3.4c0.4,1.6,1.7,2.9,3.3,3.3c2.8,0.6,5.3-1.6,5.3-4.3c0-0.9-0.2-1.7-0.7-2.3c-0.3-0.6,0.1-1.3,0.7-1.3l9.5,0
		V42.2z"/>
	<path class="st2" d="M72,51.8c-1.2-0.3-2.3-0.1-3.2,0.4c-0.6,0.4-1.4-0.1-1.4-0.8v-9.3H49.7H39.5v27.9l9.4,0c0.7,0,1.1-0.8,0.8-1.3
		c-0.6-0.9-0.8-2.1-0.5-3.3c0.4-1.6,1.7-3,3.3-3.3c2.8-0.6,5.3,1.6,5.3,4.3c0,0.8-0.2,1.6-0.6,2.2c-0.4,0.6,0.1,1.4,0.8,1.4l9.4,0
		v-9.3c0-0.8,0.8-1.2,1.5-0.8c0.6,0.3,1.4,0.5,2.1,0.5c2.7,0,4.9-2.5,4.3-5.4C74.9,53.5,73.6,52.2,72,51.8z"/>
	<path class="st2" d="M552,103.4h-46.8c-2.4,0-4.4-2-4.4-4.4V34.8c0-2.4,2-4.4,4.4-4.4H552c2.4,0,4.4,2,4.4,4.4v36.6"/>
	<path class="st2" d="M548.6,94.6H506c-1,0-1.9-0.8-1.9-1.9V37.9c0-1,0.8-1.9,1.9-1.9h45.2c1,0,1.9,0.8,1.9,1.9v24.6"/>
	<path class="st2" d="M530.2,100.7c-0.5,0.5-1,0.7-1.6,0.7c-0.6,0-1.2-0.2-1.6-0.7c-0.5-0.5-0.7-1-0.7-1.6c0-0.6,0.2-1.2,0.7-1.6
		c0.5-0.5,1-0.7,1.6-0.7c0.6,0,1.2,0.2,1.6,0.7c0.5,0.5,0.7,1,0.7,1.6C530.9,99.7,530.6,100.2,530.2,100.7L530.2,100.7z"/>
	<path class="st2" d="M561.6,75.5c-0.5-1.6-2.2-2.4-3.7-1.9s-2.4,2.2-1.9,3.7l0.3,0.9l-4-12.4c-0.5-1.6-2.2-2.4-3.7-1.9
		c-1.6,0.5-2.4,2.2-1.9,3.7l6.4,19.9l-0.1,0.1c-3.4-1.9-6-4.3-7.7-4.2c-2.3,0.2-3.5,2.4-1.1,4.8c2.4,2.3,13.5,12.2,13.5,12.2"/>
	<circle class="st2" cx="513.5" cy="50.2" r="3.9"/>
	<circle class="st2" cx="513.5" cy="65.3" r="3.9"/>
	<circle class="st2" cx="513.5" cy="80.4" r="3.9"/>
	<path class="st2" d="M851.1,29.1v-0.4c0-0.6-0.5-1.1-1.1-1.1h-12.8c-0.6,0-1.1,0.5-1.1,1.1v0.4c0,0.5-0.4,0.8-0.8,0.8h-1.9
		c-0.6,0-1.2,0.5-1.2,1.2v3.5c0,0.6,0.5,1.2,1.2,1.2h20.6c0.6,0,1.2-0.5,1.2-1.2v-3.5c0-0.6-0.5-1.2-1.2-1.2h-1.9
		C851.5,29.9,851.1,29.5,851.1,29.1z"/>
	<circle class="st2" cx="829" cy="54.4" r="3.9"/>
	<circle class="st2" cx="847.5" cy="69.5" r="3.9"/>
	<circle class="st2" cx="837" cy="84.7" r="3.9"/>
	<path class="st2" d="M1023.5,22.2c2.4,0,4.4,2,4.4,4.4v50.9v6.7"/>
	<path class="st2" d="M972.2,84.9v-8.4V26.7c0-2.4,2-4.4,4.4-4.4"/>
	<path class="st2" d="M1007.7,18.7v-0.4c0-0.6-0.5-1.1-1.1-1.1h-12.8c-0.6,0-1.1,0.5-1.1,1.1v0.4c0,0.5-0.4,0.8-0.8,0.8h-1.9
		c-0.6,0-1.2,0.5-1.2,1.2v3.5c0,0.6,0.5,1.2,1.2,1.2h20.6c0.6,0,1.2-0.5,1.2-1.2v-3.5c0-0.6-0.5-1.2-1.2-1.2h-1.9
		C1008,19.6,1007.7,19.2,1007.7,18.7z"/>
	<path class="st2" d="M991.6,99.6h15.6c2.2,0,3.9-1.8,3.9-3.9v0c0-2.2-1.8-3.9-4-3.9c-3.1,0-7.2,0-10.2,0
		c-5.1-0.2-10.2-4.2-17.5-4.3c-3.1-0.1-6,1.2-8.4,2.7c-3.3,2-7.1,4.3-7.1,4.3"/>
	<path class="st2" d="M1011.1,95.6l15.4-6c7.9-3.6,11.7,2.6,6.3,5.7l-25.4,14c-3.8,1.6-5.7,2.4-8.7,2.4c-9,0-14.9-3.3-22-3.3
		c-3.5,0-6.4,1.2-8.5,2.3"/>
	<path class="st2" d="M1000.1,47.7c-3.5,0-6.6,1.6-8.6,4.2l8.9,9l5.6-5.6l2.2,2.3l-8.1,8.1l-10.5-10.5c-0.4,1.1-0.6,2.4-0.6,3.6
		c0,6.1,4.9,11,11,11c6.1,0,11-4.9,11-11S1006.2,47.7,1000.1,47.7z"/>
	<path class="st2" d="M686.7,35.9c10.3,0,19.1,5.8,22.4,14c-0.3,0.2-0.5,0.5-0.5,0.9v27.8c0,0.6,0.5,1,1,1c0.3,0,0.7,0,1,0
		c-2.3,7.2-8.6,12.9-16.6,15.2c-1-1.5-2.7-2.6-4.6-2.6h-5.7c-3,0-5.4,2.4-5.4,5.4v1.1c0,3,2.4,5.4,5.4,5.4h5.7c2.7,0,5-2,5.4-4.7
		c10.7-2.8,19-11,21-21.2c5.1-2.4,8.7-7.6,8.7-13.6l0,0c0-5.6-3.1-10.5-7.6-13c-2.8-13-15.3-22.8-30.3-22.8c-15.9,0-29,11-30.7,25.1
		c-2.8,2.7-4.6,6.5-4.6,10.7c0,8.2,6.7,14.9,14.9,14.9c0.6,0,1-0.5,1-1V50.7c0-0.6-0.5-1-1-1c-0.7,0-1.4,0.1-2.1,0.1 M724.7,64.6"/>
	<g>
		<path class="st2" d="M76.9,73.7C76.9,73.7,76.9,73.7,76.9,73.7c0-0.2,0-0.5,0.1-0.7C77,73.2,76.9,73.4,76.9,73.7z"/>
		<path class="st2" d="M85.6,74.7C85.6,74.7,85.6,74.6,85.6,74.7c0,0.1-0.1,0.3-0.1,0.4C85.5,75,85.6,74.8,85.6,74.7z"/>
		<path class="st2" d="M83.7,77.4c-0.4,0.2-0.8,0.4-1.2,0.5C83,77.8,83.3,77.6,83.7,77.4z"/>
		<path class="st2" d="M85.1,70.4c0.2-0.2,0.4-0.4,0.7-0.4h0C85.5,70.1,85.2,70.2,85.1,70.4z"/>
		<path class="st2" d="M82.3,78C82.3,78,82.3,78,82.3,78c0,0-0.1,0-0.2,0C82.1,78,82.2,78,82.3,78z"/>
		<path class="st2" d="M67.4,42.2h27.8V31.8c0-1.9-1.5-3.4-3.4-3.4H78.8v2c0,0.6-0.5,1.2-1.2,1.2H57c-0.6,0-1.2-0.5-1.2-1.2v-2H42.9
			c-1.9,0-3.4,1.5-3.4,3.4v10.4h10.2H67.4z"/>
		<path class="st2" d="M83.7,77.4c0.7-0.4,1.2-1,1.5-1.7C84.9,76.3,84.4,76.9,83.7,77.4z"/>
		<path class="st2" d="M77.6,70.4c0.2,0.3,0.2,0.6,0,0.9c-0.1,0.2-0.2,0.4-0.3,0.7c0.1-0.2,0.2-0.5,0.3-0.7
			C77.8,71,77.8,70.7,77.6,70.4z"/>
		<path class="st2" d="M57,31.4h20.6c0.6,0,1.2-0.5,1.2-1.2v-2v-1.5c0-0.6-0.5-1.2-1.2-1.2h-1.9c-0.5,0-0.8-0.4-0.8-0.8v-0.4
			c0-0.6-0.5-1.1-1.1-1.1H60.9c-0.6,0-1.1,0.5-1.1,1.1v0.4c0,0.5-0.4,0.8-0.8,0.8H57c-0.6,0-1.2,0.5-1.2,1.2v1.5v2
			C55.8,30.9,56.4,31.4,57,31.4z"/>
		<path class="st2" d="M47.2,78.6c0.6-0.9,0.8-2.1,0.5-3.3c-0.4-1.6-1.7-3-3.3-3.3c-2.8-0.6-5.3,1.6-5.3,4.3c0,0.8,0.2,1.6,0.6,2.2
			c0.4,0.6-0.1,1.4-0.8,1.4l-9.4,0v24.3c0,2,1.6,3.6,3.6,3.6h24.3V101c0-0.8-0.8-1.3-1.5-1c-0.6,0.3-1.3,0.5-2,0.5
			c-2.7,0-4.9-2.5-4.3-5.4c0.3-1.6,1.6-2.9,3.3-3.3c1.1-0.2,2.1-0.1,3,0.3c0.7,0.4,1.6-0.1,1.6-1V79.9l-9.4,0
			C47.3,79.9,46.9,79.2,47.2,78.6z"/>
		<path class="st2" d="M85.8,70.1c-0.3,0-0.5,0.1-0.7,0.4c-0.2,0.3-0.2,0.6,0,0.9c0.1,0.2,0.2,0.4,0.3,0.7c0,0.1,0,0.1,0.1,0.2
			c0.1,0.2,0.1,0.4,0.2,0.6c0,0.1,0,0.1,0,0.2c0,0.2,0.1,0.5,0.1,0.7c0,0,0,0,0,0.1c0,0,0,0.1,0,0.1c0,0.3,0,0.5-0.1,0.8
			c0,0,0,0,0,0.1c0,0.2-0.1,0.3-0.1,0.4c0,0,0,0,0,0c-0.1,0.1-0.1,0.3-0.2,0.4c0,0,0,0,0,0c-0.3,0.7-0.9,1.3-1.5,1.7c0,0,0,0,0,0
			c-0.4,0.2-0.8,0.4-1.2,0.5c-0.1,0-0.1,0-0.2,0c0,0-0.1,0-0.1,0c-0.1,0-0.1,0-0.2,0c-0.1,0-0.1,0-0.2,0c-0.1,0-0.2,0-0.3,0
			c-0.1,0-0.2,0-0.3,0c-0.1,0-0.2,0-0.3,0c-0.1,0-0.2,0-0.3,0c-0.1,0-0.1,0-0.2,0c-0.1,0-0.1,0-0.2,0c0,0-0.1,0-0.1,0
			c-0.1,0-0.1,0-0.2,0c-0.4-0.1-0.8-0.3-1.2-0.5c0,0,0,0,0,0c-0.7-0.4-1.2-1-1.5-1.7c0,0,0,0,0,0c-0.1-0.1-0.1-0.3-0.2-0.4
			c0,0,0,0,0,0c-0.1-0.1-0.1-0.3-0.1-0.4c0,0,0,0,0-0.1c-0.1-0.3-0.1-0.5-0.1-0.8c0,0,0-0.1,0-0.1c0,0,0,0,0-0.1
			c0-0.2,0-0.5,0.1-0.7c0-0.1,0-0.1,0-0.2c0-0.2,0.1-0.4,0.2-0.6c0-0.1,0-0.1,0.1-0.2c0.1-0.2,0.2-0.4,0.3-0.7
			c0.2-0.3,0.1-0.7,0-0.9c-0.2-0.2-0.4-0.4-0.7-0.4h-9.5v11.3c0,0.8-0.9,1.3-1.6,1c-0.9-0.4-1.9-0.6-3-0.3c-1.6,0.4-2.9,1.7-3.3,3.3
			c-0.6,2.8,1.6,5.4,4.3,5.4c0.7,0,1.4-0.2,2-0.5c0.7-0.4,1.5,0.2,1.5,1V98H92c1.8,0,3.3-1.5,3.3-3.3V70.1h-0.1H85.8z"/>
		<rect x="95.2" y="42.2" class="st2" width="0.1" height="27.9"/>
		<path class="st2" d="M76.9,70.1c0.3,0,0.5,0.1,0.7,0.4c0.2,0.3,0.2,0.6,0,0.9c-0.1,0.2-0.2,0.4-0.3,0.7c0,0.1,0,0.1-0.1,0.2
			c-0.1,0.2-0.1,0.4-0.2,0.6c0,0.1,0,0.1,0,0.2c0,0.3-0.1,0.5-0.1,0.8c0,0,0,0.1,0,0.1c0,0.3,0,0.5,0.1,0.8c0,0.2,0.1,0.3,0.1,0.5
			c0,0,0,0,0,0c0.1,0.1,0.1,0.3,0.2,0.4c0,0,0,0,0,0c0.3,0.7,0.9,1.3,1.5,1.7c0,0,0,0,0,0c0.4,0.2,0.8,0.4,1.2,0.5
			c0.1,0,0.1,0,0.2,0c0.1,0,0.2,0,0.3,0.1c0.1,0,0.1,0,0.2,0c0.1,0,0.2,0,0.3,0c0.1,0,0.2,0,0.3,0c0.1,0,0.2,0,0.3,0
			c0.1,0,0.2,0,0.3,0c0.1,0,0.1,0,0.2,0c0.1,0,0.2,0,0.3-0.1c0.1,0,0.1,0,0.2,0c0.4-0.1,0.8-0.3,1.2-0.5c0,0,0,0,0,0
			c0.7-0.4,1.2-1,1.5-1.7c0,0,0,0,0,0c0.1-0.1,0.1-0.3,0.2-0.4c0,0,0,0,0,0c0.1-0.2,0.1-0.3,0.1-0.5c0.1-0.3,0.1-0.5,0.1-0.8
			c0,0,0-0.1,0-0.1c0-0.3,0-0.5-0.1-0.8c0-0.1,0-0.1,0-0.2c0-0.2-0.1-0.4-0.2-0.6c0-0.1,0-0.1-0.1-0.2c-0.1-0.2-0.2-0.5-0.3-0.7
			c-0.2-0.3-0.1-0.6,0-0.9c0.1-0.2,0.4-0.4,0.7-0.4h0h9.4V42.2H67.4v9.3c0,0.2,0,0.4,0.1,0.5c0.2,0.3,0.5,0.5,0.8,0.5
			c0.2,0,0.3,0,0.5-0.1c0.9-0.5,2-0.7,3.2-0.4c0.2,0,0.4,0.1,0.6,0.2c0.4,0.1,0.7,0.4,1.1,0.6s0.6,0.5,0.9,0.9
			c0.4,0.5,0.6,1.1,0.8,1.7c0.6,2.8-1.6,5.4-4.3,5.4c-0.8,0-1.5-0.2-2.1-0.5c-0.7-0.4-1.5,0.1-1.5,0.8v9.3H76.9L76.9,70.1z"/>
		<path class="st2" d="M85.7,73.7c0-0.2,0-0.5-0.1-0.7C85.7,73.2,85.7,73.5,85.7,73.7C85.7,73.7,85.7,73.7,85.7,73.7z"/>
		<path class="st2" d="M76.9,70.1c0.3,0,0.5,0.1,0.7,0.4C77.4,70.2,77.2,70.1,76.9,70.1L76.9,70.1z"/>
		<path class="st2" d="M85,71.3c0.1,0.2,0.2,0.4,0.3,0.7C85.3,71.8,85.2,71.5,85,71.3c-0.2-0.3-0.1-0.6,0-0.9
			C84.9,70.7,84.8,71,85,71.3z"/>
		<path class="st2" d="M77.4,75.6c0.3,0.7,0.9,1.3,1.5,1.7C78.3,76.9,77.7,76.3,77.4,75.6z"/>
		<path class="st2" d="M80.1,77.9c-0.4-0.1-0.8-0.3-1.2-0.5C79.3,77.6,79.7,77.8,80.1,77.9z"/>
		<path class="st2" d="M77,74.7c0,0.2,0.1,0.3,0.1,0.4C77.1,75,77.1,74.8,77,74.7C77,74.6,77,74.7,77,74.7z"/>
		<path class="st2" d="M80.4,78c0.1,0,0.1,0,0.2,0C80.5,78,80.4,78,80.4,78C80.3,78,80.3,78,80.4,78z"/>
		<path class="st2" d="M68.8,60c0.6,0.3,1.4,0.5,2.1,0.5c2.7,0,4.9-2.5,4.3-5.4c-0.1-0.6-0.4-1.2-0.8-1.7c-0.2-0.3-0.5-0.6-0.9-0.9
			S73,52.2,72.6,52c-0.2-0.1-0.4-0.1-0.6-0.2c-1.2-0.3-2.3-0.1-3.2,0.4c-0.2,0.1-0.3,0.1-0.5,0.1c-0.3,0-0.6-0.2-0.8-0.5
			c-0.1-0.1-0.1-0.3-0.1-0.5v-9.3H49.7H39.5v27.9h9.4c0.7,0,1.1-0.8,0.8-1.3c-0.6-0.9-0.8-2.1-0.5-3.3c0.4-1.6,1.7-3,3.3-3.3
			c2.8-0.6,5.4,1.6,5.4,4.3c0,0.8-0.2,1.6-0.6,2.2c-0.4,0.6,0.1,1.4,0.8,1.4l9.4,0v-9.3C67.4,60.1,68.2,59.6,68.8,60z"/>
	</g>
	<path class="st2" d="M552,103.4h-46.8c-2.4,0-4.4-2-4.4-4.4V34.8c0-2.4,2-4.4,4.4-4.4H552c2.4,0,4.4,2,4.4,4.4v36.6"/>
	<path class="st2" d="M548.6,94.6H506c-1,0-1.9-0.8-1.9-1.9V37.9c0-1,0.8-1.9,1.9-1.9h45.2c1,0,1.9,0.8,1.9,1.9v24.6"/>
	<path class="st2" d="M530.2,100.7c-0.5,0.5-1,0.7-1.6,0.7c-0.6,0-1.2-0.2-1.6-0.7c-0.5-0.5-0.7-1-0.7-1.6c0-0.6,0.2-1.2,0.7-1.6
		c0.5-0.5,1-0.7,1.6-0.7c0.6,0,1.2,0.2,1.6,0.7c0.5,0.5,0.7,1,0.7,1.6C530.9,99.7,530.6,100.2,530.2,100.7L530.2,100.7z"/>
	<g>
		<path class="st2" d="M572.9,71.9c-0.5-1.6-2.2-2.4-3.7-1.9c-1.5,0.5-2.4,2.2-1.9,3.7c-0.5-1.5-2.2-2.4-3.7-1.9
			c-1.6,0.5-2.4,2.2-1.9,3.7"/>
		<path class="st2" d="M561.6,75.5c-0.5-1.6-2.2-2.4-3.7-1.9s-2.4,2.2-1.9,3.7l0.3,0.9l-4-12.4c-0.5-1.6-2.2-2.4-3.7-1.9
			c-1.6,0.5-2.4,2.2-1.9,3.7l6.4,19.9l-0.1,0.1c-3.4-1.9-6-4.3-7.7-4.2c-2.3,0.2-3.5,2.4-1.1,4.8c2.4,2.3,13.5,12.2,13.5,12.2"/>
	</g>
	<circle class="st2" cx="513.5" cy="50.2" r="3.9"/>
	<circle class="st2" cx="513.5" cy="65.3" r="3.9"/>
	<circle class="st2" cx="513.5" cy="80.4" r="3.9"/>
	<g>
		<path class="st2" d="M386.2,30.2h12.6c2.4,0,4.4,2,4.4,4.4v22.7"/>
		<path class="st2" d="M403.3,83.5v11.8c0,2.4-2,4.4-4.4,4.4H352c-2.4,0-4.4-2-4.4-4.4V34.6c0-2.4,2-4.4,4.4-4.4h11.2"/>
		<path class="st2" d="M382.3,26.7v-0.4c0-0.6-0.5-1.1-1.1-1.1h-12.8c-0.6,0-1.1,0.5-1.1,1.1v0.4c0,0.5-0.4,0.8-0.8,0.8h-1.9
			c-0.6,0-1.2,0.5-1.2,1.2v3.5c0,0.6,0.5,1.2,1.2,1.2H385c0.6,0,1.2-0.5,1.2-1.2v-3.5c0-0.6-0.5-1.2-1.2-1.2h-1.9
			C382.7,27.5,382.3,27.1,382.3,26.7z"/>
		
			<rect x="395.3" y="55.2" transform="matrix(0.8176 0.5757 -0.5757 0.8176 115.305 -216.5897)" class="st2" width="8.5" height="37.1"/>
		<polygon class="st2" points="383.9,95.9 384.6,87.6 385.4,86.4 392.3,91.3 391.5,92.5 		"/>
		<line class="st2" x1="403.4" y1="61.3" x2="410.1" y2="66.1"/>
		<circle class="st2" cx="360.2" cy="52" r="3.9"/>
		<circle class="st2" cx="360.2" cy="67.1" r="3.9"/>
		<circle class="st2" cx="360.2" cy="82.3" r="3.9"/>
		<polyline class="st2" points="358.2,50.8 360.1,52.9 364.1,48.9 		"/>
		<polyline class="st2" points="358.2,66.1 360.1,68.3 364.1,64.2 		"/>
		<polyline class="st2" points="358.2,81.2 360.1,83.3 364.1,79.2 		"/>
		<path class="st2" d="M385,27.5h-1.9c-0.5,0-0.8-0.4-0.8-0.8v-0.4c0-0.6-0.5-1.1-1.1-1.1h-12.8c-0.6,0-1.1,0.5-1.1,1.1v0.4
			c0,0.5-0.4,0.8-0.8,0.8h-1.9c-0.6,0-1.2,0.5-1.2,1.2v1.5v2c0,0.6,0.5,1.2,1.2,1.2H385c0.6,0,1.2-0.5,1.2-1.2v-2v-1.5
			C386.2,28,385.7,27.5,385,27.5z"/>
		<g>
			<polyline class="st2" points="412.6,62.6 415.5,64.6 403.9,81.1 			"/>
			<g>
				<polygon class="st2" points="403.2,61.2 410.1,66.1 413.7,61 406.7,56.1 385.4,86.4 392.3,91.3 410.1,66.1 				"/>
				<polygon class="st2" points="384.6,87.6 383.9,95.9 391.5,92.5 392.3,91.3 385.4,86.4 				"/>
			</g>
		</g>
		<circle class="st2" cx="360.2" cy="52" r="3.9"/>
		<circle class="st2" cx="360.2" cy="67.1" r="3.9"/>
		<circle class="st2" cx="360.2" cy="82.3" r="3.9"/>
		<polyline class="st2" points="358.2,50.8 360.1,52.9 364.1,48.9 		"/>
		<polyline class="st2" points="358.2,66.1 360.1,68.3 364.1,64.2 		"/>
		<polyline class="st2" points="358.2,81.2 360.1,83.3 364.1,79.2 		"/>
	</g>
	<path class="st2" d="M832.1,32.6h-11.9c-2.4,0-4.4,2-4.4,4.4v60.7c0,2.4,2,4.4,4.4,4.4H867c2.4,0,4.4-2,4.4-4.4V37
		c0-2.4-2-4.4-4.4-4.4h-11.7"/>
	<path class="st2" d="M851.1,29.1v-0.4c0-0.6-0.5-1.1-1.1-1.1h-12.8c-0.6,0-1.1,0.5-1.1,1.1v0.4c0,0.5-0.4,0.8-0.8,0.8h-1.9
		c-0.6,0-1.2,0.5-1.2,1.2v3.5c0,0.6,0.5,1.2,1.2,1.2h20.6c0.6,0,1.2-0.5,1.2-1.2v-3.5c0-0.6-0.5-1.2-1.2-1.2h-1.9
		C851.5,29.9,851.1,29.5,851.1,29.1z"/>
	<line class="st2" x1="832.9" y1="54.4" x2="862.5" y2="54.4"/>
	<line class="st2" x1="851.4" y1="69.5" x2="862.5" y2="69.5"/>
	<line class="st2" x1="825.1" y1="69.5" x2="843.6" y2="69.5"/>
	<line class="st2" x1="841" y1="84.7" x2="862.5" y2="84.7"/>
	<line class="st2" x1="825.1" y1="84.7" x2="833.1" y2="84.7"/>
	<circle class="st2" cx="829" cy="54.4" r="3.9"/>
	<circle class="st2" cx="847.5" cy="69.5" r="3.9"/>
	<circle class="st2" cx="837" cy="84.7" r="3.9"/>
	<path class="st2" d="M1028,84.3v-6.7V26.7c0-2.4-2-4.4-4.4-4.4h-11.9"/>
	<path class="st2" d="M972.2,84.9v-8.4V26.7c0-2.4,2-4.4,4.4-4.4h11.6"/>
	<path class="st2" d="M1007.7,18.7v-0.4c0-0.6-0.5-1.1-1.1-1.1h-12.8c-0.6,0-1.1,0.5-1.1,1.1v0.4c0,0.5-0.4,0.8-0.8,0.8h-1.9
		c-0.6,0-1.2,0.5-1.2,1.2v3.5c0,0.6,0.5,1.2,1.2,1.2h20.6c0.6,0,1.2-0.5,1.2-1.2v-3.5c0-0.6-0.5-1.2-1.2-1.2h-1.9
		C1008,19.6,1007.7,19.2,1007.7,18.7z"/>
	<path class="st2" d="M991.6,99.6h15.6c2.2,0,3.9-1.8,3.9-3.9v0c0-2.2-1.8-3.9-4-3.9c-3.1,0-7.2,0-10.2,0
		c-5.1-0.2-10.2-4.2-17.5-4.3c-3.1-0.1-6,1.2-8.4,2.7c-3.3,2-7.1,4.3-7.1,4.3"/>
	<path class="st2" d="M1011.1,95.6l15.4-6c7.9-3.6,11.7,2.6,6.3,5.7l-25.4,14c-3.8,1.6-5.7,2.4-8.7,2.4c-9,0-14.9-3.3-22-3.3
		c-3.5,0-6.4,1.2-8.5,2.3"/>
	<path class="st2" d="M1000.1,47.7c-3.5,0-6.6,1.6-8.6,4.2l8.9,9l5.6-5.6l2.2,2.3l-8.1,8.1l-10.5-10.5c-0.4,1.1-0.6,2.4-0.6,3.6
		c0,6.1,4.9,11,11,11c6.1,0,11-4.9,11-11S1006.2,47.7,1000.1,47.7z"/>
	<g>
		<path class="st2" d="M227,27v-0.4c0-0.6-0.5-1.1-1.1-1.1H213c-0.6,0-1.1,0.5-1.1,1.1V27c0,0.5-0.4,0.8-0.8,0.8h-1.9
			c-0.6,0-1.2,0.5-1.2,1.2v3.5c0,0.6,0.5,1.2,1.2,1.2h20.6c0.6,0,1.2-0.5,1.2-1.2V29c0-0.6-0.5-1.2-1.2-1.2h-1.9
			C227.3,27.8,227,27.5,227,27z"/>
		<g>
			<polyline class="st2" points="225.4,60.6 233.5,66.5 225.1,72.5 			"/>
			<polyline class="st2" points="213.7,72.5 205.6,66.7 214,60.6 			"/>
			<line class="st2" x1="222.4" y1="56.5" x2="216.9" y2="76.7"/>
		</g>
		<g>
			<path class="st2" d="M242.8,30.5h-11.9v2c0,0.6-0.5,1.2-1.2,1.2h-20.6c-0.6,0-1.2-0.5-1.2-1.2v-2H196c-2.4,0-4.4,2-4.4,4.4v60.7
				c0,2.4,2,4.4,4.4,4.4h46.8c2.4,0,4.4-2,4.4-4.4V34.9C247.3,32.5,245.3,30.5,242.8,30.5z"/>
			<path class="st2" d="M229.7,27.8h-1.9c-0.5,0-0.8-0.4-0.8-0.8v-0.4c0-0.6-0.5-1.1-1.1-1.1H213c-0.6,0-1.1,0.5-1.1,1.1V27
				c0,0.5-0.4,0.8-0.8,0.8h-1.9c-0.6,0-1.2,0.5-1.2,1.2v1.5v2c0,0.6,0.5,1.2,1.2,1.2h20.6c0.6,0,1.2-0.5,1.2-1.2v-2V29
				C230.9,28.4,230.4,27.8,229.7,27.8z"/>
		</g>
		<g>
			<polyline class="st2" points="225.4,60.6 233.5,66.5 225.1,72.5 			"/>
			<polyline class="st2" points="213.7,72.5 205.6,66.7 214,60.6 			"/>
			<line class="st2" x1="222.4" y1="56.5" x2="216.9" y2="76.7"/>
		</g>
	</g>
	<path class="st2" d="M686.7,35.9c10.3,0,19.1,5.8,22.4,14c-0.3,0.2-0.5,0.5-0.5,0.9v27.8c0,0.6,0.5,1,1,1c0.3,0,0.7,0,1,0
		c-2.3,7.2-8.6,12.9-16.6,15.2c-1-1.5-2.7-2.6-4.6-2.6h-5.7c-3,0-5.4,2.4-5.4,5.4v1.1c0,3,2.4,5.4,5.4,5.4h5.7c2.7,0,5-2,5.4-4.7
		c10.7-2.8,19-11,21-21.2c5.1-2.4,8.7-7.6,8.7-13.6l0,0c0-5.6-3.1-10.5-7.6-13c-2.8-13-15.3-22.8-30.3-22.8c-15.9,0-29,11-30.7,25.1
		c-2.8,2.7-4.6,6.5-4.6,10.7c0,8.2,6.7,14.9,14.9,14.9c0.6,0,1-0.5,1-1V50.7c0-0.6-0.5-1-1-1c-0.7,0-1.4,0.1-2.1,0.1 M724.7,64.6"/>
</g>
<g>
	<path class="st1" d="M968,198v-7.6h-2.8v-1h6.8v1h-2.8v7.6H968z"/>
	<path class="st1" d="M972.5,198v-6.2h0.9v0.9c0.2-0.4,0.5-0.7,0.7-0.9s0.4-0.2,0.7-0.2c0.4,0,0.7,0.1,1.1,0.3l-0.4,1
		c-0.3-0.2-0.5-0.2-0.8-0.2c-0.2,0-0.4,0.1-0.6,0.2s-0.3,0.3-0.4,0.6c-0.1,0.4-0.2,0.8-0.2,1.2v3.3H972.5z"/>
	<path class="st1" d="M980.6,197.3c-0.4,0.3-0.8,0.6-1.1,0.7s-0.7,0.2-1.2,0.2c-0.7,0-1.2-0.2-1.6-0.5s-0.6-0.8-0.6-1.3
		c0-0.3,0.1-0.6,0.2-0.8s0.3-0.5,0.5-0.6s0.5-0.3,0.8-0.3c0.2-0.1,0.5-0.1,0.9-0.2c0.9-0.1,1.5-0.2,1.9-0.4c0-0.1,0-0.2,0-0.3
		c0-0.4-0.1-0.7-0.3-0.9c-0.3-0.2-0.7-0.4-1.2-0.4c-0.5,0-0.9,0.1-1.1,0.3s-0.4,0.5-0.5,0.9l-1-0.1c0.1-0.4,0.2-0.8,0.5-1.1
		s0.5-0.5,0.9-0.6s0.9-0.2,1.4-0.2c0.5,0,1,0.1,1.3,0.2s0.6,0.3,0.7,0.5s0.3,0.4,0.3,0.7c0,0.2,0.1,0.5,0.1,1v1.4c0,1,0,1.6,0.1,1.9
		s0.1,0.5,0.3,0.7h-1.1C980.7,197.8,980.6,197.6,980.6,197.3z M980.5,194.9c-0.4,0.2-1,0.3-1.7,0.4c-0.4,0.1-0.7,0.1-0.9,0.2
		s-0.3,0.2-0.4,0.3s-0.1,0.3-0.1,0.5c0,0.3,0.1,0.5,0.3,0.7s0.5,0.3,0.9,0.3c0.4,0,0.8-0.1,1.1-0.3s0.5-0.4,0.7-0.7
		c0.1-0.2,0.2-0.6,0.2-1.1V194.9z"/>
	<path class="st1" d="M983.2,198v-6.2h0.9v0.9c0.5-0.7,1.1-1,2-1c0.4,0,0.7,0.1,1,0.2s0.5,0.3,0.7,0.5s0.3,0.5,0.3,0.8
		c0,0.2,0.1,0.5,0.1,1v3.8h-1.1v-3.8c0-0.4,0-0.8-0.1-1s-0.2-0.4-0.4-0.5s-0.5-0.2-0.7-0.2c-0.4,0-0.8,0.1-1.2,0.4s-0.5,0.8-0.5,1.6
		v3.4H983.2z"/>
	<path class="st1" d="M989.5,196.2l1-0.2c0.1,0.4,0.2,0.7,0.5,1s0.6,0.3,1.1,0.3c0.5,0,0.8-0.1,1.1-0.3s0.4-0.4,0.4-0.7
		c0-0.2-0.1-0.4-0.3-0.6c-0.1-0.1-0.5-0.2-1.1-0.4c-0.8-0.2-1.3-0.4-1.6-0.5s-0.5-0.3-0.7-0.6s-0.2-0.5-0.2-0.8
		c0-0.3,0.1-0.5,0.2-0.8s0.3-0.4,0.5-0.6c0.2-0.1,0.4-0.2,0.7-0.3s0.6-0.1,0.9-0.1c0.5,0,0.9,0.1,1.3,0.2s0.6,0.3,0.8,0.6
		s0.3,0.6,0.4,1l-1,0.1c0-0.3-0.2-0.6-0.4-0.8s-0.5-0.3-1-0.3c-0.5,0-0.8,0.1-1,0.2s-0.3,0.3-0.3,0.6c0,0.1,0,0.3,0.1,0.4
		c0.1,0.1,0.2,0.2,0.4,0.3c0.1,0,0.4,0.1,0.9,0.3c0.7,0.2,1.3,0.4,1.6,0.5s0.5,0.3,0.7,0.6s0.3,0.5,0.3,0.9c0,0.4-0.1,0.7-0.3,1
		s-0.5,0.6-0.9,0.7s-0.8,0.3-1.3,0.3c-0.8,0-1.4-0.2-1.8-0.5S989.6,196.8,989.5,196.2z"/>
	<path class="st1" d="M995.9,198v-6.2h0.9v0.9c0.2-0.3,0.5-0.5,0.8-0.7s0.7-0.3,1.1-0.3c0.5,0,0.8,0.1,1.1,0.3s0.5,0.5,0.6,0.8
		c0.5-0.7,1.1-1.1,1.9-1.1c0.6,0,1.1,0.2,1.4,0.5s0.5,0.9,0.5,1.6v4.3h-1v-3.9c0-0.4,0-0.7-0.1-0.9s-0.2-0.3-0.4-0.4
		s-0.4-0.2-0.6-0.2c-0.4,0-0.8,0.1-1.1,0.4s-0.4,0.8-0.4,1.4v3.6h-1.1v-4c0-0.5-0.1-0.8-0.3-1.1s-0.5-0.4-0.8-0.4
		c-0.3,0-0.6,0.1-0.8,0.2s-0.4,0.4-0.5,0.7s-0.2,0.7-0.2,1.3v3.2H995.9z"/>
	<path class="st1" d="M1005.9,190.7v-1.2h1.1v1.2H1005.9z M1005.9,198v-6.2h1.1v6.2H1005.9z"/>
	<path class="st1" d="M1008.1,196.2l1-0.2c0.1,0.4,0.2,0.7,0.5,1s0.6,0.3,1.1,0.3c0.5,0,0.8-0.1,1.1-0.3s0.4-0.4,0.4-0.7
		c0-0.2-0.1-0.4-0.3-0.6c-0.1-0.1-0.5-0.2-1.1-0.4c-0.8-0.2-1.3-0.4-1.6-0.5s-0.5-0.3-0.7-0.6s-0.2-0.5-0.2-0.8
		c0-0.3,0.1-0.5,0.2-0.8s0.3-0.4,0.5-0.6c0.2-0.1,0.4-0.2,0.7-0.3s0.6-0.1,0.9-0.1c0.5,0,0.9,0.1,1.3,0.2s0.6,0.3,0.8,0.6
		s0.3,0.6,0.4,1l-1,0.1c0-0.3-0.2-0.6-0.4-0.8s-0.5-0.3-1-0.3c-0.5,0-0.8,0.1-1,0.2s-0.3,0.3-0.3,0.6c0,0.1,0,0.3,0.1,0.4
		c0.1,0.1,0.2,0.2,0.4,0.3c0.1,0,0.4,0.1,0.9,0.3c0.7,0.2,1.3,0.4,1.6,0.5s0.5,0.3,0.7,0.6s0.3,0.5,0.3,0.9c0,0.4-0.1,0.7-0.3,1
		s-0.5,0.6-0.9,0.7s-0.8,0.3-1.3,0.3c-0.8,0-1.4-0.2-1.8-0.5S1008.2,196.8,1008.1,196.2z"/>
	<path class="st1" d="M1014.1,196.2l1-0.2c0.1,0.4,0.2,0.7,0.5,1s0.6,0.3,1.1,0.3c0.5,0,0.8-0.1,1.1-0.3s0.4-0.4,0.4-0.7
		c0-0.2-0.1-0.4-0.3-0.6c-0.1-0.1-0.5-0.2-1.1-0.4c-0.8-0.2-1.3-0.4-1.6-0.5s-0.5-0.3-0.7-0.6s-0.2-0.5-0.2-0.8
		c0-0.3,0.1-0.5,0.2-0.8s0.3-0.4,0.5-0.6c0.2-0.1,0.4-0.2,0.7-0.3s0.6-0.1,0.9-0.1c0.5,0,0.9,0.1,1.3,0.2s0.6,0.3,0.8,0.6
		s0.3,0.6,0.4,1l-1,0.1c0-0.3-0.2-0.6-0.4-0.8s-0.5-0.3-1-0.3c-0.5,0-0.8,0.1-1,0.2s-0.3,0.3-0.3,0.6c0,0.1,0,0.3,0.1,0.4
		c0.1,0.1,0.2,0.2,0.4,0.3c0.1,0,0.4,0.1,0.9,0.3c0.7,0.2,1.3,0.4,1.6,0.5s0.5,0.3,0.7,0.6s0.3,0.5,0.3,0.9c0,0.4-0.1,0.7-0.3,1
		s-0.5,0.6-0.9,0.7s-0.8,0.3-1.3,0.3c-0.8,0-1.4-0.2-1.8-0.5S1014.2,196.8,1014.1,196.2z"/>
	<path class="st1" d="M1020.5,190.7v-1.2h1.1v1.2H1020.5z M1020.5,198v-6.2h1.1v6.2H1020.5z"/>
	<path class="st1" d="M1022.8,194.9c0-1.2,0.3-2,1-2.6c0.5-0.5,1.2-0.7,2-0.7c0.9,0,1.6,0.3,2.1,0.8s0.8,1.3,0.8,2.3
		c0,0.8-0.1,1.4-0.4,1.9s-0.6,0.8-1,1.1s-1,0.4-1.5,0.4c-0.9,0-1.6-0.3-2.1-0.8S1022.8,196,1022.8,194.9z M1023.9,194.9
		c0,0.8,0.2,1.4,0.5,1.8s0.8,0.6,1.3,0.6c0.5,0,1-0.2,1.3-0.6s0.5-1,0.5-1.8c0-0.8-0.2-1.4-0.5-1.7s-0.8-0.6-1.3-0.6
		c-0.5,0-1,0.2-1.3,0.6S1023.9,194.1,1023.9,194.9z"/>
	<path class="st1" d="M1029.9,198v-6.2h0.9v0.9c0.5-0.7,1.1-1,2-1c0.4,0,0.7,0.1,1,0.2s0.5,0.3,0.7,0.5s0.3,0.5,0.3,0.8
		c0,0.2,0.1,0.5,0.1,1v3.8h-1.1v-3.8c0-0.4,0-0.8-0.1-1s-0.2-0.4-0.4-0.5s-0.5-0.2-0.7-0.2c-0.4,0-0.8,0.1-1.2,0.4s-0.5,0.8-0.5,1.6
		v3.4H1029.9z"/>
	<path class="st1" d="M980.8,212.4v-0.8c-0.4,0.6-1,0.9-1.7,0.9c-0.5,0-1-0.1-1.4-0.4s-0.7-0.7-1-1.1s-0.3-1.1-0.3-1.7
		c0-0.6,0.1-1.2,0.3-1.7s0.5-0.9,0.9-1.2s0.9-0.4,1.4-0.4c0.4,0,0.7,0.1,1,0.2s0.5,0.4,0.7,0.6v-3.1h1v8.6H980.8z M977.5,209.3
		c0,0.8,0.2,1.4,0.5,1.8s0.7,0.6,1.2,0.6c0.5,0,0.9-0.2,1.2-0.6s0.5-1,0.5-1.7c0-0.9-0.2-1.5-0.5-1.9s-0.7-0.6-1.2-0.6
		c-0.5,0-0.9,0.2-1.2,0.6S977.5,208.5,977.5,209.3z"/>
	<path class="st1" d="M987.5,212.4v-0.9c-0.5,0.7-1.1,1.1-2,1.1c-0.4,0-0.7-0.1-1-0.2s-0.6-0.3-0.7-0.5s-0.3-0.5-0.3-0.8
		c0-0.2-0.1-0.5-0.1-1v-3.9h1.1v3.5c0,0.6,0,0.9,0.1,1.1c0.1,0.3,0.2,0.5,0.4,0.7s0.5,0.2,0.8,0.2s0.6-0.1,0.9-0.2s0.5-0.4,0.6-0.7
		s0.2-0.7,0.2-1.2v-3.3h1.1v6.2H987.5z"/>
	<path class="st1" d="M993.7,212.4V207h-0.9v-0.8h0.9v-0.7c0-0.4,0-0.7,0.1-0.9c0.1-0.3,0.3-0.5,0.5-0.7s0.6-0.3,1.1-0.3
		c0.3,0,0.6,0,1,0.1l-0.2,0.9c-0.2,0-0.4-0.1-0.6-0.1c-0.3,0-0.5,0.1-0.7,0.2s-0.2,0.4-0.2,0.8v0.6h1.2v0.8h-1.2v5.4H993.7z"/>
	<path class="st1" d="M996.8,205.1v-1.2h1.1v1.2H996.8z M996.8,212.4v-6.2h1.1v6.2H996.8z"/>
	<path class="st1" d="M1003.5,210.2l1,0.1c-0.1,0.7-0.4,1.3-0.9,1.7s-1,0.6-1.7,0.6c-0.9,0-1.5-0.3-2.1-0.8s-0.8-1.4-0.8-2.4
		c0-0.7,0.1-1.3,0.3-1.8s0.6-0.9,1-1.1s1-0.4,1.5-0.4c0.7,0,1.2,0.2,1.7,0.5s0.7,0.8,0.8,1.5l-1,0.2c-0.1-0.4-0.3-0.7-0.5-0.9
		s-0.5-0.3-0.9-0.3c-0.5,0-1,0.2-1.3,0.6s-0.5,1-0.5,1.8c0,0.8,0.2,1.4,0.5,1.8s0.7,0.6,1.3,0.6c0.4,0,0.8-0.1,1-0.4
		S1003.4,210.7,1003.5,210.2z"/>
	<path class="st1" d="M1005.4,212.4v-8.6h1.1v3.1c0.5-0.6,1.1-0.9,1.9-0.9c0.5,0,0.9,0.1,1.2,0.3s0.6,0.4,0.7,0.8s0.2,0.8,0.2,1.4
		v3.9h-1.1v-3.9c0-0.5-0.1-0.9-0.3-1.2s-0.6-0.4-1-0.4c-0.3,0-0.6,0.1-0.9,0.2s-0.5,0.4-0.6,0.7s-0.2,0.7-0.2,1.1v3.4H1005.4z"/>
	<path class="st1" d="M1012.1,205.1v-1.2h1.1v1.2H1012.1z M1012.1,212.4v-6.2h1.1v6.2H1012.1z"/>
	<path class="st1" d="M1019,210.4l1.1,0.1c-0.2,0.6-0.5,1.1-1,1.5s-1.1,0.5-1.8,0.5c-0.9,0-1.6-0.3-2.2-0.8s-0.8-1.3-0.8-2.4
		c0-1,0.3-1.9,0.8-2.4s1.2-0.9,2.1-0.9c0.8,0,1.5,0.3,2,0.8s0.8,1.4,0.8,2.4c0,0.1,0,0.2,0,0.3h-4.6c0,0.7,0.2,1.2,0.6,1.6
		s0.8,0.5,1.3,0.5c0.4,0,0.7-0.1,1-0.3S1018.9,210.9,1019,210.4z M1015.6,208.7h3.5c0-0.5-0.2-0.9-0.4-1.2c-0.3-0.4-0.8-0.6-1.3-0.6
		c-0.5,0-0.9,0.2-1.2,0.5S1015.6,208.2,1015.6,208.7z"/>
	<path class="st1" d="M1021.4,212.4v-6.2h0.9v0.9c0.2-0.4,0.5-0.7,0.7-0.9s0.4-0.2,0.7-0.2c0.4,0,0.7,0.1,1.1,0.3l-0.4,1
		c-0.3-0.2-0.5-0.2-0.8-0.2c-0.2,0-0.4,0.1-0.6,0.2s-0.3,0.3-0.4,0.6c-0.1,0.4-0.2,0.8-0.2,1.2v3.3H1021.4z"/>
</g>
<g>
	<path class="st1" d="M815.9,198v-8.6h3.2c0.6,0,1,0,1.3,0.1c0.4,0.1,0.8,0.2,1.1,0.4s0.5,0.5,0.7,0.8s0.3,0.7,0.3,1.2
		c0,0.7-0.2,1.3-0.7,1.9s-1.3,0.8-2.5,0.8h-2.2v3.5H815.9z M817.1,193.5h2.2c0.7,0,1.3-0.1,1.6-0.4s0.5-0.7,0.5-1.2
		c0-0.4-0.1-0.7-0.3-0.9s-0.4-0.4-0.7-0.5c-0.2-0.1-0.5-0.1-1.1-0.1h-2.2V193.5z"/>
	<path class="st1" d="M823.8,198v-6.2h0.9v0.9c0.2-0.4,0.5-0.7,0.7-0.9s0.4-0.2,0.7-0.2c0.4,0,0.7,0.1,1.1,0.3l-0.4,1
		c-0.3-0.2-0.5-0.2-0.8-0.2c-0.2,0-0.4,0.1-0.6,0.2s-0.3,0.3-0.4,0.6c-0.1,0.4-0.2,0.8-0.2,1.2v3.3H823.8z"/>
	<path class="st1" d="M827.4,194.9c0-1.2,0.3-2,1-2.6c0.5-0.5,1.2-0.7,2-0.7c0.9,0,1.6,0.3,2.1,0.8s0.8,1.3,0.8,2.3
		c0,0.8-0.1,1.4-0.4,1.9s-0.6,0.8-1,1.1s-1,0.4-1.5,0.4c-0.9,0-1.6-0.3-2.1-0.8S827.4,196,827.4,194.9z M828.5,194.9
		c0,0.8,0.2,1.4,0.5,1.8s0.8,0.6,1.3,0.6c0.5,0,1-0.2,1.3-0.6s0.5-1,0.5-1.8c0-0.8-0.2-1.4-0.5-1.7s-0.8-0.6-1.3-0.6
		c-0.5,0-1,0.2-1.3,0.6S828.5,194.1,828.5,194.9z"/>
	<path class="st1" d="M838.5,198v-0.8c-0.4,0.6-1,0.9-1.7,0.9c-0.5,0-1-0.1-1.4-0.4s-0.7-0.7-1-1.1s-0.3-1.1-0.3-1.7
		c0-0.6,0.1-1.2,0.3-1.7s0.5-0.9,0.9-1.2s0.9-0.4,1.4-0.4c0.4,0,0.7,0.1,1,0.2s0.5,0.4,0.7,0.6v-3.1h1v8.6H838.5z M835.2,194.9
		c0,0.8,0.2,1.4,0.5,1.8s0.7,0.6,1.2,0.6c0.5,0,0.9-0.2,1.2-0.6s0.5-1,0.5-1.7c0-0.9-0.2-1.5-0.5-1.9s-0.7-0.6-1.2-0.6
		c-0.5,0-0.9,0.2-1.2,0.6S835.2,194.1,835.2,194.9z"/>
	<path class="st1" d="M845.2,198v-0.9c-0.5,0.7-1.1,1.1-2,1.1c-0.4,0-0.7-0.1-1-0.2s-0.6-0.3-0.7-0.5s-0.3-0.5-0.3-0.8
		c0-0.2-0.1-0.5-0.1-1v-3.9h1.1v3.5c0,0.6,0,0.9,0.1,1.1c0.1,0.3,0.2,0.5,0.4,0.7s0.5,0.2,0.8,0.2s0.6-0.1,0.9-0.2s0.5-0.4,0.6-0.7
		s0.2-0.7,0.2-1.2v-3.3h1.1v6.2H845.2z"/>
	<path class="st1" d="M851.9,195.8l1,0.1c-0.1,0.7-0.4,1.3-0.9,1.7s-1,0.6-1.7,0.6c-0.9,0-1.5-0.3-2.1-0.8s-0.8-1.4-0.8-2.4
		c0-0.7,0.1-1.3,0.3-1.8s0.6-0.9,1-1.1s1-0.4,1.5-0.4c0.7,0,1.2,0.2,1.7,0.5s0.7,0.8,0.8,1.5l-1,0.2c-0.1-0.4-0.3-0.7-0.5-0.9
		s-0.5-0.3-0.9-0.3c-0.5,0-1,0.2-1.3,0.6s-0.5,1-0.5,1.8c0,0.8,0.2,1.4,0.5,1.8s0.7,0.6,1.3,0.6c0.4,0,0.8-0.1,1-0.4
		S851.8,196.3,851.9,195.8z"/>
	<path class="st1" d="M856.1,197.1l0.2,0.9c-0.3,0.1-0.6,0.1-0.8,0.1c-0.4,0-0.7-0.1-0.9-0.2s-0.4-0.3-0.4-0.5s-0.1-0.6-0.1-1.2
		v-3.6h-0.8v-0.8h0.8v-1.5l1-0.6v2.2h1.1v0.8H855v3.6c0,0.3,0,0.5,0.1,0.6s0.1,0.2,0.2,0.2s0.2,0.1,0.4,0.1
		C855.8,197.1,855.9,197.1,856.1,197.1z"/>
	<path class="st1" d="M857.1,190.7v-1.2h1.1v1.2H857.1z M857.1,198v-6.2h1.1v6.2H857.1z"/>
	<path class="st1" d="M859.4,194.9c0-1.2,0.3-2,1-2.6c0.5-0.5,1.2-0.7,2-0.7c0.9,0,1.6,0.3,2.1,0.8s0.8,1.3,0.8,2.3
		c0,0.8-0.1,1.4-0.4,1.9s-0.6,0.8-1,1.1s-1,0.4-1.5,0.4c-0.9,0-1.6-0.3-2.1-0.8S859.4,196,859.4,194.9z M860.5,194.9
		c0,0.8,0.2,1.4,0.5,1.8s0.8,0.6,1.3,0.6c0.5,0,1-0.2,1.3-0.6s0.5-1,0.5-1.8c0-0.8-0.2-1.4-0.5-1.7s-0.8-0.6-1.3-0.6
		c-0.5,0-1,0.2-1.3,0.6S860.5,194.1,860.5,194.9z"/>
	<path class="st1" d="M866.5,198v-6.2h0.9v0.9c0.5-0.7,1.1-1,2-1c0.4,0,0.7,0.1,1,0.2s0.6,0.3,0.7,0.5s0.3,0.5,0.3,0.8
		c0,0.2,0.1,0.5,0.1,1v3.8h-1.1v-3.8c0-0.4,0-0.8-0.1-1s-0.2-0.4-0.4-0.5s-0.5-0.2-0.7-0.2c-0.4,0-0.8,0.1-1.2,0.4s-0.5,0.8-0.5,1.6
		v3.4H866.5z"/>
	<path class="st1" d="M824.2,212.4v-0.8c-0.4,0.6-1,0.9-1.7,0.9c-0.5,0-1-0.1-1.4-0.4s-0.7-0.7-1-1.1s-0.3-1.1-0.3-1.7
		c0-0.6,0.1-1.2,0.3-1.7s0.5-0.9,0.9-1.2s0.9-0.4,1.4-0.4c0.4,0,0.7,0.1,1,0.2s0.5,0.4,0.7,0.6v-3.1h1v8.6H824.2z M820.8,209.3
		c0,0.8,0.2,1.4,0.5,1.8s0.7,0.6,1.2,0.6c0.5,0,0.9-0.2,1.2-0.6s0.5-1,0.5-1.7c0-0.9-0.2-1.5-0.5-1.9s-0.7-0.6-1.2-0.6
		c-0.5,0-0.9,0.2-1.2,0.6S820.8,208.5,820.8,209.3z"/>
	<path class="st1" d="M830.9,212.4v-0.9c-0.5,0.7-1.1,1.1-2,1.1c-0.4,0-0.7-0.1-1-0.2s-0.6-0.3-0.7-0.5s-0.3-0.5-0.3-0.8
		c0-0.2-0.1-0.5-0.1-1v-3.9h1.1v3.5c0,0.6,0,0.9,0.1,1.1c0.1,0.3,0.2,0.5,0.4,0.7s0.5,0.2,0.8,0.2s0.6-0.1,0.9-0.2s0.5-0.4,0.6-0.7
		s0.2-0.7,0.2-1.2v-3.3h1.1v6.2H830.9z"/>
	<path class="st1" d="M837.1,212.4V207h-0.9v-0.8h0.9v-0.7c0-0.4,0-0.7,0.1-0.9c0.1-0.3,0.3-0.5,0.5-0.7s0.6-0.3,1.1-0.3
		c0.3,0,0.6,0,1,0.1l-0.2,0.9c-0.2,0-0.4-0.1-0.6-0.1c-0.3,0-0.5,0.1-0.7,0.2s-0.2,0.4-0.2,0.8v0.6h1.2v0.8h-1.2v5.4H837.1z"/>
	<path class="st1" d="M840.1,205.1v-1.2h1.1v1.2H840.1z M840.1,212.4v-6.2h1.1v6.2H840.1z"/>
	<path class="st1" d="M846.9,210.2l1,0.1c-0.1,0.7-0.4,1.3-0.9,1.7s-1,0.6-1.7,0.6c-0.9,0-1.5-0.3-2.1-0.8s-0.8-1.4-0.8-2.4
		c0-0.7,0.1-1.3,0.3-1.8s0.6-0.9,1-1.1s0.9-0.4,1.5-0.4c0.7,0,1.2,0.2,1.7,0.5s0.7,0.8,0.8,1.5l-1,0.2c-0.1-0.4-0.3-0.7-0.5-0.9
		s-0.5-0.3-0.9-0.3c-0.5,0-1,0.2-1.3,0.6s-0.5,1-0.5,1.8c0,0.8,0.2,1.4,0.5,1.8s0.7,0.6,1.3,0.6c0.4,0,0.8-0.1,1-0.4
		S846.8,210.7,846.9,210.2z"/>
	<path class="st1" d="M848.8,212.4v-8.6h1.1v3.1c0.5-0.6,1.1-0.9,1.9-0.9c0.5,0,0.9,0.1,1.2,0.3s0.6,0.4,0.7,0.8s0.2,0.8,0.2,1.4
		v3.9h-1.1v-3.9c0-0.5-0.1-0.9-0.3-1.2s-0.6-0.4-1-0.4c-0.3,0-0.6,0.1-0.9,0.2s-0.5,0.4-0.6,0.7s-0.2,0.7-0.2,1.1v3.4H848.8z"/>
	<path class="st1" d="M855.5,205.1v-1.2h1.1v1.2H855.5z M855.5,212.4v-6.2h1.1v6.2H855.5z"/>
	<path class="st1" d="M862.4,210.4l1.1,0.1c-0.2,0.6-0.5,1.1-1,1.5s-1.1,0.5-1.8,0.5c-0.9,0-1.6-0.3-2.2-0.8s-0.8-1.3-0.8-2.4
		c0-1,0.3-1.9,0.8-2.4s1.2-0.9,2.1-0.9c0.8,0,1.5,0.3,2,0.8s0.8,1.4,0.8,2.4c0,0.1,0,0.2,0,0.3h-4.6c0,0.7,0.2,1.2,0.6,1.6
		s0.8,0.5,1.3,0.5c0.4,0,0.7-0.1,1-0.3S862.2,210.9,862.4,210.4z M858.9,208.7h3.5c0-0.5-0.2-0.9-0.4-1.2c-0.3-0.4-0.8-0.6-1.3-0.6
		c-0.5,0-0.9,0.2-1.2,0.5S859,208.2,858.9,208.7z"/>
	<path class="st1" d="M864.8,212.4v-6.2h0.9v0.9c0.2-0.4,0.5-0.7,0.7-0.9s0.4-0.2,0.7-0.2c0.4,0,0.7,0.1,1.1,0.3l-0.4,1
		c-0.3-0.2-0.5-0.2-0.8-0.2c-0.2,0-0.4,0.1-0.6,0.2s-0.3,0.3-0.4,0.6c-0.1,0.4-0.2,0.8-0.2,1.2v3.3H864.8z"/>
</g>
</svg>
