<?xml version="1.0" encoding="utf-8"?>
<!-- Generator: Adobe Illustrator 22.0.1, SVG Export Plug-In . SVG Version: 6.00 Build 0)  -->
<svg version="1.1" id="Calque_3" xmlns="http://www.w3.org/2000/svg" xmlns:xlink="http://www.w3.org/1999/xlink" x="0px" y="0px"
	 viewBox="0 0 1120.6 220.1" style="enable-background:new 0 0 1120.6 220.1;" xml:space="preserve">
<style type="text/css">
	.st0{fill:none;stroke:#E6142D;stroke-miterlimit:10;}
	.st1{fill:#666666;}
	.st2{fill:none;stroke:#E6142D;stroke-linecap:round;stroke-linejoin:round;stroke-miterlimit:10;}
	.st3{fill:none;stroke:#E6142D;stroke-linecap:round;stroke-linejoin:round;}
	.st4{fill:none;stroke:#E6142D;stroke-linecap:square;stroke-miterlimit:10;}
	.st5{fill:none;}
	.st6{fill:#E6142D;}
	.st7{fill:#FFFFFF;stroke:#E6142D;stroke-miterlimit:10;}
</style>
<g>
	<path class="st1" d="M65.4,172.9h-1.1v-6.7c-0.3,0.2-0.6,0.5-1,0.7s-0.8,0.4-1.1,0.5v-1c0.6-0.3,1.1-0.6,1.5-1
		c0.4-0.4,0.8-0.8,0.9-1.1h0.7V172.9z"/>
</g>
<g>
	<path class="st1" d="M222.9,171.9v1h-5.7c0-0.3,0-0.5,0.1-0.7c0.1-0.4,0.4-0.8,0.7-1.1s0.8-0.8,1.4-1.3c0.9-0.8,1.6-1.4,1.9-1.8
		s0.5-0.9,0.5-1.3c0-0.4-0.1-0.8-0.4-1.1s-0.7-0.4-1.2-0.4c-0.5,0-0.9,0.2-1.2,0.5s-0.5,0.7-0.5,1.3l-1.1-0.1
		c0.1-0.8,0.4-1.4,0.8-1.8s1.1-0.6,2-0.6c0.8,0,1.5,0.2,2,0.7s0.7,1,0.7,1.7c0,0.3-0.1,0.7-0.2,1s-0.4,0.7-0.7,1s-0.9,0.9-1.6,1.5
		c-0.6,0.5-1,0.9-1.2,1.1s-0.3,0.4-0.4,0.6H222.9z"/>
</g>
<g>
	<path class="st1" d="M373.4,170.6l1.1-0.1c0.1,0.6,0.3,1,0.6,1.3s0.6,0.4,1.1,0.4c0.5,0,0.9-0.2,1.3-0.5s0.5-0.8,0.5-1.3
		c0-0.5-0.2-0.9-0.5-1.2s-0.7-0.5-1.2-0.5c-0.2,0-0.4,0-0.7,0.1l0.1-0.9c0.1,0,0.1,0,0.2,0c0.4,0,0.9-0.1,1.2-0.4s0.5-0.6,0.5-1.1
		c0-0.4-0.1-0.7-0.4-1s-0.6-0.4-1-0.4c-0.4,0-0.8,0.1-1,0.4s-0.4,0.6-0.5,1.2l-1.1-0.2c0.1-0.7,0.4-1.3,0.9-1.6s1-0.6,1.7-0.6
		c0.5,0,0.9,0.1,1.3,0.3s0.7,0.5,0.9,0.8s0.3,0.7,0.3,1.1c0,0.4-0.1,0.7-0.3,1s-0.5,0.5-0.9,0.7c0.5,0.1,0.9,0.4,1.2,0.7
		s0.4,0.8,0.4,1.4c0,0.8-0.3,1.4-0.8,1.9s-1.2,0.8-2.1,0.8c-0.8,0-1.4-0.2-1.9-0.7S373.5,171.3,373.4,170.6z"/>
</g>
<g>
	<path class="st1" d="M532.8,172.9v-2.1H529v-1l3.9-5.6h0.9v5.6h1.2v1h-1.2v2.1H532.8z M532.8,169.9V166l-2.7,3.9H532.8z"/>
</g>
<g>
	<path class="st1" d="M685.4,170.6l1.1-0.1c0.1,0.5,0.3,0.9,0.6,1.2s0.7,0.4,1.1,0.4c0.5,0,0.9-0.2,1.3-0.6s0.5-0.9,0.5-1.5
		c0-0.6-0.2-1.1-0.5-1.4s-0.8-0.5-1.3-0.5c-0.3,0-0.6,0.1-0.9,0.2s-0.5,0.4-0.6,0.6l-1-0.1l0.8-4.4h4.3v1h-3.4l-0.5,2.3
		c0.5-0.4,1.1-0.5,1.6-0.5c0.8,0,1.4,0.3,1.9,0.8s0.8,1.2,0.8,2c0,0.8-0.2,1.4-0.7,2c-0.6,0.7-1.3,1-2.3,1c-0.8,0-1.4-0.2-1.9-0.7
		S685.4,171.4,685.4,170.6z"/>
</g>
<g>
	<path class="st1" d="M846.9,166.4l-1,0.1c-0.1-0.4-0.2-0.7-0.4-0.9c-0.3-0.3-0.6-0.5-1.1-0.5c-0.3,0-0.6,0.1-0.9,0.3
		c-0.3,0.2-0.6,0.6-0.8,1.1s-0.3,1.1-0.3,2c0.3-0.4,0.6-0.7,0.9-0.9s0.8-0.3,1.2-0.3c0.7,0,1.3,0.3,1.8,0.8s0.7,1.2,0.7,2
		c0,0.5-0.1,1-0.3,1.5s-0.6,0.8-1,1.1s-0.9,0.4-1.4,0.4c-0.9,0-1.6-0.3-2.2-1s-0.8-1.7-0.8-3.2c0-1.7,0.3-2.9,0.9-3.6
		c0.5-0.7,1.3-1,2.2-1c0.7,0,1.2,0.2,1.7,0.6S846.8,165.7,846.9,166.4z M842.5,170.1c0,0.4,0.1,0.7,0.2,1s0.4,0.6,0.6,0.8
		s0.6,0.3,0.9,0.3c0.4,0,0.8-0.2,1.1-0.5s0.5-0.8,0.5-1.5c0-0.6-0.2-1.1-0.5-1.4s-0.7-0.5-1.2-0.5c-0.5,0-0.9,0.2-1.2,0.5
		S842.5,169.5,842.5,170.1z"/>
</g>
<g>
	<path class="st1" d="M195.9,194.9l1.1,0.3c-0.2,0.9-0.7,1.6-1.3,2.1s-1.4,0.7-2.3,0.7c-0.9,0-1.7-0.2-2.3-0.6s-1-0.9-1.3-1.6
		s-0.5-1.5-0.5-2.3c0-0.9,0.2-1.7,0.5-2.3s0.8-1.2,1.5-1.5s1.3-0.5,2.1-0.5c0.9,0,1.6,0.2,2.2,0.7s1,1.1,1.2,1.8l-1.1,0.3
		c-0.2-0.6-0.5-1.1-0.9-1.4s-0.9-0.4-1.4-0.4c-0.7,0-1.2,0.2-1.7,0.5s-0.8,0.7-0.9,1.3s-0.3,1.1-0.3,1.6c0,0.7,0.1,1.4,0.3,1.9
		s0.5,1,1,1.2s0.9,0.4,1.5,0.4c0.6,0,1.2-0.2,1.6-0.6S195.8,195.6,195.9,194.9z"/>
	<path class="st1" d="M198.3,197.9v-8.6h1.1v8.6H198.3z"/>
	<path class="st1" d="M205.1,197.1c-0.4,0.3-0.8,0.6-1.1,0.7s-0.8,0.2-1.2,0.2c-0.7,0-1.2-0.2-1.6-0.5s-0.6-0.8-0.6-1.3
		c0-0.3,0.1-0.6,0.2-0.8s0.3-0.5,0.5-0.6s0.5-0.3,0.8-0.3c0.2-0.1,0.5-0.1,0.9-0.2c0.9-0.1,1.5-0.2,1.9-0.4c0-0.1,0-0.2,0-0.3
		c0-0.4-0.1-0.7-0.3-0.9c-0.3-0.2-0.7-0.4-1.2-0.4c-0.5,0-0.9,0.1-1.1,0.3s-0.4,0.5-0.5,0.9l-1-0.1c0.1-0.4,0.2-0.8,0.5-1.1
		s0.5-0.5,0.9-0.6s0.9-0.2,1.4-0.2c0.5,0,1,0.1,1.3,0.2s0.6,0.3,0.7,0.5s0.3,0.4,0.3,0.7c0,0.2,0.1,0.5,0.1,1v1.4c0,1,0,1.6,0.1,1.9
		s0.1,0.5,0.3,0.7h-1.1C205.2,197.7,205.1,197.4,205.1,197.1z M205,194.8c-0.4,0.2-1,0.3-1.7,0.4c-0.4,0.1-0.7,0.1-0.9,0.2
		s-0.3,0.2-0.4,0.3s-0.1,0.3-0.1,0.5c0,0.3,0.1,0.5,0.3,0.7s0.5,0.3,0.9,0.3c0.4,0,0.8-0.1,1.1-0.3s0.5-0.4,0.7-0.7
		c0.1-0.2,0.2-0.6,0.2-1.1V194.8z"/>
	<path class="st1" d="M207.3,196l1-0.2c0.1,0.4,0.2,0.7,0.5,1s0.6,0.3,1.1,0.3c0.5,0,0.8-0.1,1.1-0.3s0.4-0.4,0.4-0.7
		c0-0.2-0.1-0.4-0.3-0.6c-0.1-0.1-0.5-0.2-1.1-0.4c-0.8-0.2-1.3-0.4-1.6-0.5s-0.5-0.3-0.7-0.6s-0.2-0.5-0.2-0.8
		c0-0.3,0.1-0.5,0.2-0.8s0.3-0.4,0.5-0.6c0.2-0.1,0.4-0.2,0.7-0.3s0.6-0.1,0.9-0.1c0.5,0,0.9,0.1,1.3,0.2s0.6,0.3,0.8,0.6
		s0.3,0.6,0.4,1l-1,0.1c0-0.3-0.2-0.6-0.4-0.8s-0.5-0.3-1-0.3c-0.5,0-0.8,0.1-1,0.2s-0.3,0.3-0.3,0.6c0,0.1,0,0.3,0.1,0.4
		c0.1,0.1,0.2,0.2,0.4,0.3c0.1,0,0.4,0.1,0.9,0.3c0.7,0.2,1.3,0.4,1.6,0.5s0.5,0.3,0.7,0.6s0.3,0.5,0.3,0.9c0,0.4-0.1,0.7-0.3,1
		s-0.5,0.6-0.9,0.7s-0.8,0.3-1.3,0.3c-0.8,0-1.4-0.2-1.8-0.5S207.4,196.7,207.3,196z"/>
	<path class="st1" d="M213.3,196l1-0.2c0.1,0.4,0.2,0.7,0.5,1s0.6,0.3,1.1,0.3c0.5,0,0.8-0.1,1.1-0.3s0.4-0.4,0.4-0.7
		c0-0.2-0.1-0.4-0.3-0.6c-0.1-0.1-0.5-0.2-1.1-0.4c-0.8-0.2-1.3-0.4-1.6-0.5s-0.5-0.3-0.7-0.6s-0.2-0.5-0.2-0.8
		c0-0.3,0.1-0.5,0.2-0.8s0.3-0.4,0.5-0.6c0.2-0.1,0.4-0.2,0.7-0.3s0.6-0.1,0.9-0.1c0.5,0,0.9,0.1,1.3,0.2s0.6,0.3,0.8,0.6
		s0.3,0.6,0.4,1l-1,0.1c0-0.3-0.2-0.6-0.4-0.8s-0.5-0.3-1-0.3c-0.5,0-0.8,0.1-1,0.2s-0.3,0.3-0.3,0.6c0,0.1,0,0.3,0.1,0.4
		c0.1,0.1,0.2,0.2,0.4,0.3c0.1,0,0.4,0.1,0.9,0.3c0.7,0.2,1.3,0.4,1.6,0.5s0.5,0.3,0.7,0.6s0.3,0.5,0.3,0.9c0,0.4-0.1,0.7-0.3,1
		s-0.5,0.6-0.9,0.7s-0.8,0.3-1.3,0.3c-0.8,0-1.4-0.2-1.8-0.5S213.4,196.7,213.3,196z"/>
	<path class="st1" d="M223.9,195.9l1.1,0.1c-0.2,0.6-0.5,1.1-1,1.5s-1.1,0.5-1.8,0.5c-0.9,0-1.6-0.3-2.2-0.8s-0.8-1.3-0.8-2.4
		c0-1,0.3-1.9,0.8-2.4s1.2-0.9,2.1-0.9c0.8,0,1.5,0.3,2,0.8s0.8,1.4,0.8,2.4c0,0.1,0,0.2,0,0.3h-4.6c0,0.7,0.2,1.2,0.6,1.6
		s0.8,0.5,1.3,0.5c0.4,0,0.7-0.1,1-0.3S223.8,196.3,223.9,195.9z M220.5,194.2h3.5c0-0.5-0.2-0.9-0.4-1.2c-0.3-0.4-0.8-0.6-1.3-0.6
		c-0.5,0-0.9,0.2-1.2,0.5S220.5,193.6,220.5,194.2z"/>
	<path class="st1" d="M226.3,197.9v-6.2h0.9v0.9c0.2-0.3,0.5-0.5,0.8-0.7s0.7-0.3,1.1-0.3c0.5,0,0.8,0.1,1.1,0.3s0.5,0.5,0.6,0.8
		c0.5-0.7,1.1-1.1,1.9-1.1c0.6,0,1.1,0.2,1.4,0.5s0.5,0.9,0.5,1.6v4.3h-1V194c0-0.4,0-0.7-0.1-0.9s-0.2-0.3-0.4-0.4
		s-0.4-0.2-0.6-0.2c-0.4,0-0.8,0.1-1.1,0.4s-0.4,0.8-0.4,1.4v3.6H230v-4c0-0.5-0.1-0.8-0.3-1.1s-0.5-0.4-0.8-0.4
		c-0.3,0-0.6,0.1-0.8,0.2s-0.4,0.4-0.5,0.7s-0.2,0.7-0.2,1.3v3.2H226.3z"/>
	<path class="st1" d="M240.6,195.9l1.1,0.1c-0.2,0.6-0.5,1.1-1,1.5s-1.1,0.5-1.8,0.5c-0.9,0-1.6-0.3-2.2-0.8s-0.8-1.3-0.8-2.4
		c0-1,0.3-1.9,0.8-2.4s1.2-0.9,2.1-0.9c0.8,0,1.5,0.3,2,0.8s0.8,1.4,0.8,2.4c0,0.1,0,0.2,0,0.3h-4.6c0,0.7,0.2,1.2,0.6,1.6
		s0.8,0.5,1.3,0.5c0.4,0,0.7-0.1,1-0.3S240.4,196.3,240.6,195.9z M237.1,194.2h3.5c0-0.5-0.2-0.9-0.4-1.2c-0.3-0.4-0.8-0.6-1.3-0.6
		c-0.5,0-0.9,0.2-1.2,0.5S237.2,193.6,237.1,194.2z"/>
	<path class="st1" d="M243,197.9v-6.2h0.9v0.9c0.5-0.7,1.1-1,2-1c0.4,0,0.7,0.1,1,0.2s0.5,0.3,0.7,0.5s0.3,0.5,0.3,0.8
		c0,0.2,0.1,0.5,0.1,1v3.8H247v-3.8c0-0.4,0-0.8-0.1-1s-0.2-0.4-0.4-0.5s-0.5-0.2-0.7-0.2c-0.4,0-0.8,0.1-1.2,0.4s-0.5,0.8-0.5,1.6
		v3.4H243z"/>
	<path class="st1" d="M252,196.9l0.2,0.9c-0.3,0.1-0.6,0.1-0.8,0.1c-0.4,0-0.7-0.1-0.9-0.2s-0.4-0.3-0.4-0.5s-0.1-0.6-0.1-1.2v-3.6
		h-0.8v-0.8h0.8v-1.5l1-0.6v2.2h1.1v0.8h-1.1v3.6c0,0.3,0,0.5,0.1,0.6s0.1,0.2,0.2,0.2s0.2,0.1,0.4,0.1
		C251.6,197,251.8,197,252,196.9z"/>
</g>
<g>
	<path class="st1" d="M49.6,194.9l1.1,0.3c-0.2,0.9-0.7,1.6-1.3,2.1s-1.4,0.7-2.3,0.7c-0.9,0-1.7-0.2-2.3-0.6s-1-0.9-1.3-1.6
		s-0.5-1.5-0.5-2.3c0-0.9,0.2-1.7,0.5-2.3s0.8-1.2,1.5-1.5s1.3-0.5,2.1-0.5c0.9,0,1.6,0.2,2.2,0.7s1,1.1,1.2,1.8l-1.1,0.3
		c-0.2-0.6-0.5-1.1-0.9-1.4s-0.9-0.4-1.4-0.4c-0.7,0-1.2,0.2-1.7,0.5s-0.8,0.7-0.9,1.3s-0.3,1.1-0.3,1.6c0,0.7,0.1,1.4,0.3,1.9
		s0.5,1,1,1.2s0.9,0.4,1.5,0.4c0.6,0,1.2-0.2,1.6-0.6S49.4,195.6,49.6,194.9z"/>
	<path class="st1" d="M51.6,194.8c0-1.2,0.3-2,1-2.6c0.5-0.5,1.2-0.7,2-0.7c0.9,0,1.6,0.3,2.1,0.8s0.8,1.3,0.8,2.3
		c0,0.8-0.1,1.4-0.4,1.9s-0.6,0.8-1,1.1s-1,0.4-1.5,0.4c-0.9,0-1.6-0.3-2.1-0.8S51.6,195.8,51.6,194.8z M52.7,194.8
		c0,0.8,0.2,1.4,0.5,1.8s0.8,0.6,1.3,0.6c0.5,0,1-0.2,1.3-0.6s0.5-1,0.5-1.8c0-0.8-0.2-1.4-0.5-1.7s-0.8-0.6-1.3-0.6
		c-0.5,0-1,0.2-1.3,0.6S52.7,194,52.7,194.8z"/>
	<path class="st1" d="M58.6,197.9v-8.6h1.1v8.6H58.6z"/>
	<path class="st1" d="M61.3,197.9v-8.6h1.1v8.6H61.3z"/>
	<path class="st1" d="M68.3,195.9l1.1,0.1c-0.2,0.6-0.5,1.1-1,1.5s-1.1,0.5-1.8,0.5c-0.9,0-1.6-0.3-2.2-0.8
		c-0.5-0.6-0.8-1.3-0.8-2.4c0-1,0.3-1.9,0.8-2.4c0.5-0.6,1.2-0.9,2.1-0.9c0.8,0,1.5,0.3,2,0.8s0.8,1.4,0.8,2.4c0,0.1,0,0.2,0,0.3
		h-4.6c0,0.7,0.2,1.2,0.6,1.6s0.8,0.5,1.3,0.5c0.4,0,0.7-0.1,1-0.3S68.1,196.3,68.3,195.9z M64.8,194.2h3.5c0-0.5-0.2-0.9-0.4-1.2
		c-0.3-0.4-0.8-0.6-1.3-0.6c-0.5,0-0.9,0.2-1.2,0.5S64.8,193.6,64.8,194.2z"/>
	<path class="st1" d="M74.7,195.6l1,0.1c-0.1,0.7-0.4,1.3-0.9,1.7s-1,0.6-1.7,0.6c-0.9,0-1.5-0.3-2.1-0.8s-0.8-1.4-0.8-2.4
		c0-0.7,0.1-1.3,0.3-1.8s0.6-0.9,1-1.1s0.9-0.4,1.5-0.4c0.7,0,1.2,0.2,1.7,0.5s0.7,0.8,0.8,1.5l-1,0.2c-0.1-0.4-0.3-0.7-0.5-0.9
		s-0.5-0.3-0.9-0.3c-0.5,0-1,0.2-1.3,0.6s-0.5,1-0.5,1.8c0,0.8,0.2,1.4,0.5,1.8s0.7,0.6,1.3,0.6c0.4,0,0.8-0.1,1-0.4
		S74.7,196.1,74.7,195.6z"/>
	<path class="st1" d="M79,196.9l0.2,0.9c-0.3,0.1-0.6,0.1-0.8,0.1c-0.4,0-0.7-0.1-0.9-0.2s-0.4-0.3-0.4-0.5s-0.1-0.6-0.1-1.2v-3.6
		h-0.8v-0.8h0.8v-1.5l1-0.6v2.2H79v0.8h-1.1v3.6c0,0.3,0,0.5,0.1,0.6s0.1,0.2,0.2,0.2s0.2,0.1,0.4,0.1C78.6,197,78.8,197,79,196.9z"
		/>
	<path class="st1" d="M84.3,195.9l1.1,0.1c-0.2,0.6-0.5,1.1-1,1.5s-1.1,0.5-1.8,0.5c-0.9,0-1.6-0.3-2.2-0.8s-0.8-1.3-0.8-2.4
		c0-1,0.3-1.9,0.8-2.4s1.2-0.9,2.1-0.9c0.8,0,1.5,0.3,2,0.8s0.8,1.4,0.8,2.4c0,0.1,0,0.2,0,0.3h-4.6c0,0.7,0.2,1.2,0.6,1.6
		s0.8,0.5,1.3,0.5c0.4,0,0.7-0.1,1-0.3S84.1,196.3,84.3,195.9z M80.8,194.2h3.5c0-0.5-0.2-0.9-0.4-1.2c-0.3-0.4-0.8-0.6-1.3-0.6
		c-0.5,0-0.9,0.2-1.2,0.5S80.8,193.6,80.8,194.2z"/>
</g>
<g>
	<path class="st1" d="M352.6,195.1l1.1-0.1c0.1,0.4,0.2,0.8,0.4,1.1s0.5,0.5,0.9,0.7s0.8,0.3,1.3,0.3c0.4,0,0.8-0.1,1.1-0.2
		s0.6-0.3,0.7-0.5s0.2-0.5,0.2-0.7c0-0.3-0.1-0.5-0.2-0.7s-0.4-0.4-0.8-0.5c-0.2-0.1-0.7-0.2-1.5-0.4s-1.3-0.4-1.7-0.5
		c-0.4-0.2-0.7-0.5-0.9-0.8s-0.3-0.7-0.3-1.1c0-0.4,0.1-0.8,0.4-1.2s0.6-0.7,1.1-0.9s1-0.3,1.6-0.3c0.6,0,1.2,0.1,1.7,0.3
		s0.9,0.5,1.1,0.9s0.4,0.8,0.4,1.4l-1.1,0.1c-0.1-0.5-0.3-1-0.6-1.2s-0.8-0.4-1.5-0.4c-0.7,0-1.2,0.1-1.5,0.4s-0.5,0.6-0.5,0.9
		c0,0.3,0.1,0.6,0.3,0.8c0.2,0.2,0.8,0.4,1.7,0.6s1.6,0.4,1.9,0.5c0.5,0.2,0.9,0.5,1.1,0.9s0.4,0.8,0.4,1.2c0,0.5-0.1,0.9-0.4,1.3
		s-0.6,0.7-1.1,0.9s-1,0.3-1.7,0.3c-0.8,0-1.4-0.1-2-0.3s-0.9-0.6-1.2-1S352.6,195.7,352.6,195.1z"/>
	<path class="st1" d="M365.1,195.9l1.1,0.1c-0.2,0.6-0.5,1.1-1,1.5s-1.1,0.5-1.8,0.5c-0.9,0-1.6-0.3-2.2-0.8s-0.8-1.3-0.8-2.4
		c0-1,0.3-1.9,0.8-2.4s1.2-0.9,2.1-0.9c0.8,0,1.5,0.3,2,0.8s0.8,1.4,0.8,2.4c0,0.1,0,0.2,0,0.3h-4.6c0,0.7,0.2,1.2,0.6,1.6
		s0.8,0.5,1.3,0.5c0.4,0,0.7-0.1,1-0.3S364.9,196.3,365.1,195.9z M361.6,194.2h3.5c0-0.5-0.2-0.9-0.4-1.2c-0.3-0.4-0.8-0.6-1.3-0.6
		c-0.5,0-0.9,0.2-1.2,0.5S361.7,193.6,361.6,194.2z M362.8,190.9l0.8-1.6h1.4l-1.3,1.6H362.8z"/>
	<path class="st1" d="M367.5,197.9v-8.6h1.1v8.6H367.5z"/>
	<path class="st1" d="M374.4,195.9l1.1,0.1c-0.2,0.6-0.5,1.1-1,1.5s-1.1,0.5-1.8,0.5c-0.9,0-1.6-0.3-2.2-0.8s-0.8-1.3-0.8-2.4
		c0-1,0.3-1.9,0.8-2.4s1.2-0.9,2.1-0.9c0.8,0,1.5,0.3,2,0.8s0.8,1.4,0.8,2.4c0,0.1,0,0.2,0,0.3h-4.6c0,0.7,0.2,1.2,0.6,1.6
		s0.8,0.5,1.3,0.5c0.4,0,0.7-0.1,1-0.3S374.3,196.3,374.4,195.9z M371,194.2h3.5c0-0.5-0.2-0.9-0.4-1.2c-0.3-0.4-0.8-0.6-1.3-0.6
		c-0.5,0-0.9,0.2-1.2,0.5S371,193.6,371,194.2z"/>
	<path class="st1" d="M380.9,195.6l1,0.1c-0.1,0.7-0.4,1.3-0.9,1.7s-1,0.6-1.7,0.6c-0.9,0-1.5-0.3-2.1-0.8s-0.8-1.4-0.8-2.4
		c0-0.7,0.1-1.3,0.3-1.8s0.6-0.9,1-1.1s1-0.4,1.5-0.4c0.7,0,1.2,0.2,1.7,0.5s0.7,0.8,0.8,1.5l-1,0.2c-0.1-0.4-0.3-0.7-0.5-0.9
		s-0.5-0.3-0.9-0.3c-0.5,0-1,0.2-1.3,0.6s-0.5,1-0.5,1.8c0,0.8,0.2,1.4,0.5,1.8s0.7,0.6,1.3,0.6c0.4,0,0.8-0.1,1-0.4
		S380.8,196.1,380.9,195.6z"/>
	<path class="st1" d="M385.2,196.9l0.2,0.9c-0.3,0.1-0.6,0.1-0.8,0.1c-0.4,0-0.7-0.1-0.9-0.2s-0.4-0.3-0.4-0.5s-0.1-0.6-0.1-1.2
		v-3.6h-0.8v-0.8h0.8v-1.5l1-0.6v2.2h1.1v0.8h-1.1v3.6c0,0.3,0,0.5,0.1,0.6s0.1,0.2,0.2,0.2s0.2,0.1,0.4,0.1
		C384.8,197,385,197,385.2,196.9z"/>
	<path class="st1" d="M386.2,190.5v-1.2h1.1v1.2H386.2z M386.2,197.9v-6.2h1.1v6.2H386.2z"/>
	<path class="st1" d="M388.5,194.8c0-1.2,0.3-2,1-2.6c0.5-0.5,1.2-0.7,2-0.7c0.9,0,1.6,0.3,2.1,0.8s0.8,1.3,0.8,2.3
		c0,0.8-0.1,1.4-0.4,1.9s-0.6,0.8-1,1.1s-1,0.4-1.5,0.4c-0.9,0-1.6-0.3-2.1-0.8S388.5,195.8,388.5,194.8z M389.5,194.8
		c0,0.8,0.2,1.4,0.5,1.8s0.8,0.6,1.3,0.6c0.5,0,1-0.2,1.3-0.6s0.5-1,0.5-1.8c0-0.8-0.2-1.4-0.5-1.7s-0.8-0.6-1.3-0.6
		c-0.5,0-1,0.2-1.3,0.6S389.5,194,389.5,194.8z"/>
	<path class="st1" d="M395.5,197.9v-6.2h0.9v0.9c0.5-0.7,1.1-1,2-1c0.4,0,0.7,0.1,1,0.2s0.5,0.3,0.7,0.5s0.3,0.5,0.3,0.8
		c0,0.2,0.1,0.5,0.1,1v3.8h-1.1v-3.8c0-0.4,0-0.8-0.1-1s-0.2-0.4-0.4-0.5s-0.5-0.2-0.7-0.2c-0.4,0-0.8,0.1-1.2,0.4s-0.5,0.8-0.5,1.6
		v3.4H395.5z"/>
	<path class="st1" d="M342.4,210.3l1.1,0.1c-0.2,0.6-0.5,1.1-1,1.5s-1.1,0.5-1.8,0.5c-0.9,0-1.6-0.3-2.2-0.8s-0.8-1.3-0.8-2.4
		c0-1,0.3-1.9,0.8-2.4s1.2-0.9,2.1-0.9c0.8,0,1.5,0.3,2,0.8s0.8,1.4,0.8,2.4c0,0.1,0,0.2,0,0.3h-4.6c0,0.7,0.2,1.2,0.6,1.6
		s0.8,0.5,1.3,0.5c0.4,0,0.7-0.1,1-0.3S342.3,210.7,342.4,210.3z M339,208.6h3.5c0-0.5-0.2-0.9-0.4-1.2c-0.3-0.4-0.8-0.6-1.3-0.6
		c-0.5,0-0.9,0.2-1.2,0.5S339,208,339,208.6z"/>
	<path class="st1" d="M347.1,211.3l0.2,0.9c-0.3,0.1-0.6,0.1-0.8,0.1c-0.4,0-0.7-0.1-0.9-0.2s-0.4-0.3-0.4-0.5s-0.1-0.6-0.1-1.2
		v-3.6h-0.8v-0.8h0.8v-1.5l1-0.6v2.2h1.1v0.8h-1.1v3.6c0,0.3,0,0.5,0.1,0.6s0.1,0.2,0.2,0.2s0.2,0.1,0.4,0.1
		C346.8,211.4,346.9,211.4,347.1,211.3z"/>
	<path class="st1" d="M351.5,212.3v-6.2h0.9v0.9c0.5-0.7,1.1-1,2-1c0.4,0,0.7,0.1,1,0.2s0.5,0.3,0.7,0.5s0.3,0.5,0.3,0.8
		c0,0.2,0.1,0.5,0.1,1v3.8h-1.1v-3.8c0-0.4,0-0.8-0.1-1s-0.2-0.4-0.4-0.5s-0.5-0.2-0.7-0.2c-0.4,0-0.8,0.1-1.2,0.4s-0.5,0.8-0.5,1.6
		v3.4H351.5z"/>
	<path class="st1" d="M362.3,212.3v-0.9c-0.5,0.7-1.1,1.1-2,1.1c-0.4,0-0.7-0.1-1-0.2s-0.6-0.3-0.7-0.5s-0.3-0.5-0.3-0.8
		c0-0.2-0.1-0.5-0.1-1v-3.9h1.1v3.5c0,0.6,0,0.9,0.1,1.1c0.1,0.3,0.2,0.5,0.4,0.7s0.5,0.2,0.8,0.2s0.6-0.1,0.9-0.2s0.5-0.4,0.6-0.7
		s0.2-0.7,0.2-1.2v-3.3h1.1v6.2H362.3z"/>
	<path class="st1" d="M364.8,212.3v-6.2h0.9v0.9c0.2-0.3,0.5-0.5,0.8-0.7s0.7-0.3,1.1-0.3c0.5,0,0.8,0.1,1.1,0.3s0.5,0.5,0.6,0.8
		c0.5-0.7,1.1-1.1,1.9-1.1c0.6,0,1.1,0.2,1.4,0.5s0.5,0.9,0.5,1.6v4.3h-1v-3.9c0-0.4,0-0.7-0.1-0.9s-0.2-0.3-0.4-0.4
		s-0.4-0.2-0.6-0.2c-0.4,0-0.8,0.1-1.1,0.4s-0.4,0.8-0.4,1.4v3.6h-1.1v-4c0-0.5-0.1-0.8-0.3-1.1s-0.5-0.4-0.8-0.4
		c-0.3,0-0.6,0.1-0.8,0.2s-0.4,0.4-0.5,0.7s-0.2,0.7-0.2,1.3v3.2H364.8z"/>
	<path class="st1" d="M379.1,210.3l1.1,0.1c-0.2,0.6-0.5,1.1-1,1.5s-1.1,0.5-1.8,0.5c-0.9,0-1.6-0.3-2.2-0.8s-0.8-1.3-0.8-2.4
		c0-1,0.3-1.9,0.8-2.4s1.2-0.9,2.1-0.9c0.8,0,1.5,0.3,2,0.8s0.8,1.4,0.8,2.4c0,0.1,0,0.2,0,0.3h-4.6c0,0.7,0.2,1.2,0.6,1.6
		s0.8,0.5,1.3,0.5c0.4,0,0.7-0.1,1-0.3S378.9,210.7,379.1,210.3z M375.6,208.6h3.5c0-0.5-0.2-0.9-0.4-1.2c-0.3-0.4-0.8-0.6-1.3-0.6
		c-0.5,0-0.9,0.2-1.2,0.5S375.7,208,375.6,208.6z M376.8,205.3l0.8-1.6h1.4l-1.3,1.6H376.8z"/>
	<path class="st1" d="M381.5,212.3v-6.2h0.9v0.9c0.2-0.4,0.5-0.7,0.7-0.9s0.4-0.2,0.7-0.2c0.4,0,0.7,0.1,1.1,0.3l-0.4,1
		c-0.3-0.2-0.5-0.2-0.8-0.2c-0.2,0-0.4,0.1-0.6,0.2s-0.3,0.3-0.4,0.6c-0.1,0.4-0.2,0.8-0.2,1.2v3.3H381.5z"/>
	<path class="st1" d="M385.5,204.9v-1.2h1.1v1.2H385.5z M385.5,212.3v-6.2h1.1v6.2H385.5z"/>
	<path class="st1" d="M387.8,210.4l1-0.2c0.1,0.4,0.2,0.7,0.5,1s0.6,0.3,1.1,0.3c0.5,0,0.8-0.1,1.1-0.3s0.4-0.4,0.4-0.7
		c0-0.2-0.1-0.4-0.3-0.6c-0.1-0.1-0.5-0.2-1.1-0.4c-0.8-0.2-1.3-0.4-1.6-0.5s-0.5-0.3-0.7-0.6s-0.2-0.5-0.2-0.8
		c0-0.3,0.1-0.5,0.2-0.8s0.3-0.4,0.5-0.6c0.2-0.1,0.4-0.2,0.7-0.3s0.6-0.1,0.9-0.1c0.5,0,0.9,0.1,1.3,0.2s0.6,0.3,0.8,0.6
		s0.3,0.6,0.4,1l-1,0.1c0-0.3-0.2-0.6-0.4-0.8s-0.5-0.3-1-0.3c-0.5,0-0.8,0.1-1,0.2s-0.3,0.3-0.3,0.6c0,0.1,0,0.3,0.1,0.4
		c0.1,0.1,0.2,0.2,0.4,0.3c0.1,0,0.4,0.1,0.9,0.3c0.7,0.2,1.3,0.4,1.6,0.5s0.5,0.3,0.7,0.6s0.3,0.5,0.3,0.9c0,0.4-0.1,0.7-0.3,1
		s-0.5,0.6-0.9,0.7s-0.8,0.3-1.3,0.3c-0.8,0-1.4-0.2-1.8-0.5S387.9,211.1,387.8,210.4z"/>
	<path class="st1" d="M398.2,211.5c-0.4,0.3-0.8,0.6-1.1,0.7s-0.7,0.2-1.2,0.2c-0.7,0-1.2-0.2-1.6-0.5s-0.6-0.8-0.6-1.3
		c0-0.3,0.1-0.6,0.2-0.8s0.3-0.5,0.5-0.6s0.5-0.3,0.8-0.3c0.2-0.1,0.5-0.1,0.9-0.2c0.9-0.1,1.5-0.2,1.9-0.4c0-0.1,0-0.2,0-0.3
		c0-0.4-0.1-0.7-0.3-0.9c-0.3-0.2-0.7-0.4-1.2-0.4c-0.5,0-0.9,0.1-1.1,0.3s-0.4,0.5-0.5,0.9l-1-0.1c0.1-0.4,0.2-0.8,0.5-1.1
		s0.5-0.5,0.9-0.6s0.9-0.2,1.4-0.2c0.5,0,1,0.1,1.3,0.2s0.6,0.3,0.7,0.5s0.3,0.4,0.3,0.7c0,0.2,0.1,0.5,0.1,1v1.4c0,1,0,1.6,0.1,1.9
		s0.1,0.5,0.3,0.7h-1.1C398.3,212.1,398.3,211.8,398.2,211.5z M398.2,209.2c-0.4,0.2-1,0.3-1.7,0.4c-0.4,0.1-0.7,0.1-0.9,0.2
		s-0.3,0.2-0.4,0.3s-0.1,0.3-0.1,0.5c0,0.3,0.1,0.5,0.3,0.7s0.5,0.3,0.9,0.3c0.4,0,0.8-0.1,1.1-0.3s0.5-0.4,0.7-0.7
		c0.1-0.2,0.2-0.6,0.2-1.1V209.2z"/>
	<path class="st1" d="M403.2,211.3l0.2,0.9c-0.3,0.1-0.6,0.1-0.8,0.1c-0.4,0-0.7-0.1-0.9-0.2s-0.4-0.3-0.4-0.5s-0.1-0.6-0.1-1.2
		v-3.6h-0.8v-0.8h0.8v-1.5l1-0.6v2.2h1.1v0.8h-1.1v3.6c0,0.3,0,0.5,0.1,0.6s0.1,0.2,0.2,0.2s0.2,0.1,0.4,0.1
		C402.8,211.4,403,211.4,403.2,211.3z"/>
	<path class="st1" d="M404.2,204.9v-1.2h1.1v1.2H404.2z M404.2,212.3v-6.2h1.1v6.2H404.2z"/>
	<path class="st1" d="M406.5,209.2c0-1.2,0.3-2,1-2.6c0.5-0.5,1.2-0.7,2-0.7c0.9,0,1.6,0.3,2.1,0.8s0.8,1.3,0.8,2.3
		c0,0.8-0.1,1.4-0.4,1.9s-0.6,0.8-1,1.1s-1,0.4-1.5,0.4c-0.9,0-1.6-0.3-2.1-0.8S406.5,210.2,406.5,209.2z M407.5,209.2
		c0,0.8,0.2,1.4,0.5,1.8s0.8,0.6,1.3,0.6c0.5,0,1-0.2,1.3-0.6s0.5-1,0.5-1.8c0-0.8-0.2-1.4-0.5-1.7s-0.8-0.6-1.3-0.6
		c-0.5,0-1,0.2-1.3,0.6S407.5,208.4,407.5,209.2z"/>
	<path class="st1" d="M413.5,212.3v-6.2h0.9v0.9c0.5-0.7,1.1-1,2-1c0.4,0,0.7,0.1,1,0.2s0.5,0.3,0.7,0.5s0.3,0.5,0.3,0.8
		c0,0.2,0.1,0.5,0.1,1v3.8h-1.1v-3.8c0-0.4,0-0.8-0.1-1s-0.2-0.4-0.4-0.5s-0.5-0.2-0.7-0.2c-0.4,0-0.8,0.1-1.2,0.4s-0.5,0.8-0.5,1.6
		v3.4H413.5z"/>
</g>
<g>
	<path class="st1" d="M515,197.9v-8.6h6.2v1h-5.1v2.6h4.8v1h-4.8v2.9h5.3v1H515z M517.4,188.8l0.8-1.6h1.4l-1.3,1.6H517.4z"/>
	<path class="st1" d="M526.9,197.9v-0.8c-0.4,0.6-1,0.9-1.7,0.9c-0.5,0-1-0.1-1.4-0.4s-0.7-0.7-1-1.1s-0.3-1.1-0.3-1.7
		c0-0.6,0.1-1.2,0.3-1.7s0.5-0.9,0.9-1.2s0.9-0.4,1.4-0.4c0.4,0,0.7,0.1,1,0.2s0.5,0.4,0.7,0.6v-3.1h1v8.6H526.9z M523.6,194.8
		c0,0.8,0.2,1.4,0.5,1.8s0.7,0.6,1.2,0.6c0.5,0,0.9-0.2,1.2-0.6s0.5-1,0.5-1.7c0-0.9-0.2-1.5-0.5-1.9s-0.7-0.6-1.2-0.6
		c-0.5,0-0.9,0.2-1.2,0.6S523.6,194,523.6,194.8z"/>
	<path class="st1" d="M529.6,190.5v-1.2h1.1v1.2H529.6z M529.6,197.9v-6.2h1.1v6.2H529.6z"/>
	<path class="st1" d="M534.5,196.9l0.2,0.9c-0.3,0.1-0.6,0.1-0.8,0.1c-0.4,0-0.7-0.1-0.9-0.2s-0.4-0.3-0.4-0.5s-0.1-0.6-0.1-1.2
		v-3.6h-0.8v-0.8h0.8v-1.5l1-0.6v2.2h1.1v0.8h-1.1v3.6c0,0.3,0,0.5,0.1,0.6s0.1,0.2,0.2,0.2s0.2,0.1,0.4,0.1
		C534.2,197,534.3,197,534.5,196.9z"/>
	<path class="st1" d="M535.6,190.5v-1.2h1.1v1.2H535.6z M535.6,197.9v-6.2h1.1v6.2H535.6z"/>
	<path class="st1" d="M537.8,194.8c0-1.2,0.3-2,1-2.6c0.5-0.5,1.2-0.7,2-0.7c0.9,0,1.6,0.3,2.1,0.8s0.8,1.3,0.8,2.3
		c0,0.8-0.1,1.4-0.4,1.9s-0.6,0.8-1,1.1s-1,0.4-1.5,0.4c-0.9,0-1.6-0.3-2.1-0.8S537.8,195.8,537.8,194.8z M538.9,194.8
		c0,0.8,0.2,1.4,0.5,1.8s0.8,0.6,1.3,0.6c0.5,0,1-0.2,1.3-0.6s0.5-1,0.5-1.8c0-0.8-0.2-1.4-0.5-1.7s-0.8-0.6-1.3-0.6
		c-0.5,0-1,0.2-1.3,0.6S538.9,194,538.9,194.8z"/>
	<path class="st1" d="M544.9,197.9v-6.2h0.9v0.9c0.5-0.7,1.1-1,2-1c0.4,0,0.7,0.1,1,0.2s0.5,0.3,0.7,0.5s0.3,0.5,0.3,0.8
		c0,0.2,0.1,0.5,0.1,1v3.8h-1.1v-3.8c0-0.4,0-0.8-0.1-1s-0.2-0.4-0.4-0.5s-0.5-0.2-0.7-0.2c-0.4,0-0.8,0.1-1.2,0.4s-0.5,0.8-0.5,1.6
		v3.4H544.9z"/>
</g>
<g>
	<path class="st1" d="M660.4,194.9l1.1,0.3c-0.2,0.9-0.7,1.6-1.3,2.1s-1.4,0.7-2.3,0.7c-0.9,0-1.7-0.2-2.3-0.6s-1-0.9-1.3-1.6
		s-0.5-1.5-0.5-2.3c0-0.9,0.2-1.7,0.5-2.3s0.8-1.2,1.5-1.5s1.3-0.5,2.1-0.5c0.9,0,1.6,0.2,2.2,0.7s1,1.1,1.2,1.8l-1.1,0.3
		c-0.2-0.6-0.5-1.1-0.9-1.4s-0.9-0.4-1.4-0.4c-0.7,0-1.2,0.2-1.7,0.5s-0.8,0.7-0.9,1.3s-0.3,1.1-0.3,1.6c0,0.7,0.1,1.4,0.3,1.9
		s0.5,1,1,1.2s0.9,0.4,1.5,0.4c0.6,0,1.2-0.2,1.6-0.6S660.3,195.6,660.4,194.9z"/>
	<path class="st1" d="M662.5,194.8c0-1.2,0.3-2,1-2.6c0.5-0.5,1.2-0.7,2-0.7c0.9,0,1.6,0.3,2.1,0.8s0.8,1.3,0.8,2.3
		c0,0.8-0.1,1.4-0.4,1.9s-0.6,0.8-1,1.1s-1,0.4-1.5,0.4c-0.9,0-1.6-0.3-2.1-0.8S662.5,195.8,662.5,194.8z M663.5,194.8
		c0,0.8,0.2,1.4,0.5,1.8s0.8,0.6,1.3,0.6c0.5,0,1-0.2,1.3-0.6s0.5-1,0.5-1.8c0-0.8-0.2-1.4-0.5-1.7s-0.8-0.6-1.3-0.6
		c-0.5,0-1,0.2-1.3,0.6S663.5,194,663.5,194.8z"/>
	<path class="st1" d="M669.5,197.9v-6.2h0.9v0.9c0.5-0.7,1.1-1,2-1c0.4,0,0.7,0.1,1,0.2s0.5,0.3,0.7,0.5s0.3,0.5,0.3,0.8
		c0,0.2,0.1,0.5,0.1,1v3.8h-1.1v-3.8c0-0.4,0-0.8-0.1-1s-0.2-0.4-0.4-0.5s-0.5-0.2-0.7-0.2c-0.4,0-0.8,0.1-1.2,0.4s-0.5,0.8-0.5,1.6
		v3.4H669.5z"/>
	<path class="st1" d="M675.8,196l1-0.2c0.1,0.4,0.2,0.7,0.5,1s0.6,0.3,1.1,0.3c0.5,0,0.8-0.1,1.1-0.3s0.4-0.4,0.4-0.7
		c0-0.2-0.1-0.4-0.3-0.6c-0.1-0.1-0.5-0.2-1.1-0.4c-0.8-0.2-1.3-0.4-1.6-0.5s-0.5-0.3-0.7-0.6s-0.2-0.5-0.2-0.8
		c0-0.3,0.1-0.5,0.2-0.8s0.3-0.4,0.5-0.6c0.2-0.1,0.4-0.2,0.7-0.3s0.6-0.1,0.9-0.1c0.5,0,0.9,0.1,1.3,0.2s0.6,0.3,0.8,0.6
		s0.3,0.6,0.4,1l-1,0.1c0-0.3-0.2-0.6-0.4-0.8s-0.5-0.3-1-0.3c-0.5,0-0.8,0.1-1,0.2s-0.3,0.3-0.3,0.6c0,0.1,0,0.3,0.1,0.4
		c0.1,0.1,0.2,0.2,0.4,0.3c0.1,0,0.4,0.1,0.9,0.3c0.7,0.2,1.3,0.4,1.6,0.5s0.5,0.3,0.7,0.6s0.3,0.5,0.3,0.9c0,0.4-0.1,0.7-0.3,1
		s-0.5,0.6-0.9,0.7s-0.8,0.3-1.3,0.3c-0.8,0-1.4-0.2-1.8-0.5S675.9,196.7,675.8,196z"/>
	<path class="st1" d="M686.5,195.9l1.1,0.1c-0.2,0.6-0.5,1.1-1,1.5s-1.1,0.5-1.8,0.5c-0.9,0-1.6-0.3-2.2-0.8s-0.8-1.3-0.8-2.4
		c0-1,0.3-1.9,0.8-2.4s1.2-0.9,2.1-0.9c0.8,0,1.5,0.3,2,0.8s0.8,1.4,0.8,2.4c0,0.1,0,0.2,0,0.3h-4.6c0,0.7,0.2,1.2,0.6,1.6
		s0.8,0.5,1.3,0.5c0.4,0,0.7-0.1,1-0.3S686.3,196.3,686.5,195.9z M683,194.2h3.5c0-0.5-0.2-0.9-0.4-1.2c-0.3-0.4-0.8-0.6-1.3-0.6
		c-0.5,0-0.9,0.2-1.2,0.5S683,193.6,683,194.2z"/>
	<path class="st1" d="M688.9,197.9v-6.2h0.9v0.9c0.2-0.4,0.5-0.7,0.7-0.9s0.4-0.2,0.7-0.2c0.4,0,0.7,0.1,1.1,0.3l-0.4,1
		c-0.3-0.2-0.5-0.2-0.8-0.2c-0.2,0-0.4,0.1-0.6,0.2s-0.3,0.3-0.4,0.6c-0.1,0.4-0.2,0.8-0.2,1.2v3.3H688.9z"/>
	<path class="st1" d="M694.6,197.9l-2.4-6.2h1.1l1.3,3.7c0.1,0.4,0.3,0.8,0.4,1.3c0.1-0.3,0.2-0.7,0.4-1.2l1.4-3.8h1.1l-2.4,6.2
		H694.6z"/>
	<path class="st1" d="M702.9,197.1c-0.4,0.3-0.8,0.6-1.1,0.7s-0.8,0.2-1.2,0.2c-0.7,0-1.2-0.2-1.6-0.5s-0.6-0.8-0.6-1.3
		c0-0.3,0.1-0.6,0.2-0.8s0.3-0.5,0.5-0.6s0.5-0.3,0.8-0.3c0.2-0.1,0.5-0.1,0.9-0.2c0.9-0.1,1.5-0.2,1.9-0.4c0-0.1,0-0.2,0-0.3
		c0-0.4-0.1-0.7-0.3-0.9c-0.3-0.2-0.7-0.4-1.2-0.4c-0.5,0-0.9,0.1-1.1,0.3s-0.4,0.5-0.5,0.9l-1-0.1c0.1-0.4,0.2-0.8,0.5-1.1
		s0.5-0.5,0.9-0.6s0.9-0.2,1.4-0.2c0.5,0,1,0.1,1.3,0.2s0.6,0.3,0.7,0.5s0.3,0.4,0.3,0.7c0,0.2,0.1,0.5,0.1,1v1.4c0,1,0,1.6,0.1,1.9
		s0.1,0.5,0.3,0.7h-1.1C703,197.7,703,197.4,702.9,197.1z M702.8,194.8c-0.4,0.2-1,0.3-1.7,0.4c-0.4,0.1-0.7,0.1-0.9,0.2
		s-0.3,0.2-0.4,0.3s-0.1,0.3-0.1,0.5c0,0.3,0.1,0.5,0.3,0.7s0.5,0.3,0.9,0.3c0.4,0,0.8-0.1,1.1-0.3s0.5-0.4,0.7-0.7
		c0.1-0.2,0.2-0.6,0.2-1.1V194.8z"/>
	<path class="st1" d="M707.8,196.9l0.2,0.9c-0.3,0.1-0.6,0.1-0.8,0.1c-0.4,0-0.7-0.1-0.9-0.2s-0.4-0.3-0.4-0.5s-0.1-0.6-0.1-1.2
		v-3.6H705v-0.8h0.8v-1.5l1-0.6v2.2h1.1v0.8h-1.1v3.6c0,0.3,0,0.5,0.1,0.6s0.1,0.2,0.2,0.2s0.2,0.1,0.4,0.1
		C707.5,197,707.6,197,707.8,196.9z"/>
	<path class="st1" d="M708.9,190.5v-1.2h1.1v1.2H708.9z M708.9,197.9v-6.2h1.1v6.2H708.9z"/>
	<path class="st1" d="M711.1,194.8c0-1.2,0.3-2,1-2.6c0.5-0.5,1.2-0.7,2-0.7c0.9,0,1.6,0.3,2.1,0.8s0.8,1.3,0.8,2.3
		c0,0.8-0.1,1.4-0.4,1.9s-0.6,0.8-1,1.1s-1,0.4-1.5,0.4c-0.9,0-1.6-0.3-2.1-0.8S711.1,195.8,711.1,194.8z M712.2,194.8
		c0,0.8,0.2,1.4,0.5,1.8s0.8,0.6,1.3,0.6c0.5,0,1-0.2,1.3-0.6s0.5-1,0.5-1.8c0-0.8-0.2-1.4-0.5-1.7s-0.8-0.6-1.3-0.6
		c-0.5,0-1,0.2-1.3,0.6S712.2,194,712.2,194.8z"/>
	<path class="st1" d="M718.2,197.9v-6.2h0.9v0.9c0.5-0.7,1.1-1,2-1c0.4,0,0.7,0.1,1,0.2s0.5,0.3,0.7,0.5s0.3,0.5,0.3,0.8
		c0,0.2,0.1,0.5,0.1,1v3.8h-1.1v-3.8c0-0.4,0-0.8-0.1-1s-0.2-0.4-0.4-0.5s-0.5-0.2-0.7-0.2c-0.4,0-0.8,0.1-1.2,0.4s-0.5,0.8-0.5,1.6
		v3.4H718.2z"/>
</g>
<g>
	<path class="st1" d="M822,197.9v-8.6h3c0.7,0,1.2,0,1.5,0.1c0.5,0.1,0.9,0.3,1.3,0.6c0.5,0.4,0.8,0.9,1,1.5s0.3,1.3,0.3,2
		c0,0.7-0.1,1.2-0.2,1.7s-0.3,0.9-0.6,1.3s-0.5,0.6-0.8,0.8s-0.6,0.3-1,0.4s-0.9,0.1-1.4,0.1H822z M823.2,196.9h1.8
		c0.6,0,1-0.1,1.3-0.2s0.6-0.3,0.8-0.4c0.3-0.3,0.5-0.6,0.6-1.1s0.2-1,0.2-1.7c0-0.9-0.1-1.6-0.4-2.1s-0.7-0.8-1.1-1
		c-0.3-0.1-0.8-0.2-1.5-0.2h-1.8V196.9z"/>
	<path class="st1" d="M830.6,190.5v-1.2h1.1v1.2H830.6z M830.6,197.9v-6.2h1.1v6.2H830.6z"/>
	<path class="st1" d="M833.5,197.9v-5.4h-0.9v-0.8h0.9V191c0-0.4,0-0.7,0.1-0.9c0.1-0.3,0.3-0.5,0.5-0.7s0.6-0.3,1.1-0.3
		c0.3,0,0.6,0,1,0.1l-0.2,0.9c-0.2,0-0.4-0.1-0.6-0.1c-0.3,0-0.5,0.1-0.7,0.2s-0.2,0.4-0.2,0.8v0.6h1.2v0.8h-1.2v5.4H833.5z"/>
	<path class="st1" d="M836.6,197.9v-5.4h-0.9v-0.8h0.9V191c0-0.4,0-0.7,0.1-0.9c0.1-0.3,0.3-0.5,0.5-0.7s0.6-0.3,1.1-0.3
		c0.3,0,0.6,0,1,0.1l-0.2,0.9c-0.2,0-0.4-0.1-0.6-0.1c-0.3,0-0.5,0.1-0.7,0.2s-0.2,0.4-0.2,0.8v0.6h1.2v0.8h-1.2v5.4H836.6z"/>
	<path class="st1" d="M843.8,197.9V197c-0.5,0.7-1.1,1.1-2,1.1c-0.4,0-0.7-0.1-1-0.2s-0.6-0.3-0.7-0.5s-0.3-0.5-0.3-0.8
		c0-0.2-0.1-0.5-0.1-1v-3.9h1.1v3.5c0,0.6,0,0.9,0.1,1.1c0.1,0.3,0.2,0.5,0.4,0.7s0.5,0.2,0.8,0.2s0.6-0.1,0.9-0.2s0.5-0.4,0.6-0.7
		s0.2-0.7,0.2-1.2v-3.3h1.1v6.2H843.8z"/>
	<path class="st1" d="M845.9,196l1-0.2c0.1,0.4,0.2,0.7,0.5,1s0.6,0.3,1.1,0.3c0.5,0,0.8-0.1,1.1-0.3s0.4-0.4,0.4-0.7
		c0-0.2-0.1-0.4-0.3-0.6c-0.1-0.1-0.5-0.2-1.1-0.4c-0.8-0.2-1.3-0.4-1.6-0.5s-0.5-0.3-0.7-0.6s-0.2-0.5-0.2-0.8
		c0-0.3,0.1-0.5,0.2-0.8s0.3-0.4,0.5-0.6c0.2-0.1,0.4-0.2,0.7-0.3s0.6-0.1,0.9-0.1c0.5,0,0.9,0.1,1.3,0.2s0.6,0.3,0.8,0.6
		s0.3,0.6,0.4,1l-1,0.1c0-0.3-0.2-0.6-0.4-0.8s-0.5-0.3-1-0.3c-0.5,0-0.8,0.1-1,0.2s-0.3,0.3-0.3,0.6c0,0.1,0,0.3,0.1,0.4
		c0.1,0.1,0.2,0.2,0.4,0.3c0.1,0,0.4,0.1,0.9,0.3c0.7,0.2,1.3,0.4,1.6,0.5s0.5,0.3,0.7,0.6s0.3,0.5,0.3,0.9c0,0.4-0.1,0.7-0.3,1
		s-0.5,0.6-0.9,0.7s-0.8,0.3-1.3,0.3c-0.8,0-1.4-0.2-1.8-0.5S846,196.7,845.9,196z"/>
	<path class="st1" d="M852.4,190.5v-1.2h1.1v1.2H852.4z M852.4,197.9v-6.2h1.1v6.2H852.4z"/>
	<path class="st1" d="M854.6,194.8c0-1.2,0.3-2,1-2.6c0.5-0.5,1.2-0.7,2-0.7c0.9,0,1.6,0.3,2.1,0.8s0.8,1.3,0.8,2.3
		c0,0.8-0.1,1.4-0.4,1.9s-0.6,0.8-1,1.1s-1,0.4-1.5,0.4c-0.9,0-1.6-0.3-2.1-0.8S854.6,195.8,854.6,194.8z M855.7,194.8
		c0,0.8,0.2,1.4,0.5,1.8s0.8,0.6,1.3,0.6c0.5,0,1-0.2,1.3-0.6s0.5-1,0.5-1.8c0-0.8-0.2-1.4-0.5-1.7s-0.8-0.6-1.3-0.6
		c-0.5,0-1,0.2-1.3,0.6S855.7,194,855.7,194.8z"/>
	<path class="st1" d="M861.7,197.9v-6.2h0.9v0.9c0.5-0.7,1.1-1,2-1c0.4,0,0.7,0.1,1,0.2s0.5,0.3,0.7,0.5s0.3,0.5,0.3,0.8
		c0,0.2,0.1,0.5,0.1,1v3.8h-1.1v-3.8c0-0.4,0-0.8-0.1-1s-0.2-0.4-0.4-0.5s-0.5-0.2-0.7-0.2c-0.4,0-0.8,0.1-1.2,0.4s-0.5,0.8-0.5,1.6
		v3.4H861.7z"/>
</g>
<g>
	<line class="st2" x1="964.3" y1="65" x2="964.3" y2="65"/>
	<g>
		<line class="st2" x1="964.3" y1="65" x2="906.7" y2="65"/>
		<line class="st2" x1="937.6" y1="38.4" x2="964.3" y2="65"/>
		<polyline class="st2" points="964.3,65 964.3,65.1 937.6,91.8 		"/>
	</g>
	<g>
		<line class="st2" x1="625.4" y1="65" x2="594.7" y2="65"/>
		<path class="st3" d="M553.6,5.8c-32.5-11.9-68.5,4.8-80.3,37.3c-2.6,7.2-3.9,14.6-3.8,21.9c0.2,25.4,15.9,49.2,41.1,58.5
			c32.5,11.9,68.5-4.8,80.3-37.3c2.5-7,3.8-14.1,3.8-21.1C594.8,39.4,579.1,15.2,553.6,5.8z"/>
		<g>
			<line class="st2" x1="781.4" y1="65" x2="750.7" y2="65"/>
			<line class="st2" x1="469.4" y1="65" x2="438.7" y2="65"/>
			<line class="st2" x1="157.4" y1="65" x2="126.7" y2="65"/>
			<line class="st2" x1="313.4" y1="65" x2="282.7" y2="65"/>
			<path class="st3" d="M126.7,65c0.1-25.7-15.6-49.9-41.1-59.2C53.1-6,17.1,10.7,5.2,43.2c-11.9,32.5,4.8,68.5,37.3,80.3
				c32.5,11.9,68.5-4.8,80.3-37.3C125.4,79.2,126.7,72.1,126.7,65"/>
			<path class="st3" d="M241.6,5.8c-32.5-11.9-68.5,4.8-80.3,37.3c-2.6,7.2-3.9,14.6-3.8,21.9c0.2,25.4,15.9,49.2,41.1,58.5
				c32.5,11.9,68.5-4.8,80.3-37.3c2.5-7,3.8-14.1,3.8-21.1C282.8,39.4,267.1,15.2,241.6,5.8z"/>
			<path class="st3" d="M397.6,5.8c-32.5-11.9-68.5,4.8-80.3,37.3c-2.6,7.2-3.9,14.6-3.8,21.9c0.2,25.4,15.9,49.2,41.1,58.5
				c32.5,11.9,68.5-4.8,80.3-37.3c2.5-7,3.8-14.1,3.8-21.1C438.8,39.4,423.1,15.2,397.6,5.8z"/>
			<path class="st3" d="M709.6,5.8c-32.5-11.9-68.5,4.8-80.3,37.3c-2.6,7.2-3.9,14.6-3.8,21.9c0.2,25.4,15.9,49.2,41.1,58.5
				c32.5,11.9,68.5-4.8,80.3-37.3c2.5-7,3.8-14.1,3.8-21.1C750.8,39.4,735.1,15.2,709.6,5.8z"/>
			<path class="st3" d="M865.6,5.8c-32.5-11.9-68.5,4.8-80.3,37.3c-2.6,7.2-3.9,14.6-3.8,21.9c0.2,25.4,15.9,49.2,41.1,58.5
				c32.5,11.9,68.5-4.8,80.3-37.3c2.5-7,3.8-14.1,3.8-21.1C906.8,39.4,891.1,15.2,865.6,5.8z"/>
		</g>
	</g>
	<line class="st2" x1="339.2" y1="46.9" x2="413.2" y2="46.9"/>
	<path class="st2" d="M348.2,43.3v-9.1c0-2.2,1.8-4,4-4h47.8c2.2,0,4,1.8,4,4v9.1"/>
	<path class="st2" d="M348.2,50v45.9c0,2.2,1.8,4,4,4h47.2c2.5,0,4.6-2,4.6-4.6V50"/>
	<path class="st2" d="M559.6,83.2V95c0,2.4-2,4.4-4.4,4.4h-46.8c-2.4,0-4.4-2-4.4-4.4V34.3c0-2.4,2-4.4,4.4-4.4h46.8
		c2.4,0,4.4,2,4.4,4.4V57"/>
	<g>
		<line class="st2" x1="356" y1="90.3" x2="396.4" y2="90.3"/>
		<line class="st2" x1="356" y1="85.3" x2="396.4" y2="85.3"/>
		<line class="st2" x1="356" y1="80.4" x2="396.4" y2="80.4"/>
		<line class="st2" x1="356" y1="75.4" x2="396.4" y2="75.4"/>
		<line class="st2" x1="356" y1="70.4" x2="396.4" y2="70.4"/>
		<line class="st2" x1="356" y1="65.5" x2="396.4" y2="65.5"/>
		<line class="st2" x1="356" y1="60.5" x2="396.4" y2="60.5"/>
	</g>
	<path class="st2" d="M33,92.1c-2.2,0-4-1.8-4-4V26.5c0-2.2,1.8-4,4-4h47.8c2.2,0,4,1.8,4,4"/>
	<path class="st2" d="M39.7,99.7c-2.2,0-4-1.8-4-4V34c0-2.2,1.8-4,4-4h47.8c2.2,0,4,1.8,4,4"/>
	<path class="st2" d="M93.5,107.3H46.4c-2.2,0-4-1.8-4-4V41.6c0-2.2,1.8-4,4-4h47.8c2.2,0,4,1.8,4,4v61.1
		C98.1,105.2,96.1,107.3,93.5,107.3z"/>
	<g>
		<g>
			<line class="st2" x1="49.1" y1="98" x2="89.5" y2="98"/>
			<line class="st2" x1="49.1" y1="93.1" x2="89.5" y2="93.1"/>
			<line class="st2" x1="49.1" y1="88.1" x2="89.5" y2="88.1"/>
			<line class="st2" x1="49.1" y1="83.2" x2="89.5" y2="83.2"/>
		</g>
		<g>
			<line class="st2" x1="49.1" y1="78.2" x2="89.5" y2="78.2"/>
			<line class="st2" x1="49.1" y1="73.3" x2="89.5" y2="73.3"/>
			<line class="st2" x1="49.1" y1="68.3" x2="89.5" y2="68.3"/>
		</g>
	</g>
	<line class="st2" x1="511.5" y1="89.8" x2="541.6" y2="89.8"/>
	<line class="st2" x1="511.5" y1="84.8" x2="541.7" y2="84.8"/>
	<line class="st2" x1="511.5" y1="79.9" x2="546" y2="79.9"/>
	<line class="st2" x1="511.5" y1="74.9" x2="549.1" y2="74.9"/>
	<line class="st2" x1="511.5" y1="70" x2="552" y2="70"/>
	<line class="st2" x1="511.5" y1="65" x2="552" y2="65"/>
	<line class="st2" x1="511.5" y1="60.1" x2="552" y2="60.1"/>
	<g>
		<line class="st2" x1="823.9" y1="82.3" x2="864.3" y2="82.3"/>
		<line class="st2" x1="823.9" y1="77.3" x2="864.3" y2="77.3"/>
		<line class="st2" x1="823.9" y1="72.4" x2="864.3" y2="72.4"/>
		<line class="st2" x1="823.9" y1="67.4" x2="864.3" y2="67.4"/>
		<line class="st2" x1="823.9" y1="62.5" x2="864.3" y2="62.5"/>
		<line class="st2" x1="823.9" y1="57.5" x2="864.3" y2="57.5"/>
		<line class="st2" x1="823.9" y1="52.6" x2="864.3" y2="52.6"/>
	</g>
	
		<rect x="555.2" y="53.4" transform="matrix(0.8176 0.5757 -0.5757 0.8176 143.4445 -308.9724)" class="st2" width="8.5" height="37.1"/>
	<polygon class="st2" points="543.8,94.1 544.5,85.8 545.3,84.7 552.2,89.5 551.4,90.7 	"/>
	<line class="st2" x1="563.3" y1="59.5" x2="570.2" y2="64.4"/>
	<polyline class="st2" points="572.6,60.9 575.4,62.9 563.8,79.3 	"/>
	<g>
		<path class="st2" d="M243.1,27c0-2.2-1.8-4-4-4h-27.1l-1.2-3.3c-0.5-1.3-1.8-2.2-3.2-2.2h-16.9c-1.9,0-3.4,1.5-3.4,3.4V27v2.4
			v59.2c0,2.2,1.8,4,4,4"/>
		<path class="st2" d="M249.8,36.6c0-2.2-1.8-4-4-4h-27.1l-1.2-3.3c-0.5-1.3-1.8-2.2-3.2-2.2h-16.9c-1.9,0-3.4,1.5-3.4,3.4v6.1v2.4
			v59.2c0,2.2,1.8,4,4,4"/>
		<path class="st2" d="M252.5,42.2h-27.1l-1.2-3.3c-0.5-1.3-1.8-2.2-3.2-2.2h-16.9c-1.9,0-3.4,1.5-3.4,3.4v6.1v2.4v59.2
			c0,2.2,1.8,4,4,4h47.2c2.5,0,4.6-2,4.6-4.6V46.2C256.5,44,254.7,42.2,252.5,42.2z"/>
	</g>
	<path class="st2" d="M666.5,48.3v-0.4v-6.1c0-1.9,1.5-3.4,3.4-3.4h16.9c1.4,0,2.7,0.9,3.2,2.2l1.2,3.3h27.1c2.2,0,4,1.8,4,4v4.6"/>
	<path class="st2" d="M659.9,39.8v-0.4v-6.1c0-1.9,1.5-3.4,3.4-3.4h16.9c1.4,0,2.7,0.9,3.2,2.2l1.2,3.3h27.1c2.2,0,4,1.8,4,4v1.6"/>
	<path class="st2" d="M653.2,31.2v-0.4v-6.1c0-1.9,1.5-3.4,3.4-3.4h16.9c1.4,0,2.7,0.9,3.2,2.2l1.2,3.3H705c2.2,0,4,1.8,4,4v1.6"/>
	<rect x="669.5" y="54.3" class="st2" width="57.2" height="52.2"/>
	<polygon class="st2" points="669.5,106.5 650,86.7 649.9,34.8 669.5,54.3 	"/>
	<path class="st2" d="M705.1,65.4h-11c-1.2,0-2.1-1-2.1-2.1v-0.9c0-1.2,1-2.1,2.1-2.1h11c1.2,0,2.1,1,2.1,2.1v0.9
		C707.2,64.5,706.3,65.4,705.1,65.4z"/>
	<path class="st2" d="M816.9,85.3v-8.4V27.1c0-2.4,2-4.4,4.4-4.4h46.8c2.4,0,4.4,2,4.4,4.4V78v6.7"/>
	<g>
		<path class="st2" d="M836.2,100h15.6c2.2,0,3.9-1.8,3.9-3.9v0c0-2.2-1.8-3.9-4-3.9c-3.1,0-7.2,0-10.2,0
			c-5.1-0.2-10.2-4.2-17.5-4.3c-3.1-0.1-6,1.2-8.4,2.7c-3.3,2-7.1,4.3-7.1,4.3"/>
		<path class="st2" d="M855.8,96l15.4-6c7.9-3.6,11.7,2.6,6.3,5.7l-25.4,14c-3.8,1.6-5.7,2.4-8.7,2.4c-9,0-14.9-3.3-22-3.3
			c-3.5,0-6.4,1.2-8.5,2.3"/>
	</g>
	<path class="st6" d="M830.7,32.1c0-0.6,0-1.1,0-1.7c0-0.8,0.6-1.4,1.3-1.4c0.9-0.1,1.5,0.4,1.7,1.2c0,0.3,0,0.6,0,0.9
		c0,0.8,0,1.6,0,2.4c0,0.5-0.1,0.9-0.4,1.3c0,0.1,0,0.2,0,0.3c0.1,0.2,0.2,0.4,0.3,0.6c0.1,0.2,0.1,0.3-0.1,0.4
		c-0.2,0.1-0.3,0.1-0.5-0.1c-0.1-0.2-0.2-0.3-0.3-0.5c-0.1-0.1-0.2-0.2-0.3-0.2c-0.7,0.1-1.3-0.2-1.6-0.9c-0.1-0.2-0.1-0.4-0.1-0.6
		c0,0,0,0,0-0.1C830.7,33.2,830.7,32.7,830.7,32.1z M833.1,32.1c0-0.5,0-1,0-1.6c0-0.5-0.4-1-0.9-1c-0.5,0-0.8,0.4-0.9,0.9
		c0,0.3,0,0.6,0,0.9c0,0.8,0,1.5,0,2.3c0,0.5,0.3,0.9,0.8,0.9c0.5,0,0.9-0.3,0.9-0.9C833.1,33.2,833.1,32.7,833.1,32.1z"/>
	<path class="st6" d="M824.1,29.9c0,0.2,0,0.4,0,0.6c0,0.2,0.1,0.3,0.3,0.3c0.1,0,0.3,0,0.4,0c0.7,0,1.2,0.5,1.2,1.2
		c0,0.6,0,1.3,0,1.9c0,0.7-0.6,1.2-1.3,1.2c-0.3,0-0.6,0-0.9,0c-0.3,0-0.4-0.1-0.4-0.4c0-1.4,0-2.7,0-4.1c0-0.5,0-0.9,0-1.4
		c0-0.2,0-0.4,0.3-0.4c0.3,0,0.3,0.2,0.3,0.4C824.1,29.5,824.1,29.7,824.1,29.9z M825.5,33c0-0.3,0-0.6,0-0.8c0-0.5-0.3-0.8-0.8-0.8
		c-0.1,0-0.2,0-0.3,0c-0.2,0-0.3,0.1-0.3,0.3c0,0.8,0,1.5,0,2.3c0,0.7-0.1,0.6,0.6,0.6c0.5,0,0.7-0.3,0.7-0.7
		C825.5,33.6,825.5,33.3,825.5,33z"/>
	<path class="st6" d="M840.9,33.4c0,0.4,0,0.9,0,1.3c0,0.4-0.1,0.4-0.5,0.5c-0.3,0-0.5,0-0.8,0c-0.7,0-1.3-0.6-1.3-1.3
		c0-0.7,0.6-1.3,1.3-1.3c0,0,0.1,0,0.1,0c0.2-0.1,0.5,0.2,0.6-0.2c0.1-0.7-0.1-1-0.5-1.1c-0.2,0-0.4,0.1-0.5,0.2
		c-0.2,0.1-0.4,0.1-0.5,0c-0.1-0.2,0-0.4,0.1-0.5c0.4-0.3,0.8-0.4,1.3-0.2c0.5,0.2,0.7,0.5,0.8,1C840.9,32.4,840.9,32.9,840.9,33.4
		C840.9,33.4,840.9,33.4,840.9,33.4z M840.3,34c0-0.8-0.1-0.8-0.7-0.7c-0.4,0.1-0.6,0.4-0.6,0.8c0.1,0.4,0.4,0.6,1.1,0.5
		C840.5,34.6,840.2,34.2,840.3,34C840.3,34,840.3,34,840.3,34z"/>
	<path class="st6" d="M827.2,33c0-0.3,0-0.6,0-0.9c0-0.8,0.5-1.3,1.3-1.3c0.7,0,1.3,0.6,1.3,1.3c0,0.3,0,0.5,0,0.8
		c0,0.3-0.1,0.4-0.4,0.4c-0.4,0-0.9,0-1.3,0c-0.2,0-0.3,0.1-0.3,0.3c0,0.2,0,0.4,0,0.6c0.1,0.5,0.6,0.7,1,0.4c0.1,0,0.1-0.1,0.2-0.1
		c0.1,0,0.3,0,0.4,0.1c0.1,0.1,0.1,0.3,0,0.4c-0.4,0.4-1.2,0.5-1.7,0c-0.3-0.3-0.4-0.6-0.5-1C827.2,33.6,827.2,33.3,827.2,33z
		 M828.4,32.7c0.8,0,0.7,0.1,0.7-0.6c0-0.4-0.3-0.7-0.7-0.7c-0.5,0-0.7,0.4-0.7,1C827.8,32.7,827.8,32.7,828.4,32.7
		C828.4,32.7,828.4,32.7,828.4,32.7z"/>
	<path class="st6" d="M837.4,33c0,0.6,0,1.2,0,1.8c0,0.3-0.1,0.4-0.4,0.4c-0.3,0-0.5,0-0.8,0c-0.8,0-1.3-0.5-1.4-1.3
		c0-0.9,0-1.7,0-2.6c0-0.4,0.1-0.5,0.3-0.5c0.2,0,0.3,0.2,0.3,0.5c0,0.8,0,1.7,0,2.5c0,0.7,0.6,1.1,1.2,0.8c0.1,0,0.1-0.2,0.1-0.3
		c0-1,0-2,0-3c0-0.4,0.1-0.5,0.3-0.5c0.2,0,0.3,0.2,0.3,0.5C837.4,31.9,837.4,32.4,837.4,33z"/>
	<path class="st6" d="M842.1,31.8c0-0.8,0-1.6,0-2.5c0-0.1,0-0.2,0-0.2c0-0.2,0.2-0.3,0.3-0.2c0.1,0,0.2,0.2,0.3,0.3
		c0,0.1,0,0.2,0,0.3c0,1.6,0,3.2,0,4.8c0,0.2,0,0.4,0.3,0.6c0.2,0.1,0.2,0.3,0.1,0.5c-0.1,0.2-0.3,0.1-0.4,0
		c-0.3-0.2-0.5-0.5-0.5-0.9C842.1,33.4,842.1,32.6,842.1,31.8z"/>
	<path class="st6" d="M844.7,33c0,0.6,0,1.2,0,1.8c0,0.1,0,0.2,0,0.3c-0.1,0.1-0.2,0.2-0.3,0.2c-0.1,0-0.2-0.1-0.3-0.2
		c-0.1-0.1,0-0.2,0-0.3c0-1.1,0-2.3,0-3.4c0,0,0,0,0,0c0-0.3,0.1-0.5,0.3-0.5c0.2,0,0.3,0.2,0.3,0.5C844.7,31.8,844.7,32.4,844.7,33
		z"/>
	<path class="st6" d="M844.8,29.6c0,0.2-0.2,0.4-0.4,0.4c-0.2,0-0.4-0.1-0.4-0.4c0-0.3,0.1-0.4,0.4-0.4
		C844.6,29.2,844.8,29.4,844.8,29.6z"/>
	<g>
		<path class="st6" d="M517.7,39.6c0-0.6,0-1.1,0-1.7c0-0.8,0.6-1.4,1.3-1.4c0.9-0.1,1.5,0.4,1.7,1.2c0,0.3,0,0.6,0,0.9
			c0,0.8,0,1.6,0,2.4c0,0.5-0.1,0.9-0.4,1.3c0,0.1,0,0.2,0,0.3c0.1,0.2,0.2,0.4,0.3,0.6c0.1,0.2,0.1,0.3-0.1,0.4
			c-0.2,0.1-0.3,0.1-0.5-0.1c-0.1-0.2-0.2-0.3-0.3-0.5c-0.1-0.1-0.2-0.2-0.3-0.2c-0.7,0.1-1.3-0.2-1.6-0.9c-0.1-0.2-0.1-0.4-0.1-0.6
			c0,0,0,0,0-0.1C517.7,40.6,517.7,40.1,517.7,39.6z M520,39.5c0-0.5,0-1,0-1.6c0-0.5-0.4-1-0.9-1c-0.5,0-0.8,0.4-0.9,0.9
			c0,0.3,0,0.6,0,0.9c0,0.8,0,1.5,0,2.3c0,0.5,0.3,0.9,0.8,0.9c0.5,0,0.9-0.3,0.9-0.9C520,40.6,520,40.1,520,39.5z"/>
		<path class="st6" d="M511.1,37.3c0,0.2,0,0.4,0,0.6c0,0.2,0.1,0.3,0.3,0.3c0.1,0,0.3,0,0.4,0c0.7,0,1.2,0.5,1.2,1.2
			c0,0.6,0,1.3,0,1.9c0,0.7-0.6,1.2-1.3,1.2c-0.3,0-0.6,0-0.9,0c-0.3,0-0.4-0.1-0.4-0.4c0-1.4,0-2.7,0-4.1c0-0.5,0-0.9,0-1.4
			c0-0.2,0-0.4,0.3-0.4c0.3,0,0.3,0.2,0.3,0.4C511.1,36.9,511.1,37.1,511.1,37.3z M512.4,40.4c0-0.3,0-0.6,0-0.8
			c0-0.5-0.3-0.8-0.8-0.8c-0.1,0-0.2,0-0.3,0c-0.2,0-0.3,0.1-0.3,0.3c0,0.8,0,1.5,0,2.3c0,0.7-0.1,0.6,0.6,0.6
			c0.5,0,0.7-0.3,0.7-0.7C512.4,41,512.4,40.7,512.4,40.4z"/>
		<path class="st6" d="M527.9,40.9c0,0.4,0,0.9,0,1.3c0,0.4-0.1,0.4-0.5,0.5c-0.3,0-0.5,0-0.8,0c-0.7,0-1.3-0.6-1.3-1.3
			c0-0.7,0.6-1.3,1.3-1.3c0,0,0.1,0,0.1,0c0.2-0.1,0.5,0.2,0.6-0.2c0.1-0.7-0.1-1-0.5-1.1c-0.2,0-0.4,0.1-0.5,0.2
			c-0.2,0.1-0.4,0.1-0.5,0c-0.1-0.2,0-0.4,0.1-0.5c0.4-0.3,0.8-0.4,1.3-0.2c0.5,0.2,0.7,0.5,0.8,1C527.9,39.8,527.8,40.3,527.9,40.9
			C527.8,40.9,527.9,40.9,527.9,40.9z M527.2,41.4c0-0.8-0.1-0.8-0.7-0.7c-0.4,0.1-0.6,0.4-0.6,0.8c0.1,0.4,0.4,0.6,1.1,0.5
			C527.4,42,527.1,41.6,527.2,41.4C527.2,41.4,527.2,41.4,527.2,41.4z"/>
		<path class="st6" d="M514.1,40.4c0-0.3,0-0.6,0-0.9c0-0.8,0.5-1.3,1.3-1.3c0.7,0,1.3,0.6,1.3,1.3c0,0.3,0,0.5,0,0.8
			c0,0.3-0.1,0.4-0.4,0.4c-0.4,0-0.9,0-1.3,0c-0.2,0-0.3,0.1-0.3,0.3c0,0.2,0,0.4,0,0.6c0.1,0.5,0.6,0.7,1,0.4
			c0.1,0,0.1-0.1,0.2-0.1c0.1,0,0.3,0,0.4,0.1c0.1,0.1,0.1,0.3,0,0.4c-0.4,0.4-1.2,0.5-1.7,0c-0.3-0.3-0.4-0.6-0.5-1
			C514.1,41,514.1,40.7,514.1,40.4z M515.4,40.1c0.8,0,0.7,0.1,0.7-0.6c0-0.4-0.3-0.7-0.7-0.7c-0.5,0-0.7,0.4-0.7,1
			C514.7,40.1,514.7,40.1,515.4,40.1C515.3,40.1,515.4,40.1,515.4,40.1z"/>
		<path class="st6" d="M524.3,40.4c0,0.6,0,1.2,0,1.8c0,0.3-0.1,0.4-0.4,0.4c-0.3,0-0.5,0-0.8,0c-0.8,0-1.3-0.5-1.4-1.3
			c0-0.9,0-1.7,0-2.6c0-0.4,0.1-0.5,0.3-0.5c0.2,0,0.3,0.2,0.3,0.5c0,0.8,0,1.7,0,2.5c0,0.7,0.6,1.1,1.2,0.8c0.1,0,0.1-0.2,0.1-0.3
			c0-1,0-2,0-3c0-0.4,0.1-0.5,0.3-0.5c0.2,0,0.3,0.2,0.3,0.5C524.3,39.3,524.3,39.8,524.3,40.4z"/>
		<path class="st6" d="M529.1,39.2c0-0.8,0-1.6,0-2.5c0-0.1,0-0.2,0-0.2c0-0.2,0.2-0.3,0.3-0.2c0.1,0,0.2,0.2,0.3,0.3
			c0,0.1,0,0.2,0,0.3c0,1.6,0,3.2,0,4.8c0,0.2,0,0.4,0.3,0.6c0.2,0.1,0.2,0.3,0.1,0.5c-0.1,0.2-0.3,0.1-0.4,0
			c-0.3-0.2-0.5-0.5-0.5-0.9C529.1,40.9,529.1,40,529.1,39.2z"/>
		<path class="st6" d="M531.7,40.4c0,0.6,0,1.2,0,1.8c0,0.1,0,0.2,0,0.3c-0.1,0.1-0.2,0.2-0.3,0.2c-0.1,0-0.2-0.1-0.3-0.2
			c-0.1-0.1,0-0.2,0-0.3c0-1.1,0-2.3,0-3.4c0,0,0,0,0,0c0-0.3,0.1-0.5,0.3-0.5c0.2,0,0.3,0.2,0.3,0.5
			C531.7,39.3,531.7,39.8,531.7,40.4z"/>
		<path class="st6" d="M531.8,37c0,0.2-0.2,0.4-0.4,0.4c-0.2,0-0.4-0.1-0.4-0.4c0-0.3,0.1-0.4,0.4-0.4
			C531.6,36.6,531.8,36.8,531.8,37z"/>
	</g>
</g>
</svg>
