<?xml version="1.0" encoding="utf-8"?>
<!-- Generator: Adobe Illustrator 22.1.0, SVG Export Plug-In . SVG Version: 6.00 Build 0)  -->
<svg version="1.1" id="Logo" xmlns="http://www.w3.org/2000/svg" xmlns:xlink="http://www.w3.org/1999/xlink" x="0px" y="0px"
	 viewBox="0 0 850.4 850.4" style="enable-background:new 0 0 850.4 850.4;" xml:space="preserve">
<style type="text/css">
	.st0{fill:#11284B;}
	.st1{fill:#FFFFFF;}
</style>
<g>
	<path class="st0" d="M421.6,340.3c-1.5-0.1-3-0.1-4.5-0.1c-21.1,0-40.1,8.9-56.8,26.7c-15,16.1-20.1,29-20.1,44.6
		c0,8.4,1.5,17.7,3.7,28.6c4.1,20.4,16.2,40,33.2,54c13,10.7,27.4,16.1,42.7,16.2c7.9,0.1,16-1.3,24.2-4.2
		c26.5-9.2,51.9-35.4,61.7-63.8c3.1-8.9,4.6-17.6,4.6-25.9c0-20.4-9.3-38.3-27.1-51.1C461.6,349.9,440.9,341.5,421.6,340.3z"/>
	<path class="st1" d="M393.5,421h-5.8l0,0.2c0,1.1-0.7,11.1-9.6,11.1c-7.9,0-12-7.1-12-21.1c0-14,4-21.1,12-21.1
		c9,0,9.6,10.6,9.6,11.1l0,0.2h5.8c0.5,0,1.1-0.2,1.4-0.6c0.4-0.4,0.5-0.8,0.5-1.3c-0.1-2.8-1.5-16.5-17.5-16.5
		c-12.9,0-19.7,9.8-19.7,28.3c0,18.6,6.8,28.4,19.7,28.4c15.3,0,17.3-12.5,17.5-16.4c0-0.5-0.1-1-0.5-1.4
		C394.5,421.2,394,421,393.5,421z"/>
	<path class="st1" d="M478.1,407.7L478.1,407.7l-5-2.2c-4.8-2.1-6.5-4.2-6.5-7.9c0-4.8,3.5-8.1,8.8-8.1c3.1,0,5.7,0.6,8.8,3.8
		l0.2,0.2l2.7-2.5c1.6-1.4,1.1-2.7,0.5-3.6c-2.6-3.1-6.8-4.8-11.8-4.8c-9.7,0-16.7,6.3-16.7,15c0,8.5,5.4,12.1,11.2,14.7l5.1,2.3
		c5.2,2.3,7.6,4.3,7.6,9.2c0,6.8-6.1,8.6-9.7,8.6c-3.1,0-6.6-0.7-10.8-5.5l-0.2-0.2l-2.8,2.5c-1.4,1.3-1.4,2.3,0,4.1
		c3.8,4.9,9.5,6,13.5,6c8.8,0,17.6-5.4,17.6-15.7C490.5,414.8,485.5,410.9,478.1,407.7z"/>
	<path class="st1" d="M432.6,398.9c0-8.8-7.1-16.2-15.9-16.2c-4.1,0-7.9,1.6-10.7,4.1v-3h-5.3c-1.6,0-2.2,1-2.2,2.2v51.1
		c0,1.4,0.9,2.2,2.2,2.2h5.3c0,0,0-40.2,0-40.2c0-5.3,4.3-9.6,9.6-9.6c5.3,0,9.6,4.3,9.6,9.6c0,0,0,40.2,0,40.2h5.2
		c1.5,0,2.2-0.8,2.2-2.2C432.6,437.2,432.6,399,432.6,398.9z"/>
	<path class="st1" d="M459.8,386.6c0.3-0.3,0.4-0.8,0.4-1.2c0-0.9-0.6-1.6-1.4-1.9c-1.5-0.5-3.2-0.8-4.8-0.8
		c-4.1,0-7.9,1.6-10.7,4.1v-3h-5.3c-1.6,0-2.2,1-2.2,2.2v51.1c0,1.4,0.9,2.2,2.2,2.2h5.3c0,0,0-40.2,0-40.2c0-5.3,4.3-9.6,9.6-9.6
		c1.4,0,2.7,0.3,3.9,0.8L459.8,386.6L459.8,386.6z"/>
	<path class="st1" d="M417,494.7c0,0.8-0.6,1.4-1.4,1.4l0,0c-0.8,0-1.4-0.6-1.4-1.4v-96.4c0-0.8,0.6-1.4,1.4-1.4l0,0
		c0.8,0,1.4,0.6,1.4,1.4V494.7z"/>
</g>
</svg>
