<svg id="Logo" xmlns="http://www.w3.org/2000/svg" viewBox="250 275 300 300" width="850.4" height="850.4"><style>.st1{fill:#fff}</style><path d="M421.6 340.3c-1.5-.1-3-.1-4.5-.1-21.1 0-40.1 8.9-56.8 26.7-15 16.1-20.1 29-20.1 44.6 0 8.4 1.5 17.7 3.7 28.6 4.1 20.4 16.2 40 33.2 54 13 10.7 27.4 16.1 42.7 16.2 7.9.1 16-1.3 24.2-4.2 26.5-9.2 51.9-35.4 61.7-63.8 3.1-8.9 4.6-17.6 4.6-25.9 0-20.4-9.3-38.3-27.1-51.1-21.6-15.4-42.3-23.8-61.6-25z" fill="#11284b"/><path class="st1" d="M393.5 421h-5.8v.2c0 1.1-.7 11.1-9.6 11.1-7.9 0-12-7.1-12-21.1 0-14 4-21.1 12-21.1 9 0 9.6 10.6 9.6 11.1v.2h5.8c.5 0 1.1-.2 1.4-.6.4-.4.5-.8.5-1.3-.1-2.8-1.5-16.5-17.5-16.5-12.9 0-19.7 9.8-19.7 28.3 0 18.6 6.8 28.4 19.7 28.4 15.3 0 17.3-12.5 17.5-16.4 0-.5-.1-1-.5-1.4-.4-.7-.9-.9-1.4-.9zM478.1 407.7l-5-2.2c-4.8-2.1-6.5-4.2-6.5-7.9 0-4.8 3.5-8.1 8.8-8.1 3.1 0 5.7.6 8.8 3.8l.2.2 2.7-2.5c1.6-1.4 1.1-2.7.5-3.6-2.6-3.1-6.8-4.8-11.8-4.8-9.7 0-16.7 6.3-16.7 15 0 8.5 5.4 12.1 11.2 14.7l5.1 2.3c5.2 2.3 7.6 4.3 7.6 9.2 0 6.8-6.1 8.6-9.7 8.6-3.1 0-6.6-.7-10.8-5.5l-.2-.2-2.8 2.5c-1.4 1.3-1.4 2.3 0 4.1 3.8 4.9 9.5 6 13.5 6 8.8 0 17.6-5.4 17.6-15.7-.1-8.8-5.1-12.7-12.5-15.9zM432.6 398.9c0-8.8-7.1-16.2-15.9-16.2-4.1 0-7.9 1.6-10.7 4.1v-3h-5.3c-1.6 0-2.2 1-2.2 2.2v51.1c0 1.4.9 2.2 2.2 2.2h5.3v-40.2c0-5.3 4.3-9.6 9.6-9.6s9.6 4.3 9.6 9.6v40.2h5.2c1.5 0 2.2-.8 2.2-2.2v-38.2zM459.8 386.6c.3-.3.4-.8.4-1.2 0-.9-.6-1.6-1.4-1.9-1.5-.5-3.2-.8-4.8-.8-4.1 0-7.9 1.6-10.7 4.1v-3H438c-1.6 0-2.2 1-2.2 2.2v51.1c0 1.4.9 2.2 2.2 2.2h5.3v-40.2c0-5.3 4.3-9.6 9.6-9.6 1.4 0 2.7.3 3.9.8l3-3.7z"/><path class="st1" d="M417 494.7c0 .8-.6 1.4-1.4 1.4-.8 0-1.4-.6-1.4-1.4v-96.4c0-.8.6-1.4 1.4-1.4.8 0 1.4.6 1.4 1.4v96.4z"/></svg>
