<?xml version="1.0" encoding="utf-8"?>
<!-- Generator: Adobe Illustrator 22.0.1, SVG Export Plug-In . SVG Version: 6.00 Build 0)  -->
<svg version="1.1" xmlns="http://www.w3.org/2000/svg" xmlns:xlink="http://www.w3.org/1999/xlink" x="0px" y="0px"
	 viewBox="0 0 740.7 165.7" style="enable-background:new 0 0 740.7 165.7;" xml:space="preserve">
<style type="text/css">
	.st0{fill:none;}
</style>
<g id="Calque_2">
</g>
<g id="Calque_1">
</g>
<g id="Calque_3">
	<g>
		<path d="M0,22.9h90.5v23.5H26.2v24.3h56.5v23.5H26.2v25.2h65.1v23.5H0V22.9z"/>
		<path d="M333.3,22.9h26.4v119.9h-26.4V22.9z"/>
		<path d="M402,22.9h49c28.6,0,45.9,17,45.9,41.5v0.3c0,27.8-21.6,42.1-48.5,42.1h-20v36H402V22.9z M449.3,83.4
			c13.2,0,20.9-7.9,20.9-18.2v-0.3c0-11.8-8.2-18.2-21.4-18.2h-20.4v36.7H449.3z"/>
		<path d="M523.7,125.3l15.6-18.7c10.8,8.9,22.1,14.6,35.8,14.6c10.8,0,17.3-4.3,17.3-11.3v-0.3c0-6.7-4.1-10.1-24.2-15.2
			c-24.2-6.2-39.8-12.8-39.8-36.7v-0.3c0-21.8,17.5-36.2,42-36.2c17.5,0,32.4,5.5,44.5,15.3l-13.7,19.9
			c-10.6-7.4-21.1-11.8-31.2-11.8c-10.1,0-15.4,4.6-15.4,10.5v0.3c0,7.9,5.1,10.5,25.9,15.8c24.3,6.3,38,15.1,38,36v0.3
			c0,23.8-18.2,37.2-44,37.2C556.4,144.5,538.1,138.2,523.7,125.3z"/>
		<path d="M645.8,125.3l15.6-18.7c10.8,8.9,22.1,14.6,35.8,14.6c10.8,0,17.3-4.3,17.3-11.3v-0.3c0-6.7-4.1-10.1-24.2-15.2
			c-24.2-6.2-39.8-12.8-39.8-36.7v-0.3c0-21.8,17.5-36.2,42-36.2c17.5,0,32.4,5.5,44.6,15.3l-13.7,19.9
			c-10.6-7.4-21.1-11.8-31.2-11.8c-10.1,0-15.4,4.6-15.4,10.5v0.3c0,7.9,5.1,10.5,25.9,15.8c24.3,6.3,38,15.1,38,36v0.3
			c0,23.8-18.2,37.2-44,37.2C678.5,144.5,660.2,138.2,645.8,125.3z"/>
		<g>
			<path d="M208.1,0c-26.4,0-49.8,12.3-65,31.5L210.6,99l42.3-42.3l17,17l-60.9,60.9l-79-79c-3,8.5-4.6,17.7-4.6,27.2
				c0,45.8,37.1,82.8,82.8,82.8c45.8,0,82.8-37.1,82.8-82.8S253.9,0,208.1,0z"/>
			<path class="st0" d="M269.8,73.6l-17-17L210.6,99l-67.4-67.4c-5.7,7.2-10.2,15.3-13.2,24.1l79,79L269.8,73.6z"/>
		</g>
	</g>
</g>
</svg>
