<?xml version="1.0" encoding="utf-8"?>
<!-- Generator: Adobe Illustrator 22.0.1, SVG Export Plug-In . SVG Version: 6.00 Build 0)  -->
<svg version="1.1" xmlns="http://www.w3.org/2000/svg" xmlns:xlink="http://www.w3.org/1999/xlink" x="0px" y="0px"
	 viewBox="0 0 575.1 197.3" style="enable-background:new 0 0 575.1 197.3;" xml:space="preserve">
<style type="text/css">
	.st0{fill:none;}
</style>
<g id="Calque_2">
</g>
<g id="Calque_1">
</g>
<g id="Calque_3">
	<g>
		<path d="M0,164.7V7.9C0,3.4,3.4,0,7.9,0c4.2,0,7.9,3.4,7.9,7.9v45.8h18.4c18.7,0,34.2,15.3,34.2,34.2v50.5
			c0,18.9-15.5,34.2-34.2,34.2H7.9C3.4,172.6,0,169.2,0,164.7z M15.8,69.5v87.3h18.4c10,0,18.4-8.2,18.4-18.4V87.9
			c0-10.3-8.4-18.4-18.4-18.4H15.8z"/>
		<path d="M98.9,139.4V86.8c0-18.9,15.3-34.2,34.2-34.2s34.2,15.3,34.2,34.2v26.3c0,4.5-3.4,7.9-7.9,7.9h-44.7v18.4
			c0,7.4,4.5,14.2,11.3,17.1c6.8,2.9,14.7,1.3,20-3.9c3.2-3.2,8.2-3.2,11.3,0c3.2,2.9,3.2,7.9,0,11c-9.7,9.7-24.5,12.6-37.4,7.4
			C107.1,165.7,98.9,153.4,98.9,139.4z M114.7,86.8v18.4c10.5,0,28.9,0,36.8,0c0-7.6,0-18.4,0-18.4c0-10.3-8.2-18.4-18.4-18.4
			C122.9,68.4,114.7,76.6,114.7,86.8z"/>
		<path d="M195.2,44.7c0-22.1,17.9-40,40-40c22.1,0,40,17.9,40,40v89.4c0,11.8-5,22.4-13.2,29.7l12.1,20.8c2.4,3.9,0.8,9.2-3.2,11.6
			c-3.9,2.1-9.2,0.8-11.6-3.2l-11.8-20.8c-3.9,1.1-8.2,1.8-12.4,1.8c-22.1,0-40-17.9-40-40V44.7z M212,44.7v89.4
			c0,12.9,10.5,23.2,23.2,23.2c12.9,0,23.2-10.3,23.2-23.2V44.7c0-12.6-10.3-23.2-23.2-23.2C222.6,21.6,212,32.1,212,44.7z"/>
		<path d="M306.2,138.4V60.5c0-4.5,3.4-7.9,7.9-7.9s7.9,3.4,7.9,7.9v77.9c0,10.3,8.2,18.4,18.4,18.4h18.4V60.5
			c0-4.5,3.4-7.9,7.9-7.9s7.9,3.4,7.9,7.9v104.2c0,4.5-3.4,7.9-7.9,7.9h-26.3C321.5,172.6,306.2,157.3,306.2,138.4z"/>
		<path d="M453.5,104.2V86.3c0-7.4-4.5-13.7-11-16.6c-6.8-2.6-14.5-1.3-19.5,3.9c-3.2,3.2-8.2,3.2-11.3,0c-3.2-3.2-3.2-8.2,0-11
			c9.7-9.7,24.2-12.6,36.8-7.4c12.6,5.3,20.8,17.4,20.8,31v78.4c0,4.5-3.7,7.9-7.9,7.9h-26.3c-18.9,0-34.2-15.3-34.2-34.2
			s15.3-34.2,34.2-34.2H453.5z M435.1,156.8h18.4V120h-18.4c-10.3,0-18.4,8.2-18.4,18.4C416.7,148.6,424.9,156.8,435.1,156.8z"/>
		<path d="M503.3,147.6V7.9c0-4.5,3.7-7.9,7.9-7.9c4.5,0,7.9,3.4,7.9,7.9v139.7c0,4.7,2.6,8.9,6.6,11.3c3.9,2.1,5.3,7.1,2.9,10.8
			c-2.1,3.7-6.8,5-10.8,2.9C509,167.3,503.3,157.8,503.3,147.6z"/>
		<path d="M554,21c0-5.8,4.7-10.5,10.5-10.5s10.5,4.7,10.5,10.5c0,5.8-4.7,10.5-10.5,10.5S554,26.8,554,21z M564.6,173.6
			c-4.2,0-7.9-3.4-7.9-7.9V60.5c0-4.5,3.7-7.9,7.9-7.9c4.5,0,7.9,3.4,7.9,7.9v105.2C572.4,170.2,569,173.6,564.6,173.6z"/>
	</g>
</g>
</svg>
