<?xml version="1.0" encoding="utf-8"?>
<!-- Generator: Adobe Illustrator 22.0.1, SVG Export Plug-In . SVG Version: 6.00 Build 0)  -->
<svg version="1.1" xmlns="http://www.w3.org/2000/svg" xmlns:xlink="http://www.w3.org/1999/xlink" x="0px" y="0px"
	 viewBox="0 0 931.8 138.6" style="enable-background:new 0 0 931.8 138.6;" xml:space="preserve">
<style type="text/css">
	.st0{fill:none;}
</style>
<g id="Calque_2">
</g>
<g id="Calque_1">
</g>
<g id="Calque_3">
	<g>
		<path d="M95.6,27.4c12.2,11,18.3,26.4,18.3,46c0,19.6-5.9,35.2-17.7,46.6c-11.8,11.4-29.9,17.2-54.2,17.2H0V10.9h43.4
			C66,10.9,83.4,16.4,95.6,27.4z M92.3,73.9c0-28.9-16.6-43.4-49.7-43.4H21.3v86.6H45c15.3,0,27-3.6,35.1-10.9
			C88.3,98.9,92.3,88.1,92.3,73.9z"/>
		<path d="M139.7,21.9c-2.5-2.5-3.8-5.5-3.8-9s1.3-6.5,3.8-9c2.5-2.5,5.5-3.8,9-3.8s6.5,1.3,9,3.8s3.8,5.5,3.8,9s-1.3,6.5-3.8,9
			s-5.5,3.8-9,3.8S142.2,24.4,139.7,21.9z M158.7,137.2h-20.2V41h20.2V137.2z"/>
		<path d="M208.2,85.1v52h-20.2V41h20.2v17.5c2.9-5.9,7.3-10.5,13.1-13.9c5.8-3.4,12.1-5.1,18.9-5.1c15.2,0,25.5,6.3,30.9,18.8
			c9.5-12.5,21.4-18.8,35.6-18.8c10.8,0,19.6,3.3,26.3,9.9c6.7,6.6,10,16.2,10,28.7v58.9h-20.2V84.4c0-17.7-7.3-26.6-22-26.6
			c-6.9,0-12.9,2.2-18,6.6c-5.1,4.4-7.8,10.8-8,19.3v53.5h-20.2V84.4c0-9.2-1.6-15.9-4.9-20.1c-3.3-4.3-8.4-6.4-15.4-6.4
			c-7,0-13.1,2.3-18.3,7C210.8,69.4,208.2,76.2,208.2,85.1z"/>
		<path d="M460.6,98h-75.4c0.5,7,3.7,12.6,9.6,16.9c5.9,4.3,12.6,6.4,20.2,6.4c12,0,21.2-3.8,27.5-11.4l11.6,12.6
			c-10.4,10.7-23.9,16.1-40.5,16.1c-13.5,0-25-4.5-34.4-13.5c-9.5-9-14.2-21-14.2-36.1s4.8-27.1,14.5-36s21-13.4,34.1-13.4
			c13.1,0,24.2,4,33.3,11.8c9.2,7.9,13.7,18.8,13.7,32.6V98z M385.3,82h55.1c0-8.1-2.5-14.3-7.6-18.6c-5.1-4.3-11.3-6.5-18.7-6.5
			c-7.4,0-14.1,2.3-20,6.8C388.2,68.2,385.3,74.3,385.3,82z"/>
		<path d="M574.7,101.8l28.2-90.9H622l28.2,90.9L682,10.9H705l-44.1,126.3h-21.1l-26.6-86.6h-1.4l-26.6,86.6H564L519.9,10.9h22.9
			L574.7,101.8z"/>
		<path d="M811.2,98h-75.4c0.5,7,3.7,12.6,9.6,16.9c5.9,4.3,12.6,6.4,20.2,6.4c12,0,21.2-3.8,27.5-11.4l11.6,12.6
			c-10.4,10.7-23.9,16.1-40.5,16.1c-13.5,0-25-4.5-34.4-13.5c-9.5-9-14.2-21-14.2-36.1s4.8-27.1,14.5-36c9.6-8.9,21-13.4,34.1-13.4
			c13.1,0,24.2,4,33.3,11.8c9.2,7.9,13.7,18.8,13.7,32.6V98z M735.9,82H791c0-8.1-2.5-14.3-7.6-18.6c-5.1-4.3-11.3-6.5-18.7-6.5
			c-7.4,0-14.1,2.3-20,6.8C738.8,68.2,735.9,74.3,735.9,82z"/>
		<path d="M884.9,39.6c12.9,0,23.9,4.5,33.1,13.4s13.7,20.8,13.7,35.6c0,14.8-4.6,26.9-13.6,36.1c-9.1,9.3-19.7,13.9-31.8,13.9
			c-12.1,0-23-5.3-32.6-15.9v14.5h-20.2V3.1h20.2v54.8C861.6,45.7,872,39.6,884.9,39.6z M853.3,89.3c0,9.1,2.8,16.6,8.3,22.5
			c5.5,5.8,12.3,8.8,20.2,8.8s14.9-2.9,20.8-8.7c5.9-5.8,8.9-13.3,8.9-22.5s-2.9-16.9-8.7-23c-5.8-6.1-12.7-9.1-20.8-9.1
			c-8.1,0-14.9,3-20.4,9.1C856.1,72.5,853.3,80.1,853.3,89.3z"/>
	</g>
</g>
</svg>
