<?xml version="1.0" encoding="utf-8"?>
<!-- Generator: Adobe Illustrator 22.1.0, SVG Export Plug-In . SVG Version: 6.00 Build 0)  -->
<svg version="1.1" id="Calque_1" xmlns="http://www.w3.org/2000/svg" xmlns:xlink="http://www.w3.org/1999/xlink" x="0px" y="0px"
	 viewBox="0 0 330.3 439.4" style="enable-background:new 0 0 330.3 439.4;" xml:space="preserve">
<style type="text/css">
	.st0{clip-path:url(#SVGID_2_);fill:none;stroke:#E5142D;stroke-width:0.34;stroke-miterlimit:10;}
	.st1{clip-path:url(#SVGID_4_);fill:none;stroke:#E5142D;stroke-width:0.34;stroke-miterlimit:10;}
	.st2{clip-path:url(#SVGID_6_);fill:none;stroke:#E5142D;stroke-width:0.34;stroke-miterlimit:10;}
	.st3{fill:#E4192F;}
	.st4{font-family:'MuseoSans-100';}
	.st5{font-size:15px;}
	.st6{clip-path:url(#SVGID_8_);fill:none;stroke:#E5142D;stroke-width:0.34;stroke-miterlimit:10;}
	.st7{clip-path:url(#SVGID_10_);fill:none;stroke:#E5142D;stroke-width:0.34;stroke-miterlimit:10;}
	.st8{clip-path:url(#SVGID_12_);fill:none;stroke:#E5142D;stroke-width:0.34;stroke-miterlimit:10;}
	.st9{clip-path:url(#SVGID_14_);fill:none;stroke:#E5142D;stroke-width:0.34;stroke-miterlimit:10;}
	.st10{clip-path:url(#SVGID_16_);fill:none;stroke:#E5142D;stroke-width:0.34;stroke-miterlimit:10;}
	.st11{clip-path:url(#SVGID_18_);fill:none;stroke:#E5142D;stroke-width:0.34;stroke-miterlimit:10;}
	.st12{clip-path:url(#SVGID_20_);fill:none;stroke:#E5142D;stroke-width:0.34;stroke-miterlimit:10;}
	.st13{clip-path:url(#SVGID_22_);fill:none;stroke:#E5142D;stroke-width:0.34;stroke-miterlimit:10;}
	.st14{clip-path:url(#SVGID_24_);fill:none;stroke:#E5142D;stroke-width:0.34;stroke-miterlimit:10;}
	.st15{clip-path:url(#SVGID_26_);fill:none;stroke:#E5142D;stroke-width:0.34;stroke-miterlimit:10;}
	.st16{clip-path:url(#SVGID_28_);fill:none;stroke:#E5142D;stroke-width:0.34;stroke-miterlimit:10;}
	.st17{clip-path:url(#SVGID_30_);fill:none;stroke:#E5142D;stroke-width:0.34;stroke-miterlimit:10;}
	.st18{clip-path:url(#SVGID_32_);fill:none;stroke:#E5142D;stroke-width:0.34;stroke-miterlimit:10;}
	.st19{clip-path:url(#SVGID_34_);fill:none;stroke:#E5142D;stroke-width:0.34;stroke-miterlimit:10;}
	.st20{clip-path:url(#SVGID_36_);fill:none;stroke:#E5142D;stroke-width:0.34;stroke-miterlimit:10;}
	.st21{clip-path:url(#SVGID_38_);}
</style>
<g>
	<defs>
		<rect id="SVGID_1_" x="189.7" width="21.3" height="56.7"/>
	</defs>
	<clipPath id="SVGID_2_">
		<use xlink:href="#SVGID_1_"  style="overflow:visible;"/>
	</clipPath>
	<path class="st0" d="M194.5,54.1c0,1.6,0.8,2.4,2.3,2.4c1.6,0,2.3-0.8,2.3-2.4V32.7h2.4v21.4c0,1.6,0.8,2.4,2.3,2.4
		c1.6,0,2.3-0.8,2.3-2.4V17.6h1.1v13.2c0,0.8,0.3,1.4,0.9,1.8c0.6,0.4,1.2,0.4,1.8,0c0.6-0.4,0.9-1,0.9-1.8V16.6
		c0-1.5-0.5-2.7-1.5-3.5c-1-0.8-2.4-1.2-4.3-1.2h-9.3c-1.7,0-3.2,0.4-4.3,1.1c-1.1,0.8-1.6,1.9-1.6,3.5v15.1c0,0.7,0.3,1.2,0.9,1.5
		c0.6,0.3,1.2,0.3,1.8,0c0.6-0.3,0.9-0.8,0.9-1.5V17.6h1.1V54.1z"/>
	<path class="st0" d="M195.4,5c0,1.3,0.5,2.5,1.4,3.4c0.9,0.9,2.1,1.4,3.4,1.4c1.3,0,2.5-0.5,3.4-1.4c0.9-0.9,1.4-2.1,1.4-3.5
		c0-1.3-0.5-2.4-1.4-3.3c-0.9-0.9-2.1-1.4-3.4-1.4c-1.3,0-2.5,0.5-3.4,1.4C195.9,2.5,195.4,3.7,195.4,5z"/>
</g>
<g>
	<defs>
		<rect id="SVGID_3_" x="219.5" width="21.3" height="56.7"/>
	</defs>
	<clipPath id="SVGID_4_">
		<use xlink:href="#SVGID_3_"  style="overflow:visible;"/>
	</clipPath>
	<path class="st1" d="M224.4,54.1c0,1.6,0.8,2.4,2.3,2.4c1.6,0,2.3-0.8,2.3-2.4V32.7h2.4v21.4c0,1.6,0.8,2.4,2.3,2.4
		c1.6,0,2.3-0.8,2.3-2.4V17.6h1.1v13.2c0,0.8,0.3,1.4,0.9,1.8c0.6,0.4,1.2,0.4,1.8,0c0.6-0.4,0.9-1,0.9-1.8V16.6
		c0-1.5-0.5-2.7-1.5-3.5c-1-0.8-2.4-1.2-4.3-1.2h-9.3c-1.7,0-3.2,0.4-4.3,1.1c-1.1,0.8-1.6,1.9-1.6,3.5v15.1c0,0.7,0.3,1.2,0.9,1.5
		c0.6,0.3,1.2,0.3,1.8,0c0.6-0.3,0.9-0.8,0.9-1.5V17.6h1.1V54.1z"/>
	<path class="st1" d="M225.3,5c0,1.3,0.5,2.5,1.4,3.4c0.9,0.9,2.1,1.4,3.4,1.4c1.3,0,2.5-0.5,3.4-1.4c0.9-0.9,1.4-2.1,1.4-3.5
		c0-1.3-0.5-2.4-1.4-3.3c-0.9-0.9-2.1-1.4-3.4-1.4c-1.3,0-2.5,0.5-3.4,1.4C225.7,2.5,225.3,3.7,225.3,5z"/>
</g>
<g>
	<defs>
		<rect id="SVGID_5_" x="249.4" width="21.3" height="56.7"/>
	</defs>
	<clipPath id="SVGID_6_">
		<use xlink:href="#SVGID_5_"  style="overflow:visible;"/>
	</clipPath>
	<path class="st2" d="M254.2,54.1c0,1.6,0.8,2.4,2.3,2.4c1.5,0,2.3-0.8,2.3-2.4V32.7h2.4v21.4c0,1.6,0.8,2.4,2.3,2.4
		c1.5,0,2.3-0.8,2.3-2.4V17.6h1.1v13.2c0,0.8,0.3,1.4,0.9,1.8c0.6,0.4,1.2,0.4,1.8,0c0.6-0.4,0.9-1,0.9-1.8V16.6
		c0-1.5-0.5-2.7-1.5-3.5c-1-0.8-2.4-1.2-4.3-1.2h-9.3c-1.7,0-3.2,0.4-4.3,1.1c-1.1,0.8-1.6,1.9-1.6,3.5v15.1c0,0.7,0.3,1.2,0.9,1.5
		c0.6,0.3,1.2,0.3,1.8,0c0.6-0.3,0.9-0.8,0.9-1.5V17.6h1.1V54.1z"/>
	<path class="st2" d="M255.1,5c0,1.3,0.5,2.5,1.4,3.4c0.9,0.9,2.1,1.4,3.4,1.4s2.5-0.5,3.4-1.4c0.9-0.9,1.4-2.1,1.4-3.5
		c0-1.3-0.5-2.4-1.4-3.3c-0.9-0.9-2.1-1.4-3.4-1.4s-2.5,0.5-3.4,1.4C255.6,2.5,255.1,3.7,255.1,5z"/>
</g>
<text transform="matrix(1 0 0 1 31.6792 33.3602)" class="st3 st4 st5">développement web</text>
<g>
	<defs>
		<rect id="SVGID_7_" x="189.7" y="76.5" width="21.3" height="56.7"/>
	</defs>
	<clipPath id="SVGID_8_">
		<use xlink:href="#SVGID_7_"  style="overflow:visible;"/>
	</clipPath>
	<path class="st6" d="M194.5,130.7c0,1.6,0.8,2.4,2.3,2.4c1.6,0,2.3-0.8,2.3-2.4v-21.4h2.4v21.4c0,1.6,0.8,2.4,2.3,2.4
		c1.6,0,2.3-0.8,2.3-2.4V94.2h1.1v13.2c0,0.8,0.3,1.4,0.9,1.8c0.6,0.4,1.2,0.4,1.8,0c0.6-0.4,0.9-1,0.9-1.8V93.1
		c0-1.5-0.5-2.7-1.5-3.5c-1-0.8-2.4-1.2-4.3-1.2h-9.3c-1.7,0-3.2,0.4-4.3,1.1c-1.1,0.8-1.6,1.9-1.6,3.5v15.1c0,0.7,0.3,1.2,0.9,1.5
		c0.6,0.3,1.2,0.3,1.8,0c0.6-0.3,0.9-0.8,0.9-1.5V94.2h1.1V130.7z"/>
	<path class="st6" d="M195.4,81.5c0,1.3,0.5,2.5,1.4,3.4c0.9,0.9,2.1,1.4,3.4,1.4c1.3,0,2.5-0.5,3.4-1.4c0.9-0.9,1.4-2.1,1.4-3.5
		c0-1.3-0.5-2.4-1.4-3.3c-0.9-0.9-2.1-1.4-3.4-1.4c-1.3,0-2.5,0.5-3.4,1.4C195.9,79.1,195.4,80.2,195.4,81.5z"/>
</g>
<g>
	<defs>
		<rect id="SVGID_9_" x="219.5" y="76.5" width="21.3" height="56.7"/>
	</defs>
	<clipPath id="SVGID_10_">
		<use xlink:href="#SVGID_9_"  style="overflow:visible;"/>
	</clipPath>
	<path class="st7" d="M224.4,130.7c0,1.6,0.8,2.4,2.3,2.4c1.6,0,2.3-0.8,2.3-2.4v-21.4h2.4v21.4c0,1.6,0.8,2.4,2.3,2.4
		c1.6,0,2.3-0.8,2.3-2.4V94.2h1.1v13.2c0,0.8,0.3,1.4,0.9,1.8c0.6,0.4,1.2,0.4,1.8,0c0.6-0.4,0.9-1,0.9-1.8V93.1
		c0-1.5-0.5-2.7-1.5-3.5c-1-0.8-2.4-1.2-4.3-1.2h-9.3c-1.7,0-3.2,0.4-4.3,1.1c-1.1,0.8-1.6,1.9-1.6,3.5v15.1c0,0.7,0.3,1.2,0.9,1.5
		c0.6,0.3,1.2,0.3,1.8,0c0.6-0.3,0.9-0.8,0.9-1.5V94.2h1.1V130.7z"/>
	<path class="st7" d="M225.3,81.5c0,1.3,0.5,2.5,1.4,3.4c0.9,0.9,2.1,1.4,3.4,1.4c1.3,0,2.5-0.5,3.4-1.4c0.9-0.9,1.4-2.1,1.4-3.5
		c0-1.3-0.5-2.4-1.4-3.3c-0.9-0.9-2.1-1.4-3.4-1.4c-1.3,0-2.5,0.5-3.4,1.4C225.7,79.1,225.3,80.2,225.3,81.5z"/>
</g>
<text transform="matrix(1 0 0 1 116.2935 104.2704)"><tspan x="0" y="0" class="st3 st4 st5">a</tspan><tspan x="7.7" y="0" class="st3 st4 st5">r</tspan><tspan x="12.6" y="0" class="st3 st4 st5">chives</tspan></text>
<text transform="matrix(1 0 0 1 66.8086 186.4257)"><tspan x="0" y="0" class="st3 st4 st5">document</tspan><tspan x="70.5" y="0" class="st3 st4 st5">a</tspan><tspan x="78.2" y="0" class="st3 st4 st5">tion</tspan></text>
<g>
	<defs>
		<rect id="SVGID_11_" x="189.7" y="153.1" width="21.3" height="56.7"/>
	</defs>
	<clipPath id="SVGID_12_">
		<use xlink:href="#SVGID_11_"  style="overflow:visible;"/>
	</clipPath>
	<path class="st8" d="M194.5,207.2c0,1.6,0.8,2.4,2.3,2.4c1.6,0,2.3-0.8,2.3-2.4v-21.4h2.4v21.4c0,1.6,0.8,2.4,2.3,2.4
		c1.6,0,2.3-0.8,2.3-2.4v-36.5h1.1v13.2c0,0.8,0.3,1.4,0.9,1.8c0.6,0.4,1.2,0.4,1.8,0c0.6-0.4,0.9-1,0.9-1.8v-14.2
		c0-1.5-0.5-2.7-1.5-3.5c-1-0.8-2.4-1.2-4.3-1.2h-9.3c-1.7,0-3.2,0.4-4.3,1.1c-1.1,0.8-1.6,1.9-1.6,3.5v15.1c0,0.7,0.3,1.2,0.9,1.5
		c0.6,0.3,1.2,0.3,1.8,0c0.6-0.3,0.9-0.8,0.9-1.5v-13.9h1.1V207.2z"/>
	<path class="st8" d="M195.4,158.1c0,1.3,0.5,2.5,1.4,3.4c0.9,0.9,2.1,1.4,3.4,1.4c1.3,0,2.5-0.5,3.4-1.4c0.9-0.9,1.4-2.1,1.4-3.5
		c0-1.3-0.5-2.4-1.4-3.3c-0.9-0.9-2.1-1.4-3.4-1.4c-1.3,0-2.5,0.5-3.4,1.4C195.9,155.6,195.4,156.7,195.4,158.1z"/>
</g>
<g>
	<defs>
		<rect id="SVGID_13_" x="219.5" y="153.1" width="21.3" height="56.7"/>
	</defs>
	<clipPath id="SVGID_14_">
		<use xlink:href="#SVGID_13_"  style="overflow:visible;"/>
	</clipPath>
	<path class="st9" d="M224.4,207.2c0,1.6,0.8,2.4,2.3,2.4c1.6,0,2.3-0.8,2.3-2.4v-21.4h2.4v21.4c0,1.6,0.8,2.4,2.3,2.4
		c1.6,0,2.3-0.8,2.3-2.4v-36.5h1.1v13.2c0,0.8,0.3,1.4,0.9,1.8c0.6,0.4,1.2,0.4,1.8,0c0.6-0.4,0.9-1,0.9-1.8v-14.2
		c0-1.5-0.5-2.7-1.5-3.5c-1-0.8-2.4-1.2-4.3-1.2h-9.3c-1.7,0-3.2,0.4-4.3,1.1c-1.1,0.8-1.6,1.9-1.6,3.5v15.1c0,0.7,0.3,1.2,0.9,1.5
		c0.6,0.3,1.2,0.3,1.8,0c0.6-0.3,0.9-0.8,0.9-1.5v-13.9h1.1V207.2z"/>
	<path class="st9" d="M225.3,158.1c0,1.3,0.5,2.5,1.4,3.4c0.9,0.9,2.1,1.4,3.4,1.4c1.3,0,2.5-0.5,3.4-1.4c0.9-0.9,1.4-2.1,1.4-3.5
		c0-1.3-0.5-2.4-1.4-3.3c-0.9-0.9-2.1-1.4-3.4-1.4c-1.3,0-2.5,0.5-3.4,1.4C225.7,155.6,225.3,156.7,225.3,158.1z"/>
</g>
<g>
	<defs>
		<rect id="SVGID_15_" x="249.4" y="153.1" width="21.3" height="56.7"/>
	</defs>
	<clipPath id="SVGID_16_">
		<use xlink:href="#SVGID_15_"  style="overflow:visible;"/>
	</clipPath>
	<path class="st10" d="M254.2,207.2c0,1.6,0.8,2.4,2.3,2.4c1.5,0,2.3-0.8,2.3-2.4v-21.4h2.4v21.4c0,1.6,0.8,2.4,2.3,2.4
		c1.5,0,2.3-0.8,2.3-2.4v-36.5h1.1v13.2c0,0.8,0.3,1.4,0.9,1.8c0.6,0.4,1.2,0.4,1.8,0c0.6-0.4,0.9-1,0.9-1.8v-14.2
		c0-1.5-0.5-2.7-1.5-3.5c-1-0.8-2.4-1.2-4.3-1.2h-9.3c-1.7,0-3.2,0.4-4.3,1.1c-1.1,0.8-1.6,1.9-1.6,3.5v15.1c0,0.7,0.3,1.2,0.9,1.5
		c0.6,0.3,1.2,0.3,1.8,0c0.6-0.3,0.9-0.8,0.9-1.5v-13.9h1.1V207.2z"/>
	<path class="st10" d="M255.1,158.1c0,1.3,0.5,2.5,1.4,3.4c0.9,0.9,2.1,1.4,3.4,1.4s2.5-0.5,3.4-1.4c0.9-0.9,1.4-2.1,1.4-3.5
		c0-1.3-0.5-2.4-1.4-3.3c-0.9-0.9-2.1-1.4-3.4-1.4s-2.5,0.5-3.4,1.4C255.6,155.6,255.1,156.7,255.1,158.1z"/>
</g>
<g>
	<defs>
		<rect id="SVGID_17_" x="279.2" y="153.1" width="21.3" height="56.7"/>
	</defs>
	<clipPath id="SVGID_18_">
		<use xlink:href="#SVGID_17_"  style="overflow:visible;"/>
	</clipPath>
	<path class="st11" d="M284,207.2c0,1.6,0.8,2.4,2.3,2.4c1.6,0,2.3-0.8,2.3-2.4v-21.4h2.4v21.4c0,1.6,0.8,2.4,2.3,2.4
		c1.6,0,2.3-0.8,2.3-2.4v-36.5h1.1v13.2c0,0.8,0.3,1.4,0.9,1.8c0.6,0.4,1.2,0.4,1.8,0c0.6-0.4,0.9-1,0.9-1.8v-14.2
		c0-1.5-0.5-2.7-1.5-3.5c-1-0.8-2.4-1.2-4.3-1.2h-9.3c-1.7,0-3.2,0.4-4.3,1.1c-1.1,0.8-1.6,1.9-1.6,3.5v15.1c0,0.7,0.3,1.2,0.9,1.5
		c0.6,0.3,1.2,0.3,1.8,0c0.6-0.3,0.9-0.8,0.9-1.5v-13.9h1.1V207.2z"/>
	<path class="st11" d="M284.9,158.1c0,1.3,0.5,2.5,1.4,3.4c0.9,0.9,2.1,1.4,3.4,1.4c1.3,0,2.5-0.5,3.4-1.4c0.9-0.9,1.4-2.1,1.4-3.5
		c0-1.3-0.5-2.4-1.4-3.3c-0.9-0.9-2.1-1.4-3.4-1.4c-1.3,0-2.5,0.5-3.4,1.4C285.4,155.6,284.9,156.7,284.9,158.1z"/>
</g>
<text transform="matrix(1 0 0 1 12.4346 262.9667)"><tspan x="0" y="0" class="st3 st4 st5">p</tspan><tspan x="8.7" y="0" class="st3 st4 st5">r</tspan><tspan x="13.6" y="0" class="st3 st4 st5">oduction de données</tspan></text>
<g>
	<defs>
		<rect id="SVGID_19_" x="189.7" y="229.6" width="21.3" height="56.7"/>
	</defs>
	<clipPath id="SVGID_20_">
		<use xlink:href="#SVGID_19_"  style="overflow:visible;"/>
	</clipPath>
	<path class="st12" d="M194.5,283.7c0,1.6,0.8,2.4,2.3,2.4c1.6,0,2.3-0.8,2.3-2.4v-21.4h2.4v21.4c0,1.6,0.8,2.4,2.3,2.4
		c1.6,0,2.3-0.8,2.3-2.4v-36.5h1.1v13.2c0,0.8,0.3,1.4,0.9,1.8s1.2,0.4,1.8,0c0.6-0.4,0.9-1,0.9-1.8v-14.2c0-1.5-0.5-2.7-1.5-3.5
		c-1-0.8-2.4-1.2-4.3-1.2h-9.3c-1.7,0-3.2,0.4-4.3,1.1c-1.1,0.8-1.6,1.9-1.6,3.5v15.1c0,0.7,0.3,1.2,0.9,1.5c0.6,0.3,1.2,0.3,1.8,0
		c0.6-0.3,0.9-0.8,0.9-1.5v-13.9h1.1V283.7z"/>
	<path class="st12" d="M195.4,234.6c0,1.3,0.5,2.5,1.4,3.4c0.9,0.9,2.1,1.4,3.4,1.4c1.3,0,2.5-0.5,3.4-1.4c0.9-0.9,1.4-2.1,1.4-3.5
		c0-1.3-0.5-2.4-1.4-3.3c-0.9-0.9-2.1-1.4-3.4-1.4c-1.3,0-2.5,0.5-3.4,1.4C195.9,232.1,195.4,233.3,195.4,234.6z"/>
</g>
<g>
	<defs>
		<rect id="SVGID_21_" x="219.5" y="229.6" width="21.3" height="56.7"/>
	</defs>
	<clipPath id="SVGID_22_">
		<use xlink:href="#SVGID_21_"  style="overflow:visible;"/>
	</clipPath>
	<path class="st13" d="M224.4,283.7c0,1.6,0.8,2.4,2.3,2.4c1.6,0,2.3-0.8,2.3-2.4v-21.4h2.4v21.4c0,1.6,0.8,2.4,2.3,2.4
		c1.6,0,2.3-0.8,2.3-2.4v-36.5h1.1v13.2c0,0.8,0.3,1.4,0.9,1.8s1.2,0.4,1.8,0c0.6-0.4,0.9-1,0.9-1.8v-14.2c0-1.5-0.5-2.7-1.5-3.5
		c-1-0.8-2.4-1.2-4.3-1.2h-9.3c-1.7,0-3.2,0.4-4.3,1.1c-1.1,0.8-1.6,1.9-1.6,3.5v15.1c0,0.7,0.3,1.2,0.9,1.5c0.6,0.3,1.2,0.3,1.8,0
		c0.6-0.3,0.9-0.8,0.9-1.5v-13.9h1.1V283.7z"/>
	<path class="st13" d="M225.3,234.6c0,1.3,0.5,2.5,1.4,3.4c0.9,0.9,2.1,1.4,3.4,1.4c1.3,0,2.5-0.5,3.4-1.4c0.9-0.9,1.4-2.1,1.4-3.5
		c0-1.3-0.5-2.4-1.4-3.3c-0.9-0.9-2.1-1.4-3.4-1.4c-1.3,0-2.5,0.5-3.4,1.4C225.7,232.1,225.3,233.3,225.3,234.6z"/>
</g>
<g>
	<defs>
		<rect id="SVGID_23_" x="249.4" y="229.6" width="21.3" height="56.7"/>
	</defs>
	<clipPath id="SVGID_24_">
		<use xlink:href="#SVGID_23_"  style="overflow:visible;"/>
	</clipPath>
	<path class="st14" d="M254.2,283.7c0,1.6,0.8,2.4,2.3,2.4c1.5,0,2.3-0.8,2.3-2.4v-21.4h2.4v21.4c0,1.6,0.8,2.4,2.3,2.4
		c1.5,0,2.3-0.8,2.3-2.4v-36.5h1.1v13.2c0,0.8,0.3,1.4,0.9,1.8c0.6,0.4,1.2,0.4,1.8,0c0.6-0.4,0.9-1,0.9-1.8v-14.2
		c0-1.5-0.5-2.7-1.5-3.5c-1-0.8-2.4-1.2-4.3-1.2h-9.3c-1.7,0-3.2,0.4-4.3,1.1c-1.1,0.8-1.6,1.9-1.6,3.5v15.1c0,0.7,0.3,1.2,0.9,1.5
		c0.6,0.3,1.2,0.3,1.8,0c0.6-0.3,0.9-0.8,0.9-1.5v-13.9h1.1V283.7z"/>
	<path class="st14" d="M255.1,234.6c0,1.3,0.5,2.5,1.4,3.4c0.9,0.9,2.1,1.4,3.4,1.4s2.5-0.5,3.4-1.4c0.9-0.9,1.4-2.1,1.4-3.5
		c0-1.3-0.5-2.4-1.4-3.3c-0.9-0.9-2.1-1.4-3.4-1.4s-2.5,0.5-3.4,1.4C255.6,232.1,255.1,233.3,255.1,234.6z"/>
</g>
<g>
	<defs>
		<rect id="SVGID_25_" x="279.2" y="229.6" width="21.3" height="56.7"/>
	</defs>
	<clipPath id="SVGID_26_">
		<use xlink:href="#SVGID_25_"  style="overflow:visible;"/>
	</clipPath>
	<path class="st15" d="M284,283.7c0,1.6,0.8,2.4,2.3,2.4c1.6,0,2.3-0.8,2.3-2.4v-21.4h2.4v21.4c0,1.6,0.8,2.4,2.3,2.4
		c1.6,0,2.3-0.8,2.3-2.4v-36.5h1.1v13.2c0,0.8,0.3,1.4,0.9,1.8c0.6,0.4,1.2,0.4,1.8,0c0.6-0.4,0.9-1,0.9-1.8v-14.2
		c0-1.5-0.5-2.7-1.5-3.5c-1-0.8-2.4-1.2-4.3-1.2h-9.3c-1.7,0-3.2,0.4-4.3,1.1c-1.1,0.8-1.6,1.9-1.6,3.5v15.1c0,0.7,0.3,1.2,0.9,1.5
		c0.6,0.3,1.2,0.3,1.8,0c0.6-0.3,0.9-0.8,0.9-1.5v-13.9h1.1V283.7z"/>
	<path class="st15" d="M284.9,234.6c0,1.3,0.5,2.5,1.4,3.4c0.9,0.9,2.1,1.4,3.4,1.4c1.3,0,2.5-0.5,3.4-1.4c0.9-0.9,1.4-2.1,1.4-3.5
		c0-1.3-0.5-2.4-1.4-3.3c-0.9-0.9-2.1-1.4-3.4-1.4c-1.3,0-2.5,0.5-3.4,1.4C285.4,232.1,284.9,233.3,284.9,234.6z"/>
</g>
<g>
	<defs>
		<rect id="SVGID_27_" x="309" y="229.6" width="21.3" height="56.7"/>
	</defs>
	<clipPath id="SVGID_28_">
		<use xlink:href="#SVGID_27_"  style="overflow:visible;"/>
	</clipPath>
	<path class="st16" d="M313.8,283.7c0,1.6,0.8,2.4,2.3,2.4c1.6,0,2.3-0.8,2.3-2.4v-21.4h2.4v21.4c0,1.6,0.8,2.4,2.3,2.4
		c1.6,0,2.3-0.8,2.3-2.4v-36.5h1.1v13.2c0,0.8,0.3,1.4,0.9,1.8c0.6,0.4,1.2,0.4,1.8,0c0.6-0.4,0.9-1,0.9-1.8v-14.2
		c0-1.5-0.5-2.7-1.5-3.5c-1-0.8-2.4-1.2-4.3-1.2h-9.3c-1.7,0-3.2,0.4-4.3,1.1c-1.1,0.8-1.6,1.9-1.6,3.5v15.1c0,0.7,0.3,1.2,0.9,1.5
		c0.6,0.3,1.2,0.3,1.8,0c0.6-0.3,0.9-0.8,0.9-1.5v-13.9h1.1V283.7z"/>
	<path class="st16" d="M314.7,234.6c0,1.3,0.5,2.5,1.4,3.4c0.9,0.9,2.1,1.4,3.4,1.4c1.3,0,2.5-0.5,3.4-1.4c0.9-0.9,1.4-2.1,1.4-3.5
		c0-1.3-0.5-2.4-1.4-3.3c-0.9-0.9-2.1-1.4-3.4-1.4c-1.3,0-2.5,0.5-3.4,1.4C315.2,232.1,314.7,233.3,314.7,234.6z"/>
</g>
<g>
	<defs>
		<rect id="SVGID_29_" x="189.7" y="306.1" width="21.3" height="56.7"/>
	</defs>
	<clipPath id="SVGID_30_">
		<use xlink:href="#SVGID_29_"  style="overflow:visible;"/>
	</clipPath>
	<path class="st17" d="M194.5,360.3c0,1.6,0.8,2.4,2.3,2.4c1.6,0,2.3-0.8,2.3-2.4v-21.4h2.4v21.4c0,1.6,0.8,2.4,2.3,2.4
		c1.6,0,2.3-0.8,2.3-2.4v-36.5h1.1v13.2c0,0.8,0.3,1.4,0.9,1.8c0.6,0.4,1.2,0.4,1.8,0c0.6-0.4,0.9-1,0.9-1.8v-14.2
		c0-1.5-0.5-2.7-1.5-3.5c-1-0.8-2.4-1.2-4.3-1.2h-9.3c-1.7,0-3.2,0.4-4.3,1.1c-1.1,0.8-1.6,1.9-1.6,3.5v15.1c0,0.7,0.3,1.2,0.9,1.5
		c0.6,0.3,1.2,0.3,1.8,0c0.6-0.3,0.9-0.8,0.9-1.5v-13.9h1.1V360.3z"/>
	<path class="st17" d="M195.4,311.1c0,1.3,0.5,2.5,1.4,3.4c0.9,0.9,2.1,1.4,3.4,1.4c1.3,0,2.5-0.5,3.4-1.4c0.9-0.9,1.4-2.1,1.4-3.5
		c0-1.3-0.5-2.4-1.4-3.3c-0.9-0.9-2.1-1.4-3.4-1.4c-1.3,0-2.5,0.5-3.4,1.4C195.9,308.7,195.4,309.8,195.4,311.1z"/>
</g>
<g>
	<defs>
		<rect id="SVGID_31_" x="219.5" y="306.1" width="21.3" height="56.7"/>
	</defs>
	<clipPath id="SVGID_32_">
		<use xlink:href="#SVGID_31_"  style="overflow:visible;"/>
	</clipPath>
	<path class="st18" d="M224.4,360.3c0,1.6,0.8,2.4,2.3,2.4c1.6,0,2.3-0.8,2.3-2.4v-21.4h2.4v21.4c0,1.6,0.8,2.4,2.3,2.4
		c1.6,0,2.3-0.8,2.3-2.4v-36.5h1.1v13.2c0,0.8,0.3,1.4,0.9,1.8c0.6,0.4,1.2,0.4,1.8,0c0.6-0.4,0.9-1,0.9-1.8v-14.2
		c0-1.5-0.5-2.7-1.5-3.5c-1-0.8-2.4-1.2-4.3-1.2h-9.3c-1.7,0-3.2,0.4-4.3,1.1c-1.1,0.8-1.6,1.9-1.6,3.5v15.1c0,0.7,0.3,1.2,0.9,1.5
		c0.6,0.3,1.2,0.3,1.8,0c0.6-0.3,0.9-0.8,0.9-1.5v-13.9h1.1V360.3z"/>
	<path class="st18" d="M225.3,311.1c0,1.3,0.5,2.5,1.4,3.4c0.9,0.9,2.1,1.4,3.4,1.4c1.3,0,2.5-0.5,3.4-1.4c0.9-0.9,1.4-2.1,1.4-3.5
		c0-1.3-0.5-2.4-1.4-3.3c-0.9-0.9-2.1-1.4-3.4-1.4c-1.3,0-2.5,0.5-3.4,1.4C225.7,308.7,225.3,309.8,225.3,311.1z"/>
</g>
<text transform="matrix(1 0 0 1 59.3545 333.8768)" class="st3 st4 st5">gestion de panel</text>
<g>
	<defs>
		<rect id="SVGID_33_" x="189.7" y="382.7" width="21.3" height="56.7"/>
	</defs>
	<clipPath id="SVGID_34_">
		<use xlink:href="#SVGID_33_"  style="overflow:visible;"/>
	</clipPath>
	<path class="st19" d="M194.5,436.8c0,1.6,0.8,2.4,2.3,2.4c1.6,0,2.3-0.8,2.3-2.4v-21.4h2.4v21.4c0,1.6,0.8,2.4,2.3,2.4
		c1.6,0,2.3-0.8,2.3-2.4v-36.5h1.1v13.2c0,0.8,0.3,1.4,0.9,1.8c0.6,0.4,1.2,0.4,1.8,0c0.6-0.4,0.9-1,0.9-1.8v-14.2
		c0-1.5-0.5-2.7-1.5-3.5c-1-0.8-2.4-1.2-4.3-1.2h-9.3c-1.7,0-3.2,0.4-4.3,1.1c-1.1,0.8-1.6,1.9-1.6,3.5v15.1c0,0.7,0.3,1.2,0.9,1.5
		c0.6,0.3,1.2,0.3,1.8,0c0.6-0.3,0.9-0.8,0.9-1.5v-13.9h1.1V436.8z"/>
	<path class="st19" d="M195.4,387.7c0,1.3,0.5,2.5,1.4,3.4c0.9,0.9,2.1,1.4,3.4,1.4c1.3,0,2.5-0.5,3.4-1.4c0.9-0.9,1.4-2.1,1.4-3.5
		c0-1.3-0.5-2.4-1.4-3.3c-0.9-0.9-2.1-1.4-3.4-1.4c-1.3,0-2.5,0.5-3.4,1.4C195.9,385.2,195.4,386.3,195.4,387.7z"/>
</g>
<g>
	<defs>
		<rect id="SVGID_35_" x="219.5" y="382.7" width="21.3" height="56.7"/>
	</defs>
	<clipPath id="SVGID_36_">
		<use xlink:href="#SVGID_35_"  style="overflow:visible;"/>
	</clipPath>
	<path class="st20" d="M224.4,436.8c0,1.6,0.8,2.4,2.3,2.4c1.6,0,2.3-0.8,2.3-2.4v-21.4h2.4v21.4c0,1.6,0.8,2.4,2.3,2.4
		c1.6,0,2.3-0.8,2.3-2.4v-36.5h1.1v13.2c0,0.8,0.3,1.4,0.9,1.8c0.6,0.4,1.2,0.4,1.8,0c0.6-0.4,0.9-1,0.9-1.8v-14.2
		c0-1.5-0.5-2.7-1.5-3.5c-1-0.8-2.4-1.2-4.3-1.2h-9.3c-1.7,0-3.2,0.4-4.3,1.1c-1.1,0.8-1.6,1.9-1.6,3.5v15.1c0,0.7,0.3,1.2,0.9,1.5
		c0.6,0.3,1.2,0.3,1.8,0c0.6-0.3,0.9-0.8,0.9-1.5v-13.9h1.1V436.8z"/>
	<path class="st20" d="M225.3,387.7c0,1.3,0.5,2.5,1.4,3.4c0.9,0.9,2.1,1.4,3.4,1.4c1.3,0,2.5-0.5,3.4-1.4c0.9-0.9,1.4-2.1,1.4-3.5
		c0-1.3-0.5-2.4-1.4-3.3c-0.9-0.9-2.1-1.4-3.4-1.4c-1.3,0-2.5,0.5-3.4,1.4C225.7,385.2,225.3,386.3,225.3,387.7z"/>
</g>
<g>
	<defs>
		<rect id="SVGID_37_" width="330.3" height="439.4"/>
	</defs>
	<clipPath id="SVGID_38_">
		<use xlink:href="#SVGID_37_"  style="overflow:visible;"/>
	</clipPath>
	<g class="st21">
		<text transform="matrix(1 0 0 1 0 410.412)"><tspan x="0" y="0" class="st3 st4 st5">c</tspan><tspan x="8.2" y="0" class="st3 st4 st5">oo</tspan><tspan x="26.8" y="0" class="st3 st4 st5">r</tspan><tspan x="31.8" y="0" class="st3 st4 st5">din</tspan><tspan x="52.6" y="0" class="st3 st4 st5">a</tspan><tspan x="60.2" y="0" class="st3 st4 st5">tion de l’Equipex</tspan></text>
	</g>
</g>
</svg>
