<?xml version="1.0" encoding="utf-8"?>
<!-- Generator: Adobe Illustrator 22.0.1, SVG Export Plug-In . SVG Version: 6.00 Build 0)  -->
<svg version="1.1" id="Calque_3" xmlns="http://www.w3.org/2000/svg" xmlns:xlink="http://www.w3.org/1999/xlink" x="0px" y="0px"
	 viewBox="0 0 1116.9 202.7" style="enable-background:new 0 0 1116.9 202.7;" xml:space="preserve">
<style type="text/css">
	.st0{fill:none;stroke:#FFFFFF;stroke-linecap:round;stroke-linejoin:round;stroke-miterlimit:10;}
	.st1{fill:none;stroke:#E6142D;stroke-miterlimit:10;}
	.st2{fill:#666666;}
	.st3{fill:none;stroke:#E6142D;stroke-linecap:round;stroke-linejoin:round;stroke-miterlimit:10;}
	.st4{fill:none;stroke:#E6142D;stroke-linecap:round;stroke-linejoin:round;}
	.st5{fill:none;stroke:#E6142D;stroke-linecap:square;stroke-miterlimit:10;}
	.st6{fill:none;}
	.st7{fill:#E6142D;}
	.st8{fill:#FFFFFF;stroke:#E6142D;stroke-miterlimit:10;}
	.st9{fill:none;stroke:#E6142D;stroke-linecap:round;stroke-miterlimit:10;}
	.st10{fill:#FFFFFF;stroke:#E6142D;stroke-linecap:square;stroke-miterlimit:10;}
	.st11{font-family:'ArialMT';}
	.st12{font-size:12px;}
	.st13{fill:#E4192F;}
	.st14{font-family:'MuseoSans-100';}
	.st15{font-size:30.3999px;}
</style>
<rect x="7.2" y="105" class="st6" width="125.7" height="29.1"/>
<text transform="matrix(1 0 0 1 7.1957 113.6367)"><tspan x="0" y="0" class="st2 st11 st12">Projets  </tspan><tspan x="0" y="14.4" class="st2 st11 st12">selectionnés</tspan></text>
<rect x="269.6" y="105" class="st6" width="125.7" height="29.1"/>
<text transform="matrix(1 0 0 1 269.6318 113.6367)"><tspan x="0" y="0" class="st2 st11 st12">Projets </tspan><tspan x="0" y="14.4" class="st2 st11 st12">déposés</tspan></text>
<g>
	<g>
		<path class="st8" d="M169.1,48.6c-44.5,0-80.6,35.9-81,80.3H250C249.7,84.5,213.6,48.6,169.1,48.6z"/>
	</g>
	<g>
		<line class="st8" x1="233.7" y1="62.2" x2="167.7" y2="128.2"/>
	</g>
	<circle class="st8" cx="169.1" cy="128.9" r="11.3"/>
</g>
<rect x="8.2" y="96.1" class="st6" width="64.8" height="33.1"/>
<text transform="matrix(1 0 0 1 5.2078 94.7669)" class="st13 st14 st15">92</text>
<rect x="265.2" y="96.1" class="st6" width="83.7" height="34.8"/>
<text transform="matrix(1 0 0 1 268.6318 94.7669)" class="st13 st14 st15">120</text>
</svg>
