<?xml version="1.0" encoding="utf-8"?>
<!-- Generator: Adobe Illustrator 16.0.0, SVG Export Plug-In . SVG Version: 6.00 Build 0)  -->
<!DOCTYPE svg PUBLIC "-//W3C//DTD SVG 1.1//EN" "http://www.w3.org/Graphics/SVG/1.1/DTD/svg11.dtd">
<svg version="1.1" id="Calque_1" xmlns="http://www.w3.org/2000/svg" xmlns:xlink="http://www.w3.org/1999/xlink" x="0px" y="0px"
	 width="480.777px" height="489.333px" viewBox="0 0 480.777 489.333" enable-background="new 0 0 480.777 489.333"
	 xml:space="preserve">
<g>
	<defs>
		<rect id="SVGID_1_" width="481.14" height="419.528"/>
	</defs>
	<clipPath id="SVGID_2_">
		<use xlink:href="#SVGID_1_"  overflow="visible"/>
	</clipPath>
	<path clip-path="url(#SVGID_2_)" d="M325.126,486.643c-2.807,0-5.428-0.344-7.862-1.026c-2.438-0.687-4.558-1.637-6.356-2.851
		c-1.801-1.215-3.203-2.625-4.207-4.235c-1.006-1.61-1.51-3.364-1.51-5.263c0-1.106,0.198-2.137,0.596-3.092
		c0.397-0.953,0.953-1.785,1.668-2.502c0.713-0.713,1.562-1.283,2.541-1.705c0.981-0.424,2.026-0.637,3.14-0.637
		c1.058,0,2.075,0.2,3.056,0.596c0.979,0.399,2.025,1.047,3.137,1.947c0.953,0.741,1.723,1.325,2.305,1.747
		c0.58,0.425,1.059,0.755,1.429,0.994c0.371,0.235,0.688,0.384,0.955,0.435c0.263,0.056,0.554,0.08,0.875,0.08
		c0.683,0,1.228-0.211,1.625-0.636c0.397-0.422,0.597-0.979,0.597-1.668c0-0.905-0.451-1.647-1.355-2.231
		c-0.105-0.051-0.227-0.116-0.359-0.196c-0.132-0.078-0.318-0.173-0.559-0.279c-0.239-0.104-0.557-0.239-0.954-0.399
		c-0.399-0.155-0.946-0.369-1.636-0.635c-0.744-0.263-1.463-0.515-2.151-0.754c-0.69-0.238-1.409-0.49-2.151-0.757
		c-7.705-2.703-11.558-7.739-11.558-15.112c0-2.597,0.474-4.957,1.425-7.078c0.95-2.121,2.268-3.949,3.959-5.487
		c1.689-1.535,3.734-2.728,6.137-3.576c2.401-0.851,5.029-1.276,7.887-1.276c2.382,0,4.605,0.305,6.67,0.914
		c2.064,0.61,3.867,1.43,5.402,2.463s2.74,2.25,3.615,3.653c0.873,1.403,1.311,2.927,1.311,4.567c0,2.119-0.635,3.854-1.905,5.203
		c-1.272,1.351-2.912,2.026-4.927,2.026c-1.217,0-2.355-0.225-3.414-0.676s-2.332-1.231-3.812-2.345
		c-0.902-0.741-1.617-1.243-2.146-1.51c-0.528-0.263-1.03-0.396-1.506-0.396c-0.584,0-1.073,0.198-1.471,0.595
		c-0.398,0.397-0.593,0.889-0.593,1.469c0,0.795,0.356,1.431,1.076,1.906c0.717,0.477,2.114,1.061,4.194,1.748
		c2.287,0.689,4.443,1.521,6.47,2.502c2.022,0.981,3.646,1.998,4.872,3.057c1.65,1.377,2.955,3.164,3.912,5.361
		c0.959,2.2,1.439,4.571,1.439,7.108c0,2.385-0.439,4.674-1.311,6.871c-0.875,2.198-2.107,4.118-3.692,5.76
		c-1.801,1.799-3.907,3.138-6.315,4.011C331.257,486.206,328.41,486.643,325.126,486.643"/>
	<path clip-path="url(#SVGID_2_)" d="M386.982,289.089l-3.598-3.293l-3.621,3.271l-16.416,14.796
		c4.922,0.497,9.98,0.752,15.172,0.778l4.812-4.33l4.752,4.34h15.903L386.982,289.089z"/>
	<path clip-path="url(#SVGID_2_)" d="M386.982,264.783l-3.598-3.289l-3.621,3.267l-38.791,34.966
		c4.194,1.159,8.487,2.104,12.877,2.852l29.481-26.573l31.308,28.646h15.908L386.982,264.783z"/>
	<path clip-path="url(#SVGID_2_)" d="M169.323,284.466v-14.396l-37.353,33.353c4.891,0.601,9.847,0.984,14.852,1.136
		L169.323,284.466z"/>
	<path clip-path="url(#SVGID_2_)" d="M386.982,240.477l-3.598-3.289l-3.621,3.265l-57.929,52.216
		c3.597,1.685,7.272,3.194,11.03,4.519l50.466-45.5l57.87,52.963h15.914L386.982,240.477z"/>
	<path clip-path="url(#SVGID_2_)" d="M169.323,260.156V245.76l-59.672,53.294c4.213,1.145,8.503,2.114,12.843,2.915L169.323,260.156
		z"/>
	<path clip-path="url(#SVGID_2_)" d="M100.734,296.324l68.589-61.25v-14.386l-79.868,71.311
		C93.14,293.588,96.904,295.025,100.734,296.324"/>
	<path clip-path="url(#SVGID_2_)" d="M386.982,215.398l-3.598-3.288l-3.621,3.262l-74.967,67.579
		c3.109,2.115,6.288,4.074,9.521,5.867l69.013-62.207l83.558,76.465c2.612-1.322,6.215-3.438,9.104-6.231L386.982,215.398z"/>
	<path clip-path="url(#SVGID_2_)" d="M480.777,287.322v-10.403l-93.795-85.826l-3.598-3.295l-3.621,3.266l-89.396,80.587
		c2.734,2.447,5.529,4.75,8.361,6.92l84.602-76.265l96.789,88.566C480.533,289.75,480.777,288.562,480.777,287.322"/>
	<path clip-path="url(#SVGID_2_)" d="M82.134,288.625l86.2-76.966c-1.189-4.344-3.342-7.3-5.691-9.321l-86.75,77.465L18.629,228.42
		c6.533,11.641,14.707,22.455,24.404,32.156C54.543,272.08,67.735,281.494,82.134,288.625"/>
	<path clip-path="url(#SVGID_2_)" d="M72.301,266.689l3.572,3.214l3.588-3.201l76.201-68.035c-2.14-0.598-3.66-0.635-3.66-0.635
		c-3.738,0-7.291-0.343-10.675-0.961l-65.434,58.422L3.985,190.976c1.647,6.881,3.776,13.615,6.391,20.158L72.301,266.689z"/>
	<path clip-path="url(#SVGID_2_)" d="M372.076,188.141c-5.061-0.613-9.457-1.465-13.209-2.549l-77.526,69.882l-26.739-23.992
		l16.514,19.75l-0.211-0.261c4.574,5.693,9.269,10.906,14.096,15.662L372.076,188.141z"/>
	<polygon clip-path="url(#SVGID_2_)" points="386.982,166.78 383.384,163.491 379.763,166.751 378.761,167.656 378.761,182.114 
		383.331,177.999 480.218,266.66 480.777,266.05 480.777,252.61 	"/>
	<path clip-path="url(#SVGID_2_)" d="M343.123,175.477l-61.783,55.691l-98.886-88.727l-3.575-3.21l-1.081,0.969
		c2.299,2.5,4.46,4.97,6.499,7.297l1.693,1.935l35.526,42.48l56.246,50.473l3.596,3.225l3.586-3.229l66.291-59.761
		c-2.441-1.3-4.423-2.769-5.881-4.439L343.123,175.477z"/>
	<polygon clip-path="url(#SVGID_2_)" points="386.982,142.471 383.384,139.184 379.763,142.449 378.761,143.35 378.761,157.807 
		383.331,153.69 480.218,242.351 480.777,241.745 480.777,228.304 	"/>
	<path clip-path="url(#SVGID_2_)" d="M72.301,242.385l3.572,3.211l3.588-3.202l53.307-47.595c-3.797-1.349-7.289-3.06-10.469-5.051
		l-46.406,41.435l-75.78-67.99c0.23,5.33,0.741,10.598,1.536,15.807L72.301,242.385z"/>
	<polygon clip-path="url(#SVGID_2_)" points="386.982,118.17 383.384,114.881 379.763,118.146 378.761,119.045 378.761,133.501 
		383.331,129.381 480.218,218.047 480.777,217.438 480.777,203.993 	"/>
	<path clip-path="url(#SVGID_2_)" d="M72.301,218.08l3.572,3.209l3.588-3.199l36.723-32.796c-2.834-2.41-5.309-5.044-7.394-7.789
		L75.893,206.88l-75.16-67.436c-0.4,4.521-0.658,9.114-0.733,13.771L72.301,218.08z"/>
	<path clip-path="url(#SVGID_2_)" d="M281.343,206.864l-98.89-88.73l-3.575-3.211l-3.585,3.207l-10.68,9.531
		c2.829,2.25,5.515,4.688,8.05,7.203l6.2-5.533l98.897,88.749l3.597,3.223l3.586-3.235l53.524-48.245l-6.832-8.289L281.343,206.864z
		"/>
	<path clip-path="url(#SVGID_2_)" d="M72.301,193.766l3.572,3.215l3.588-3.203l25.304-22.599c-1.938-3.729-3.195-7.503-3.695-11.096
		l-25.177,22.484L3.933,118.01c-0.867,4.081-1.585,8.244-2.178,12.471L72.301,193.766z"/>
	<polygon clip-path="url(#SVGID_2_)" points="386.982,93.858 383.384,90.565 379.763,93.831 378.761,94.733 378.761,109.19 
		383.331,105.073 480.218,193.737 480.777,193.129 480.777,179.689 	"/>
	<path clip-path="url(#SVGID_2_)" d="M281.339,182.552l-98.886-88.729l-3.575-3.209l-3.585,3.201l-27.391,24.454
		c3.692,1.202,7.199,2.929,10.521,5.007l20.439-18.253l98.898,88.743l3.597,3.225l3.586-3.229l42.026-37.885l-6.836-8.298
		L281.339,182.552z"/>
	<path clip-path="url(#SVGID_2_)" d="M281.343,158.25l-98.89-88.732l-3.575-3.204l-3.585,3.199l-58.229,51.984
		c5.061-3.182,11.452-5.092,19.394-5.092c0.79,0,1.57,0.033,2.341,0.082l40.064-35.766l98.897,88.744l3.597,3.224l3.586-3.232
		l30.535-27.524l-6.834-8.293L281.343,158.25z"/>
	<polygon clip-path="url(#SVGID_2_)" points="386.982,69.553 383.384,66.264 379.763,69.532 378.761,70.429 378.761,84.887 
		383.331,80.77 480.218,169.428 480.777,168.826 480.777,155.382 	"/>
	<path clip-path="url(#SVGID_2_)" d="M72.301,169.464l3.572,3.216l3.588-3.203l21.735-19.412c0.908-8.028,3.549-15.86,8.458-21.944
		l-33.761,30.143L9.271,98.489c-1.26,3.716-2.398,7.502-3.417,11.367L72.301,169.464z"/>
	<polygon clip-path="url(#SVGID_2_)" points="386.982,45.241 383.384,41.948 379.763,45.22 378.761,46.119 378.761,60.577 
		383.331,56.455 480.218,145.12 480.777,144.514 480.777,131.071 	"/>
	<path clip-path="url(#SVGID_2_)" d="M72.301,145.153l3.572,3.213l3.588-3.205l99.402-88.754l98.898,88.746l3.596,3.227l3.586-3.235
		l19.039-17.157l-6.834-8.305L281.34,133.94l-98.886-88.726l-3.575-3.213l-3.585,3.198l-99.401,88.756l-59.38-53.279
		c-1.613,3.379-3.123,6.838-4.514,10.377L72.301,145.153z"/>
	<polygon clip-path="url(#SVGID_2_)" points="386.982,20.936 383.384,17.647 379.763,20.915 378.761,21.815 378.761,36.272 
		383.331,32.151 480.218,120.82 480.777,120.217 480.777,106.771 	"/>
	<path clip-path="url(#SVGID_2_)" d="M72.301,120.846l3.572,3.217l3.588-3.202l99.402-88.757l98.898,88.742l3.596,3.233l3.586-3.241
		l7.547-6.799l-6.832-8.295l-4.317,3.891l-98.886-88.732l-3.575-3.203l-3.585,3.191l-99.401,88.762L25.516,64.45
		c-1.949,3.06-3.804,6.21-5.554,9.447L72.301,120.846z"/>
	<path clip-path="url(#SVGID_2_)" d="M72.301,96.539l3.572,3.216l3.588-3.207l97.722-87.252c-3.996-1.411-8.035-2.607-12.1-3.588
		l-89.19,79.631L36.23,49.75c-2.281,2.753-4.472,5.596-6.568,8.541L72.301,96.539z"/>
	<path clip-path="url(#SVGID_2_)" d="M278.933,97.59l-19.61-23.799c-23.72-30.473-49.259-51.287-76.326-62.279l94.764,85.026
		L278.933,97.59z"/>
	<path clip-path="url(#SVGID_2_)" d="M391.736,0.979c-3.928,1.246-9.436,4.004-11.813,9.937l3.407-3.071l96.889,88.659l0.559-0.603
		V82.463L391.736,0.979z"/>
	<path clip-path="url(#SVGID_2_)" d="M75.873,75.442l3.588-3.203l76.552-68.352c-4.78-0.779-9.604-1.263-14.472-1.469L75.894,61.036
		L48.674,36.61c-2.625,2.429-5.157,4.966-7.599,7.611l31.226,28.018L75.873,75.442z"/>
	<polygon clip-path="url(#SVGID_2_)" points="417.222,0 401.319,0 480.218,72.197 480.778,71.596 480.778,58.154 	"/>
	<polygon clip-path="url(#SVGID_2_)" points="443.792,0 427.884,0 480.218,47.89 480.777,47.283 480.777,33.838 	"/>
	<path clip-path="url(#SVGID_2_)" d="M72.301,47.929l3.572,3.208l3.588-3.2l50.943-45.496c-6.311,0.289-12.49,1.003-18.515,2.135
		L75.893,36.72L62.968,25.129c-2.989,2.077-5.896,4.28-8.714,6.612L72.301,47.929z"/>
	<path clip-path="url(#SVGID_2_)" d="M75.873,26.833l3.588-3.199L96.335,8.564c-9.525,3.09-18.553,7.26-26.993,12.413l2.958,2.644
		L75.873,26.833z"/>
	<path clip-path="url(#SVGID_2_)" d="M463.445,0h-9.006l25.779,23.589l0.559-0.61v-5.657C480.777,2.762,463.445,0,463.445,0"/>
	<path clip-path="url(#SVGID_2_)" d="M205.642,435.037c-1.67-1.95-4.15-3.067-6.801-3.067c-4.793,0-8.844,4.086-8.844,8.922v36.837
		c0,4.914,3.967,8.914,8.844,8.914c4.916,0,8.92-4,8.92-8.914v-11.289v-1.841l1.168,1.419c0,0,2.83,3.436,2.822,3.422l12.174,14.141
		c1.67,1.945,4.123,3.062,6.725,3.062c4.836,0,8.922-4.046,8.922-8.837c0-0.31-0.026-0.646-0.075-1.049l-0.005-0.043v-0.041v-35.781
		c0-4.922-3.967-8.922-8.842-8.922c-4.92,0-8.923,4-8.923,8.922v11.076v1.782l-1.161-1.352L205.642,435.037z"/>
	<path clip-path="url(#SVGID_2_)" d="M142.871,435.034c-1.673-1.95-4.152-3.069-6.805-3.069c-4.793,0-8.841,4.088-8.841,8.924
		v36.837c0,4.916,3.966,8.918,8.841,8.918c4.923,0,8.926-4.002,8.926-8.918v-11.289v-1.843l1.17,1.421c0,0,2.826,3.436,2.818,3.426
		l12.172,14.137c1.673,1.949,4.125,3.066,6.727,3.066c4.834,0,8.92-4.046,8.92-8.839c0-0.305-0.024-0.641-0.073-1.057l-0.004-0.039
		v-0.037v-35.783c0-4.922-3.968-8.924-8.843-8.924c-4.92,0-8.923,4.002-8.923,8.924v11.078v1.781l-1.161-1.351L142.871,435.034z"/>
	<path clip-path="url(#SVGID_2_)" d="M285.501,448.79c4.662,0,8.451-3.756,8.451-8.372c0-4.582-3.873-8.449-8.451-8.449h-23.33
		c-4.873,0-8.84,4.002-8.84,8.922v36.838c0,0.099,0.004,0.205,0.013,0.318c0,0,0.012,0.159,0.013,0.205l0.004,0.1
		c0.325,4.728,4.114,8.293,8.811,8.293h23.33c4.662,0,8.451-3.79,8.451-8.448c0-4.537-3.873-8.371-8.451-8.371h-13.744h-0.659v-0.66
		v-2.827v-0.662h0.659h6.91c3.492,0,6.33-2.838,6.33-6.328c0-3.491-2.838-6.328-6.33-6.328h-6.975h-0.66v-0.663v-2.906v-0.66h0.66
		H285.501z"/>
	<path clip-path="url(#SVGID_2_)" d="M105.879,448.789c4.658,0,8.451-3.758,8.451-8.375c0-4.579-3.869-8.448-8.451-8.448H82.551
		c-4.875,0-8.842,4.004-8.842,8.924v36.836c0,0.093,0.004,0.19,0.012,0.294c0.006,0.067,0.008,0.137,0.013,0.239v0.015l0.006,0.075
		c0.323,4.728,4.112,8.295,8.811,8.295h23.328c4.658,0,8.451-3.79,8.451-8.448c0-4.537-3.869-8.371-8.451-8.371H92.135h-0.66v-0.66
		v-2.827v-0.662h0.66h6.912c3.49,0,6.328-2.838,6.328-6.328c0-3.493-2.838-6.332-6.328-6.332H92.07h-0.66v-0.661v-2.904v-0.66h0.66
		H105.879z"/>
	<path clip-path="url(#SVGID_2_)" d="M143.364,404.158c4.674,0,8.476-3.799,8.476-8.473v-35.113c0-4.672-3.802-8.475-8.476-8.475
		c-4.633,0-8.402,3.803-8.402,8.475v35.113C134.962,400.359,138.731,404.158,143.364,404.158"/>
	<path clip-path="url(#SVGID_2_)" d="M236.273,388.183v-0.657v-2.696v-0.66h0.66h6.59c3.309,0,6-2.693,6-6.004
		c0-3.308-2.691-6.003-6-6.003h-6.651h-0.659v-0.659v-2.771v-0.66h0.659h13.163c4.425,0,8.025-3.565,8.025-7.95
		c0-4.349-3.675-8.025-8.025-8.025h-22.235c-4.633,0-8.402,3.804-8.402,8.476v35.112c0,0.113,0.008,0.229,0.016,0.354
		c0,0,0.007,0.088,0.007,0.135l0.008,0.108c0.306,4.489,3.905,7.877,8.371,7.877h22.235c4.425,0,8.025-3.599,8.025-8.022
		c0-4.31-3.675-7.953-8.025-7.953h-13.102H236.273z"/>
	<path clip-path="url(#SVGID_2_)" d="M371.21,352.098c-4.631,0-8.397,3.804-8.397,8.476v35.113c0,4.672,3.767,8.473,8.397,8.473
		c4.676,0,8.478-3.801,8.478-8.473v-35.113C379.688,355.902,375.886,352.098,371.21,352.098"/>
	<path clip-path="url(#SVGID_2_)" d="M397.572,352.098h-0.658h-0.465c-4.428,0-8.026,3.601-8.026,8.025
		c0,4.426,3.599,8.028,8.026,8.028h0.465c0,0,0.658,0,0.658,0.006h4.64h0.659v0.658v26.871c0,4.672,3.77,8.473,8.398,8.473
		c4.674,0,8.477-3.801,8.477-8.473v-26.871v-0.658h0.658h3.336v-0.006h0.658h1.846c4.384,0,7.951-3.603,7.951-8.028
		c0-4.349-3.643-8.025-7.951-8.025h-1.846c0,0-0.658,0-0.658-0.022h-26.168V352.098z"/>
	<path clip-path="url(#SVGID_2_)" d="M67.514,378.1v-17.518c0-4.753-3.725-8.478-8.475-8.478c-4.632,0-8.401,3.805-8.401,8.478
		v17.59c0,5.015-3.862,9.078-8.842,9.254c-4.937-0.176-8.803-4.239-8.803-9.254v-17.59c0-4.673-3.768-8.478-8.398-8.478
		c-4.754,0-8.477,3.725-8.477,8.478V378.1c0,14.183,11.503,25.871,25.649,26.056c0,0,0.031,0.002,0.049,0.002l0.048-0.002
		C56.007,403.971,67.514,392.283,67.514,378.1"/>
	<path clip-path="url(#SVGID_2_)" d="M92.18,355.013c-1.586-1.852-3.942-2.914-6.46-2.914c-4.554,0-8.402,3.882-8.402,8.478v35.111
		c0,4.67,3.768,8.471,8.402,8.471c4.67,0,8.472-3.801,8.472-8.471v-10.765v-1.836l1.168,1.418c0,0,2.695,3.274,2.684,3.265
		l11.607,13.476c1.59,1.854,3.919,2.913,6.386,2.913c4.594,0,8.476-3.844,8.476-8.397c0-0.299-0.023-0.625-0.07-1l-0.005-0.041
		v-0.041v-34.103c0-4.676-3.772-8.478-8.401-8.478c-4.671,0-8.476,3.802-8.476,8.478v10.558v1.774l-1.156-1.346L92.18,355.013z"/>
	<path clip-path="url(#SVGID_2_)" d="M473.115,388.183h-13.1h-0.66v-0.659v-2.697v-0.659h0.66h6.588
		c3.311,0,6.002-2.691,6.002-6.002c0-3.308-2.691-6.003-6.002-6.003h-6.648h-0.658v-0.659v-2.769v-0.658h0.658h13.16
		c4.426,0,8.025-3.569,8.025-7.954c0-4.349-3.678-8.025-8.025-8.025H459.96l-0.283-0.053c0,0,9.016-4.259,9.023-4.261
		c1.586-0.731,2.609-2.288,2.609-3.972c0-2.479-2.141-4.655-4.584-4.655c-0.496,0-1.123,0.158-1.891,0.463
		c0,0-9.508,4.418-9.502,4.414c-1.592,0.765-2.621,2.38-2.621,4.123c0,1.655,0.863,3.08,2.373,3.905l-0.316,0.035h-3.893
		c-4.633,0-8.396,3.804-8.396,8.476v35.112c0,4.673,3.764,8.474,8.396,8.474h22.238c4.426,0,8.025-3.599,8.025-8.022
		C481.14,391.827,477.462,388.183,473.115,388.183"/>
	<path clip-path="url(#SVGID_2_)" d="M184.933,374.763c0,0-8.667-17.155-8.674-17.172c-1.535-3.271-4.739-5.387-8.164-5.387
		c-5.003,0-8.1,4.397-8.1,8.475c0,1.437,0.331,2.822,0.981,4.127c0,0,17.221,35.168,17.216,35.158
		c0.227,0.431,2.371,4.194,7.302,4.194c2.082,0,5.826-0.56,7.537-4.301l16.546-35.043c0.592-1.252,0.907-2.656,0.907-4.06
		c0-4.203-3.03-8.551-8.099-8.551c-3.426,0-6.627,2.116-8.162,5.387l-8.107,17.156l-0.577,1.219L184.933,374.763z"/>
	<path clip-path="url(#SVGID_2_)" d="M306.032,390.195c0.031,0.033-3.16-3.299-3.16-3.299l-0.418-0.437l0.4-0.455
		c3.303-3.733,5.123-8.536,5.123-13.528c0-11.235-9.111-20.379-20.307-20.379h-11.829c-4.63,0-8.399,3.803-8.399,8.476
		c0,0,0,35.637-0.002,35.598c0.281,4.554,3.895,7.988,8.401,7.988c4.552,0,8.196-3.435,8.476-7.988l0.035-0.62h0.623h3.145h0.306
		l0.194,0.227c0,0,4.642,5.392,4.643,5.396c1.627,1.897,3.957,2.986,6.389,2.986c4.594,0,8.475-3.877,8.475-8.474
		C308.125,393.709,307.42,391.861,306.032,390.195"/>
	<path clip-path="url(#SVGID_2_)" d="M55.092,468.483l-0.422-0.438l0.406-0.457c3.469-3.923,5.379-8.97,5.379-14.212
		c0-11.805-9.568-21.413-21.333-21.413H26.713c-4.877,0-8.846,4.004-8.846,8.924v34.557v2.789c0.297,4.795,4.098,8.41,8.846,8.41
		c4.789,0,8.628-3.615,8.924-8.41l0.039-0.621h0.619h3.299h0.303l0.195,0.23l4.873,5.653c1.715,2,4.166,3.147,6.725,3.147
		c4.834,0,8.922-4.086,8.922-8.92c0-2.08-0.743-4.024-2.172-5.748L55.092,468.483z"/>
	<path clip-path="url(#SVGID_2_)" d="M335.45,404.159c-2.619,0-5.062-0.319-7.334-0.959c-2.271-0.641-4.248-1.526-5.926-2.657
		c-1.679-1.132-2.988-2.447-3.924-3.949c-0.939-1.502-1.408-3.137-1.408-4.909c0-1.033,0.184-1.992,0.555-2.882
		c0.369-0.889,0.89-1.664,1.558-2.332c0.666-0.666,1.455-1.2,2.368-1.592c0.914-0.396,1.889-0.595,2.928-0.595
		c0.986,0,1.936,0.188,2.85,0.556c0.912,0.371,1.889,0.978,2.926,1.815c0.889,0.69,1.605,1.234,2.148,1.629
		c0.543,0.396,0.989,0.705,1.332,0.929c0.346,0.22,0.643,0.356,0.891,0.405c0.246,0.052,0.518,0.074,0.816,0.074
		c0.639,0,1.145-0.199,1.516-0.594c0.371-0.394,0.56-0.914,0.56-1.556c0-0.843-0.425-1.535-1.265-2.078
		c-0.1-0.049-0.213-0.112-0.336-0.187c-0.125-0.073-0.299-0.16-0.521-0.26c-0.225-0.097-0.52-0.222-0.891-0.371
		c-0.373-0.146-0.881-0.343-1.525-0.593c-0.695-0.245-1.363-0.481-2.007-0.704c-0.644-0.22-1.313-0.457-2.007-0.707
		c-7.186-2.519-10.779-7.216-10.779-14.091c0-2.422,0.443-4.623,1.331-6.603c0.886-1.977,2.114-3.684,3.692-5.116
		c1.574-1.435,3.482-2.545,5.724-3.339c2.237-0.79,4.69-1.188,7.354-1.188c2.221,0,4.295,0.284,6.221,0.854
		c1.926,0.566,3.605,1.334,5.039,2.296c1.432,0.965,2.555,2.099,3.369,3.405c0.814,1.312,1.224,2.731,1.224,4.261
		c0,1.976-0.593,3.596-1.778,4.853c-1.186,1.26-2.715,1.889-4.592,1.889c-1.137,0-2.197-0.211-3.186-0.629
		c-0.985-0.42-2.174-1.147-3.557-2.187c-0.84-0.692-1.506-1.159-2-1.407c-0.494-0.246-0.963-0.371-1.406-0.371
		c-0.545,0-1.002,0.187-1.371,0.555c-0.371,0.371-0.555,0.83-0.555,1.371c0,0.742,0.334,1.334,1.006,1.777
		c0.668,0.446,1.973,0.991,3.91,1.631c2.135,0.644,4.146,1.42,6.033,2.334c1.889,0.912,3.402,1.864,4.547,2.851
		c1.537,1.284,2.754,2.95,3.646,5c0.895,2.051,1.343,4.262,1.343,6.629c0,2.224-0.407,4.358-1.222,6.407
		c-0.816,2.052-1.965,3.843-3.442,5.371c-1.681,1.679-3.646,2.929-5.892,3.74C341.167,403.75,338.513,404.159,335.45,404.159"/>
	<path clip-path="url(#SVGID_2_)" d="M402.127,473.223c-2.938,0-4.113-2.517-3.614-5.874l0.173-0.675
		c-2.437,4.032-6.13,6.888-9.821,6.888c-5.625,0-7.218-5.46-5.96-12.598l2.099-11.417c0.331-2.013,0.161-3.523-0.927-3.523
		c-1.005,0-2.77,1.261-3.357,1.93v-2.016c1.595-1.681,3.859-2.86,5.457-2.86c2.94,0,4.195,2.438,3.61,5.797l-2.099,11.672
		c-1.004,5.458-0.42,8.988,3.61,8.988c2.77,0,7.558-4.122,9.149-12.846l2.186-12.514h4.702l-3.946,22.586
		c-0.335,1.932-0.254,3.443,0.92,3.443c0.931,0,2.688-1.262,3.36-1.847v1.932C405.992,471.964,403.639,473.223,402.127,473.223"/>
	<path clip-path="url(#SVGID_2_)" d="M447.381,469.427c-4.041,5.214-8.889,7.122-15.27,7.122c-10.795,0-17.401-8.074-17.401-18.059
		c0-10.644,7.492-18.062,17.619-18.062c9.692,0,16.3,6.61,16.3,17.991v1.832h-27.757c0.444,5.949,4.994,11.014,11.239,11.014
		c4.916,0,8.216-1.76,10.939-5.212L447.381,469.427z M442.463,455.407c-0.225-5.799-4.043-9.69-10.352-9.69
		c-6.32,0-10.498,3.892-11.239,9.69H442.463z"/>
	<path clip-path="url(#SVGID_2_)" d="M459.052,474.923v-33.196h6.88v10.897h13.758v22.299H459.052z M472.814,459.504h-6.882v8.54
		h6.882V459.504z"/>
	<path clip-path="url(#SVGID_2_)" d="M431.651,424.233c11.621,0,21.901,5.824,28.096,14.695l1.744-1.204
		c-6.58-9.425-17.502-15.611-29.84-15.611c-12.371,0-23.306,6.209-29.886,15.669l1.742,1.205
		C409.699,430.078,420.004,424.233,431.651,424.233 M459.83,477.931c-6.19,8.94-16.508,14.812-28.179,14.812
		c-11.698,0-22.041-5.896-28.221-14.868l-1.745,1.205c6.565,9.517,17.545,15.78,29.966,15.78c12.392,0,23.345-6.235,29.921-15.724
		L459.83,477.931z"/>
</g>
<g>
	<path d="M43.494,430.867c3.17,0,6.15,0.615,8.938,1.845c2.788,1.23,5.22,2.884,7.298,4.961c2.077,2.078,3.717,4.51,4.92,7.298
		c1.202,2.788,1.804,5.769,1.804,8.938c0,2.952-0.492,5.699-1.476,8.241c-0.984,2.542-2.351,4.825-4.1,6.847l3.28,3.854
		c1.64,1.969,2.46,4.129,2.46,6.479c0,1.312-0.26,2.583-0.779,3.812c-0.52,1.23-1.23,2.297-2.132,3.198
		c-0.902,0.902-1.968,1.627-3.198,2.173c-1.23,0.548-2.529,0.82-3.895,0.82c-1.422,0-2.788-0.3-4.1-0.902
		c-1.312-0.601-2.46-1.476-3.444-2.624l-5.576-6.478h-2.952c0,1.422-0.26,2.734-0.779,3.936c-0.52,1.203-1.23,2.255-2.132,3.157
		s-1.968,1.613-3.198,2.132c-1.23,0.521-2.529,0.779-3.895,0.779c-1.367,0-2.652-0.259-3.854-0.779
		c-1.203-0.519-2.255-1.229-3.157-2.132s-1.613-1.954-2.132-3.157c-0.521-1.201-0.779-2.514-0.779-3.936v-38.458
		c0-1.366,0.259-2.665,0.779-3.896c0.519-1.229,1.23-2.296,2.132-3.197c0.902-0.902,1.954-1.612,3.157-2.132
		c1.202-0.52,2.487-0.779,3.854-0.779H43.494z"/>
	<path d="M116.227,430.867c1.312,0,2.542,0.26,3.69,0.779c1.148,0.52,2.145,1.202,2.993,2.05c0.847,0.848,1.53,1.845,2.05,2.993
		c0.519,1.147,0.779,2.378,0.779,3.689c0,1.312-0.26,2.542-0.779,3.69c-0.521,1.147-1.203,2.146-2.05,2.992
		c-0.848,0.849-1.845,1.518-2.993,2.01c-1.148,0.492-2.378,0.737-3.69,0.737h-14.678v3.034h7.544c2.022,0,3.744,0.711,5.166,2.132
		c1.421,1.423,2.132,3.145,2.132,5.166c0,2.023-0.711,3.745-2.132,5.166c-1.422,1.423-3.144,2.133-5.166,2.133h-7.544v2.951h14.678
		c1.312,0,2.542,0.246,3.69,0.738c1.148,0.492,2.145,1.177,2.993,2.05c0.847,0.875,1.53,1.873,2.05,2.993
		c0.519,1.121,0.779,2.337,0.779,3.649c0,1.312-0.26,2.556-0.779,3.73c-0.521,1.177-1.203,2.188-2.05,3.034
		c-0.848,0.849-1.845,1.517-2.993,2.009c-1.148,0.492-2.378,0.738-3.69,0.738H91.873c-1.422,0-2.734-0.259-3.936-0.779
		c-1.203-0.519-2.242-1.229-3.116-2.132c-0.875-0.902-1.572-1.968-2.091-3.198c-0.521-1.229-0.779-2.527-0.779-3.895v-38.458
		c0-1.366,0.259-2.665,0.779-3.896c0.519-1.229,1.216-2.296,2.091-3.197c0.874-0.902,1.913-1.612,3.116-2.132
		c1.202-0.52,2.514-0.779,3.936-0.779H116.227z"/>
	<path d="M194.127,479.411c0,1.422-0.274,2.734-0.82,3.936c-0.547,1.203-1.271,2.242-2.173,3.116
		c-0.902,0.875-1.955,1.572-3.157,2.091c-1.203,0.521-2.488,0.779-3.854,0.779c-1.64,0-3.145-0.354-4.51-1.066
		c-1.367-0.709-2.515-1.693-3.444-2.951L161,467.684v11.645c0,1.422-0.26,2.734-0.779,3.936c-0.52,1.203-1.23,2.255-2.132,3.157
		s-1.968,1.613-3.198,2.132c-1.23,0.521-2.529,0.779-3.895,0.779c-1.367,0-2.652-0.259-3.854-0.779
		c-1.203-0.519-2.255-1.229-3.157-2.132s-1.613-1.954-2.132-3.157c-0.521-1.201-0.779-2.514-0.779-3.936v-38.458
		c0-1.366,0.259-2.665,0.779-3.896c0.519-1.229,1.23-2.296,2.132-3.197c0.902-0.902,1.954-1.612,3.157-2.132
		c1.202-0.52,2.487-0.779,3.854-0.779c1.53,0,2.938,0.315,4.223,0.942c1.284,0.63,2.391,1.464,3.321,2.501l15.662,18.122v-11.562
		c0-1.366,0.259-2.665,0.779-3.896c0.519-1.229,1.23-2.296,2.132-3.197c0.902-0.902,1.954-1.612,3.157-2.132
		c1.202-0.52,2.487-0.779,3.854-0.779c1.366,0,2.665,0.26,3.895,0.779s2.296,1.229,3.198,2.132c0.902,0.901,1.612,1.968,2.132,3.197
		c0.519,1.23,0.779,2.529,0.779,3.896V479.411z"/>
	<path d="M263.334,479.411c0,1.422-0.275,2.734-0.82,3.936c-0.547,1.203-1.271,2.242-2.174,3.116
		c-0.902,0.875-1.955,1.572-3.156,2.091c-1.203,0.521-2.488,0.779-3.854,0.779c-1.641,0-3.145-0.354-4.51-1.066
		c-1.367-0.709-2.516-1.693-3.445-2.951l-15.169-17.631v11.645c0,1.422-0.26,2.734-0.779,3.936c-0.52,1.203-1.23,2.255-2.132,3.157
		s-1.968,1.613-3.198,2.132c-1.23,0.521-2.529,0.779-3.895,0.779c-1.367,0-2.652-0.259-3.854-0.779
		c-1.203-0.519-2.255-1.229-3.157-2.132s-1.613-1.954-2.132-3.157c-0.521-1.201-0.779-2.514-0.779-3.936v-38.458
		c0-1.366,0.259-2.665,0.779-3.896c0.519-1.229,1.23-2.296,2.132-3.197c0.902-0.902,1.954-1.612,3.157-2.132
		c1.202-0.52,2.487-0.779,3.854-0.779c1.53,0,2.938,0.315,4.223,0.942c1.284,0.63,2.391,1.464,3.321,2.501l15.662,18.122v-11.562
		c0-1.366,0.259-2.665,0.779-3.896c0.519-1.229,1.229-2.296,2.132-3.197c0.902-0.902,1.953-1.612,3.156-2.132
		s2.488-0.779,3.855-0.779c1.365,0,2.664,0.26,3.895,0.779s2.295,1.229,3.197,2.132c0.902,0.901,1.613,1.968,2.133,3.197
		c0.52,1.23,0.779,2.529,0.779,3.896V479.411z"/>
	<path d="M313.762,430.867c1.312,0,2.542,0.26,3.69,0.779c1.147,0.52,2.145,1.202,2.993,2.05c0.847,0.848,1.529,1.845,2.05,2.993
		c0.519,1.147,0.779,2.378,0.779,3.689c0,1.312-0.261,2.542-0.779,3.69c-0.521,1.147-1.203,2.146-2.05,2.992
		c-0.849,0.849-1.846,1.518-2.993,2.01c-1.148,0.492-2.378,0.737-3.69,0.737h-14.678v3.034h7.544c2.021,0,3.744,0.711,5.166,2.132
		c1.421,1.423,2.132,3.145,2.132,5.166c0,2.023-0.711,3.745-2.132,5.166c-1.422,1.423-3.145,2.133-5.166,2.133h-7.544v2.951h14.678
		c1.312,0,2.542,0.246,3.69,0.738c1.147,0.492,2.145,1.177,2.993,2.05c0.847,0.875,1.529,1.873,2.05,2.993
		c0.519,1.121,0.779,2.337,0.779,3.649c0,1.312-0.261,2.556-0.779,3.73c-0.521,1.177-1.203,2.188-2.05,3.034
		c-0.849,0.849-1.846,1.517-2.993,2.009c-1.148,0.492-2.378,0.738-3.69,0.738h-24.354c-1.423,0-2.734-0.259-3.937-0.779
		c-1.203-0.519-2.242-1.229-3.116-2.132c-0.875-0.902-1.571-1.968-2.091-3.198c-0.52-1.229-0.778-2.527-0.778-3.895v-38.458
		c0-1.366,0.259-2.665,0.778-3.896c0.52-1.229,1.216-2.296,2.091-3.197c0.874-0.902,1.913-1.612,3.116-2.132
		c1.202-0.52,2.514-0.779,3.937-0.779H313.762z"/>
	<path d="M346.89,462.027c-1.422-0.546-2.624-1.325-3.607-2.337c-0.984-1.012-1.805-2.133-2.46-3.362
		c-0.656-1.23-1.136-2.555-1.436-3.978c-0.301-1.421-0.451-2.842-0.451-4.264c0-2.568,0.492-4.92,1.477-7.052
		c0.983-2.132,2.323-3.949,4.018-5.453c1.694-1.503,3.662-2.665,5.904-3.485c2.241-0.819,4.592-1.229,7.052-1.229h2.952
		c1.694,0.055,3.526,0.328,5.494,0.819c1.968,0.492,3.799,1.23,5.494,2.215c1.693,0.983,3.102,2.228,4.223,3.73
		c1.12,1.504,1.681,3.268,1.681,5.289c0,1.914-0.588,3.526-1.763,4.838c-1.176,1.312-2.775,1.968-4.797,1.968
		c-0.438,0-0.848-0.026-1.229-0.082c-0.384-0.054-0.794-0.163-1.23-0.327l-6.724-2.542c-0.384-0.164-0.779-0.341-1.189-0.533
		c-0.41-0.191-0.807-0.341-1.188-0.451c-0.384-0.109-0.767-0.123-1.148-0.041c-0.383,0.082-0.738,0.315-1.066,0.697
		c-0.655,0.93-0.737,1.735-0.245,2.419c0.491,0.684,1.229,1.244,2.214,1.681l1.476,0.492c2.788,1.039,5.357,2.037,7.708,2.993
		c2.35,0.957,4.387,2.132,6.109,3.525c1.722,1.395,3.074,3.104,4.059,5.125c0.984,2.023,1.477,4.593,1.477,7.708
		c0,2.788-0.492,5.33-1.477,7.626c-0.984,2.297-2.337,4.265-4.059,5.904c-1.723,1.64-3.772,2.939-6.15,3.896
		c-2.378,0.957-4.934,1.463-7.667,1.517h-2.952c-2.078-0.054-4.264-0.437-6.56-1.148c-2.296-0.709-4.401-1.707-6.314-2.992
		c-1.914-1.284-3.513-2.856-4.797-4.716c-1.285-1.857-1.927-3.963-1.927-6.313c0-0.984,0.164-1.927,0.492-2.829
		s0.778-1.708,1.353-2.419c0.574-0.71,1.284-1.284,2.132-1.722s1.764-0.656,2.747-0.656c0.438,0,0.861,0.055,1.271,0.164
		c0.41,0.11,0.833,0.246,1.271,0.41l10.332,4.346c0.438,0.164,0.833,0.246,1.189,0.246c0.354,0,0.751-0.136,1.188-0.41
		c0.438-0.272,0.684-0.751,0.738-1.435c0.054-0.684-0.137-1.354-0.574-2.01c-0.11-0.108-0.301-0.259-0.574-0.45
		s-0.547-0.369-0.819-0.533c-0.328-0.218-0.711-0.382-1.148-0.492L346.89,462.027z"/>
	<path d="M446.192,489.333c-1.367,0-2.624-0.259-3.771-0.779c-1.148-0.519-2.133-1.229-2.952-2.132
		c-0.82-0.902-1.449-1.968-1.887-3.198c-0.438-1.229-0.655-2.527-0.655-3.895c0-1.202,0.246-2.432,0.737-3.69
		c0.492-1.257,1.202-2.322,2.133-3.197l16.646-16.154v-6.806l-3.854,3.854c-2.188,2.078-4.538,3.116-7.053,3.116
		c-1.258,0-2.433-0.218-3.525-0.656c-1.095-0.437-2.05-1.038-2.87-1.804c-0.82-0.765-1.463-1.667-1.927-2.706
		c-0.466-1.038-0.697-2.159-0.697-3.362c0-1.857,0.437-3.662,1.312-5.412c1.805-3.497,4.277-6.313,7.421-8.445
		c3.144-2.133,6.874-3.198,11.193-3.198h2.87c3.006,0.438,5.671,1.285,7.995,2.542c2.323,1.258,4.25,2.802,5.781,4.633
		c1.529,1.832,2.691,3.882,3.484,6.15c0.792,2.269,1.189,4.605,1.189,7.011c0,3.28-0.711,6.506-2.132,9.676
		c-1.423,3.171-3.608,5.986-6.561,8.446c1.477,0,2.883,0.219,4.224,0.656c1.339,0.438,2.514,1.094,3.525,1.968
		c1.011,0.875,1.804,1.927,2.378,3.157c0.574,1.229,0.861,2.638,0.861,4.223c0,1.367-0.301,2.665-0.902,3.895
		c-0.602,1.23-1.408,2.296-2.419,3.198c-1.012,0.902-2.173,1.613-3.484,2.132c-1.312,0.521-2.652,0.779-4.019,0.779H446.192z"/>
</g>
</svg>
