<?xml version="1.0" encoding="utf-8"?>
<!-- Generator: Adobe Illustrator 22.1.0, SVG Export Plug-In . SVG Version: 6.00 Build 0)  -->
<svg version="1.1" id="Calque_3" xmlns="http://www.w3.org/2000/svg" xmlns:xlink="http://www.w3.org/1999/xlink" x="0px" y="0px"
	 viewBox="0 0 920 210" style="enable-background:new 0 0 920 210;" xml:space="preserve">
<style type="text/css">
	.st0{fill:none;}
	.st1{fill:#666666;}
	.st2{font-family:'ArialMT';}
	.st3{font-size:12px;}
	.st4{fill:#FFFFFF;stroke:#E6142D;stroke-miterlimit:10;}
	.st5{fill:none;stroke:#E6142D;stroke-linecap:square;stroke-miterlimit:10;}
	.st6{fill:#FFFFFF;stroke:#E6142D;stroke-linecap:square;stroke-miterlimit:10;}
</style>
<rect x="163" y="174.1" class="st0" width="125.4" height="29.6"/>
<text transform="matrix(1 0 0 1 202.7245 182.7261)" class="st1 st2 st3">Archives</text>
<rect x="6.7" y="174.1" class="st0" width="125.4" height="29.6"/>
<text transform="matrix(1 0 0 1 29.373 182.7261)" class="st1 st2 st3">Développement </text>
<text transform="matrix(1 0 0 1 57.073 197.1261)" class="st1 st2 st3">Web</text>
<rect x="319.3" y="174.1" class="st0" width="125.1" height="14.8"/>
<text transform="matrix(1 0 0 1 341.5434 182.7261)" class="st1 st2 st3">Documentation</text>
<rect x="474.8" y="174.1" class="st0" width="125.7" height="14.8"/>
<text transform="matrix(1 0 0 1 475.9045 182.7263)" class="st1 st2 st3">Production de données</text>
<rect x="631.4" y="174.1" class="st0" width="125.1" height="14.8"/>
<text transform="matrix(1 0 0 1 647.8879 182.7263)" class="st1 st2 st3">Gestion de panel</text>
<rect x="787.5" y="174.1" class="st0" width="125.1" height="29.6"/>
<text transform="matrix(1 0 0 1 816.0475 182.7254)" class="st1 st2 st3">Coordination  </text>
<text transform="matrix(1 0 0 1 817.3475 197.1254)" class="st1 st2 st3">de l’EquipEx</text>
<g>
	<circle class="st4" cx="69.6" cy="70.1" r="62.6"/>
	<circle class="st4" cx="225.6" cy="70.1" r="62.6"/>
	<circle class="st4" cx="381.6" cy="70.1" r="62.6"/>
	
		<ellipse transform="matrix(0.7071 -0.7071 0.7071 0.7071 107.8883 400.6709)" class="st4" cx="537.6" cy="70.1" rx="62.6" ry="62.6"/>
	<circle class="st4" cx="693.6" cy="70.1" r="62.6"/>
	<circle class="st4" cx="849.6" cy="70.1" r="62.6"/>
</g>
<g>
	<g>
		<circle class="st4" cx="69.7" cy="50.6" r="11"/>
		<g>
			<path class="st5" d="M59.7,61c-1.5,0.5-2.9,1.2-4.2,2.1c-1.5,1-2.9,2.2-4.1,3.6"/>
			<path class="st5" d="M79.5,61c1.5,0.5,2.9,1.2,4.3,2.1c1.7,1.1,3.2,2.4,4.4,4.1"/>
		</g>
	</g>
	<g>
		<path class="st6" d="M43.6,77.6c6,0,11-4.9,11-11s-4.9-11-11-11c-6,0-11,4.9-11,11S37.5,77.6,43.6,77.6z"/>
		<path class="st5" d="M33.6,77.1c-6.2,2.2-11,7.2-12.9,15.4"/>
		<path class="st5" d="M53.4,77c6.2,2.1,11.1,7.2,13.1,15.5"/>
	</g>
	<g>
		<path class="st6" d="M96.7,77.6c6,0,11-4.9,11-11s-4.9-11-11-11c-6,0-11,4.9-11,11S90.7,77.6,96.7,77.6z"/>
		<path class="st5" d="M86.8,77.1c-6.2,2.2-11,7.2-12.9,15.4"/>
		<path class="st5" d="M106.5,77c6.2,2.1,11.1,7.2,13.1,15.5"/>
	</g>
</g>
<g>
	<g>
		<path class="st6" d="M206,76.6c6,0,11-4.9,11-11s-4.9-11-11-11c-6,0-11,4.9-11,11S200,76.6,206,76.6z"/>
		<path class="st5" d="M196.1,76.1c-6.2,2.2-11,7.2-12.9,15.4"/>
		<path class="st5" d="M215.8,76c6.2,2.1,11.1,7.2,13.1,15.5"/>
	</g>
	<g>
		<path class="st6" d="M245.2,76.6c6,0,11-4.9,11-11s-4.9-11-11-11c-6,0-11,4.9-11,11S239.2,76.6,245.2,76.6z"/>
		<path class="st5" d="M235.3,76.1c-2.8,1-5.3,2.6-7.4,4.8"/>
		<path class="st5" d="M255,76c6.2,2.1,11.1,7.2,13.1,15.5"/>
	</g>
</g>
<g>
	<g>
		<path class="st6" d="M674,76.6c6,0,11-4.9,11-11s-4.9-11-11-11c-6,0-11,4.9-11,11S667.9,76.6,674,76.6z"/>
		<path class="st5" d="M664,76.1c-6.2,2.2-11,7.2-12.9,15.4"/>
		<path class="st5" d="M683.8,76c6.2,2.1,11.1,7.2,13.1,15.5"/>
	</g>
	<g>
		<path class="st6" d="M713.2,76.6c6,0,11-4.9,11-11s-4.9-11-11-11c-6,0-11,4.9-11,11S707.1,76.6,713.2,76.6z"/>
		<path class="st5" d="M703.2,76.1c-2.8,1-5.3,2.6-7.4,4.8"/>
		<path class="st5" d="M723,76c6.2,2.1,11.1,7.2,13.1,15.5"/>
	</g>
</g>
<g>
	<g>
		<path class="st6" d="M830,76.6c6,0,11-4.9,11-11s-4.9-11-11-11c-6,0-11,4.9-11,11S823.9,76.6,830,76.6z"/>
		<path class="st5" d="M820,76.1c-6.2,2.2-11,7.2-12.9,15.4"/>
		<path class="st5" d="M839.8,76c6.2,2.1,11.1,7.2,13.1,15.5"/>
	</g>
	<g>
		<path class="st6" d="M869.2,76.6c6,0,11-4.9,11-11s-4.9-11-11-11c-6,0-11,4.9-11,11S863.1,76.6,869.2,76.6z"/>
		<path class="st5" d="M859.2,76.1c-2.8,1-5.3,2.6-7.4,4.8"/>
		<path class="st5" d="M879,76c6.2,2.1,11.1,7.2,13.1,15.5"/>
	</g>
</g>
<g>
	<g>
		<circle class="st4" cx="381.7" cy="50.9" r="11"/>
		<g>
			<path class="st5" d="M371.8,61.4c-1.5,0.5-2.9,1.2-4.2,2.1c-1.5,1-2.9,2.2-4.1,3.6"/>
			<path class="st5" d="M391.5,61.3c1.5,0.5,2.9,1.2,4.3,2.1c1.7,1.1,3.2,2.4,4.4,4.1"/>
		</g>
	</g>
	<g>
		<g>
			<g>
				<circle class="st4" cx="355.6" cy="66.8" r="11"/>
				<g>
					<path class="st5" d="M345.7,77.3c-5.5,1.9-9.9,6.1-12.2,12.8"/>
					<path class="st5" d="M365.4,77.2c2.3,0.8,4.5,2,6.4,3.6"/>
				</g>
			</g>
		</g>
		<g>
			<g>
				<circle class="st4" cx="408.8" cy="66.8" r="11"/>
				<g>
					<path class="st5" d="M398.8,77.3c-2.1,0.8-4.1,1.8-5.8,3.3"/>
					<path class="st5" d="M418.5,77.2c5.7,2,10.4,6.4,12.6,13.6"/>
				</g>
			</g>
		</g>
	</g>
	<g>
		<path class="st6" d="M382.4,94c6,0,11-4.9,11-11s-4.9-11-11-11c-6,0-11,4.9-11,11S376.4,94,382.4,94z"/>
		<path class="st5" d="M372.5,93.5c-6.2,2.2-11,7.2-12.9,15.4"/>
		<path class="st5" d="M392.2,93.4c6.2,2.1,11.1,7.2,13.1,15.5"/>
	</g>
</g>
<rect x="6.7" y="16.2" class="st0" width="125.4" height="15.3"/>
<rect x="163.6" y="16.2" class="st0" width="125.4" height="15.3"/>
<rect x="319.6" y="16.2" class="st0" width="125.4" height="15.3"/>
<rect x="475.6" y="16.2" class="st0" width="125.4" height="15.3"/>
<rect x="631.7" y="16.2" class="st0" width="125.4" height="15.3"/>
<rect x="787.7" y="16.2" class="st0" width="125.4" height="15.3"/>
<g>
	<g>
		<g>
			
				<ellipse transform="matrix(0.3162 -0.9487 0.9487 0.3162 309.3531 513.7981)" class="st4" cx="511.1" cy="42.3" rx="11" ry="11"/>
			<g>
				<path class="st5" d="M487.8,70.1c1.6-9.4,6.7-14.9,13.3-17.3"/>
				<path class="st5" d="M520.9,52.7c5.7,2,10.3,6.4,12.5,13.5"/>
			</g>
		</g>
	</g>
	<g>
		<g>
			<circle class="st4" cx="564.2" cy="42.3" r="11"/>
			<g>
				<path class="st5" d="M554.2,52.8c-5.5,2-10,6.2-12.2,13"/>
				<path class="st5" d="M574,52.7c6.7,2.3,11.8,7.9,13.5,17.3"/>
			</g>
		</g>
	</g>
	<g>
		<circle class="st4" cx="537.2" cy="56.8" r="11"/>
		<g>
			<path class="st5" d="M527.2,67.3c-1.5,0.5-2.9,1.2-4.2,2.1c-1.5,1-2.9,2.2-4.1,3.6"/>
			<path class="st5" d="M546.9,67.2c1.5,0.5,2.9,1.2,4.3,2.1c1.7,1.1,3.2,2.4,4.4,4.1"/>
		</g>
	</g>
	<g>
		<g>
			<g>
				<ellipse transform="matrix(0.3162 -0.9487 0.9487 0.3162 280.513 534.585)" class="st4" cx="511.1" cy="72.7" rx="11" ry="11"/>
				<g>
					<path class="st5" d="M501.1,83.1c-5.5,1.9-9.9,6.1-12.2,12.8"/>
					<path class="st5" d="M520.9,83.1c2.3,0.8,4.5,2,6.4,3.6"/>
				</g>
			</g>
		</g>
		<g>
			<g>
				<circle class="st4" cx="564.2" cy="72.7" r="11"/>
				<g>
					<path class="st5" d="M554.2,83.1c-2.1,0.8-4.1,1.8-5.8,3.3"/>
					<path class="st5" d="M574,83.1c5.7,2,10.4,6.4,12.6,13.6"/>
				</g>
			</g>
		</g>
	</g>
	<g>
		<path class="st6" d="M537.9,99.9c6,0,11-4.9,11-11s-4.9-11-11-11c-6,0-11,4.9-11,11S531.8,99.9,537.9,99.9z"/>
		<path class="st5" d="M527.9,99.4c-6.2,2.2-11,7.2-12.9,15.4"/>
		<path class="st5" d="M547.6,99.3c6.2,2.1,11.1,7.2,13.1,15.5"/>
	</g>
</g>
</svg>
