<?xml version="1.0" encoding="utf-8"?>
<!-- Generator: Adobe Illustrator 22.1.0, SVG Export Plug-In . SVG Version: 6.00 Build 0)  -->
<svg version="1.1" id="Calque_3" xmlns="http://www.w3.org/2000/svg" xmlns:xlink="http://www.w3.org/1999/xlink" x="0px" y="0px"
	 viewBox="0 0 920 210" style="enable-background:new 0 0 920 210;" xml:space="preserve">
<style type="text/css">
	.st0{fill:none;}
	.st1{enable-background:new    ;}
	.st2{fill:#666666;}
	.st3{fill:#FFFFFF;stroke:#E6142D;stroke-miterlimit:10;}
	.st4{fill:none;stroke:#E6142D;stroke-linecap:square;stroke-miterlimit:10;}
	.st5{fill:#FFFFFF;stroke:#E6142D;stroke-linecap:square;stroke-miterlimit:10;}
</style>
<rect x="163" y="174.1" class="st0" width="125.4" height="29.6"/>
<g class="st1">
	<path class="st2" d="M202.7,182.7l3.3-8.6h1.2l3.5,8.6h-1.3l-1-2.6h-3.6l-0.9,2.6H202.7z M205.2,179.2h2.9l-0.9-2.4
		c-0.3-0.7-0.5-1.3-0.6-1.8c-0.1,0.6-0.3,1.1-0.5,1.6L205.2,179.2z"/>
	<path class="st2" d="M211.5,182.7v-6.2h0.9v0.9c0.2-0.4,0.5-0.7,0.7-0.9s0.4-0.2,0.7-0.2c0.4,0,0.7,0.1,1.1,0.3l-0.4,1
		c-0.3-0.2-0.5-0.2-0.8-0.2c-0.2,0-0.4,0.1-0.6,0.2s-0.3,0.3-0.4,0.6c-0.1,0.4-0.2,0.8-0.2,1.2v3.3H211.5z"/>
	<path class="st2" d="M219.6,180.4l1,0.1c-0.1,0.7-0.4,1.3-0.9,1.7s-1,0.6-1.7,0.6c-0.9,0-1.5-0.3-2.1-0.8s-0.8-1.4-0.8-2.4
		c0-0.7,0.1-1.3,0.3-1.8s0.6-0.9,1-1.1s1-0.4,1.5-0.4c0.7,0,1.2,0.2,1.7,0.5s0.7,0.8,0.8,1.5l-1,0.2c-0.1-0.4-0.3-0.7-0.5-0.9
		s-0.5-0.3-0.9-0.3c-0.5,0-1,0.2-1.3,0.6s-0.5,1-0.5,1.8c0,0.8,0.2,1.4,0.5,1.8s0.7,0.6,1.3,0.6c0.4,0,0.8-0.1,1-0.4
		S219.5,181,219.6,180.4z"/>
	<path class="st2" d="M221.5,182.7v-8.6h1.1v3.1c0.5-0.6,1.1-0.9,1.9-0.9c0.5,0,0.9,0.1,1.2,0.3s0.6,0.4,0.7,0.8s0.2,0.8,0.2,1.4
		v3.9h-1.1v-3.9c0-0.5-0.1-0.9-0.3-1.2s-0.6-0.4-1-0.4c-0.3,0-0.6,0.1-0.9,0.2s-0.5,0.4-0.6,0.7s-0.2,0.7-0.2,1.1v3.4H221.5z"/>
	<path class="st2" d="M228.2,175.3v-1.2h1.1v1.2H228.2z M228.2,182.7v-6.2h1.1v6.2H228.2z"/>
	<path class="st2" d="M232.6,182.7l-2.4-6.2h1.1l1.3,3.7c0.1,0.4,0.3,0.8,0.4,1.3c0.1-0.3,0.2-0.7,0.4-1.2l1.4-3.8h1.1l-2.4,6.2
		H232.6z"/>
	<path class="st2" d="M236.9,175.3v-1.2h1.1v1.2H236.9z M236.9,182.7v-6.2h1.1v6.2H236.9z"/>
	<path class="st2" d="M239.5,182.7v-6.2h0.9v0.9c0.5-0.7,1.1-1,2-1c0.4,0,0.7,0.1,1,0.2s0.5,0.3,0.7,0.5s0.3,0.5,0.3,0.8
		c0,0.2,0.1,0.5,0.1,1v3.8h-1.1v-3.8c0-0.4,0-0.8-0.1-1s-0.2-0.4-0.4-0.5s-0.5-0.2-0.7-0.2c-0.4,0-0.8,0.1-1.2,0.4s-0.5,0.8-0.5,1.6
		v3.4H239.5z"/>
	<path class="st2" d="M246,183.2l1,0.2c0,0.3,0.2,0.5,0.4,0.7c0.3,0.2,0.6,0.3,1.1,0.3c0.5,0,0.9-0.1,1.1-0.3s0.4-0.5,0.5-0.8
		c0.1-0.2,0.1-0.7,0.1-1.4c-0.5,0.5-1,0.8-1.7,0.8c-0.9,0-1.5-0.3-2-0.9s-0.7-1.4-0.7-2.2c0-0.6,0.1-1.1,0.3-1.6s0.5-0.9,0.9-1.2
		s0.9-0.4,1.4-0.4c0.7,0,1.3,0.3,1.8,0.9v-0.8h1v5.4c0,1-0.1,1.7-0.3,2.1s-0.5,0.7-0.9,1s-1,0.4-1.6,0.4c-0.7,0-1.3-0.2-1.8-0.5
		S246,183.9,246,183.2z M246.9,179.5c0,0.8,0.2,1.4,0.5,1.8s0.7,0.6,1.2,0.6c0.5,0,0.9-0.2,1.2-0.6s0.5-1,0.5-1.8
		c0-0.8-0.2-1.3-0.5-1.7s-0.7-0.6-1.2-0.6c-0.5,0-0.9,0.2-1.2,0.6S246.9,178.8,246.9,179.5z"/>
</g>
<g class="st1">
	<path class="st2" d="M32,196.7v-8.6h3c0.7,0,1.2,0,1.5,0.1c0.5,0.1,0.9,0.3,1.3,0.6c0.5,0.4,0.8,0.9,1,1.5s0.3,1.3,0.3,2
		c0,0.7-0.1,1.2-0.2,1.7s-0.3,0.9-0.6,1.3s-0.5,0.6-0.8,0.8s-0.6,0.3-1,0.4s-0.9,0.1-1.4,0.1H32z M33.1,195.7h1.8
		c0.6,0,1-0.1,1.3-0.2s0.6-0.3,0.8-0.4c0.3-0.3,0.5-0.6,0.6-1.1s0.2-1,0.2-1.7c0-0.9-0.1-1.6-0.4-2.1s-0.7-0.8-1.1-1
		c-0.3-0.1-0.8-0.2-1.5-0.2h-1.8V195.7z"/>
	<path class="st2" d="M44.8,194.7l1.1,0.1c-0.2,0.6-0.5,1.1-1,1.5s-1.1,0.5-1.8,0.5c-0.9,0-1.6-0.3-2.2-0.8s-0.8-1.3-0.8-2.4
		c0-1,0.3-1.9,0.8-2.4s1.2-0.9,2.1-0.9c0.8,0,1.5,0.3,2,0.8s0.8,1.4,0.8,2.4c0,0.1,0,0.2,0,0.3h-4.6c0,0.7,0.2,1.2,0.6,1.6
		s0.8,0.5,1.3,0.5c0.4,0,0.7-0.1,1-0.3S44.6,195.1,44.8,194.7z M41.3,193h3.5c0-0.5-0.2-0.9-0.4-1.2c-0.3-0.4-0.8-0.6-1.3-0.6
		c-0.5,0-0.9,0.2-1.2,0.5S41.3,192.4,41.3,193z"/>
	<path class="st2" d="M48.9,196.7l-2.4-6.2h1.1l1.3,3.7c0.1,0.4,0.3,0.8,0.4,1.3c0.1-0.3,0.2-0.7,0.4-1.2l1.4-3.8h1.1l-2.4,6.2H48.9
		z"/>
	<path class="st2" d="M57.4,194.7l1.1,0.1c-0.2,0.6-0.5,1.1-1,1.5s-1.1,0.5-1.8,0.5c-0.9,0-1.6-0.3-2.2-0.8s-0.8-1.3-0.8-2.4
		c0-1,0.3-1.9,0.8-2.4s1.2-0.9,2.1-0.9c0.8,0,1.5,0.3,2,0.8s0.8,1.4,0.8,2.4c0,0.1,0,0.2,0,0.3h-4.6c0,0.7,0.2,1.2,0.6,1.6
		s0.8,0.5,1.3,0.5c0.4,0,0.7-0.1,1-0.3S57.3,195.1,57.4,194.7z M54,193h3.5c0-0.5-0.2-0.9-0.4-1.2c-0.3-0.4-0.8-0.6-1.3-0.6
		c-0.5,0-0.9,0.2-1.2,0.5S54,192.4,54,193z"/>
	<path class="st2" d="M59.8,196.7v-8.6h1.1v8.6H59.8z"/>
	<path class="st2" d="M62.1,193.6c0-1.2,0.3-2,1-2.6c0.5-0.5,1.2-0.7,2-0.7c0.9,0,1.6,0.3,2.1,0.8s0.8,1.3,0.8,2.3
		c0,0.8-0.1,1.4-0.4,1.9s-0.6,0.8-1,1.1s-1,0.4-1.5,0.4c-0.9,0-1.6-0.3-2.1-0.8S62.1,194.6,62.1,193.6z M63.2,193.6
		c0,0.8,0.2,1.4,0.5,1.8s0.8,0.6,1.3,0.6c0.5,0,1-0.2,1.3-0.6s0.5-1,0.5-1.8c0-0.8-0.2-1.4-0.5-1.7s-0.8-0.6-1.3-0.6
		c-0.5,0-1,0.2-1.3,0.6S63.2,192.8,63.2,193.6z"/>
	<path class="st2" d="M69.2,199.1v-8.6h1v0.8c0.2-0.3,0.5-0.6,0.8-0.7s0.6-0.2,1-0.2c0.5,0,1,0.1,1.4,0.4s0.7,0.7,0.9,1.2
		s0.3,1,0.3,1.6c0,0.6-0.1,1.2-0.3,1.7s-0.6,0.9-1,1.2s-0.9,0.4-1.4,0.4c-0.4,0-0.7-0.1-0.9-0.2s-0.5-0.3-0.7-0.6v3H69.2z
		 M70.1,193.6c0,0.8,0.2,1.4,0.5,1.8s0.7,0.6,1.2,0.6c0.5,0,0.9-0.2,1.2-0.6s0.5-1,0.5-1.8c0-0.8-0.2-1.4-0.5-1.8s-0.7-0.6-1.2-0.6
		c-0.4,0-0.8,0.2-1.2,0.6S70.1,192.8,70.1,193.6z"/>
	<path class="st2" d="M75.9,196.7v-6.2h0.9v0.9c0.2-0.3,0.5-0.5,0.8-0.7s0.7-0.3,1.1-0.3c0.5,0,0.8,0.1,1.1,0.3s0.5,0.5,0.6,0.8
		c0.5-0.7,1.1-1.1,1.9-1.1c0.6,0,1.1,0.2,1.4,0.5s0.5,0.9,0.5,1.6v4.3h-1v-3.9c0-0.4,0-0.7-0.1-0.9s-0.2-0.3-0.4-0.4
		s-0.4-0.2-0.6-0.2c-0.4,0-0.8,0.1-1.1,0.4s-0.4,0.8-0.4,1.4v3.6h-1.1v-4c0-0.5-0.1-0.8-0.3-1.1s-0.5-0.4-0.8-0.4
		c-0.3,0-0.6,0.1-0.8,0.2s-0.4,0.4-0.5,0.7s-0.2,0.7-0.2,1.3v3.2H75.9z"/>
	<path class="st2" d="M90.1,194.7l1.1,0.1c-0.2,0.6-0.5,1.1-1,1.5s-1.1,0.5-1.8,0.5c-0.9,0-1.6-0.3-2.2-0.8s-0.8-1.3-0.8-2.4
		c0-1,0.3-1.9,0.8-2.4s1.2-0.9,2.1-0.9c0.8,0,1.5,0.3,2,0.8s0.8,1.4,0.8,2.4c0,0.1,0,0.2,0,0.3h-4.6c0,0.7,0.2,1.2,0.6,1.6
		s0.8,0.5,1.3,0.5c0.4,0,0.7-0.1,1-0.3S90,195.1,90.1,194.7z M86.7,193h3.5c0-0.5-0.2-0.9-0.4-1.2c-0.3-0.4-0.8-0.6-1.3-0.6
		c-0.5,0-0.9,0.2-1.2,0.5S86.7,192.4,86.7,193z"/>
	<path class="st2" d="M92.5,196.7v-6.2h0.9v0.9c0.5-0.7,1.1-1,2-1c0.4,0,0.7,0.1,1,0.2s0.5,0.3,0.7,0.5s0.3,0.5,0.3,0.8
		c0,0.2,0.1,0.5,0.1,1v3.8h-1.1v-3.8c0-0.4,0-0.8-0.1-1s-0.2-0.4-0.4-0.5s-0.5-0.2-0.7-0.2c-0.4,0-0.8,0.1-1.2,0.4s-0.5,0.8-0.5,1.6
		v3.4H92.5z"/>
	<path class="st2" d="M101.5,195.8l0.2,0.9c-0.3,0.1-0.6,0.1-0.8,0.1c-0.4,0-0.7-0.1-0.9-0.2s-0.4-0.3-0.4-0.5s-0.1-0.6-0.1-1.2
		v-3.6h-0.8v-0.8h0.8v-1.5l1-0.6v2.2h1.1v0.8h-1.1v3.6c0,0.3,0,0.5,0.1,0.6s0.1,0.2,0.2,0.2s0.2,0.1,0.4,0.1
		C101.2,195.8,101.3,195.8,101.5,195.8z"/>
</g>
<g class="st1">
	<path class="st2" d="M58.6,181.1l-2.3-8.6h1.2l1.3,5.6c0.1,0.6,0.3,1.2,0.4,1.8c0.2-0.9,0.3-1.4,0.4-1.6l1.6-5.8h1.4l1.2,4.3
		c0.3,1.1,0.5,2.1,0.7,3c0.1-0.5,0.3-1.2,0.4-1.9l1.3-5.5h1.1l-2.4,8.6h-1.1l-1.8-6.5c-0.2-0.5-0.2-0.9-0.3-1
		c-0.1,0.4-0.2,0.7-0.3,1l-1.8,6.5H58.6z"/>
	<path class="st2" d="M72.3,179.1l1.1,0.1c-0.2,0.6-0.5,1.1-1,1.5s-1.1,0.5-1.8,0.5c-0.9,0-1.6-0.3-2.2-0.8s-0.8-1.3-0.8-2.4
		c0-1,0.3-1.9,0.8-2.4s1.2-0.9,2.1-0.9c0.8,0,1.5,0.3,2,0.8s0.8,1.4,0.8,2.4c0,0.1,0,0.2,0,0.3h-4.6c0,0.7,0.2,1.2,0.6,1.6
		s0.8,0.5,1.3,0.5c0.4,0,0.7-0.1,1-0.3S72.1,179.5,72.3,179.1z M68.8,177.4h3.5c0-0.5-0.2-0.9-0.4-1.2c-0.3-0.4-0.8-0.6-1.3-0.6
		c-0.5,0-0.9,0.2-1.2,0.5S68.9,176.8,68.8,177.4z"/>
	<path class="st2" d="M75.7,181.1h-1v-8.6h1.1v3.1c0.4-0.6,1-0.8,1.7-0.8c0.4,0,0.7,0.1,1.1,0.2s0.6,0.4,0.8,0.7s0.4,0.6,0.5,1
		s0.2,0.8,0.2,1.3c0,1.1-0.3,1.9-0.8,2.5s-1.2,0.9-1.9,0.9c-0.7,0-1.3-0.3-1.7-0.9V181.1z M75.7,177.9c0,0.7,0.1,1.3,0.3,1.6
		c0.3,0.5,0.8,0.8,1.3,0.8c0.5,0,0.9-0.2,1.2-0.6s0.5-1,0.5-1.8c0-0.8-0.2-1.4-0.5-1.8s-0.7-0.6-1.2-0.6c-0.5,0-0.9,0.2-1.2,0.6
		S75.7,177.2,75.7,177.9z"/>
</g>
<rect x="319.3" y="174.1" class="st0" width="125.1" height="14.8"/>
<g class="st1">
	<path class="st2" d="M342.5,182.7v-8.6h3c0.7,0,1.2,0,1.5,0.1c0.5,0.1,0.9,0.3,1.3,0.6c0.5,0.4,0.8,0.9,1,1.5s0.3,1.3,0.3,2
		c0,0.7-0.1,1.2-0.2,1.7s-0.3,0.9-0.6,1.3s-0.5,0.6-0.8,0.8s-0.6,0.3-1,0.4s-0.9,0.1-1.4,0.1H342.5z M343.6,181.7h1.8
		c0.6,0,1-0.1,1.3-0.2s0.6-0.3,0.8-0.4c0.3-0.3,0.5-0.6,0.6-1.1s0.2-1,0.2-1.7c0-0.9-0.1-1.6-0.4-2.1s-0.7-0.8-1.1-1
		c-0.3-0.1-0.8-0.2-1.5-0.2h-1.8V181.7z"/>
	<path class="st2" d="M350.6,179.6c0-1.2,0.3-2,1-2.6c0.5-0.5,1.2-0.7,2-0.7c0.9,0,1.6,0.3,2.1,0.8s0.8,1.3,0.8,2.3
		c0,0.8-0.1,1.4-0.4,1.9s-0.6,0.8-1,1.1s-1,0.4-1.5,0.4c-0.9,0-1.6-0.3-2.1-0.8S350.6,180.7,350.6,179.6z M351.7,179.6
		c0,0.8,0.2,1.4,0.5,1.8s0.8,0.6,1.3,0.6c0.5,0,1-0.2,1.3-0.6s0.5-1,0.5-1.8c0-0.8-0.2-1.4-0.5-1.7s-0.8-0.6-1.3-0.6
		c-0.5,0-1,0.2-1.3,0.6S351.7,178.8,351.7,179.6z"/>
	<path class="st2" d="M361.7,180.4l1,0.1c-0.1,0.7-0.4,1.3-0.9,1.7s-1,0.6-1.7,0.6c-0.9,0-1.5-0.3-2.1-0.8s-0.8-1.4-0.8-2.4
		c0-0.7,0.1-1.3,0.3-1.8s0.6-0.9,1-1.1s1-0.4,1.5-0.4c0.7,0,1.2,0.2,1.7,0.5s0.7,0.8,0.8,1.5l-1,0.2c-0.1-0.4-0.3-0.7-0.5-0.9
		s-0.5-0.3-0.9-0.3c-0.5,0-1,0.2-1.3,0.6s-0.5,1-0.5,1.8c0,0.8,0.2,1.4,0.5,1.8s0.7,0.6,1.3,0.6c0.4,0,0.8-0.1,1-0.4
		S361.7,181,361.7,180.4z"/>
	<path class="st2" d="M367.8,182.7v-0.9c-0.5,0.7-1.1,1.1-2,1.1c-0.4,0-0.7-0.1-1-0.2s-0.6-0.3-0.7-0.5s-0.3-0.5-0.3-0.8
		c0-0.2-0.1-0.5-0.1-1v-3.9h1.1v3.5c0,0.6,0,0.9,0.1,1.1c0.1,0.3,0.2,0.5,0.4,0.7s0.5,0.2,0.8,0.2s0.6-0.1,0.9-0.2s0.5-0.4,0.6-0.7
		s0.2-0.7,0.2-1.2v-3.3h1.1v6.2H367.8z"/>
	<path class="st2" d="M370.3,182.7v-6.2h0.9v0.9c0.2-0.3,0.5-0.5,0.8-0.7s0.7-0.3,1.1-0.3c0.5,0,0.8,0.1,1.1,0.3s0.5,0.5,0.6,0.8
		c0.5-0.7,1.1-1.1,1.9-1.1c0.6,0,1.1,0.2,1.4,0.5s0.5,0.9,0.5,1.6v4.3h-1v-3.9c0-0.4,0-0.7-0.1-0.9s-0.2-0.3-0.4-0.4
		s-0.4-0.2-0.6-0.2c-0.4,0-0.8,0.1-1.1,0.4s-0.4,0.8-0.4,1.4v3.6H374v-4c0-0.5-0.1-0.8-0.3-1.1s-0.5-0.4-0.8-0.4
		c-0.3,0-0.6,0.1-0.8,0.2s-0.4,0.4-0.5,0.7s-0.2,0.7-0.2,1.3v3.2H370.3z"/>
	<path class="st2" d="M384.6,180.7l1.1,0.1c-0.2,0.6-0.5,1.1-1,1.5s-1.1,0.5-1.8,0.5c-0.9,0-1.6-0.3-2.2-0.8s-0.8-1.3-0.8-2.4
		c0-1,0.3-1.9,0.8-2.4s1.2-0.9,2.1-0.9c0.8,0,1.5,0.3,2,0.8s0.8,1.4,0.8,2.4c0,0.1,0,0.2,0,0.3h-4.6c0,0.7,0.2,1.2,0.6,1.6
		s0.8,0.5,1.3,0.5c0.4,0,0.7-0.1,1-0.3S384.4,181.2,384.6,180.7z M381.1,179h3.5c0-0.5-0.2-0.9-0.4-1.2c-0.3-0.4-0.8-0.6-1.3-0.6
		c-0.5,0-0.9,0.2-1.2,0.5S381.2,178.5,381.1,179z"/>
	<path class="st2" d="M387,182.7v-6.2h0.9v0.9c0.5-0.7,1.1-1,2-1c0.4,0,0.7,0.1,1,0.2s0.5,0.3,0.7,0.5s0.3,0.5,0.3,0.8
		c0,0.2,0.1,0.5,0.1,1v3.8H391v-3.8c0-0.4,0-0.8-0.1-1s-0.2-0.4-0.4-0.5s-0.5-0.2-0.7-0.2c-0.4,0-0.8,0.1-1.2,0.4s-0.5,0.8-0.5,1.6
		v3.4H387z"/>
	<path class="st2" d="M396,181.8l0.2,0.9c-0.3,0.1-0.6,0.1-0.8,0.1c-0.4,0-0.7-0.1-0.9-0.2s-0.4-0.3-0.4-0.5s-0.1-0.6-0.1-1.2v-3.6
		h-0.8v-0.8h0.8V175l1-0.6v2.2h1.1v0.8h-1.1v3.6c0,0.3,0,0.5,0.1,0.6s0.1,0.2,0.2,0.2s0.2,0.1,0.4,0.1
		C395.6,181.8,395.8,181.8,396,181.8z"/>
	<path class="st2" d="M401.1,182c-0.4,0.3-0.8,0.6-1.1,0.7s-0.7,0.2-1.2,0.2c-0.7,0-1.2-0.2-1.6-0.5s-0.6-0.8-0.6-1.3
		c0-0.3,0.1-0.6,0.2-0.8s0.3-0.5,0.5-0.6s0.5-0.3,0.8-0.3c0.2-0.1,0.5-0.1,0.9-0.2c0.9-0.1,1.5-0.2,1.9-0.4c0-0.1,0-0.2,0-0.3
		c0-0.4-0.1-0.7-0.3-0.9c-0.3-0.2-0.7-0.4-1.2-0.4c-0.5,0-0.9,0.1-1.1,0.3s-0.4,0.5-0.5,0.9l-1-0.1c0.1-0.4,0.2-0.8,0.5-1.1
		s0.5-0.5,0.9-0.6s0.9-0.2,1.4-0.2c0.5,0,1,0.1,1.3,0.2s0.6,0.3,0.7,0.5s0.3,0.4,0.3,0.7c0,0.2,0.1,0.5,0.1,1v1.4c0,1,0,1.6,0.1,1.9
		s0.1,0.5,0.3,0.7h-1.1C401.2,182.5,401.1,182.3,401.1,182z M401,179.6c-0.4,0.2-1,0.3-1.7,0.4c-0.4,0.1-0.7,0.1-0.9,0.2
		s-0.3,0.2-0.4,0.3s-0.1,0.3-0.1,0.5c0,0.3,0.1,0.5,0.3,0.7s0.5,0.3,0.9,0.3c0.4,0,0.8-0.1,1.1-0.3s0.5-0.4,0.7-0.7
		c0.1-0.2,0.2-0.6,0.2-1.1V179.6z"/>
	<path class="st2" d="M406,181.8l0.2,0.9c-0.3,0.1-0.6,0.1-0.8,0.1c-0.4,0-0.7-0.1-0.9-0.2s-0.4-0.3-0.4-0.5s-0.1-0.6-0.1-1.2v-3.6
		h-0.8v-0.8h0.8V175l1-0.6v2.2h1.1v0.8h-1.1v3.6c0,0.3,0,0.5,0.1,0.6s0.1,0.2,0.2,0.2s0.2,0.1,0.4,0.1
		C405.7,181.8,405.8,181.8,406,181.8z"/>
	<path class="st2" d="M407,175.3v-1.2h1.1v1.2H407z M407,182.7v-6.2h1.1v6.2H407z"/>
	<path class="st2" d="M409.3,179.6c0-1.2,0.3-2,1-2.6c0.5-0.5,1.2-0.7,2-0.7c0.9,0,1.6,0.3,2.1,0.8s0.8,1.3,0.8,2.3
		c0,0.8-0.1,1.4-0.4,1.9s-0.6,0.8-1,1.1s-1,0.4-1.5,0.4c-0.9,0-1.6-0.3-2.1-0.8S409.3,180.7,409.3,179.6z M410.4,179.6
		c0,0.8,0.2,1.4,0.5,1.8s0.8,0.6,1.3,0.6c0.5,0,1-0.2,1.3-0.6s0.5-1,0.5-1.8c0-0.8-0.2-1.4-0.5-1.7s-0.8-0.6-1.3-0.6
		c-0.5,0-1,0.2-1.3,0.6S410.4,178.8,410.4,179.6z"/>
	<path class="st2" d="M416.4,182.7v-6.2h0.9v0.9c0.5-0.7,1.1-1,2-1c0.4,0,0.7,0.1,1,0.2s0.5,0.3,0.7,0.5s0.3,0.5,0.3,0.8
		c0,0.2,0.1,0.5,0.1,1v3.8h-1.1v-3.8c0-0.4,0-0.8-0.1-1s-0.2-0.4-0.4-0.5s-0.5-0.2-0.7-0.2c-0.4,0-0.8,0.1-1.2,0.4s-0.5,0.8-0.5,1.6
		v3.4H416.4z"/>
</g>
<rect x="474.8" y="174.1" class="st0" width="125.7" height="14.8"/>
<g class="st1">
	<path class="st2" d="M502,183.5v-7.2h3c0.7,0,1.2,0,1.5,0.1c0.5,0.1,0.9,0.3,1.3,0.5c0.5,0.3,0.8,0.7,1,1.2
		c0.2,0.5,0.3,1.1,0.3,1.7c0,0.5-0.1,1-0.2,1.5s-0.3,0.8-0.6,1c-0.2,0.3-0.5,0.5-0.8,0.7s-0.6,0.3-1,0.4s-0.9,0.1-1.4,0.1H502z
		 M503.2,182.6h1.8c0.6,0,1,0,1.3-0.1s0.6-0.2,0.8-0.4c0.3-0.2,0.5-0.5,0.6-0.9s0.2-0.8,0.2-1.4c0-0.8-0.1-1.3-0.4-1.7
		c-0.3-0.4-0.7-0.7-1.1-0.8c-0.3-0.1-0.8-0.1-1.5-0.1h-1.8V182.6z"/>
	<path class="st2" d="M514.6,182.9c-0.4,0.3-0.8,0.5-1.1,0.6c-0.4,0.1-0.7,0.2-1.2,0.2c-0.7,0-1.2-0.1-1.6-0.4s-0.6-0.6-0.6-1.1
		c0-0.3,0.1-0.5,0.2-0.7c0.1-0.2,0.3-0.4,0.5-0.5s0.5-0.2,0.8-0.3c0.2,0,0.5-0.1,0.9-0.1c0.9-0.1,1.5-0.2,1.9-0.3c0-0.1,0-0.2,0-0.2
		c0-0.4-0.1-0.6-0.3-0.8c-0.3-0.2-0.7-0.3-1.2-0.3c-0.5,0-0.9,0.1-1.1,0.2c-0.2,0.1-0.4,0.4-0.5,0.8l-1-0.1c0.1-0.4,0.2-0.7,0.5-0.9
		c0.2-0.2,0.5-0.4,0.9-0.5s0.9-0.2,1.4-0.2c0.5,0,1,0.1,1.3,0.2c0.3,0.1,0.6,0.2,0.7,0.4c0.2,0.2,0.3,0.4,0.3,0.6
		c0,0.2,0.1,0.4,0.1,0.8v1.2c0,0.8,0,1.3,0.1,1.6s0.1,0.4,0.3,0.6h-1.1C514.7,183.3,514.6,183.1,514.6,182.9z M514.5,180.9
		c-0.4,0.1-1,0.2-1.7,0.3c-0.4,0.1-0.7,0.1-0.9,0.2s-0.3,0.2-0.4,0.3c-0.1,0.1-0.1,0.3-0.1,0.4c0,0.2,0.1,0.4,0.3,0.6
		s0.5,0.2,0.9,0.2c0.4,0,0.8-0.1,1.1-0.2s0.5-0.4,0.7-0.6c0.1-0.2,0.2-0.5,0.2-0.9V180.9z"/>
	<path class="st2" d="M519.5,182.7l0.2,0.8c-0.3,0.1-0.6,0.1-0.8,0.1c-0.4,0-0.7-0.1-0.9-0.2s-0.4-0.2-0.4-0.4
		c-0.1-0.2-0.1-0.5-0.1-1v-3h-0.8v-0.7h0.8V177l1-0.5v1.8h1.1v0.7h-1.1v3.1c0,0.3,0,0.4,0.1,0.5s0.1,0.1,0.2,0.2
		c0.1,0,0.2,0.1,0.4,0.1C519.2,182.7,519.3,182.7,519.5,182.7z"/>
	<path class="st2" d="M524.6,182.9c-0.4,0.3-0.8,0.5-1.1,0.6c-0.4,0.1-0.7,0.2-1.2,0.2c-0.7,0-1.2-0.1-1.6-0.4s-0.6-0.6-0.6-1.1
		c0-0.3,0.1-0.5,0.2-0.7c0.1-0.2,0.3-0.4,0.5-0.5s0.5-0.2,0.8-0.3c0.2,0,0.5-0.1,0.9-0.1c0.9-0.1,1.5-0.2,1.9-0.3c0-0.1,0-0.2,0-0.2
		c0-0.4-0.1-0.6-0.3-0.8c-0.3-0.2-0.7-0.3-1.2-0.3c-0.5,0-0.9,0.1-1.1,0.2c-0.2,0.1-0.4,0.4-0.5,0.8l-1-0.1c0.1-0.4,0.2-0.7,0.5-0.9
		c0.2-0.2,0.5-0.4,0.9-0.5s0.9-0.2,1.4-0.2c0.5,0,1,0.1,1.3,0.2c0.3,0.1,0.6,0.2,0.7,0.4c0.2,0.2,0.3,0.4,0.3,0.6
		c0,0.2,0.1,0.4,0.1,0.8v1.2c0,0.8,0,1.3,0.1,1.6s0.1,0.4,0.3,0.6h-1.1C524.7,183.3,524.7,183.1,524.6,182.9z M524.5,180.9
		c-0.4,0.1-1,0.2-1.7,0.3c-0.4,0.1-0.7,0.1-0.9,0.2s-0.3,0.2-0.4,0.3c-0.1,0.1-0.1,0.3-0.1,0.4c0,0.2,0.1,0.4,0.3,0.6
		s0.5,0.2,0.9,0.2c0.4,0,0.8-0.1,1.1-0.2s0.5-0.4,0.7-0.6c0.1-0.2,0.2-0.5,0.2-0.9V180.9z"/>
	<path class="st2" d="M530.6,185.5v-7.2h1v0.7c0.2-0.3,0.5-0.5,0.8-0.6s0.6-0.2,1-0.2c0.5,0,1,0.1,1.4,0.3s0.7,0.6,0.9,1
		s0.3,0.9,0.3,1.4c0,0.5-0.1,1-0.3,1.4s-0.6,0.8-1,1s-0.9,0.3-1.4,0.3c-0.4,0-0.7-0.1-0.9-0.2c-0.3-0.1-0.5-0.3-0.7-0.5v2.5H530.6z
		 M531.5,180.9c0,0.7,0.2,1.2,0.5,1.5s0.7,0.5,1.2,0.5c0.5,0,0.9-0.2,1.2-0.5c0.3-0.3,0.5-0.8,0.5-1.5c0-0.7-0.2-1.2-0.5-1.5
		s-0.7-0.5-1.2-0.5c-0.4,0-0.8,0.2-1.2,0.5C531.7,179.7,531.5,180.2,531.5,180.9z"/>
	<path class="st2" d="M537.2,183.5v-5.2h0.9v0.8c0.2-0.4,0.5-0.6,0.7-0.7c0.2-0.1,0.4-0.2,0.7-0.2c0.4,0,0.7,0.1,1.1,0.3l-0.4,0.8
		c-0.3-0.1-0.5-0.2-0.8-0.2c-0.2,0-0.4,0.1-0.6,0.2c-0.2,0.1-0.3,0.3-0.4,0.5c-0.1,0.3-0.2,0.7-0.2,1v2.7H537.2z"/>
	<path class="st2" d="M540.9,180.9c0-1,0.3-1.7,1-2.1c0.5-0.4,1.2-0.6,2-0.6c0.9,0,1.6,0.2,2.1,0.7c0.5,0.5,0.8,1.1,0.8,1.9
		c0,0.7-0.1,1.2-0.4,1.6c-0.2,0.4-0.6,0.7-1,0.9c-0.5,0.2-1,0.3-1.5,0.3c-0.9,0-1.6-0.2-2.1-0.7S540.9,181.8,540.9,180.9z
		 M541.9,180.9c0,0.7,0.2,1.2,0.5,1.5c0.3,0.3,0.8,0.5,1.3,0.5c0.5,0,1-0.2,1.3-0.5s0.5-0.8,0.5-1.5c0-0.6-0.2-1.1-0.5-1.5
		c-0.3-0.3-0.8-0.5-1.3-0.5c-0.5,0-1,0.2-1.3,0.5S541.9,180.2,541.9,180.9z"/>
	<path class="st2" d="M552,183.5v-0.7c-0.4,0.5-1,0.8-1.7,0.8c-0.5,0-1-0.1-1.4-0.3s-0.7-0.5-1-1s-0.3-0.9-0.3-1.4
		c0-0.5,0.1-1,0.3-1.4s0.5-0.8,0.9-1c0.4-0.2,0.9-0.3,1.4-0.3c0.4,0,0.7,0.1,1,0.2s0.5,0.3,0.7,0.5v-2.6h1v7.2H552z M548.6,180.9
		c0,0.7,0.2,1.2,0.5,1.5s0.7,0.5,1.2,0.5c0.5,0,0.9-0.2,1.2-0.5s0.5-0.8,0.5-1.4c0-0.7-0.2-1.2-0.5-1.6s-0.7-0.5-1.2-0.5
		c-0.5,0-0.9,0.2-1.2,0.5S548.6,180.2,548.6,180.9z"/>
	<path class="st2" d="M558.7,183.5v-0.8c-0.5,0.6-1.1,0.9-2,0.9c-0.4,0-0.7-0.1-1-0.2c-0.3-0.1-0.6-0.3-0.7-0.4s-0.3-0.4-0.3-0.7
		c0-0.2-0.1-0.4-0.1-0.8v-3.2h1.1v2.9c0,0.5,0,0.8,0.1,0.9c0.1,0.2,0.2,0.4,0.4,0.5c0.2,0.1,0.5,0.2,0.8,0.2s0.6-0.1,0.9-0.2
		c0.3-0.1,0.5-0.3,0.6-0.6s0.2-0.6,0.2-1v-2.8h1.1v5.2H558.7z"/>
	<path class="st2" d="M565.3,181.6l1,0.1c-0.1,0.6-0.4,1.1-0.9,1.4c-0.5,0.3-1,0.5-1.7,0.5c-0.9,0-1.5-0.2-2.1-0.7
		c-0.5-0.5-0.8-1.1-0.8-2c0-0.6,0.1-1.1,0.3-1.5s0.6-0.7,1-1c0.5-0.2,1-0.3,1.5-0.3c0.7,0,1.2,0.1,1.7,0.4c0.4,0.3,0.7,0.7,0.8,1.2
		l-1,0.1c-0.1-0.4-0.3-0.6-0.5-0.8s-0.5-0.3-0.9-0.3c-0.5,0-1,0.2-1.3,0.5s-0.5,0.8-0.5,1.5c0,0.7,0.2,1.2,0.5,1.5
		c0.3,0.3,0.7,0.5,1.3,0.5c0.4,0,0.8-0.1,1-0.3C565.1,182.4,565.3,182,565.3,181.6z"/>
	<path class="st2" d="M569.6,182.7l0.2,0.8c-0.3,0.1-0.6,0.1-0.8,0.1c-0.4,0-0.7-0.1-0.9-0.2s-0.4-0.2-0.4-0.4
		c-0.1-0.2-0.1-0.5-0.1-1v-3h-0.8v-0.7h0.8V177l1-0.5v1.8h1.1v0.7h-1.1v3.1c0,0.3,0,0.4,0.1,0.5s0.1,0.1,0.2,0.2
		c0.1,0,0.2,0.1,0.4,0.1C569.2,182.7,569.4,182.7,569.6,182.7z"/>
	<path class="st2" d="M570.6,177.3v-1h1.1v1H570.6z M570.6,183.5v-5.2h1.1v5.2H570.6z"/>
	<path class="st2" d="M572.9,180.9c0-1,0.3-1.7,1-2.1c0.5-0.4,1.2-0.6,2-0.6c0.9,0,1.6,0.2,2.1,0.7c0.5,0.5,0.8,1.1,0.8,1.9
		c0,0.7-0.1,1.2-0.4,1.6c-0.2,0.4-0.6,0.7-1,0.9c-0.5,0.2-1,0.3-1.5,0.3c-0.9,0-1.6-0.2-2.1-0.7S572.9,181.8,572.9,180.9z
		 M574,180.9c0,0.7,0.2,1.2,0.5,1.5c0.3,0.3,0.8,0.5,1.3,0.5c0.5,0,1-0.2,1.3-0.5s0.5-0.8,0.5-1.5c0-0.6-0.2-1.1-0.5-1.5
		c-0.3-0.3-0.8-0.5-1.3-0.5c-0.5,0-1,0.2-1.3,0.5S574,180.2,574,180.9z"/>
	<path class="st2" d="M579.9,183.5v-5.2h0.9v0.7c0.5-0.6,1.1-0.9,2-0.9c0.4,0,0.7,0.1,1,0.2s0.5,0.3,0.7,0.4s0.3,0.4,0.3,0.7
		c0,0.2,0.1,0.5,0.1,0.9v3.2h-1.1v-3.2c0-0.4,0-0.6-0.1-0.8s-0.2-0.3-0.4-0.4s-0.5-0.2-0.7-0.2c-0.4,0-0.8,0.1-1.2,0.4
		s-0.5,0.7-0.5,1.4v2.9H579.9z"/>
</g>
<rect x="631.4" y="174.1" class="st0" width="125.1" height="14.8"/>
<g class="st1">
	<path class="st2" d="M652,183.5v-8.6h3.2c0.6,0,1,0,1.3,0.1c0.4,0.1,0.8,0.2,1.1,0.4s0.5,0.5,0.7,0.8s0.3,0.7,0.3,1.2
		c0,0.7-0.2,1.3-0.7,1.9s-1.3,0.8-2.5,0.8h-2.2v3.5H652z M653.2,179h2.2c0.7,0,1.3-0.1,1.6-0.4s0.5-0.7,0.5-1.2
		c0-0.4-0.1-0.7-0.3-0.9s-0.4-0.4-0.7-0.5c-0.2-0.1-0.5-0.1-1.1-0.1h-2.2V179z"/>
	<path class="st2" d="M664,182.7c-0.4,0.3-0.8,0.6-1.1,0.7s-0.8,0.2-1.2,0.2c-0.7,0-1.2-0.2-1.6-0.5s-0.6-0.8-0.6-1.3
		c0-0.3,0.1-0.6,0.2-0.8s0.3-0.5,0.5-0.6s0.5-0.3,0.8-0.3c0.2-0.1,0.5-0.1,0.9-0.2c0.9-0.1,1.5-0.2,1.9-0.4c0-0.1,0-0.2,0-0.3
		c0-0.4-0.1-0.7-0.3-0.9c-0.3-0.2-0.7-0.4-1.2-0.4c-0.5,0-0.9,0.1-1.1,0.3s-0.4,0.5-0.5,0.9l-1-0.1c0.1-0.4,0.2-0.8,0.5-1.1
		s0.5-0.5,0.9-0.6s0.9-0.2,1.4-0.2c0.5,0,1,0.1,1.3,0.2s0.6,0.3,0.7,0.5s0.3,0.4,0.3,0.7c0,0.2,0.1,0.5,0.1,1v1.4c0,1,0,1.6,0.1,1.9
		s0.1,0.5,0.3,0.7h-1.1C664.1,183.3,664,183,664,182.7z M663.9,180.4c-0.4,0.2-1,0.3-1.7,0.4c-0.4,0.1-0.7,0.1-0.9,0.2
		s-0.3,0.2-0.4,0.3s-0.1,0.3-0.1,0.5c0,0.3,0.1,0.5,0.3,0.7s0.5,0.3,0.9,0.3c0.4,0,0.8-0.1,1.1-0.3s0.5-0.4,0.7-0.7
		c0.1-0.2,0.2-0.6,0.2-1.1V180.4z"/>
	<path class="st2" d="M666.6,183.5v-6.2h0.9v0.9c0.5-0.7,1.1-1,2-1c0.4,0,0.7,0.1,1,0.2s0.5,0.3,0.7,0.5s0.3,0.5,0.3,0.8
		c0,0.2,0.1,0.5,0.1,1v3.8h-1.1v-3.8c0-0.4,0-0.8-0.1-1s-0.2-0.4-0.4-0.5s-0.5-0.2-0.7-0.2c-0.4,0-0.8,0.1-1.2,0.4s-0.5,0.8-0.5,1.6
		v3.4H666.6z"/>
	<path class="st2" d="M677.5,181.5l1.1,0.1c-0.2,0.6-0.5,1.1-1,1.5s-1.1,0.5-1.8,0.5c-0.9,0-1.6-0.3-2.2-0.8s-0.8-1.3-0.8-2.4
		c0-1,0.3-1.9,0.8-2.4s1.2-0.9,2.1-0.9c0.8,0,1.5,0.3,2,0.8s0.8,1.4,0.8,2.4c0,0.1,0,0.2,0,0.3H674c0,0.7,0.2,1.2,0.6,1.6
		s0.8,0.5,1.3,0.5c0.4,0,0.7-0.1,1-0.3S677.3,181.9,677.5,181.5z M674,179.8h3.5c0-0.5-0.2-0.9-0.4-1.2c-0.3-0.4-0.8-0.6-1.3-0.6
		c-0.5,0-0.9,0.2-1.2,0.5S674.1,179.2,674,179.8z"/>
	<path class="st2" d="M679.9,183.5v-8.6h1.1v8.6H679.9z"/>
	<path class="st2" d="M688.2,182.6l0.2,0.9c-0.3,0.1-0.6,0.1-0.8,0.1c-0.4,0-0.7-0.1-0.9-0.2s-0.4-0.3-0.4-0.5s-0.1-0.6-0.1-1.2
		v-3.6h-0.8v-0.8h0.8v-1.5l1-0.6v2.2h1.1v0.8h-1.1v3.6c0,0.3,0,0.5,0.1,0.6s0.1,0.2,0.2,0.2s0.2,0.1,0.4,0.1
		C687.9,182.6,688,182.6,688.2,182.6z"/>
	<path class="st2" d="M689.2,183.5v-6.2h0.9v0.9c0.2-0.4,0.5-0.7,0.7-0.9s0.4-0.2,0.7-0.2c0.4,0,0.7,0.1,1.1,0.3l-0.4,1
		c-0.3-0.2-0.5-0.2-0.8-0.2c-0.2,0-0.4,0.1-0.6,0.2s-0.3,0.3-0.4,0.6c-0.1,0.4-0.2,0.8-0.2,1.2v3.3H689.2z"/>
	<path class="st2" d="M697.3,182.7c-0.4,0.3-0.8,0.6-1.1,0.7s-0.8,0.2-1.2,0.2c-0.7,0-1.2-0.2-1.6-0.5s-0.6-0.8-0.6-1.3
		c0-0.3,0.1-0.6,0.2-0.8s0.3-0.5,0.5-0.6s0.5-0.3,0.8-0.3c0.2-0.1,0.5-0.1,0.9-0.2c0.9-0.1,1.5-0.2,1.9-0.4c0-0.1,0-0.2,0-0.3
		c0-0.4-0.1-0.7-0.3-0.9c-0.3-0.2-0.7-0.4-1.2-0.4c-0.5,0-0.9,0.1-1.1,0.3s-0.4,0.5-0.5,0.9l-1-0.1c0.1-0.4,0.2-0.8,0.5-1.1
		s0.5-0.5,0.9-0.6s0.9-0.2,1.4-0.2c0.5,0,1,0.1,1.3,0.2s0.6,0.3,0.7,0.5s0.3,0.4,0.3,0.7c0,0.2,0.1,0.5,0.1,1v1.4c0,1,0,1.6,0.1,1.9
		s0.1,0.5,0.3,0.7h-1.1C697.4,183.3,697.3,183,697.3,182.7z M697.2,180.4c-0.4,0.2-1,0.3-1.7,0.4c-0.4,0.1-0.7,0.1-0.9,0.2
		s-0.3,0.2-0.4,0.3s-0.1,0.3-0.1,0.5c0,0.3,0.1,0.5,0.3,0.7s0.5,0.3,0.9,0.3c0.4,0,0.8-0.1,1.1-0.3s0.5-0.4,0.7-0.7
		c0.1-0.2,0.2-0.6,0.2-1.1V180.4z"/>
	<path class="st2" d="M704,181.2l1,0.1c-0.1,0.7-0.4,1.3-0.9,1.7s-1,0.6-1.7,0.6c-0.9,0-1.5-0.3-2.1-0.8s-0.8-1.4-0.8-2.4
		c0-0.7,0.1-1.3,0.3-1.8s0.6-0.9,1-1.1s0.9-0.4,1.5-0.4c0.7,0,1.2,0.2,1.7,0.5s0.7,0.8,0.8,1.5l-1,0.2c-0.1-0.4-0.3-0.7-0.5-0.9
		s-0.5-0.3-0.9-0.3c-0.5,0-1,0.2-1.3,0.6s-0.5,1-0.5,1.8c0,0.8,0.2,1.4,0.5,1.8s0.7,0.6,1.3,0.6c0.4,0,0.8-0.1,1-0.4
		S703.9,181.7,704,181.2z"/>
	<path class="st2" d="M705.9,183.5v-8.6h1.1v4.9l2.5-2.5h1.4l-2.4,2.3l2.6,3.9h-1.3l-2.1-3.2L707,181v2.5H705.9z"/>
	<path class="st2" d="M711.9,176.1v-1.2h1.1v1.2H711.9z M711.9,183.5v-6.2h1.1v6.2H711.9z"/>
	<path class="st2" d="M714.6,183.5v-6.2h0.9v0.9c0.5-0.7,1.1-1,2-1c0.4,0,0.7,0.1,1,0.2s0.5,0.3,0.7,0.5s0.3,0.5,0.3,0.8
		c0,0.2,0.1,0.5,0.1,1v3.8h-1.1v-3.8c0-0.4,0-0.8-0.1-1s-0.2-0.4-0.4-0.5s-0.5-0.2-0.7-0.2c-0.4,0-0.8,0.1-1.2,0.4s-0.5,0.8-0.5,1.6
		v3.4H714.6z"/>
	<path class="st2" d="M721.1,184l1,0.2c0,0.3,0.2,0.5,0.4,0.7c0.3,0.2,0.6,0.3,1.1,0.3c0.5,0,0.9-0.1,1.1-0.3s0.4-0.5,0.5-0.8
		c0.1-0.2,0.1-0.7,0.1-1.4c-0.5,0.5-1,0.8-1.7,0.8c-0.9,0-1.5-0.3-2-0.9s-0.7-1.4-0.7-2.2c0-0.6,0.1-1.1,0.3-1.6s0.5-0.9,0.9-1.2
		s0.9-0.4,1.4-0.4c0.7,0,1.3,0.3,1.8,0.9v-0.8h1v5.4c0,1-0.1,1.7-0.3,2.1s-0.5,0.7-0.9,1s-1,0.4-1.6,0.4c-0.7,0-1.3-0.2-1.8-0.5
		S721.1,184.7,721.1,184z M721.9,180.3c0,0.8,0.2,1.4,0.5,1.8s0.7,0.6,1.2,0.6c0.5,0,0.9-0.2,1.2-0.6s0.5-1,0.5-1.8
		c0-0.8-0.2-1.3-0.5-1.7s-0.7-0.6-1.2-0.6c-0.5,0-0.9,0.2-1.2,0.6S721.9,179.5,721.9,180.3z"/>
</g>
<g class="st1">
	<path class="st2" d="M820.1,194.2l1.1,0.3c-0.2,0.9-0.7,1.6-1.3,2.1s-1.4,0.7-2.3,0.7c-0.9,0-1.7-0.2-2.3-0.6s-1-0.9-1.3-1.6
		s-0.5-1.5-0.5-2.3c0-0.9,0.2-1.7,0.5-2.3s0.8-1.2,1.5-1.5s1.3-0.5,2.1-0.5c0.9,0,1.6,0.2,2.2,0.7s1,1.1,1.2,1.8l-1.1,0.3
		c-0.2-0.6-0.5-1.1-0.9-1.4s-0.9-0.4-1.4-0.4c-0.7,0-1.2,0.2-1.7,0.5s-0.8,0.7-0.9,1.3s-0.3,1.1-0.3,1.6c0,0.7,0.1,1.4,0.3,1.9
		s0.5,1,1,1.2s0.9,0.4,1.5,0.4c0.6,0,1.2-0.2,1.6-0.6S819.9,194.9,820.1,194.2z"/>
	<path class="st2" d="M822.1,194.1c0-1.2,0.3-2,1-2.6c0.5-0.5,1.2-0.7,2-0.7c0.9,0,1.6,0.3,2.1,0.8s0.8,1.3,0.8,2.3
		c0,0.8-0.1,1.4-0.4,1.9s-0.6,0.8-1,1.1s-1,0.4-1.5,0.4c-0.9,0-1.6-0.3-2.1-0.8S822.1,195.1,822.1,194.1z M823.2,194.1
		c0,0.8,0.2,1.4,0.5,1.8s0.8,0.6,1.3,0.6c0.5,0,1-0.2,1.3-0.6s0.5-1,0.5-1.8c0-0.8-0.2-1.4-0.5-1.7s-0.8-0.6-1.3-0.6
		c-0.5,0-1,0.2-1.3,0.6S823.2,193.3,823.2,194.1z"/>
	<path class="st2" d="M828.8,194.1c0-1.2,0.3-2,1-2.6c0.5-0.5,1.2-0.7,2-0.7c0.9,0,1.6,0.3,2.1,0.8s0.8,1.3,0.8,2.3
		c0,0.8-0.1,1.4-0.4,1.9s-0.6,0.8-1,1.1s-1,0.4-1.5,0.4c-0.9,0-1.6-0.3-2.1-0.8S828.8,195.1,828.8,194.1z M829.8,194.1
		c0,0.8,0.2,1.4,0.5,1.8s0.8,0.6,1.3,0.6c0.5,0,1-0.2,1.3-0.6s0.5-1,0.5-1.8c0-0.8-0.2-1.4-0.5-1.7s-0.8-0.6-1.3-0.6
		c-0.5,0-1,0.2-1.3,0.6S829.8,193.3,829.8,194.1z"/>
	<path class="st2" d="M835.8,197.2V191h0.9v0.9c0.2-0.4,0.5-0.7,0.7-0.9s0.4-0.2,0.7-0.2c0.4,0,0.7,0.1,1.1,0.3l-0.4,1
		c-0.3-0.2-0.5-0.2-0.8-0.2c-0.2,0-0.4,0.1-0.6,0.2s-0.3,0.3-0.4,0.6c-0.1,0.4-0.2,0.8-0.2,1.2v3.3H835.8z"/>
	<path class="st2" d="M843.9,197.2v-0.8c-0.4,0.6-1,0.9-1.7,0.9c-0.5,0-1-0.1-1.4-0.4s-0.7-0.7-1-1.1s-0.3-1.1-0.3-1.7
		c0-0.6,0.1-1.2,0.3-1.7s0.5-0.9,0.9-1.2s0.9-0.4,1.4-0.4c0.4,0,0.7,0.1,1,0.2s0.5,0.4,0.7,0.6v-3.1h1v8.6H843.9z M840.5,194.1
		c0,0.8,0.2,1.4,0.5,1.8s0.7,0.6,1.2,0.6c0.5,0,0.9-0.2,1.2-0.6s0.5-1,0.5-1.7c0-0.9-0.2-1.5-0.5-1.9s-0.7-0.6-1.2-0.6
		c-0.5,0-0.9,0.2-1.2,0.6S840.5,193.3,840.5,194.1z"/>
	<path class="st2" d="M846.5,189.8v-1.2h1.1v1.2H846.5z M846.5,197.2V191h1.1v6.2H846.5z"/>
	<path class="st2" d="M849.2,197.2V191h0.9v0.9c0.5-0.7,1.1-1,2-1c0.4,0,0.7,0.1,1,0.2s0.5,0.3,0.7,0.5s0.3,0.5,0.3,0.8
		c0,0.2,0.1,0.5,0.1,1v3.8h-1.1v-3.8c0-0.4,0-0.8-0.1-1s-0.2-0.4-0.4-0.5s-0.5-0.2-0.7-0.2c-0.4,0-0.8,0.1-1.2,0.4s-0.5,0.8-0.5,1.6
		v3.4H849.2z"/>
	<path class="st2" d="M859.9,196.4c-0.4,0.3-0.8,0.6-1.1,0.7s-0.7,0.2-1.2,0.2c-0.7,0-1.2-0.2-1.6-0.5s-0.6-0.8-0.6-1.3
		c0-0.3,0.1-0.6,0.2-0.8s0.3-0.5,0.5-0.6s0.5-0.3,0.8-0.3c0.2-0.1,0.5-0.1,0.9-0.2c0.9-0.1,1.5-0.2,1.9-0.4c0-0.1,0-0.2,0-0.3
		c0-0.4-0.1-0.7-0.3-0.9c-0.3-0.2-0.7-0.4-1.2-0.4c-0.5,0-0.9,0.1-1.1,0.3s-0.4,0.5-0.5,0.9l-1-0.1c0.1-0.4,0.2-0.8,0.5-1.1
		s0.5-0.5,0.9-0.6s0.9-0.2,1.4-0.2c0.5,0,1,0.1,1.3,0.2s0.6,0.3,0.7,0.5s0.3,0.4,0.3,0.7c0,0.2,0.1,0.5,0.1,1v1.4c0,1,0,1.6,0.1,1.9
		s0.1,0.5,0.3,0.7h-1.1C860,197,859.9,196.7,859.9,196.4z M859.8,194.1c-0.4,0.2-1,0.3-1.7,0.4c-0.4,0.1-0.7,0.1-0.9,0.2
		s-0.3,0.2-0.4,0.3s-0.1,0.3-0.1,0.5c0,0.3,0.1,0.5,0.3,0.7s0.5,0.3,0.9,0.3c0.4,0,0.8-0.1,1.1-0.3s0.5-0.4,0.7-0.7
		c0.1-0.2,0.2-0.6,0.2-1.1V194.1z"/>
	<path class="st2" d="M864.8,196.3l0.2,0.9c-0.3,0.1-0.6,0.1-0.8,0.1c-0.4,0-0.7-0.1-0.9-0.2s-0.4-0.3-0.4-0.5s-0.1-0.6-0.1-1.2
		v-3.6h-0.8V191h0.8v-1.5l1-0.6v2.2h1.1v0.8h-1.1v3.6c0,0.3,0,0.5,0.1,0.6s0.1,0.2,0.2,0.2s0.2,0.1,0.4,0.1
		C864.5,196.3,864.6,196.3,864.8,196.3z"/>
	<path class="st2" d="M865.9,189.8v-1.2h1.1v1.2H865.9z M865.9,197.2V191h1.1v6.2H865.9z"/>
	<path class="st2" d="M868.1,194.1c0-1.2,0.3-2,1-2.6c0.5-0.5,1.2-0.7,2-0.7c0.9,0,1.6,0.3,2.1,0.8s0.8,1.3,0.8,2.3
		c0,0.8-0.1,1.4-0.4,1.9s-0.6,0.8-1,1.1s-1,0.4-1.5,0.4c-0.9,0-1.6-0.3-2.1-0.8S868.1,195.1,868.1,194.1z M869.2,194.1
		c0,0.8,0.2,1.4,0.5,1.8s0.8,0.6,1.3,0.6c0.5,0,1-0.2,1.3-0.6s0.5-1,0.5-1.8c0-0.8-0.2-1.4-0.5-1.7s-0.8-0.6-1.3-0.6
		c-0.5,0-1,0.2-1.3,0.6S869.2,193.3,869.2,194.1z"/>
	<path class="st2" d="M875.2,197.2V191h0.9v0.9c0.5-0.7,1.1-1,2-1c0.4,0,0.7,0.1,1,0.2s0.5,0.3,0.7,0.5s0.3,0.5,0.3,0.8
		c0,0.2,0.1,0.5,0.1,1v3.8h-1.1v-3.8c0-0.4,0-0.8-0.1-1s-0.2-0.4-0.4-0.5s-0.5-0.2-0.7-0.2c-0.4,0-0.8,0.1-1.2,0.4s-0.5,0.8-0.5,1.6
		v3.4H875.2z"/>
</g>
<g class="st1">
	<path class="st2" d="M827.9,180.6V172h6.2v1h-5.1v2.6h4.8v1h-4.8v2.9h5.3v1H827.9z"/>
	<path class="st2" d="M839.7,183v-3c-0.2,0.2-0.4,0.4-0.7,0.6s-0.6,0.2-0.9,0.2c-0.7,0-1.4-0.3-1.9-0.9s-0.8-1.4-0.8-2.4
		c0-0.6,0.1-1.2,0.3-1.7s0.5-0.9,0.9-1.1s0.9-0.4,1.4-0.4c0.8,0,1.4,0.3,1.8,1v-0.8h0.9v8.6H839.7z M836.5,177.5
		c0,0.8,0.2,1.4,0.5,1.8s0.7,0.6,1.2,0.6c0.4,0,0.8-0.2,1.2-0.6s0.5-1,0.5-1.7c0-0.8-0.2-1.5-0.5-1.9s-0.7-0.6-1.2-0.6
		c-0.5,0-0.8,0.2-1.2,0.6S836.5,176.6,836.5,177.5z"/>
	<path class="st2" d="M846.5,180.6v-0.9c-0.5,0.7-1.1,1.1-2,1.1c-0.4,0-0.7-0.1-1-0.2s-0.6-0.3-0.7-0.5s-0.3-0.5-0.3-0.8
		c0-0.2-0.1-0.5-0.1-1v-3.9h1.1v3.5c0,0.6,0,0.9,0.1,1.1c0.1,0.3,0.2,0.5,0.4,0.7s0.5,0.2,0.8,0.2s0.6-0.1,0.9-0.2s0.5-0.4,0.6-0.7
		s0.2-0.7,0.2-1.2v-3.3h1.1v6.2H846.5z"/>
	<path class="st2" d="M849.1,173.2V172h1.1v1.2H849.1z M849.1,180.6v-6.2h1.1v6.2H849.1z"/>
	<path class="st2" d="M851.8,183v-8.6h1v0.8c0.2-0.3,0.5-0.6,0.8-0.7s0.6-0.2,1-0.2c0.5,0,1,0.1,1.4,0.4s0.7,0.7,0.9,1.2
		s0.3,1,0.3,1.6c0,0.6-0.1,1.2-0.3,1.7s-0.6,0.9-1,1.2s-0.9,0.4-1.4,0.4c-0.4,0-0.7-0.1-0.9-0.2s-0.5-0.3-0.7-0.6v3H851.8z
		 M852.7,177.5c0,0.8,0.2,1.4,0.5,1.8s0.7,0.6,1.2,0.6c0.5,0,0.9-0.2,1.2-0.6s0.5-1,0.5-1.8c0-0.8-0.2-1.4-0.5-1.8s-0.7-0.6-1.2-0.6
		c-0.4,0-0.8,0.2-1.2,0.6S852.7,176.7,852.7,177.5z"/>
	<path class="st2" d="M858.6,180.6V172h6.2v1h-5.1v2.6h4.8v1h-4.8v2.9h5.3v1H858.6z"/>
	<path class="st2" d="M865.8,180.6l2.3-3.2l-2.1-3h1.3l1,1.5c0.2,0.3,0.3,0.5,0.4,0.7c0.2-0.3,0.3-0.5,0.5-0.7l1-1.5h1.3l-2.2,2.9
		l2.3,3.3h-1.3l-1.3-1.9l-0.3-0.5l-1.6,2.5H865.8z"/>
</g>
<g>
	<circle class="st3" cx="69.6" cy="70.1" r="62.6"/>
	<circle class="st3" cx="225.6" cy="70.1" r="62.6"/>
	<circle class="st3" cx="381.6" cy="70.1" r="62.6"/>
	
		<ellipse transform="matrix(0.7071 -0.7071 0.7071 0.7071 107.888 400.6679)" class="st3" cx="537.6" cy="70.1" rx="62.6" ry="62.6"/>
	<circle class="st3" cx="693.6" cy="70.1" r="62.6"/>
	<circle class="st3" cx="849.6" cy="70.1" r="62.6"/>
</g>
<g>
	<g>
		<circle class="st3" cx="69.7" cy="50.6" r="11"/>
		<g>
			<path class="st4" d="M59.7,61c-1.5,0.5-2.9,1.2-4.2,2.1c-1.5,1-2.9,2.2-4.1,3.6"/>
			<path class="st4" d="M79.5,61c1.5,0.5,2.9,1.2,4.3,2.1c1.7,1.1,3.2,2.4,4.4,4.1"/>
		</g>
	</g>
	<g>
		<path class="st5" d="M43.6,77.6c6,0,11-4.9,11-11s-4.9-11-11-11c-6,0-11,4.9-11,11S37.5,77.6,43.6,77.6z"/>
		<path class="st4" d="M33.6,77.1c-6.2,2.2-11,7.2-12.9,15.4"/>
		<path class="st4" d="M53.4,77c6.2,2.1,11.1,7.2,13.1,15.5"/>
	</g>
	<g>
		<path class="st5" d="M96.7,77.6c6,0,11-4.9,11-11s-4.9-11-11-11c-6,0-11,4.9-11,11S90.7,77.6,96.7,77.6z"/>
		<path class="st4" d="M86.8,77.1c-6.2,2.2-11,7.2-12.9,15.4"/>
		<path class="st4" d="M106.5,77c6.2,2.1,11.1,7.2,13.1,15.5"/>
	</g>
</g>
<g>
	<g>
		<path class="st5" d="M206,76.6c6,0,11-4.9,11-11s-4.9-11-11-11c-6,0-11,4.9-11,11S200,76.6,206,76.6z"/>
		<path class="st4" d="M196.1,76.1c-6.2,2.2-11,7.2-12.9,15.4"/>
		<path class="st4" d="M215.8,76c6.2,2.1,11.1,7.2,13.1,15.5"/>
	</g>
	<g>
		<path class="st5" d="M245.2,76.6c6,0,11-4.9,11-11s-4.9-11-11-11c-6,0-11,4.9-11,11S239.2,76.6,245.2,76.6z"/>
		<path class="st4" d="M235.3,76.1c-2.8,1-5.3,2.6-7.4,4.8"/>
		<path class="st4" d="M255,76c6.2,2.1,11.1,7.2,13.1,15.5"/>
	</g>
</g>
<g>
	<g>
		<path class="st5" d="M674,76.6c6,0,11-4.9,11-11s-4.9-11-11-11c-6,0-11,4.9-11,11S667.9,76.6,674,76.6z"/>
		<path class="st4" d="M664,76.1c-6.2,2.2-11,7.2-12.9,15.4"/>
		<path class="st4" d="M683.8,76c6.2,2.1,11.1,7.2,13.1,15.5"/>
	</g>
	<g>
		<path class="st5" d="M713.2,76.6c6,0,11-4.9,11-11s-4.9-11-11-11c-6,0-11,4.9-11,11S707.1,76.6,713.2,76.6z"/>
		<path class="st4" d="M703.2,76.1c-2.8,1-5.3,2.6-7.4,4.8"/>
		<path class="st4" d="M723,76c6.2,2.1,11.1,7.2,13.1,15.5"/>
	</g>
</g>
<g>
	<g>
		<path class="st5" d="M830,76.6c6,0,11-4.9,11-11s-4.9-11-11-11c-6,0-11,4.9-11,11S823.9,76.6,830,76.6z"/>
		<path class="st4" d="M820,76.1c-6.2,2.2-11,7.2-12.9,15.4"/>
		<path class="st4" d="M839.8,76c6.2,2.1,11.1,7.2,13.1,15.5"/>
	</g>
	<g>
		<path class="st5" d="M869.2,76.6c6,0,11-4.9,11-11s-4.9-11-11-11c-6,0-11,4.9-11,11S863.1,76.6,869.2,76.6z"/>
		<path class="st4" d="M859.2,76.1c-2.8,1-5.3,2.6-7.4,4.8"/>
		<path class="st4" d="M879,76c6.2,2.1,11.1,7.2,13.1,15.5"/>
	</g>
</g>
<g>
	<g>
		<circle class="st3" cx="381.7" cy="50.9" r="11"/>
		<g>
			<path class="st4" d="M371.8,61.4c-1.5,0.5-2.9,1.2-4.2,2.1c-1.5,1-2.9,2.2-4.1,3.6"/>
			<path class="st4" d="M391.5,61.3c1.5,0.5,2.9,1.2,4.3,2.1c1.7,1.1,3.2,2.4,4.4,4.1"/>
		</g>
	</g>
	<g>
		<g>
			<g>
				<circle class="st3" cx="355.6" cy="66.8" r="11"/>
				<g>
					<path class="st4" d="M345.7,77.3c-5.5,1.9-9.9,6.1-12.2,12.8"/>
					<path class="st4" d="M365.4,77.2c2.3,0.8,4.5,2,6.4,3.6"/>
				</g>
			</g>
		</g>
		<g>
			<g>
				<circle class="st3" cx="408.8" cy="66.8" r="11"/>
				<g>
					<path class="st4" d="M398.8,77.3c-2.1,0.8-4.1,1.8-5.8,3.3"/>
					<path class="st4" d="M418.5,77.2c5.7,2,10.4,6.4,12.6,13.6"/>
				</g>
			</g>
		</g>
	</g>
	<g>
		<path class="st5" d="M382.4,94c6,0,11-4.9,11-11s-4.9-11-11-11c-6,0-11,4.9-11,11S376.4,94,382.4,94z"/>
		<path class="st4" d="M372.5,93.5c-6.2,2.2-11,7.2-12.9,15.4"/>
		<path class="st4" d="M392.2,93.4c6.2,2.1,11.1,7.2,13.1,15.5"/>
	</g>
</g>
<rect x="6.7" y="16.2" class="st0" width="125.4" height="15.3"/>
<rect x="163.6" y="16.2" class="st0" width="125.4" height="15.3"/>
<rect x="319.6" y="16.2" class="st0" width="125.4" height="15.3"/>
<rect x="475.6" y="16.2" class="st0" width="125.4" height="15.3"/>
<rect x="631.7" y="16.2" class="st0" width="125.4" height="15.3"/>
<rect x="787.7" y="16.2" class="st0" width="125.4" height="15.3"/>
<g>
	<g>
		<g>
			
				<ellipse transform="matrix(0.4641 -0.8858 0.8858 0.4641 236.4429 475.3886)" class="st3" cx="511.1" cy="42.3" rx="11" ry="11"/>
			<g>
				<path class="st4" d="M487.8,70.1c1.6-9.4,6.7-14.9,13.3-17.3"/>
				<path class="st4" d="M520.9,52.7c5.7,2,10.3,6.4,12.5,13.5"/>
			</g>
		</g>
	</g>
	<g>
		<g>
			<circle class="st3" cx="564.2" cy="42.3" r="11"/>
			<g>
				<path class="st4" d="M554.2,52.8c-5.5,2-10,6.2-12.2,13"/>
				<path class="st4" d="M574,52.7c6.7,2.3,11.8,7.9,13.5,17.3"/>
			</g>
		</g>
	</g>
	<g>
		<circle class="st3" cx="537.2" cy="56.8" r="11"/>
		<g>
			<path class="st4" d="M527.2,67.3c-1.5,0.5-2.9,1.2-4.2,2.1c-1.5,1-2.9,2.2-4.1,3.6"/>
			<path class="st4" d="M546.9,67.2c1.5,0.5,2.9,1.2,4.3,2.1c1.7,1.1,3.2,2.4,4.4,4.1"/>
		</g>
	</g>
	<g>
		<g>
			<g>
				
					<ellipse transform="matrix(0.4641 -0.8858 0.8858 0.4641 209.5155 491.6806)" class="st3" cx="511.1" cy="72.7" rx="11" ry="11"/>
				<g>
					<path class="st4" d="M501.1,83.1c-5.5,1.9-9.9,6.1-12.2,12.8"/>
					<path class="st4" d="M520.9,83.1c2.3,0.8,4.5,2,6.4,3.6"/>
				</g>
			</g>
		</g>
		<g>
			<g>
				<circle class="st3" cx="564.2" cy="72.7" r="11"/>
				<g>
					<path class="st4" d="M554.2,83.1c-2.1,0.8-4.1,1.8-5.8,3.3"/>
					<path class="st4" d="M574,83.1c5.7,2,10.4,6.4,12.6,13.6"/>
				</g>
			</g>
		</g>
	</g>
	<g>
		<path class="st5" d="M537.9,99.9c6,0,11-4.9,11-11s-4.9-11-11-11c-6,0-11,4.9-11,11S531.8,99.9,537.9,99.9z"/>
		<path class="st4" d="M527.9,99.4c-6.2,2.2-11,7.2-12.9,15.4"/>
		<path class="st4" d="M547.6,99.3c6.2,2.1,11.1,7.2,13.1,15.5"/>
	</g>
</g>
</svg>
